G04*
G04 #@! TF.GenerationSoftware,Altium Limited,Altium Designer,23.9.2 (47)*
G04*
G04 Layer_Color=8421504*
%FSLAX44Y44*%
%MOMM*%
G71*
G04*
G04 #@! TF.SameCoordinates,8F5B2CAB-9582-47EE-AD33-95BA57DA0C1B*
G04*
G04*
G04 #@! TF.FilePolarity,Positive*
G04*
G01*
G75*
%ADD18C,0.1250*%
%ADD19R,1.2154X0.6154*%
%ADD20R,1.0500X1.0500*%
%ADD21R,1.0500X1.0500*%
%ADD22R,0.7500X1.5500*%
%ADD23R,0.7500X1.5500*%
%ADD24R,1.5500X0.7500*%
%ADD25R,1.5500X0.7500*%
%ADD26R,1.7600X0.9300*%
%ADD27R,0.2500X0.7500*%
%ADD28R,0.2500X0.7500*%
%ADD29R,0.2500X0.7500*%
%ADD30R,0.2500X0.7500*%
%ADD31C,0.5000*%
%ADD32R,0.5400X0.5800*%
%ADD33R,0.5500X0.5500*%
G04:AMPARAMS|DCode=34|XSize=2.4mm|YSize=3.38mm|CornerRadius=0.048mm|HoleSize=0mm|Usage=FLASHONLY|Rotation=0.000|XOffset=0mm|YOffset=0mm|HoleType=Round|Shape=RoundedRectangle|*
%AMROUNDEDRECTD34*
21,1,2.4000,3.2840,0,0,0.0*
21,1,2.3040,3.3800,0,0,0.0*
1,1,0.0960,1.1520,-1.6420*
1,1,0.0960,-1.1520,-1.6420*
1,1,0.0960,-1.1520,1.6420*
1,1,0.0960,1.1520,1.6420*
%
%ADD34ROUNDEDRECTD34*%
G04:AMPARAMS|DCode=35|XSize=0.35mm|YSize=1.45mm|CornerRadius=0.0508mm|HoleSize=0mm|Usage=FLASHONLY|Rotation=90.000|XOffset=0mm|YOffset=0mm|HoleType=Round|Shape=RoundedRectangle|*
%AMROUNDEDRECTD35*
21,1,0.3500,1.3485,0,0,90.0*
21,1,0.2485,1.4500,0,0,90.0*
1,1,0.1015,0.6743,0.1243*
1,1,0.1015,0.6743,-0.1243*
1,1,0.1015,-0.6743,-0.1243*
1,1,0.1015,-0.6743,0.1243*
%
%ADD35ROUNDEDRECTD35*%
%ADD36R,1.5082X1.3061*%
%ADD37R,0.5000X0.6000*%
%ADD38R,1.0000X0.7500*%
%ADD39R,0.7581X0.8121*%
%ADD40R,1.0300X1.0000*%
%ADD41R,0.4800X1.8000*%
%ADD42R,0.6500X1.3000*%
%ADD43R,1.6000X1.4000*%
%ADD44R,1.3000X1.5500*%
%ADD45R,0.4000X1.3500*%
%ADD46R,1.5000X1.9000*%
%ADD47R,0.4200X0.2200*%
%ADD48R,0.6500X0.9000*%
%ADD49R,0.9000X0.7500*%
%ADD50R,0.5800X0.5400*%
%ADD51R,0.5000X0.4500*%
%ADD52R,0.4500X0.5000*%
%ADD53R,0.6000X0.5500*%
G04:AMPARAMS|DCode=54|XSize=0.76mm|YSize=0.6604mm|CornerRadius=0.0825mm|HoleSize=0mm|Usage=FLASHONLY|Rotation=0.000|XOffset=0mm|YOffset=0mm|HoleType=Round|Shape=RoundedRectangle|*
%AMROUNDEDRECTD54*
21,1,0.7600,0.4953,0,0,0.0*
21,1,0.5949,0.6604,0,0,0.0*
1,1,0.1651,0.2975,-0.2477*
1,1,0.1651,-0.2975,-0.2477*
1,1,0.1651,-0.2975,0.2477*
1,1,0.1651,0.2975,0.2477*
%
%ADD54ROUNDEDRECTD54*%
%ADD55R,3.6800X1.2700*%
%ADD56R,0.8000X0.9000*%
%ADD57R,0.8000X0.8000*%
%ADD58R,0.9000X0.9500*%
%ADD59R,0.6500X0.6500*%
G04:AMPARAMS|DCode=60|XSize=0.55mm|YSize=0.5mm|CornerRadius=0.0625mm|HoleSize=0mm|Usage=FLASHONLY|Rotation=0.000|XOffset=0mm|YOffset=0mm|HoleType=Round|Shape=RoundedRectangle|*
%AMROUNDEDRECTD60*
21,1,0.5500,0.3750,0,0,0.0*
21,1,0.4250,0.5000,0,0,0.0*
1,1,0.1250,0.2125,-0.1875*
1,1,0.1250,-0.2125,-0.1875*
1,1,0.1250,-0.2125,0.1875*
1,1,0.1250,0.2125,0.1875*
%
%ADD60ROUNDEDRECTD60*%
%ADD61R,0.6500X0.6500*%
G04:AMPARAMS|DCode=62|XSize=0.55mm|YSize=0.5mm|CornerRadius=0.0625mm|HoleSize=0mm|Usage=FLASHONLY|Rotation=270.000|XOffset=0mm|YOffset=0mm|HoleType=Round|Shape=RoundedRectangle|*
%AMROUNDEDRECTD62*
21,1,0.5500,0.3750,0,0,270.0*
21,1,0.4250,0.5000,0,0,270.0*
1,1,0.1250,-0.1875,-0.2125*
1,1,0.1250,-0.1875,0.2125*
1,1,0.1250,0.1875,0.2125*
1,1,0.1250,0.1875,-0.2125*
%
%ADD62ROUNDEDRECTD62*%
G04:AMPARAMS|DCode=63|XSize=0.76mm|YSize=0.6604mm|CornerRadius=0.0825mm|HoleSize=0mm|Usage=FLASHONLY|Rotation=90.000|XOffset=0mm|YOffset=0mm|HoleType=Round|Shape=RoundedRectangle|*
%AMROUNDEDRECTD63*
21,1,0.7600,0.4953,0,0,90.0*
21,1,0.5949,0.6604,0,0,90.0*
1,1,0.1651,0.2477,0.2975*
1,1,0.1651,0.2477,-0.2975*
1,1,0.1651,-0.2477,-0.2975*
1,1,0.1651,-0.2477,0.2975*
%
%ADD63ROUNDEDRECTD63*%
%ADD64R,0.5153X0.4725*%
%ADD65R,0.4725X0.5153*%
G04:AMPARAMS|DCode=66|XSize=0.65mm|YSize=1.65mm|CornerRadius=0.0488mm|HoleSize=0mm|Usage=FLASHONLY|Rotation=180.000|XOffset=0mm|YOffset=0mm|HoleType=Round|Shape=RoundedRectangle|*
%AMROUNDEDRECTD66*
21,1,0.6500,1.5525,0,0,180.0*
21,1,0.5525,1.6500,0,0,180.0*
1,1,0.0975,-0.2763,0.7763*
1,1,0.0975,0.2763,0.7763*
1,1,0.0975,0.2763,-0.7763*
1,1,0.0975,-0.2763,-0.7763*
%
%ADD66ROUNDEDRECTD66*%
%ADD67R,0.6250X0.8500*%
%ADD68R,1.0500X2.2000*%
%ADD69R,1.0000X1.0500*%
%ADD70R,3.7000X1.4000*%
%ADD71R,5.6000X2.6000*%
%ADD72R,0.9682X1.0065*%
%ADD73R,1.3562X1.1544*%
%ADD74R,0.2925X0.5561*%
G04:AMPARAMS|DCode=75|XSize=0.5561mm|YSize=0.2925mm|CornerRadius=0.1462mm|HoleSize=0mm|Usage=FLASHONLY|Rotation=90.000|XOffset=0mm|YOffset=0mm|HoleType=Round|Shape=RoundedRectangle|*
%AMROUNDEDRECTD75*
21,1,0.5561,0.0000,0,0,90.0*
21,1,0.2636,0.2925,0,0,90.0*
1,1,0.2925,0.0000,0.1318*
1,1,0.2925,0.0000,-0.1318*
1,1,0.2925,0.0000,-0.1318*
1,1,0.2925,0.0000,0.1318*
%
%ADD75ROUNDEDRECTD75*%
%ADD76R,0.8000X0.8000*%
%ADD77R,0.3500X1.3500*%
%ADD78R,0.5500X0.5000*%
%ADD79R,0.9000X2.0000*%
%ADD80R,2.0000X0.9000*%
%ADD81R,1.3300X1.3300*%
%ADD82R,0.9500X0.9000*%
%ADD83R,2.2000X1.0500*%
%ADD84R,1.0500X1.0000*%
%ADD85R,1.5000X0.7000*%
%ADD86R,1.5000X1.0000*%
%ADD87R,0.7000X1.5000*%
%ADD88R,0.5000X0.5500*%
%ADD89R,0.9500X0.8000*%
%ADD90R,1.3500X0.3500*%
%ADD91R,0.2425X0.8810*%
G04:AMPARAMS|DCode=92|XSize=0.881mm|YSize=0.2425mm|CornerRadius=0.1212mm|HoleSize=0mm|Usage=FLASHONLY|Rotation=90.000|XOffset=0mm|YOffset=0mm|HoleType=Round|Shape=RoundedRectangle|*
%AMROUNDEDRECTD92*
21,1,0.8810,0.0000,0,0,90.0*
21,1,0.6385,0.2425,0,0,90.0*
1,1,0.2425,0.0000,0.3193*
1,1,0.2425,0.0000,-0.3193*
1,1,0.2425,0.0000,-0.3193*
1,1,0.2425,0.0000,0.3193*
%
%ADD92ROUNDEDRECTD92*%
G36*
X2012510Y1760330D02*
X2007510D01*
X2007510Y1769330D01*
X2012510D01*
Y1760330D01*
D02*
G37*
G36*
X2025510Y1755330D02*
X2012510D01*
Y1774330D01*
X2025510D01*
Y1755330D01*
D02*
G37*
G36*
X2084510D02*
X2071510D01*
Y1774330D01*
X2084510D01*
Y1755330D01*
D02*
G37*
G36*
X2089510Y1760330D02*
X2084510D01*
Y1769330D01*
X2089510D01*
X2089510Y1760330D01*
D02*
G37*
D18*
X1226175Y1733550D02*
G03*
X1226175Y1733550I-625J0D01*
G01*
Y1729550D02*
G03*
X1226175Y1729550I-625J0D01*
G01*
Y1725550D02*
G03*
X1226175Y1725550I-625J0D01*
G01*
X1222175D02*
G03*
X1222175Y1725550I-625J0D01*
G01*
Y1729550D02*
G03*
X1222175Y1729550I-625J0D01*
G01*
Y1733550D02*
G03*
X1222175Y1733550I-625J0D01*
G01*
D19*
X1046480Y1412240D02*
D03*
D20*
X2033700Y616760D02*
D03*
X1928700D02*
D03*
X2033700Y652760D02*
D03*
X1928700D02*
D03*
X2033700Y713760D02*
D03*
X1928700D02*
D03*
X2033700Y749760D02*
D03*
X1928700D02*
D03*
X2033700Y580760D02*
D03*
X1991700D02*
D03*
X1970700D02*
D03*
X1949700D02*
D03*
X1928700D02*
D03*
X2033700Y598760D02*
D03*
X1991700D02*
D03*
X1970700D02*
D03*
X1949700D02*
D03*
X1928700D02*
D03*
X2033700Y767760D02*
D03*
X1991700D02*
D03*
X1970700D02*
D03*
X1949700D02*
D03*
X1928700D02*
D03*
X2033700Y785760D02*
D03*
X1991700D02*
D03*
X1970700D02*
D03*
X1949700D02*
D03*
X1928700D02*
D03*
D21*
X2012700Y580760D02*
D03*
Y598760D02*
D03*
Y767760D02*
D03*
Y785760D02*
D03*
D22*
X1926200Y803260D02*
D03*
X1937200D02*
D03*
X1959200D02*
D03*
X1981200D02*
D03*
X2003200D02*
D03*
X2014200D02*
D03*
X2025200D02*
D03*
X2036200D02*
D03*
Y563260D02*
D03*
X2025200D02*
D03*
X2014200D02*
D03*
X2003200D02*
D03*
X1981200D02*
D03*
X1959200D02*
D03*
X1937200D02*
D03*
X1926200D02*
D03*
D23*
X1948200Y803260D02*
D03*
X1970200D02*
D03*
X1992200D02*
D03*
Y563260D02*
D03*
X1970200D02*
D03*
X1948200D02*
D03*
D24*
X2051200Y793260D02*
D03*
Y694260D02*
D03*
Y672260D02*
D03*
Y650260D02*
D03*
Y573260D02*
D03*
X1911200D02*
D03*
Y650260D02*
D03*
Y672260D02*
D03*
Y694260D02*
D03*
Y793260D02*
D03*
D25*
X2051200Y782260D02*
D03*
Y771260D02*
D03*
Y760260D02*
D03*
Y749260D02*
D03*
Y738260D02*
D03*
Y727260D02*
D03*
Y716260D02*
D03*
Y705260D02*
D03*
Y683260D02*
D03*
Y661260D02*
D03*
Y639260D02*
D03*
Y628260D02*
D03*
Y617260D02*
D03*
Y606260D02*
D03*
Y595260D02*
D03*
Y584260D02*
D03*
X1911200D02*
D03*
Y595260D02*
D03*
Y606260D02*
D03*
Y617260D02*
D03*
Y628260D02*
D03*
Y639260D02*
D03*
Y661260D02*
D03*
Y683260D02*
D03*
Y705260D02*
D03*
Y716260D02*
D03*
Y727260D02*
D03*
Y738260D02*
D03*
Y749260D02*
D03*
Y760260D02*
D03*
Y771260D02*
D03*
Y782260D02*
D03*
D26*
X1214172Y1435100D02*
D03*
D27*
X1456810Y1400550D02*
D03*
X1461810D02*
D03*
X1466810D02*
D03*
X1471810D02*
D03*
X1456810Y1431550D02*
D03*
X1461810D02*
D03*
X1466810D02*
D03*
X1471810D02*
D03*
X1587540Y1429010D02*
D03*
X1582540D02*
D03*
X1592540Y1398010D02*
D03*
X1587540D02*
D03*
X1582540D02*
D03*
X1671440Y1400550D02*
D03*
X1676440D02*
D03*
X1681440D02*
D03*
X1671440Y1431550D02*
D03*
X1676440D02*
D03*
X1376640Y1398010D02*
D03*
X1381640D02*
D03*
X1371640Y1429010D02*
D03*
D28*
X1597540D02*
D03*
Y1398010D02*
D03*
X1686440Y1400550D02*
D03*
Y1431550D02*
D03*
X1366640Y1429010D02*
D03*
D29*
X1592540Y1429010D02*
D03*
X1681440Y1431550D02*
D03*
X1371640Y1398010D02*
D03*
X1376640Y1429010D02*
D03*
X1381640D02*
D03*
D30*
X1366640Y1398010D02*
D03*
D31*
X2087010Y1760330D02*
G03*
X2083510Y1762621I-2500J0D01*
G01*
Y1758039D02*
G03*
X2087010Y1760330I1000J2291D01*
G01*
X2083510Y1762621D02*
G03*
X2083510Y1758039I1000J-2291D01*
G01*
X2015010Y1769330D02*
G03*
X2015010Y1769330I-2500J0D01*
G01*
X2087010Y1769330D02*
G03*
X2087010Y1769330I-2500J0D01*
G01*
X2015010Y1760330D02*
G03*
X2013510Y1762621I-2500J0D01*
G01*
D02*
G03*
X2013510Y1758039I-1000J-2291D01*
G01*
D02*
G03*
X2015010Y1760330I-1000J2291D01*
G01*
D32*
X660400Y1344840D02*
D03*
Y1352640D02*
D03*
X2463800Y762100D02*
D03*
Y769900D02*
D03*
X2080260Y801460D02*
D03*
Y793660D02*
D03*
X1719580Y1362990D02*
D03*
Y1355190D02*
D03*
X1626870Y1371690D02*
D03*
Y1363890D02*
D03*
X1257300Y1422490D02*
D03*
Y1414690D02*
D03*
X1140460Y826860D02*
D03*
Y819060D02*
D03*
X923290Y1442810D02*
D03*
Y1435010D02*
D03*
X1097280Y1442630D02*
D03*
Y1450430D02*
D03*
X1441450Y916940D02*
D03*
Y924740D02*
D03*
X1516380Y921840D02*
D03*
Y929640D02*
D03*
X1565910Y921840D02*
D03*
Y929640D02*
D03*
X1619250Y848540D02*
D03*
Y840740D02*
D03*
X1681480Y1137830D02*
D03*
Y1145630D02*
D03*
X1389380Y1223010D02*
D03*
Y1230810D02*
D03*
X1362710Y1228090D02*
D03*
Y1235890D02*
D03*
X1214120Y909230D02*
D03*
Y917030D02*
D03*
X1286510Y979260D02*
D03*
Y971460D02*
D03*
X689610Y1603830D02*
D03*
Y1611630D02*
D03*
D33*
X838890Y1318260D02*
D03*
X829890D02*
D03*
D34*
X763270Y1314450D02*
D03*
D35*
X793020Y1285200D02*
D03*
Y1291700D02*
D03*
Y1298200D02*
D03*
Y1304700D02*
D03*
Y1311200D02*
D03*
Y1317700D02*
D03*
Y1324200D02*
D03*
Y1330700D02*
D03*
Y1337200D02*
D03*
Y1343700D02*
D03*
X733520Y1285200D02*
D03*
Y1291700D02*
D03*
Y1298200D02*
D03*
Y1304700D02*
D03*
Y1311200D02*
D03*
Y1317700D02*
D03*
Y1324200D02*
D03*
Y1330700D02*
D03*
Y1337200D02*
D03*
Y1343700D02*
D03*
D36*
X1916430Y1625999D02*
D03*
Y1645521D02*
D03*
D37*
X2104310Y1492250D02*
D03*
X2094310D02*
D03*
X1837770Y1690370D02*
D03*
X1847770D02*
D03*
D38*
X2148840Y1382000D02*
D03*
Y1397000D02*
D03*
D39*
X2108280Y1419860D02*
D03*
X2120820D02*
D03*
D40*
X2393700Y449600D02*
D03*
X2483000D02*
D03*
D41*
X2391650Y506800D02*
D03*
Y564300D02*
D03*
X2484950D02*
D03*
Y506800D02*
D03*
D42*
X2470150Y571500D02*
D03*
X2432050D02*
D03*
X2406650D02*
D03*
X2457450D02*
D03*
X2444750D02*
D03*
X2419350D02*
D03*
D43*
X811530Y1655050D02*
D03*
Y1685050D02*
D03*
X1691640Y1568690D02*
D03*
Y1598690D02*
D03*
D44*
X1055730Y850520D02*
D03*
X1100730D02*
D03*
X1055730Y930020D02*
D03*
X1100730D02*
D03*
D45*
X2057260Y294970D02*
D03*
X2063760D02*
D03*
X2070260D02*
D03*
X2076760D02*
D03*
X2083260D02*
D03*
X2035510Y1737830D02*
D03*
X2042010D02*
D03*
X2048510D02*
D03*
X2055010D02*
D03*
X2061510D02*
D03*
D46*
X2060260Y267970D02*
D03*
X2080260D02*
D03*
X2038510Y1764830D02*
D03*
X2058510D02*
D03*
D47*
X2162960Y1600200D02*
D03*
Y1604200D02*
D03*
Y1608200D02*
D03*
X2156460Y1600200D02*
D03*
Y1604200D02*
D03*
Y1608200D02*
D03*
D48*
X1699920Y647000D02*
D03*
X1718920D02*
D03*
Y623000D02*
D03*
X1709420D02*
D03*
X1699920D02*
D03*
D49*
X2344420Y707040D02*
D03*
Y695040D02*
D03*
X2418080Y770540D02*
D03*
Y758540D02*
D03*
X2312670Y668940D02*
D03*
Y656940D02*
D03*
X2371090Y743870D02*
D03*
Y731870D02*
D03*
X2099310Y1084230D02*
D03*
Y1072230D02*
D03*
D50*
X1690280Y591820D02*
D03*
X1698080D02*
D03*
X652690Y527050D02*
D03*
X660490D02*
D03*
X1170850Y1385570D02*
D03*
X1178650D02*
D03*
X1588860Y1220470D02*
D03*
X1581060D02*
D03*
X1374050Y1139190D02*
D03*
X1381850D02*
D03*
X1802220Y1013460D02*
D03*
X1794420D02*
D03*
X1838870Y1098550D02*
D03*
X1846670D02*
D03*
X1520100Y1261110D02*
D03*
X1527900D02*
D03*
D51*
X835660Y1066800D02*
D03*
X843160D02*
D03*
X2184460Y1158240D02*
D03*
X2191960D02*
D03*
X1339850Y1733550D02*
D03*
X1347350D02*
D03*
D52*
X2123440Y861120D02*
D03*
Y868620D02*
D03*
X2156460Y1203900D02*
D03*
Y1196400D02*
D03*
X1389380Y1741050D02*
D03*
Y1733550D02*
D03*
D53*
X1802130Y1598760D02*
D03*
Y1609260D02*
D03*
D54*
X829310Y1284590D02*
D03*
Y1298590D02*
D03*
D55*
X989980Y1671320D02*
D03*
Y1645920D02*
D03*
Y1620520D02*
D03*
Y1595120D02*
D03*
X1039480D02*
D03*
Y1671320D02*
D03*
Y1645920D02*
D03*
Y1620520D02*
D03*
D56*
X1875130Y1625440D02*
D03*
X1856130D02*
D03*
X1865630Y1605440D02*
D03*
D57*
X1817250Y1562100D02*
D03*
X1802250D02*
D03*
D58*
X1993390Y1682750D02*
D03*
X2024890D02*
D03*
D59*
X2015490Y1154590D02*
D03*
Y1164590D02*
D03*
X2033270Y976550D02*
D03*
Y966550D02*
D03*
X1592580Y1534080D02*
D03*
Y1524080D02*
D03*
X1659890Y1568370D02*
D03*
Y1558370D02*
D03*
X680720Y467440D02*
D03*
Y477440D02*
D03*
X854710Y1654730D02*
D03*
Y1644730D02*
D03*
D60*
X2052320Y1177870D02*
D03*
Y1186870D02*
D03*
X981710Y1443410D02*
D03*
Y1434410D02*
D03*
X1127760Y1444680D02*
D03*
Y1435680D02*
D03*
X990600Y842700D02*
D03*
Y833700D02*
D03*
X817880Y993830D02*
D03*
Y984830D02*
D03*
X1187450Y926520D02*
D03*
Y917520D02*
D03*
X1153160Y939110D02*
D03*
Y948110D02*
D03*
X1257300Y1472620D02*
D03*
Y1463620D02*
D03*
X1600200Y1369060D02*
D03*
Y1378060D02*
D03*
X1696720Y1375520D02*
D03*
Y1366520D02*
D03*
D61*
X1197690Y1668780D02*
D03*
X1207690D02*
D03*
X772240Y1524000D02*
D03*
X782240D02*
D03*
X1098630Y1510030D02*
D03*
X1108630D02*
D03*
D62*
X672410Y440690D02*
D03*
X681410D02*
D03*
X1694760Y833120D02*
D03*
X1703760D02*
D03*
X690300Y515620D02*
D03*
X681300D02*
D03*
X1202110Y1361440D02*
D03*
X1193110D02*
D03*
D63*
X654670Y492760D02*
D03*
X668670D02*
D03*
D64*
X693444Y1504950D02*
D03*
X701016D02*
D03*
D65*
X1565910Y1537946D02*
D03*
Y1530374D02*
D03*
X1638300Y764564D02*
D03*
Y772136D02*
D03*
Y848336D02*
D03*
Y840764D02*
D03*
D66*
X1617980Y1613210D02*
D03*
X1605280D02*
D03*
X1592580D02*
D03*
X1579880D02*
D03*
X1617980Y1556710D02*
D03*
X1605280D02*
D03*
X1592580D02*
D03*
X1579880D02*
D03*
X736600Y1578300D02*
D03*
X749300D02*
D03*
X762000D02*
D03*
X774700D02*
D03*
X736600Y1634800D02*
D03*
X749300D02*
D03*
X762000D02*
D03*
X774700D02*
D03*
D67*
X2147295Y1125220D02*
D03*
X2160545D02*
D03*
X2155465Y1017270D02*
D03*
X2142215D02*
D03*
D68*
X2141710Y1249680D02*
D03*
X2171210D02*
D03*
D69*
X2156460Y1234430D02*
D03*
X2160270Y1085730D02*
D03*
Y1070730D02*
D03*
D70*
X2602890Y1157200D02*
D03*
Y1177200D02*
D03*
D71*
X2612390Y1092200D02*
D03*
Y1472200D02*
D03*
D72*
X2082800Y972459D02*
D03*
Y957941D02*
D03*
D73*
X923290Y1368651D02*
D03*
Y1382169D02*
D03*
D74*
X1039980Y1402460D02*
D03*
D75*
X1046480D02*
D03*
X1052980D02*
D03*
Y1422021D02*
D03*
X1046480D02*
D03*
X1039980D02*
D03*
D76*
X1061720Y1503560D02*
D03*
Y1488560D02*
D03*
D77*
X1589120Y1160350D02*
D03*
X1444120D02*
D03*
X1449120D02*
D03*
X1454120D02*
D03*
X1459120D02*
D03*
X1464120D02*
D03*
X1469120D02*
D03*
X1474120D02*
D03*
X1479120D02*
D03*
X1484120D02*
D03*
X1489120D02*
D03*
X1494120D02*
D03*
X1499120D02*
D03*
X1504120D02*
D03*
X1509120D02*
D03*
X1514120D02*
D03*
X1519120D02*
D03*
X1524120D02*
D03*
X1529120D02*
D03*
X1534120D02*
D03*
X1539120D02*
D03*
X1544120D02*
D03*
X1549120D02*
D03*
X1554120D02*
D03*
X1559120D02*
D03*
X1564120D02*
D03*
X1569120D02*
D03*
X1574120D02*
D03*
X1579120D02*
D03*
X1584120D02*
D03*
X1594120D02*
D03*
X1599120D02*
D03*
X1604120D02*
D03*
X1609120D02*
D03*
X1614120D02*
D03*
X1619120D02*
D03*
Y947850D02*
D03*
X1614120D02*
D03*
X1609120D02*
D03*
X1604120D02*
D03*
X1599120D02*
D03*
X1594120D02*
D03*
X1589120D02*
D03*
X1584120D02*
D03*
X1579120D02*
D03*
X1574120D02*
D03*
X1569120D02*
D03*
X1564120D02*
D03*
X1559120D02*
D03*
X1554120D02*
D03*
X1549120D02*
D03*
X1544120D02*
D03*
X1539120D02*
D03*
X1534120D02*
D03*
X1529120D02*
D03*
X1524120D02*
D03*
X1519120D02*
D03*
X1514120D02*
D03*
X1509120D02*
D03*
X1504120D02*
D03*
X1499120D02*
D03*
X1494120D02*
D03*
X1489120D02*
D03*
X1484120D02*
D03*
X1479120D02*
D03*
X1474120D02*
D03*
X1469120D02*
D03*
X1464120D02*
D03*
X1459120D02*
D03*
X1454120D02*
D03*
X1449120D02*
D03*
X1444120D02*
D03*
D78*
X1360170Y1699260D02*
D03*
X1374140Y1677670D02*
D03*
X1381640D02*
D03*
X1568390Y1705610D02*
D03*
X1560890D02*
D03*
X1367670Y1699260D02*
D03*
X1353820Y1601470D02*
D03*
X1361320D02*
D03*
X1573410Y1686560D02*
D03*
X1565910D02*
D03*
X1595000Y1656080D02*
D03*
X1587500D02*
D03*
X1365250Y1637030D02*
D03*
X1372750D02*
D03*
X1376680Y1652270D02*
D03*
X1384180D02*
D03*
D79*
X647170Y598260D02*
D03*
X659870D02*
D03*
X672570D02*
D03*
X685270D02*
D03*
X697970D02*
D03*
X710670D02*
D03*
X723370D02*
D03*
X736070D02*
D03*
X748770D02*
D03*
X761470D02*
D03*
X774170D02*
D03*
X786870D02*
D03*
X799570D02*
D03*
X812270D02*
D03*
Y768260D02*
D03*
X799570D02*
D03*
X786870D02*
D03*
X774170D02*
D03*
X761470D02*
D03*
X748770D02*
D03*
X736070D02*
D03*
X723370D02*
D03*
X710670D02*
D03*
X697970D02*
D03*
X685270D02*
D03*
X672570D02*
D03*
X659870D02*
D03*
X647170D02*
D03*
D80*
X822270Y626110D02*
D03*
Y638810D02*
D03*
Y651510D02*
D03*
Y664210D02*
D03*
Y676910D02*
D03*
Y689610D02*
D03*
Y702310D02*
D03*
Y715010D02*
D03*
Y727710D02*
D03*
Y740410D02*
D03*
D81*
X703820Y654910D02*
D03*
Y673260D02*
D03*
Y691610D02*
D03*
X722170Y654910D02*
D03*
Y673260D02*
D03*
Y691610D02*
D03*
X740520Y654910D02*
D03*
Y673260D02*
D03*
Y691610D02*
D03*
D82*
X1170940Y1496060D02*
D03*
Y1527560D02*
D03*
D83*
X1165850Y1714990D02*
D03*
Y1744490D02*
D03*
D84*
X1181100Y1729740D02*
D03*
D85*
X1526090Y1643610D02*
D03*
Y1653610D02*
D03*
Y1663610D02*
D03*
Y1673610D02*
D03*
Y1683610D02*
D03*
Y1693610D02*
D03*
Y1703610D02*
D03*
Y1713610D02*
D03*
Y1723610D02*
D03*
Y1733610D02*
D03*
Y1743610D02*
D03*
Y1753610D02*
D03*
X1438090D02*
D03*
Y1743610D02*
D03*
Y1733610D02*
D03*
Y1723610D02*
D03*
Y1713610D02*
D03*
Y1703610D02*
D03*
Y1693610D02*
D03*
Y1683610D02*
D03*
Y1673610D02*
D03*
Y1663610D02*
D03*
Y1653610D02*
D03*
Y1643610D02*
D03*
D86*
X1526090Y1765110D02*
D03*
X1438090D02*
D03*
D87*
X1462090Y1639610D02*
D03*
X1472090D02*
D03*
X1482090D02*
D03*
X1492090D02*
D03*
X1502090D02*
D03*
D88*
X1501140Y1607820D02*
D03*
Y1615320D02*
D03*
X1475740Y1607940D02*
D03*
Y1615440D02*
D03*
D89*
X1170940Y1449070D02*
D03*
Y1435570D02*
D03*
D90*
X1637870Y1141600D02*
D03*
Y1136600D02*
D03*
Y1131600D02*
D03*
Y1126600D02*
D03*
Y1121600D02*
D03*
Y1116600D02*
D03*
Y1111600D02*
D03*
Y1106600D02*
D03*
Y1101600D02*
D03*
Y1096600D02*
D03*
Y1091600D02*
D03*
Y1086600D02*
D03*
Y1081600D02*
D03*
Y1076600D02*
D03*
Y1071600D02*
D03*
Y1066600D02*
D03*
Y1061600D02*
D03*
Y1056600D02*
D03*
Y1051600D02*
D03*
Y1046600D02*
D03*
Y1041600D02*
D03*
Y1036600D02*
D03*
Y1031600D02*
D03*
Y1026600D02*
D03*
Y1021600D02*
D03*
Y1016600D02*
D03*
Y1011600D02*
D03*
Y1006600D02*
D03*
Y1001600D02*
D03*
Y996600D02*
D03*
Y991600D02*
D03*
Y986600D02*
D03*
Y981600D02*
D03*
Y976600D02*
D03*
Y971600D02*
D03*
Y966600D02*
D03*
X1425370D02*
D03*
Y971600D02*
D03*
Y976600D02*
D03*
Y981600D02*
D03*
Y986600D02*
D03*
Y991600D02*
D03*
Y996600D02*
D03*
Y1001600D02*
D03*
Y1006600D02*
D03*
Y1011600D02*
D03*
Y1016600D02*
D03*
Y1021600D02*
D03*
Y1026600D02*
D03*
Y1031600D02*
D03*
Y1036600D02*
D03*
Y1041600D02*
D03*
Y1046600D02*
D03*
Y1051600D02*
D03*
Y1056600D02*
D03*
Y1061600D02*
D03*
Y1066600D02*
D03*
Y1071600D02*
D03*
Y1076600D02*
D03*
Y1081600D02*
D03*
Y1086600D02*
D03*
Y1091600D02*
D03*
Y1096600D02*
D03*
Y1101600D02*
D03*
Y1106600D02*
D03*
Y1111600D02*
D03*
Y1116600D02*
D03*
Y1121600D02*
D03*
Y1126600D02*
D03*
Y1131600D02*
D03*
Y1136600D02*
D03*
Y1141600D02*
D03*
D91*
X1206620Y1420945D02*
D03*
D92*
X1211620D02*
D03*
X1216620D02*
D03*
X1221620D02*
D03*
Y1449255D02*
D03*
X1216620D02*
D03*
X1211620D02*
D03*
X1206620D02*
D03*
M02*
