G04*
G04 #@! TF.GenerationSoftware,Altium Limited,Altium Designer,23.9.2 (47)*
G04*
G04 Layer_Physical_Order=2*
G04 Layer_Color=6736896*
%FSLAX44Y44*%
%MOMM*%
G71*
G04*
G04 #@! TF.SameCoordinates,8F5B2CAB-9582-47EE-AD33-95BA57DA0C1B*
G04*
G04*
G04 #@! TF.FilePolarity,Positive*
G04*
G01*
G75*
%ADD141C,1.5700*%
%ADD142R,1.5700X1.5700*%
%ADD143R,1.5700X1.5700*%
%ADD149C,1.6700*%
%ADD150R,1.6700X1.6700*%
%ADD153R,1.3900X1.3900*%
%ADD154R,1.3890X1.3890*%
%ADD155C,1.3890*%
%ADD156R,1.3900X1.3900*%
%ADD164C,1.3900*%
%ADD165C,0.2540*%
%ADD172C,0.1270*%
%ADD173C,1.4500*%
%ADD174C,1.6000*%
G04:AMPARAMS|DCode=175|XSize=1.6mm|YSize=1.6mm|CornerRadius=0.4mm|HoleSize=0mm|Usage=FLASHONLY|Rotation=0.000|XOffset=0mm|YOffset=0mm|HoleType=Round|Shape=RoundedRectangle|*
%AMROUNDEDRECTD175*
21,1,1.6000,0.8000,0,0,0.0*
21,1,0.8000,1.6000,0,0,0.0*
1,1,0.8000,0.4000,-0.4000*
1,1,0.8000,-0.4000,-0.4000*
1,1,0.8000,-0.4000,0.4000*
1,1,0.8000,0.4000,0.4000*
%
%ADD175ROUNDEDRECTD175*%
G04:AMPARAMS|DCode=176|XSize=1.6mm|YSize=1.6mm|CornerRadius=0.4mm|HoleSize=0mm|Usage=FLASHONLY|Rotation=270.000|XOffset=0mm|YOffset=0mm|HoleType=Round|Shape=RoundedRectangle|*
%AMROUNDEDRECTD176*
21,1,1.6000,0.8000,0,0,270.0*
21,1,0.8000,1.6000,0,0,270.0*
1,1,0.8000,-0.4000,-0.4000*
1,1,0.8000,-0.4000,0.4000*
1,1,0.8000,0.4000,0.4000*
1,1,0.8000,0.4000,-0.4000*
%
%ADD176ROUNDEDRECTD176*%
%ADD177C,5.0800*%
%ADD178R,1.4000X1.4000*%
%ADD179C,1.4000*%
%ADD180R,1.8000X1.8000*%
%ADD181C,1.8000*%
%ADD182R,1.5500X1.5500*%
%ADD183C,1.5500*%
%ADD184R,1.5500X1.5500*%
%ADD185C,1.2700*%
%ADD186C,0.5000*%
G36*
X2520950Y1741170D02*
Y1741170D01*
X2522201Y1741170D01*
X2524654Y1740682D01*
X2526966Y1739724D01*
X2529046Y1738335D01*
X2530815Y1736566D01*
X2532205Y1734486D01*
X2533162Y1732174D01*
X2533650Y1729721D01*
X2533650Y1728470D01*
X2533650Y838200D01*
X2533650Y838200D01*
Y836949D01*
X2533162Y834495D01*
X2532204Y832184D01*
X2530815Y830104D01*
X2529046Y828335D01*
X2526966Y826945D01*
X2524654Y825988D01*
X2522201Y825500D01*
X2240299D01*
X2237845Y825988D01*
X2235534Y826945D01*
X2233454Y828335D01*
X2231685Y830104D01*
X2230295Y832184D01*
X2229338Y834495D01*
X2228850Y836949D01*
Y838200D01*
Y1728470D01*
Y1729721D01*
X2229338Y1732174D01*
X2230295Y1734486D01*
X2231685Y1736566D01*
X2233454Y1738335D01*
X2235534Y1739725D01*
X2237845Y1740682D01*
X2240299Y1741170D01*
X2520950D01*
X2520950Y1741170D01*
D02*
G37*
%LPC*%
G36*
X2510790Y1186153D02*
Y1178560D01*
X2518383D01*
X2517804Y1180721D01*
X2516634Y1182749D01*
X2514979Y1184404D01*
X2512951Y1185574D01*
X2510790Y1186153D01*
D02*
G37*
G36*
X2508250D02*
X2506089Y1185574D01*
X2504061Y1184404D01*
X2502406Y1182749D01*
X2501236Y1180721D01*
X2500657Y1178560D01*
X2508250D01*
Y1186153D01*
D02*
G37*
G36*
X2490470D02*
Y1178560D01*
X2498063D01*
X2497484Y1180721D01*
X2496314Y1182749D01*
X2494659Y1184404D01*
X2492631Y1185574D01*
X2490470Y1186153D01*
D02*
G37*
G36*
X2487930D02*
X2485769Y1185574D01*
X2483741Y1184404D01*
X2482086Y1182749D01*
X2480916Y1180721D01*
X2480337Y1178560D01*
X2487930D01*
Y1186153D01*
D02*
G37*
G36*
X2470150D02*
Y1178560D01*
X2477743D01*
X2477164Y1180721D01*
X2475994Y1182749D01*
X2474339Y1184404D01*
X2472311Y1185574D01*
X2470150Y1186153D01*
D02*
G37*
G36*
X2467610D02*
X2465449Y1185574D01*
X2463421Y1184404D01*
X2461766Y1182749D01*
X2460596Y1180721D01*
X2460017Y1178560D01*
X2467610D01*
Y1186153D01*
D02*
G37*
G36*
X2449830D02*
Y1178560D01*
X2457423D01*
X2456844Y1180721D01*
X2455674Y1182749D01*
X2454019Y1184404D01*
X2451991Y1185574D01*
X2449830Y1186153D01*
D02*
G37*
G36*
X2447290D02*
X2445129Y1185574D01*
X2443101Y1184404D01*
X2441446Y1182749D01*
X2440276Y1180721D01*
X2439697Y1178560D01*
X2447290D01*
Y1186153D01*
D02*
G37*
G36*
X2429510D02*
Y1178560D01*
X2437103D01*
X2436524Y1180721D01*
X2435354Y1182749D01*
X2433699Y1184404D01*
X2431671Y1185574D01*
X2429510Y1186153D01*
D02*
G37*
G36*
X2426970D02*
X2424809Y1185574D01*
X2422781Y1184404D01*
X2421126Y1182749D01*
X2419956Y1180721D01*
X2419377Y1178560D01*
X2426970D01*
Y1186153D01*
D02*
G37*
G36*
X2409190D02*
Y1178560D01*
X2416783D01*
X2416204Y1180721D01*
X2415034Y1182749D01*
X2413379Y1184404D01*
X2411351Y1185574D01*
X2409190Y1186153D01*
D02*
G37*
G36*
X2406650D02*
X2404489Y1185574D01*
X2402461Y1184404D01*
X2400806Y1182749D01*
X2399636Y1180721D01*
X2399057Y1178560D01*
X2406650D01*
Y1186153D01*
D02*
G37*
G36*
X2388870D02*
Y1178560D01*
X2396463D01*
X2395884Y1180721D01*
X2394714Y1182749D01*
X2393059Y1184404D01*
X2391031Y1185574D01*
X2388870Y1186153D01*
D02*
G37*
G36*
X2386330D02*
X2384169Y1185574D01*
X2382141Y1184404D01*
X2380486Y1182749D01*
X2379316Y1180721D01*
X2378737Y1178560D01*
X2386330D01*
Y1186153D01*
D02*
G37*
G36*
X2368550D02*
Y1178560D01*
X2376143D01*
X2375564Y1180721D01*
X2374394Y1182749D01*
X2372739Y1184404D01*
X2370711Y1185574D01*
X2368550Y1186153D01*
D02*
G37*
G36*
X2366010D02*
X2363849Y1185574D01*
X2361821Y1184404D01*
X2360166Y1182749D01*
X2358996Y1180721D01*
X2358417Y1178560D01*
X2366010D01*
Y1186153D01*
D02*
G37*
G36*
X2348230D02*
Y1178560D01*
X2355823D01*
X2355244Y1180721D01*
X2354074Y1182749D01*
X2352419Y1184404D01*
X2350391Y1185574D01*
X2348230Y1186153D01*
D02*
G37*
G36*
X2345690D02*
X2343529Y1185574D01*
X2341501Y1184404D01*
X2339846Y1182749D01*
X2338676Y1180721D01*
X2338097Y1178560D01*
X2345690D01*
Y1186153D01*
D02*
G37*
G36*
X2327910D02*
Y1178560D01*
X2335503D01*
X2334924Y1180721D01*
X2333754Y1182749D01*
X2332099Y1184404D01*
X2330071Y1185574D01*
X2327910Y1186153D01*
D02*
G37*
G36*
X2325370D02*
X2323209Y1185574D01*
X2321181Y1184404D01*
X2319526Y1182749D01*
X2318356Y1180721D01*
X2317777Y1178560D01*
X2325370D01*
Y1186153D01*
D02*
G37*
G36*
X2307590D02*
Y1178560D01*
X2315183D01*
X2314604Y1180721D01*
X2313434Y1182749D01*
X2311779Y1184404D01*
X2309751Y1185574D01*
X2307590Y1186153D01*
D02*
G37*
G36*
X2305050D02*
X2302889Y1185574D01*
X2300861Y1184404D01*
X2299206Y1182749D01*
X2298036Y1180721D01*
X2297457Y1178560D01*
X2305050D01*
Y1186153D01*
D02*
G37*
G36*
X2287270D02*
Y1178560D01*
X2294863D01*
X2294284Y1180721D01*
X2293114Y1182749D01*
X2291459Y1184404D01*
X2289431Y1185574D01*
X2287270Y1186153D01*
D02*
G37*
G36*
X2284730D02*
X2282569Y1185574D01*
X2280541Y1184404D01*
X2278886Y1182749D01*
X2277716Y1180721D01*
X2277137Y1178560D01*
X2284730D01*
Y1186153D01*
D02*
G37*
G36*
X2266950D02*
Y1178560D01*
X2274543D01*
X2273964Y1180721D01*
X2272794Y1182749D01*
X2271139Y1184404D01*
X2269111Y1185574D01*
X2266950Y1186153D01*
D02*
G37*
G36*
X2264410D02*
X2262249Y1185574D01*
X2260221Y1184404D01*
X2258566Y1182749D01*
X2257396Y1180721D01*
X2256817Y1178560D01*
X2264410D01*
Y1186153D01*
D02*
G37*
G36*
X2246630D02*
Y1178560D01*
X2254223D01*
X2253644Y1180721D01*
X2252474Y1182749D01*
X2250819Y1184404D01*
X2248791Y1185574D01*
X2246630Y1186153D01*
D02*
G37*
G36*
X2244090D02*
X2241929Y1185574D01*
X2239901Y1184404D01*
X2238246Y1182749D01*
X2237076Y1180721D01*
X2236497Y1178560D01*
X2244090D01*
Y1186153D01*
D02*
G37*
G36*
X2518383Y1176020D02*
X2510790D01*
Y1168427D01*
X2512951Y1169006D01*
X2514979Y1170176D01*
X2516634Y1171831D01*
X2517804Y1173859D01*
X2518383Y1176020D01*
D02*
G37*
G36*
X2508250D02*
X2500657D01*
X2501236Y1173859D01*
X2502406Y1171831D01*
X2504061Y1170176D01*
X2506089Y1169006D01*
X2508250Y1168427D01*
Y1176020D01*
D02*
G37*
G36*
X2498063D02*
X2490470D01*
Y1168427D01*
X2492631Y1169006D01*
X2494659Y1170176D01*
X2496314Y1171831D01*
X2497484Y1173859D01*
X2498063Y1176020D01*
D02*
G37*
G36*
X2487930D02*
X2480337D01*
X2480916Y1173859D01*
X2482086Y1171831D01*
X2483741Y1170176D01*
X2485769Y1169006D01*
X2487930Y1168427D01*
Y1176020D01*
D02*
G37*
G36*
X2477743D02*
X2470150D01*
Y1168427D01*
X2472311Y1169006D01*
X2474339Y1170176D01*
X2475994Y1171831D01*
X2477164Y1173859D01*
X2477743Y1176020D01*
D02*
G37*
G36*
X2467610D02*
X2460017D01*
X2460596Y1173859D01*
X2461766Y1171831D01*
X2463421Y1170176D01*
X2465449Y1169006D01*
X2467610Y1168427D01*
Y1176020D01*
D02*
G37*
G36*
X2457423D02*
X2449830D01*
Y1168427D01*
X2451991Y1169006D01*
X2454019Y1170176D01*
X2455674Y1171831D01*
X2456844Y1173859D01*
X2457423Y1176020D01*
D02*
G37*
G36*
X2447290D02*
X2439697D01*
X2440276Y1173859D01*
X2441446Y1171831D01*
X2443101Y1170176D01*
X2445129Y1169006D01*
X2447290Y1168427D01*
Y1176020D01*
D02*
G37*
G36*
X2437103D02*
X2429510D01*
Y1168427D01*
X2431671Y1169006D01*
X2433699Y1170176D01*
X2435354Y1171831D01*
X2436524Y1173859D01*
X2437103Y1176020D01*
D02*
G37*
G36*
X2426970D02*
X2419377D01*
X2419956Y1173859D01*
X2421126Y1171831D01*
X2422781Y1170176D01*
X2424809Y1169006D01*
X2426970Y1168427D01*
Y1176020D01*
D02*
G37*
G36*
X2416783D02*
X2409190D01*
Y1168427D01*
X2411351Y1169006D01*
X2413379Y1170176D01*
X2415034Y1171831D01*
X2416204Y1173859D01*
X2416783Y1176020D01*
D02*
G37*
G36*
X2406650D02*
X2399057D01*
X2399636Y1173859D01*
X2400806Y1171831D01*
X2402461Y1170176D01*
X2404489Y1169006D01*
X2406650Y1168427D01*
Y1176020D01*
D02*
G37*
G36*
X2396463D02*
X2388870D01*
Y1168427D01*
X2391031Y1169006D01*
X2393059Y1170176D01*
X2394714Y1171831D01*
X2395884Y1173859D01*
X2396463Y1176020D01*
D02*
G37*
G36*
X2386330D02*
X2378737D01*
X2379316Y1173859D01*
X2380486Y1171831D01*
X2382141Y1170176D01*
X2384169Y1169006D01*
X2386330Y1168427D01*
Y1176020D01*
D02*
G37*
G36*
X2376143D02*
X2368550D01*
Y1168427D01*
X2370711Y1169006D01*
X2372739Y1170176D01*
X2374394Y1171831D01*
X2375564Y1173859D01*
X2376143Y1176020D01*
D02*
G37*
G36*
X2366010D02*
X2358417D01*
X2358996Y1173859D01*
X2360166Y1171831D01*
X2361821Y1170176D01*
X2363849Y1169006D01*
X2366010Y1168427D01*
Y1176020D01*
D02*
G37*
G36*
X2355823D02*
X2348230D01*
Y1168427D01*
X2350391Y1169006D01*
X2352419Y1170176D01*
X2354074Y1171831D01*
X2355244Y1173859D01*
X2355823Y1176020D01*
D02*
G37*
G36*
X2345690D02*
X2338097D01*
X2338676Y1173859D01*
X2339846Y1171831D01*
X2341501Y1170176D01*
X2343529Y1169006D01*
X2345690Y1168427D01*
Y1176020D01*
D02*
G37*
G36*
X2335503D02*
X2327910D01*
Y1168427D01*
X2330071Y1169006D01*
X2332099Y1170176D01*
X2333754Y1171831D01*
X2334924Y1173859D01*
X2335503Y1176020D01*
D02*
G37*
G36*
X2325370D02*
X2317777D01*
X2318356Y1173859D01*
X2319526Y1171831D01*
X2321181Y1170176D01*
X2323209Y1169006D01*
X2325370Y1168427D01*
Y1176020D01*
D02*
G37*
G36*
X2315183D02*
X2307590D01*
Y1168427D01*
X2309751Y1169006D01*
X2311779Y1170176D01*
X2313434Y1171831D01*
X2314604Y1173859D01*
X2315183Y1176020D01*
D02*
G37*
G36*
X2305050D02*
X2297457D01*
X2298036Y1173859D01*
X2299206Y1171831D01*
X2300861Y1170176D01*
X2302889Y1169006D01*
X2305050Y1168427D01*
Y1176020D01*
D02*
G37*
G36*
X2294863D02*
X2287270D01*
Y1168427D01*
X2289431Y1169006D01*
X2291459Y1170176D01*
X2293114Y1171831D01*
X2294284Y1173859D01*
X2294863Y1176020D01*
D02*
G37*
G36*
X2284730D02*
X2277137D01*
X2277716Y1173859D01*
X2278886Y1171831D01*
X2280541Y1170176D01*
X2282569Y1169006D01*
X2284730Y1168427D01*
Y1176020D01*
D02*
G37*
G36*
X2274543D02*
X2266950D01*
Y1168427D01*
X2269111Y1169006D01*
X2271139Y1170176D01*
X2272794Y1171831D01*
X2273964Y1173859D01*
X2274543Y1176020D01*
D02*
G37*
G36*
X2264410D02*
X2256817D01*
X2257396Y1173859D01*
X2258566Y1171831D01*
X2260221Y1170176D01*
X2262249Y1169006D01*
X2264410Y1168427D01*
Y1176020D01*
D02*
G37*
G36*
X2254223D02*
X2246630D01*
Y1168427D01*
X2248791Y1169006D01*
X2250819Y1170176D01*
X2252474Y1171831D01*
X2253644Y1173859D01*
X2254223Y1176020D01*
D02*
G37*
G36*
X2244090D02*
X2236497D01*
X2237076Y1173859D01*
X2238246Y1171831D01*
X2239901Y1170176D01*
X2241929Y1169006D01*
X2244090Y1168427D01*
Y1176020D01*
D02*
G37*
G36*
X2524760Y1149323D02*
Y1141730D01*
X2532353D01*
X2531774Y1143891D01*
X2530604Y1145919D01*
X2528949Y1147574D01*
X2526921Y1148744D01*
X2524760Y1149323D01*
D02*
G37*
G36*
X2522220D02*
X2520059Y1148744D01*
X2518031Y1147574D01*
X2516376Y1145919D01*
X2515206Y1143891D01*
X2514627Y1141730D01*
X2522220D01*
Y1149323D01*
D02*
G37*
G36*
X2504440D02*
Y1141730D01*
X2512033D01*
X2511454Y1143891D01*
X2510284Y1145919D01*
X2508629Y1147574D01*
X2506601Y1148744D01*
X2504440Y1149323D01*
D02*
G37*
G36*
X2501900D02*
X2499739Y1148744D01*
X2497711Y1147574D01*
X2496056Y1145919D01*
X2494886Y1143891D01*
X2494307Y1141730D01*
X2501900D01*
Y1149323D01*
D02*
G37*
G36*
X2484120D02*
Y1141730D01*
X2491713D01*
X2491134Y1143891D01*
X2489964Y1145919D01*
X2488309Y1147574D01*
X2486281Y1148744D01*
X2484120Y1149323D01*
D02*
G37*
G36*
X2481580D02*
X2479419Y1148744D01*
X2477391Y1147574D01*
X2475736Y1145919D01*
X2474566Y1143891D01*
X2473987Y1141730D01*
X2481580D01*
Y1149323D01*
D02*
G37*
G36*
X2463800D02*
Y1141730D01*
X2471393D01*
X2470814Y1143891D01*
X2469644Y1145919D01*
X2467989Y1147574D01*
X2465961Y1148744D01*
X2463800Y1149323D01*
D02*
G37*
G36*
X2461260D02*
X2459099Y1148744D01*
X2457071Y1147574D01*
X2455416Y1145919D01*
X2454246Y1143891D01*
X2453667Y1141730D01*
X2461260D01*
Y1149323D01*
D02*
G37*
G36*
X2443480D02*
Y1141730D01*
X2451073D01*
X2450494Y1143891D01*
X2449324Y1145919D01*
X2447669Y1147574D01*
X2445641Y1148744D01*
X2443480Y1149323D01*
D02*
G37*
G36*
X2440940D02*
X2438779Y1148744D01*
X2436751Y1147574D01*
X2435096Y1145919D01*
X2433926Y1143891D01*
X2433347Y1141730D01*
X2440940D01*
Y1149323D01*
D02*
G37*
G36*
X2423160D02*
Y1141730D01*
X2430753D01*
X2430174Y1143891D01*
X2429004Y1145919D01*
X2427349Y1147574D01*
X2425321Y1148744D01*
X2423160Y1149323D01*
D02*
G37*
G36*
X2420620D02*
X2418459Y1148744D01*
X2416431Y1147574D01*
X2414776Y1145919D01*
X2413606Y1143891D01*
X2413027Y1141730D01*
X2420620D01*
Y1149323D01*
D02*
G37*
G36*
X2402840D02*
Y1141730D01*
X2410433D01*
X2409854Y1143891D01*
X2408684Y1145919D01*
X2407029Y1147574D01*
X2405001Y1148744D01*
X2402840Y1149323D01*
D02*
G37*
G36*
X2400300D02*
X2398139Y1148744D01*
X2396111Y1147574D01*
X2394456Y1145919D01*
X2393286Y1143891D01*
X2392707Y1141730D01*
X2400300D01*
Y1149323D01*
D02*
G37*
G36*
X2382520D02*
Y1141730D01*
X2390113D01*
X2389534Y1143891D01*
X2388364Y1145919D01*
X2386709Y1147574D01*
X2384681Y1148744D01*
X2382520Y1149323D01*
D02*
G37*
G36*
X2379980D02*
X2377819Y1148744D01*
X2375791Y1147574D01*
X2374136Y1145919D01*
X2372966Y1143891D01*
X2372387Y1141730D01*
X2379980D01*
Y1149323D01*
D02*
G37*
G36*
X2362200D02*
Y1141730D01*
X2369793D01*
X2369214Y1143891D01*
X2368044Y1145919D01*
X2366389Y1147574D01*
X2364361Y1148744D01*
X2362200Y1149323D01*
D02*
G37*
G36*
X2359660D02*
X2357499Y1148744D01*
X2355471Y1147574D01*
X2353816Y1145919D01*
X2352646Y1143891D01*
X2352067Y1141730D01*
X2359660D01*
Y1149323D01*
D02*
G37*
G36*
X2341880D02*
Y1141730D01*
X2349473D01*
X2348894Y1143891D01*
X2347724Y1145919D01*
X2346069Y1147574D01*
X2344041Y1148744D01*
X2341880Y1149323D01*
D02*
G37*
G36*
X2339340D02*
X2337179Y1148744D01*
X2335151Y1147574D01*
X2333496Y1145919D01*
X2332326Y1143891D01*
X2331747Y1141730D01*
X2339340D01*
Y1149323D01*
D02*
G37*
G36*
X2321560D02*
Y1141730D01*
X2329153D01*
X2328574Y1143891D01*
X2327404Y1145919D01*
X2325749Y1147574D01*
X2323721Y1148744D01*
X2321560Y1149323D01*
D02*
G37*
G36*
X2319020D02*
X2316859Y1148744D01*
X2314831Y1147574D01*
X2313176Y1145919D01*
X2312006Y1143891D01*
X2311427Y1141730D01*
X2319020D01*
Y1149323D01*
D02*
G37*
G36*
X2301240D02*
Y1141730D01*
X2308833D01*
X2308254Y1143891D01*
X2307084Y1145919D01*
X2305429Y1147574D01*
X2303401Y1148744D01*
X2301240Y1149323D01*
D02*
G37*
G36*
X2298700D02*
X2296539Y1148744D01*
X2294511Y1147574D01*
X2292856Y1145919D01*
X2291686Y1143891D01*
X2291107Y1141730D01*
X2298700D01*
Y1149323D01*
D02*
G37*
G36*
X2280920D02*
Y1141730D01*
X2288513D01*
X2287934Y1143891D01*
X2286764Y1145919D01*
X2285109Y1147574D01*
X2283081Y1148744D01*
X2280920Y1149323D01*
D02*
G37*
G36*
X2278380D02*
X2276219Y1148744D01*
X2274191Y1147574D01*
X2272536Y1145919D01*
X2271366Y1143891D01*
X2270787Y1141730D01*
X2278380D01*
Y1149323D01*
D02*
G37*
G36*
X2260600D02*
Y1141730D01*
X2268193D01*
X2267614Y1143891D01*
X2266444Y1145919D01*
X2264789Y1147574D01*
X2262761Y1148744D01*
X2260600Y1149323D01*
D02*
G37*
G36*
X2258060D02*
X2255899Y1148744D01*
X2253871Y1147574D01*
X2252216Y1145919D01*
X2251046Y1143891D01*
X2250467Y1141730D01*
X2258060D01*
Y1149323D01*
D02*
G37*
G36*
X2240280D02*
Y1141730D01*
X2247873D01*
X2247294Y1143891D01*
X2246124Y1145919D01*
X2244469Y1147574D01*
X2242441Y1148744D01*
X2240280Y1149323D01*
D02*
G37*
G36*
X2237740D02*
X2235579Y1148744D01*
X2233551Y1147574D01*
X2231896Y1145919D01*
X2230726Y1143891D01*
X2230147Y1141730D01*
X2237740D01*
Y1149323D01*
D02*
G37*
G36*
X2532353Y1139190D02*
X2524760D01*
Y1131597D01*
X2526921Y1132176D01*
X2528949Y1133346D01*
X2530604Y1135001D01*
X2531774Y1137029D01*
X2532353Y1139190D01*
D02*
G37*
G36*
X2522220D02*
X2514627D01*
X2515206Y1137029D01*
X2516376Y1135001D01*
X2518031Y1133346D01*
X2520059Y1132176D01*
X2522220Y1131597D01*
Y1139190D01*
D02*
G37*
G36*
X2512033D02*
X2504440D01*
Y1131597D01*
X2506601Y1132176D01*
X2508629Y1133346D01*
X2510284Y1135001D01*
X2511454Y1137029D01*
X2512033Y1139190D01*
D02*
G37*
G36*
X2501900D02*
X2494307D01*
X2494886Y1137029D01*
X2496056Y1135001D01*
X2497711Y1133346D01*
X2499739Y1132176D01*
X2501900Y1131597D01*
Y1139190D01*
D02*
G37*
G36*
X2491713D02*
X2484120D01*
Y1131597D01*
X2486281Y1132176D01*
X2488309Y1133346D01*
X2489964Y1135001D01*
X2491134Y1137029D01*
X2491713Y1139190D01*
D02*
G37*
G36*
X2481580D02*
X2473987D01*
X2474566Y1137029D01*
X2475736Y1135001D01*
X2477391Y1133346D01*
X2479419Y1132176D01*
X2481580Y1131597D01*
Y1139190D01*
D02*
G37*
G36*
X2471393D02*
X2463800D01*
Y1131597D01*
X2465961Y1132176D01*
X2467989Y1133346D01*
X2469644Y1135001D01*
X2470814Y1137029D01*
X2471393Y1139190D01*
D02*
G37*
G36*
X2461260D02*
X2453667D01*
X2454246Y1137029D01*
X2455416Y1135001D01*
X2457071Y1133346D01*
X2459099Y1132176D01*
X2461260Y1131597D01*
Y1139190D01*
D02*
G37*
G36*
X2451073D02*
X2443480D01*
Y1131597D01*
X2445641Y1132176D01*
X2447669Y1133346D01*
X2449324Y1135001D01*
X2450494Y1137029D01*
X2451073Y1139190D01*
D02*
G37*
G36*
X2440940D02*
X2433347D01*
X2433926Y1137029D01*
X2435096Y1135001D01*
X2436751Y1133346D01*
X2438779Y1132176D01*
X2440940Y1131597D01*
Y1139190D01*
D02*
G37*
G36*
X2430753D02*
X2423160D01*
Y1131597D01*
X2425321Y1132176D01*
X2427349Y1133346D01*
X2429004Y1135001D01*
X2430174Y1137029D01*
X2430753Y1139190D01*
D02*
G37*
G36*
X2420620D02*
X2413027D01*
X2413606Y1137029D01*
X2414776Y1135001D01*
X2416431Y1133346D01*
X2418459Y1132176D01*
X2420620Y1131597D01*
Y1139190D01*
D02*
G37*
G36*
X2410433D02*
X2402840D01*
Y1131597D01*
X2405001Y1132176D01*
X2407029Y1133346D01*
X2408684Y1135001D01*
X2409854Y1137029D01*
X2410433Y1139190D01*
D02*
G37*
G36*
X2400300D02*
X2392707D01*
X2393286Y1137029D01*
X2394456Y1135001D01*
X2396111Y1133346D01*
X2398139Y1132176D01*
X2400300Y1131597D01*
Y1139190D01*
D02*
G37*
G36*
X2390113D02*
X2382520D01*
Y1131597D01*
X2384681Y1132176D01*
X2386709Y1133346D01*
X2388364Y1135001D01*
X2389534Y1137029D01*
X2390113Y1139190D01*
D02*
G37*
G36*
X2379980D02*
X2372387D01*
X2372966Y1137029D01*
X2374136Y1135001D01*
X2375791Y1133346D01*
X2377819Y1132176D01*
X2379980Y1131597D01*
Y1139190D01*
D02*
G37*
G36*
X2369793D02*
X2362200D01*
Y1131597D01*
X2364361Y1132176D01*
X2366389Y1133346D01*
X2368044Y1135001D01*
X2369214Y1137029D01*
X2369793Y1139190D01*
D02*
G37*
G36*
X2359660D02*
X2352067D01*
X2352646Y1137029D01*
X2353816Y1135001D01*
X2355471Y1133346D01*
X2357499Y1132176D01*
X2359660Y1131597D01*
Y1139190D01*
D02*
G37*
G36*
X2349473D02*
X2341880D01*
Y1131597D01*
X2344041Y1132176D01*
X2346069Y1133346D01*
X2347724Y1135001D01*
X2348894Y1137029D01*
X2349473Y1139190D01*
D02*
G37*
G36*
X2339340D02*
X2331747D01*
X2332326Y1137029D01*
X2333496Y1135001D01*
X2335151Y1133346D01*
X2337179Y1132176D01*
X2339340Y1131597D01*
Y1139190D01*
D02*
G37*
G36*
X2329153D02*
X2321560D01*
Y1131597D01*
X2323721Y1132176D01*
X2325749Y1133346D01*
X2327404Y1135001D01*
X2328574Y1137029D01*
X2329153Y1139190D01*
D02*
G37*
G36*
X2319020D02*
X2311427D01*
X2312006Y1137029D01*
X2313176Y1135001D01*
X2314831Y1133346D01*
X2316859Y1132176D01*
X2319020Y1131597D01*
Y1139190D01*
D02*
G37*
G36*
X2308833D02*
X2301240D01*
Y1131597D01*
X2303401Y1132176D01*
X2305429Y1133346D01*
X2307084Y1135001D01*
X2308254Y1137029D01*
X2308833Y1139190D01*
D02*
G37*
G36*
X2298700D02*
X2291107D01*
X2291686Y1137029D01*
X2292856Y1135001D01*
X2294511Y1133346D01*
X2296539Y1132176D01*
X2298700Y1131597D01*
Y1139190D01*
D02*
G37*
G36*
X2288513D02*
X2280920D01*
Y1131597D01*
X2283081Y1132176D01*
X2285109Y1133346D01*
X2286764Y1135001D01*
X2287934Y1137029D01*
X2288513Y1139190D01*
D02*
G37*
G36*
X2278380D02*
X2270787D01*
X2271366Y1137029D01*
X2272536Y1135001D01*
X2274191Y1133346D01*
X2276219Y1132176D01*
X2278380Y1131597D01*
Y1139190D01*
D02*
G37*
G36*
X2268193D02*
X2260600D01*
Y1131597D01*
X2262761Y1132176D01*
X2264789Y1133346D01*
X2266444Y1135001D01*
X2267614Y1137029D01*
X2268193Y1139190D01*
D02*
G37*
G36*
X2258060D02*
X2250467D01*
X2251046Y1137029D01*
X2252216Y1135001D01*
X2253871Y1133346D01*
X2255899Y1132176D01*
X2258060Y1131597D01*
Y1139190D01*
D02*
G37*
G36*
X2247873D02*
X2240280D01*
Y1131597D01*
X2242441Y1132176D01*
X2244469Y1133346D01*
X2246124Y1135001D01*
X2247294Y1137029D01*
X2247873Y1139190D01*
D02*
G37*
G36*
X2237740D02*
X2230147D01*
X2230726Y1137029D01*
X2231896Y1135001D01*
X2233551Y1133346D01*
X2235579Y1132176D01*
X2237740Y1131597D01*
Y1139190D01*
D02*
G37*
%LPD*%
D141*
X1838960Y722630D02*
D03*
Y748030D02*
D03*
Y773430D02*
D03*
Y798830D02*
D03*
X1322070Y1601470D02*
D03*
Y1626870D02*
D03*
Y1652270D02*
D03*
Y1677670D02*
D03*
X833120Y899160D02*
D03*
X807720D02*
D03*
X782320D02*
D03*
X756920D02*
D03*
X1121410Y610870D02*
D03*
Y585470D02*
D03*
Y560070D02*
D03*
Y534670D02*
D03*
D142*
X1838960Y824230D02*
D03*
X1322070Y1703070D02*
D03*
X1121410Y509270D02*
D03*
D143*
X731520Y899160D02*
D03*
D149*
X751840Y1205230D02*
D03*
D150*
Y1179830D02*
D03*
D153*
X929660Y993140D02*
D03*
X1965980Y909320D02*
D03*
D154*
X2035810Y1416050D02*
D03*
D155*
Y1441450D02*
D03*
Y1466850D02*
D03*
Y1492250D02*
D03*
Y1517650D02*
D03*
Y1543050D02*
D03*
Y1568450D02*
D03*
Y1593850D02*
D03*
X2010410Y1416050D02*
D03*
Y1441450D02*
D03*
Y1466850D02*
D03*
Y1492250D02*
D03*
Y1517650D02*
D03*
Y1543050D02*
D03*
Y1568450D02*
D03*
Y1593850D02*
D03*
D156*
X1289050Y655300D02*
D03*
D164*
X904260Y1297940D02*
D03*
Y1272540D02*
D03*
Y1247140D02*
D03*
Y1221740D02*
D03*
Y1196340D02*
D03*
Y1170940D02*
D03*
Y1145540D02*
D03*
Y1120140D02*
D03*
Y1094740D02*
D03*
Y1069340D02*
D03*
Y1043940D02*
D03*
Y1018540D02*
D03*
Y993140D02*
D03*
X929660Y1297940D02*
D03*
Y1272540D02*
D03*
Y1247140D02*
D03*
Y1221740D02*
D03*
Y1196340D02*
D03*
Y1170940D02*
D03*
Y1145540D02*
D03*
Y1120140D02*
D03*
Y1094740D02*
D03*
Y1069340D02*
D03*
Y1043940D02*
D03*
Y1018540D02*
D03*
X1940580Y1214120D02*
D03*
Y1188720D02*
D03*
Y1163320D02*
D03*
Y1137920D02*
D03*
Y1112520D02*
D03*
Y1087120D02*
D03*
Y1061720D02*
D03*
Y1036320D02*
D03*
Y1010920D02*
D03*
Y985520D02*
D03*
Y960120D02*
D03*
Y934720D02*
D03*
Y909320D02*
D03*
X1965980Y1214120D02*
D03*
Y1188720D02*
D03*
Y1163320D02*
D03*
Y1137920D02*
D03*
Y1112520D02*
D03*
Y1087120D02*
D03*
Y1061720D02*
D03*
Y1036320D02*
D03*
Y1010920D02*
D03*
Y985520D02*
D03*
Y960120D02*
D03*
Y934720D02*
D03*
X1593850Y680700D02*
D03*
X1568450D02*
D03*
X1543050D02*
D03*
X1517650D02*
D03*
X1492250D02*
D03*
X1466850D02*
D03*
X1441450D02*
D03*
X1416050D02*
D03*
X1390650D02*
D03*
X1365250D02*
D03*
X1339850D02*
D03*
X1314450D02*
D03*
X1289050D02*
D03*
X1593850Y655300D02*
D03*
X1568450D02*
D03*
X1543050D02*
D03*
X1517650D02*
D03*
X1492250D02*
D03*
X1466850D02*
D03*
X1441450D02*
D03*
X1416050D02*
D03*
X1390650D02*
D03*
X1365250D02*
D03*
X1339850D02*
D03*
X1314450D02*
D03*
D165*
X2045260Y294970D02*
X2095260D01*
X2179320Y1347470D02*
Y1417320D01*
X2040890Y1209040D02*
X2179320Y1347470D01*
X2032000Y1212850D02*
X2148840Y1329690D01*
Y1357630D01*
X2245360Y718820D02*
X2277110Y687070D01*
X2227580Y718820D02*
X2245360D01*
X1756410Y1233170D02*
X1875790D01*
X1734820Y1211580D02*
X1756410Y1233170D01*
X2072640Y1581150D02*
Y1642110D01*
Y1346180D02*
Y1581150D01*
X2094230Y1617980D02*
X2128520D01*
X1940580Y1214120D02*
X2072640Y1346180D01*
X2048510Y1666240D02*
X2072640Y1642110D01*
X2032000Y1092200D02*
Y1212850D01*
X1101090Y998220D02*
X1117600Y1014730D01*
X1210310D01*
X1965980Y1036320D02*
X1988820D01*
X2040890Y1088390D01*
Y1209040D01*
X1953280Y1049020D02*
X1988820D01*
X2032000Y1092200D01*
X1940580Y1036320D02*
X1953280Y1049020D01*
X1280160Y886460D02*
X1295400Y901700D01*
X1013460Y886460D02*
X1280160D01*
X979170Y920750D02*
X1013460Y886460D01*
X1357630Y1473200D02*
X1623060D01*
X1323340D02*
X1357630D01*
X1243330Y1553210D02*
X1323340Y1473200D01*
X1243330Y1553210D02*
Y1644650D01*
X1301750Y1703070D01*
X1715770Y759460D02*
X1724660Y750570D01*
X1715770Y759460D02*
Y958850D01*
X1704340Y970280D02*
X1715770Y958850D01*
X1301750Y1703070D02*
X1322070D01*
D172*
X1718310Y1320800D02*
X1940560Y1543050D01*
X1513840Y1300480D02*
X1534160Y1320800D01*
X1718310D01*
X1719580Y1304290D02*
X1945640Y1530350D01*
X1553210Y1304290D02*
X1719580D01*
X1466850Y1275080D02*
X1548130Y1356360D01*
X1739900D02*
X1939290Y1555750D01*
X1548130Y1356360D02*
X1739900D01*
X1941830Y1593850D02*
X2010410D01*
X1530350Y1371600D02*
X1719580D01*
X1941830Y1593850D01*
X1527810Y1376680D02*
X1713230D01*
X1949450Y1612900D02*
X2016760D01*
X1713230Y1376680D02*
X1949450Y1612900D01*
X2016760D02*
X2035810Y1593850D01*
X2023110Y1530350D02*
X2035810Y1517650D01*
X1945640Y1530350D02*
X2023110D01*
X1940560Y1543050D02*
X2010410D01*
X1939290Y1555750D02*
X2023110D01*
X2035810Y1543050D01*
X1725930Y1366520D02*
X1940560Y1581150D01*
X2023110D02*
X2035810Y1568450D01*
X1940560Y1581150D02*
X2023110D01*
X1938020Y1568450D02*
X2010410D01*
X1731010Y1361440D02*
X1938020Y1568450D01*
X1416050Y1264920D02*
X1527810Y1376680D01*
X1430020Y1271270D02*
X1530350Y1371600D01*
X1441450Y1271270D02*
X1536700Y1366520D01*
X1725930D01*
X1541780Y1361440D02*
X1731010D01*
X1455420Y1275080D02*
X1541780Y1361440D01*
X1466850Y1192530D02*
Y1275080D01*
X1455420Y1211580D02*
Y1275080D01*
X1441450Y1230630D02*
Y1271270D01*
X1430020Y1248410D02*
Y1271270D01*
D173*
X2095260Y294970D02*
D03*
X2045260D02*
D03*
X2073510Y1737830D02*
D03*
X2023510D02*
D03*
D174*
X971550Y406400D02*
D03*
X946150D02*
D03*
X920750D02*
D03*
X869950D02*
D03*
X844550D02*
D03*
X793750D02*
D03*
X742950D02*
D03*
X717550D02*
D03*
X768350D02*
D03*
X819150D02*
D03*
X895350D02*
D03*
X2189480Y668020D02*
D03*
Y718820D02*
D03*
Y769620D02*
D03*
Y744220D02*
D03*
Y693420D02*
D03*
Y642620D02*
D03*
Y617220D02*
D03*
X2063750Y463550D02*
D03*
X2012950D02*
D03*
X1962150D02*
D03*
X1987550D02*
D03*
X2038350D02*
D03*
X2089150D02*
D03*
X2114550D02*
D03*
X1779270Y621030D02*
D03*
Y671830D02*
D03*
Y722630D02*
D03*
Y697230D02*
D03*
Y646430D02*
D03*
Y595630D02*
D03*
Y570230D02*
D03*
D175*
X692150Y406400D02*
D03*
X1936750Y463550D02*
D03*
D176*
X2189480Y795020D02*
D03*
X1779270Y748030D02*
D03*
D177*
X2600960Y1711960D02*
D03*
Y320040D02*
D03*
X701040D02*
D03*
Y1711960D02*
D03*
D178*
X2040890Y904240D02*
D03*
X1485900Y1558290D02*
D03*
D179*
X2015490Y904240D02*
D03*
X1460500Y1558290D02*
D03*
D180*
X746760Y958850D02*
D03*
X1071880Y664210D02*
D03*
D181*
X746760Y984250D02*
D03*
Y1009650D02*
D03*
Y1035050D02*
D03*
X1071880Y740410D02*
D03*
Y715010D02*
D03*
Y689610D02*
D03*
D182*
X868680Y853440D02*
D03*
X1684020Y1718310D02*
D03*
D183*
X868680Y828040D02*
D03*
Y802640D02*
D03*
X1684020Y1667510D02*
D03*
Y1692910D02*
D03*
X1221740Y1303020D02*
D03*
X1196340D02*
D03*
D184*
X1170940D02*
D03*
D185*
X821055Y1385570D02*
D03*
X844550Y1253490D02*
D03*
X660400Y1388110D02*
D03*
X685800Y1305560D02*
D03*
X720090Y1370330D02*
D03*
X701040Y1332230D02*
D03*
X839470Y1351280D02*
D03*
X1891030Y1696720D02*
D03*
X2179320Y1417320D02*
D03*
X2109470Y1339850D02*
D03*
X2094230Y1525270D02*
D03*
X2112010Y1460500D02*
D03*
X2148840Y1357630D02*
D03*
X2482850Y600710D02*
D03*
X830580Y1729740D02*
D03*
X2345690Y647700D02*
D03*
X2388870Y678180D02*
D03*
X2277110Y687070D02*
D03*
X1714500Y554990D02*
D03*
X1690370Y556260D02*
D03*
X1875790Y1233170D02*
D03*
X1921510Y1327150D02*
D03*
X1734820Y1211580D02*
D03*
X1758950Y1214120D02*
D03*
X1771650Y1196340D02*
D03*
X1596390Y1270000D02*
D03*
X1572260Y1206500D02*
D03*
X1531620Y1280160D02*
D03*
X1553210Y1304290D02*
D03*
X1678940Y1163320D02*
D03*
X864870Y1066800D02*
D03*
X814070D02*
D03*
X2131060Y279400D02*
D03*
X2009140D02*
D03*
X2109470Y1752600D02*
D03*
X1554480Y1758950D02*
D03*
X2123440Y839470D02*
D03*
Y890270D02*
D03*
X787400Y1205230D02*
D03*
X1960880Y1682750D02*
D03*
X1809750Y1678940D02*
D03*
X1827530Y1625600D02*
D03*
X1744980Y1658620D02*
D03*
X2082800Y1694180D02*
D03*
X2185670Y1612900D02*
D03*
X2112010Y1546860D02*
D03*
X2072640Y1581150D02*
D03*
X2128520Y1617980D02*
D03*
X2094230D02*
D03*
X2015490Y1127760D02*
D03*
X2075180Y1209040D02*
D03*
X2104390Y1226820D02*
D03*
X782320Y1499870D02*
D03*
X734060Y1504950D02*
D03*
X721360Y1548130D02*
D03*
X749300D02*
D03*
X919480Y1692910D02*
D03*
X891540Y1595120D02*
D03*
X712470Y1418590D02*
D03*
X787400Y1163320D02*
D03*
X938530Y1645920D02*
D03*
X784860Y1418590D02*
D03*
X836930Y1616710D02*
D03*
X2048510Y1666240D02*
D03*
X2024380Y1652270D02*
D03*
X2424430Y708660D02*
D03*
X2227580Y718820D02*
D03*
X1062990Y828040D02*
D03*
X1023620Y919480D02*
D03*
X947420Y899160D02*
D03*
X906780Y586740D02*
D03*
X1101090Y998220D02*
D03*
X979170Y920750D02*
D03*
X960120Y993140D02*
D03*
X1389380Y849630D02*
D03*
X817880Y1018540D02*
D03*
X1564640Y1136650D02*
D03*
X1197610Y1644650D02*
D03*
X2239010Y1140460D02*
D03*
X2259330D02*
D03*
X2279650D02*
D03*
X2299970D02*
D03*
X2320290D02*
D03*
X2340610D02*
D03*
X2360930D02*
D03*
X2381250D02*
D03*
X2401570D02*
D03*
X2421890D02*
D03*
X2442210D02*
D03*
X2462530D02*
D03*
X2482850D02*
D03*
X2503170D02*
D03*
X2523490D02*
D03*
X2509520Y1177290D02*
D03*
X2489200D02*
D03*
X2468880D02*
D03*
X2448560D02*
D03*
X2428240D02*
D03*
X2407920D02*
D03*
X2387600D02*
D03*
X2367280D02*
D03*
X2346960D02*
D03*
X2326640D02*
D03*
X2306320D02*
D03*
X2286000D02*
D03*
X2265680D02*
D03*
X2245360D02*
D03*
X2114550Y801370D02*
D03*
X1230630Y1699260D02*
D03*
X1206500Y1756410D02*
D03*
X1592580Y1501140D02*
D03*
X1639570Y1570990D02*
D03*
X1543050Y1554480D02*
D03*
X1221740Y1487170D02*
D03*
X1129020Y1745470D02*
D03*
X1258570Y1715770D02*
D03*
X1557020Y1473200D02*
D03*
X1623060D02*
D03*
X1441450D02*
D03*
X1357630D02*
D03*
X1350010Y1442720D02*
D03*
X1553210Y1504950D02*
D03*
X1210310Y1548130D02*
D03*
X1417320Y1540510D02*
D03*
X1341120Y1581150D02*
D03*
X1416050Y1564640D02*
D03*
X1410970Y1718310D02*
D03*
X1403350Y1764030D02*
D03*
X660400Y551180D02*
D03*
Y464820D02*
D03*
X699770Y487680D02*
D03*
X974090Y1332230D02*
D03*
X923290Y1410970D02*
D03*
X952500Y1473200D02*
D03*
X1016000Y1385570D02*
D03*
X787400Y1549400D02*
D03*
X1645920Y1656080D02*
D03*
X1234440Y909320D02*
D03*
X1163320Y918210D02*
D03*
X1132840Y970280D02*
D03*
X1250950Y979170D02*
D03*
X878840Y993140D02*
D03*
X1638300Y735330D02*
D03*
X2192020Y1249680D02*
D03*
X2099310Y1049020D02*
D03*
X2174240Y1017270D02*
D03*
X2080260Y1019810D02*
D03*
X1210310Y1014730D02*
D03*
X1295400Y901700D02*
D03*
X1446530Y872490D02*
D03*
X1305560Y1339850D02*
D03*
X1014730Y1446530D02*
D03*
X1046480Y1455420D02*
D03*
X1104900Y1480820D02*
D03*
X1156970Y1343660D02*
D03*
X1242060Y1390650D02*
D03*
X1021080Y1488440D02*
D03*
X689610Y1579880D02*
D03*
X668020Y1504950D02*
D03*
X1148080Y1385570D02*
D03*
X1257300Y1443990D02*
D03*
X869950Y1145540D02*
D03*
X962660Y1169670D02*
D03*
X1821180Y1013460D02*
D03*
X1813560Y1098550D02*
D03*
X1775460Y1013460D02*
D03*
X1615440Y1071880D02*
D03*
X1614170Y1016000D02*
D03*
X1657350Y941070D02*
D03*
X1687830Y929640D02*
D03*
X1737360Y984250D02*
D03*
X1704340Y946150D02*
D03*
Y970280D02*
D03*
X1724660Y750570D02*
D03*
X1638300Y871220D02*
D03*
Y803910D02*
D03*
X1348740Y1172210D02*
D03*
X1330960Y1188720D02*
D03*
X1313180Y1202690D02*
D03*
X1295400Y1219200D02*
D03*
X1276350Y1233170D02*
D03*
X1381760Y1123950D02*
D03*
X1348740Y1115060D02*
D03*
X1330960Y1134110D02*
D03*
X1374140Y1068070D02*
D03*
X1551283Y1332843D02*
D03*
X1654810Y1342390D02*
D03*
X1436370Y1322070D02*
D03*
X1417320Y1309370D02*
D03*
X1385570Y1369060D02*
D03*
X1499870Y1381760D02*
D03*
Y1362710D02*
D03*
X1416050Y1264920D02*
D03*
X1430020Y1248410D02*
D03*
X1441450Y1230630D02*
D03*
X1455420Y1211580D02*
D03*
X1466850Y1192530D02*
D03*
X1513840Y1300480D02*
D03*
Y1136650D02*
D03*
X1637030Y1217930D02*
D03*
X1663700Y1215390D02*
D03*
X1686560Y1207770D02*
D03*
X1710690D02*
D03*
X1626870Y1342390D02*
D03*
X1701800Y1148080D02*
D03*
X1654810Y1408430D02*
D03*
X1372870Y1205230D02*
D03*
X1362710Y1261110D02*
D03*
X1460500Y1066800D02*
D03*
X1358900Y1150620D02*
D03*
X1181100Y1408430D02*
D03*
X1205230Y1395730D02*
D03*
X1604010Y974090D02*
D03*
X1503680Y972820D02*
D03*
X1557020D02*
D03*
X2078990Y770890D02*
D03*
X1694180Y854710D02*
D03*
X1129020Y1714990D02*
D03*
X660400Y626110D02*
D03*
X2448560Y748030D02*
D03*
X2465070Y654050D02*
D03*
X1908810Y554990D02*
D03*
X2020570Y683260D02*
D03*
X1948180Y652780D02*
D03*
X1936750Y830580D02*
D03*
X1911350Y819150D02*
D03*
X1878330Y810260D02*
D03*
X1987550Y1753870D02*
D03*
X1555750Y1638300D02*
D03*
Y1723390D02*
D03*
X1614170Y1673860D02*
D03*
Y1136650D02*
D03*
X1461770Y1659890D02*
D03*
X1489710Y1431290D02*
D03*
X1441450Y1447800D02*
D03*
X1431290Y1414780D02*
D03*
X1569720Y1407160D02*
D03*
X1375410Y1619250D02*
D03*
X1696720Y1342390D02*
D03*
X1710690Y1394460D02*
D03*
X1615440Y1393190D02*
D03*
X1400810Y1385570D02*
D03*
X1503680Y1677670D02*
D03*
X1457960Y1687830D02*
D03*
X1704340Y1431290D02*
D03*
X1614170Y1428750D02*
D03*
X1399540D02*
D03*
X1659890Y1445260D02*
D03*
X1567180Y1443990D02*
D03*
X1341120Y1412240D02*
D03*
X1461770Y1127760D02*
D03*
X1981200Y618490D02*
D03*
X2014220Y617220D02*
D03*
X1949450Y618490D02*
D03*
X2015490Y652780D02*
D03*
X2014220Y713740D02*
D03*
X1949450D02*
D03*
X1981200Y748030D02*
D03*
X2012950Y749300D02*
D03*
X1949450D02*
D03*
X1418590Y916940D02*
D03*
X1459230Y972820D02*
D03*
X647700Y746760D02*
D03*
X764540Y654050D02*
D03*
X680720D02*
D03*
X721360Y711200D02*
D03*
Y635000D02*
D03*
X764540Y673100D02*
D03*
Y692150D02*
D03*
X680720Y673100D02*
D03*
X740410Y711200D02*
D03*
X703580D02*
D03*
X740410Y635000D02*
D03*
D186*
X768770Y1303450D02*
D03*
X757770D02*
D03*
X768770Y1314450D02*
D03*
X757770D02*
D03*
X768770Y1325450D02*
D03*
X757770D02*
D03*
M02*
