G04*
G04 #@! TF.GenerationSoftware,Altium Limited,Altium Designer,23.9.2 (47)*
G04*
G04 Layer_Physical_Order=5*
G04 Layer_Color=16737945*
%FSLAX44Y44*%
%MOMM*%
G71*
G04*
G04 #@! TF.SameCoordinates,8F5B2CAB-9582-47EE-AD33-95BA57DA0C1B*
G04*
G04*
G04 #@! TF.FilePolarity,Positive*
G04*
G01*
G75*
%ADD141C,1.5700*%
%ADD142R,1.5700X1.5700*%
%ADD143R,1.5700X1.5700*%
%ADD149C,1.6700*%
%ADD150R,1.6700X1.6700*%
%ADD153R,1.3900X1.3900*%
%ADD154R,1.3890X1.3890*%
%ADD155C,1.3890*%
%ADD156R,1.3900X1.3900*%
%ADD164C,1.3900*%
%ADD165C,0.2540*%
%ADD172C,0.1270*%
%ADD173C,1.4500*%
%ADD174C,1.6000*%
G04:AMPARAMS|DCode=175|XSize=1.6mm|YSize=1.6mm|CornerRadius=0.4mm|HoleSize=0mm|Usage=FLASHONLY|Rotation=0.000|XOffset=0mm|YOffset=0mm|HoleType=Round|Shape=RoundedRectangle|*
%AMROUNDEDRECTD175*
21,1,1.6000,0.8000,0,0,0.0*
21,1,0.8000,1.6000,0,0,0.0*
1,1,0.8000,0.4000,-0.4000*
1,1,0.8000,-0.4000,-0.4000*
1,1,0.8000,-0.4000,0.4000*
1,1,0.8000,0.4000,0.4000*
%
%ADD175ROUNDEDRECTD175*%
G04:AMPARAMS|DCode=176|XSize=1.6mm|YSize=1.6mm|CornerRadius=0.4mm|HoleSize=0mm|Usage=FLASHONLY|Rotation=270.000|XOffset=0mm|YOffset=0mm|HoleType=Round|Shape=RoundedRectangle|*
%AMROUNDEDRECTD176*
21,1,1.6000,0.8000,0,0,270.0*
21,1,0.8000,1.6000,0,0,270.0*
1,1,0.8000,-0.4000,-0.4000*
1,1,0.8000,-0.4000,0.4000*
1,1,0.8000,0.4000,0.4000*
1,1,0.8000,0.4000,-0.4000*
%
%ADD176ROUNDEDRECTD176*%
%ADD177C,5.0800*%
%ADD178R,1.4000X1.4000*%
%ADD179C,1.4000*%
%ADD180R,1.8000X1.8000*%
%ADD181C,1.8000*%
%ADD182R,1.5500X1.5500*%
%ADD183C,1.5500*%
%ADD184R,1.5500X1.5500*%
%ADD185C,1.2700*%
%ADD186C,0.5000*%
D141*
X1838960Y722630D02*
D03*
Y748030D02*
D03*
Y773430D02*
D03*
Y798830D02*
D03*
X1322070Y1601470D02*
D03*
Y1626870D02*
D03*
Y1652270D02*
D03*
Y1677670D02*
D03*
X833120Y899160D02*
D03*
X807720D02*
D03*
X782320D02*
D03*
X756920D02*
D03*
X1121410Y610870D02*
D03*
Y585470D02*
D03*
Y560070D02*
D03*
Y534670D02*
D03*
D142*
X1838960Y824230D02*
D03*
X1322070Y1703070D02*
D03*
X1121410Y509270D02*
D03*
D143*
X731520Y899160D02*
D03*
D149*
X751840Y1205230D02*
D03*
D150*
Y1179830D02*
D03*
D153*
X929660Y993140D02*
D03*
X1965980Y909320D02*
D03*
D154*
X2035810Y1416050D02*
D03*
D155*
Y1441450D02*
D03*
Y1466850D02*
D03*
Y1492250D02*
D03*
Y1517650D02*
D03*
Y1543050D02*
D03*
Y1568450D02*
D03*
Y1593850D02*
D03*
X2010410Y1416050D02*
D03*
Y1441450D02*
D03*
Y1466850D02*
D03*
Y1492250D02*
D03*
Y1517650D02*
D03*
Y1543050D02*
D03*
Y1568450D02*
D03*
Y1593850D02*
D03*
D156*
X1289050Y655300D02*
D03*
D164*
X904260Y1297940D02*
D03*
Y1272540D02*
D03*
Y1247140D02*
D03*
Y1221740D02*
D03*
Y1196340D02*
D03*
Y1170940D02*
D03*
Y1145540D02*
D03*
Y1120140D02*
D03*
Y1094740D02*
D03*
Y1069340D02*
D03*
Y1043940D02*
D03*
Y1018540D02*
D03*
Y993140D02*
D03*
X929660Y1297940D02*
D03*
Y1272540D02*
D03*
Y1247140D02*
D03*
Y1221740D02*
D03*
Y1196340D02*
D03*
Y1170940D02*
D03*
Y1145540D02*
D03*
Y1120140D02*
D03*
Y1094740D02*
D03*
Y1069340D02*
D03*
Y1043940D02*
D03*
Y1018540D02*
D03*
X1940580Y1214120D02*
D03*
Y1188720D02*
D03*
Y1163320D02*
D03*
Y1137920D02*
D03*
Y1112520D02*
D03*
Y1087120D02*
D03*
Y1061720D02*
D03*
Y1036320D02*
D03*
Y1010920D02*
D03*
Y985520D02*
D03*
Y960120D02*
D03*
Y934720D02*
D03*
Y909320D02*
D03*
X1965980Y1214120D02*
D03*
Y1188720D02*
D03*
Y1163320D02*
D03*
Y1137920D02*
D03*
Y1112520D02*
D03*
Y1087120D02*
D03*
Y1061720D02*
D03*
Y1036320D02*
D03*
Y1010920D02*
D03*
Y985520D02*
D03*
Y960120D02*
D03*
Y934720D02*
D03*
X1593850Y680700D02*
D03*
X1568450D02*
D03*
X1543050D02*
D03*
X1517650D02*
D03*
X1492250D02*
D03*
X1466850D02*
D03*
X1441450D02*
D03*
X1416050D02*
D03*
X1390650D02*
D03*
X1365250D02*
D03*
X1339850D02*
D03*
X1314450D02*
D03*
X1289050D02*
D03*
X1593850Y655300D02*
D03*
X1568450D02*
D03*
X1543050D02*
D03*
X1517650D02*
D03*
X1492250D02*
D03*
X1466850D02*
D03*
X1441450D02*
D03*
X1416050D02*
D03*
X1390650D02*
D03*
X1365250D02*
D03*
X1339850D02*
D03*
X1314450D02*
D03*
D165*
X2075180Y1223010D02*
X2109470Y1257300D01*
Y1339850D01*
X2094230Y1525270D02*
Y1617980D01*
X991870Y367030D02*
X1075690D01*
X1224280Y515620D01*
X971550Y387350D02*
X991870Y367030D01*
X1224280Y515620D02*
Y684530D01*
X1389380Y849630D01*
X1085850Y344170D02*
X1247140Y505460D01*
X692150Y406400D02*
X754380Y344170D01*
X1085850D01*
X971550Y387350D02*
Y406400D01*
X1247140Y673100D02*
X1446530Y872490D01*
X1247140Y505460D02*
Y673100D01*
X1719580Y1567180D02*
X1921510Y1365250D01*
Y1327150D02*
Y1365250D01*
X1654810Y1342390D02*
X1758950Y1238250D01*
Y1214120D02*
Y1238250D01*
X1713230Y1369060D02*
X1771650Y1310640D01*
Y1196340D02*
Y1310640D01*
X1596390Y1270000D02*
Y1287737D01*
X1551283Y1332843D02*
X1596390Y1287737D01*
X2024380Y1652270D02*
X2056130Y1620520D01*
X1974850Y1201420D02*
X2056130Y1282700D01*
Y1620520D01*
X2075180Y1209040D02*
Y1223010D01*
X1953280Y1201420D02*
X1974850D01*
X1719580Y1567180D02*
Y1701800D01*
X1703070Y1718310D02*
X1719580Y1701800D01*
X1684020Y1718310D02*
X1703070D01*
X1940580Y1188720D02*
X1953280Y1201420D01*
X1553210Y1504950D02*
X1595120Y1463040D01*
Y1426210D02*
Y1463040D01*
X1609090Y1412240D02*
X1623060D01*
X1595120Y1426210D02*
X1609090Y1412240D01*
X1666240Y1369060D02*
X1713230D01*
X1623060Y1412240D02*
X1666240Y1369060D01*
X1417320Y1540510D02*
X1418590D01*
X1502410Y1456690D01*
Y1398270D02*
Y1456690D01*
X1375410Y1560830D02*
X1489710Y1446530D01*
X1375410Y1560830D02*
Y1619250D01*
X1341120Y1515110D02*
X1399540Y1456690D01*
X1341120Y1515110D02*
Y1581150D01*
X1416050Y1564640D02*
X1512570Y1468120D01*
Y1400810D02*
Y1468120D01*
X1685290Y1499870D02*
Y1590040D01*
X1614170Y1661160D02*
Y1673860D01*
Y1661160D02*
X1685290Y1590040D01*
X1614170Y1428750D02*
X1685290Y1499870D01*
X1645920Y1656080D02*
X1704340Y1597660D01*
Y1431290D02*
Y1597660D01*
X1399540Y1428507D02*
Y1456690D01*
X1489710Y1431290D02*
Y1446530D01*
X1460500Y1545590D02*
Y1558290D01*
X1521460Y1409700D02*
Y1484630D01*
X1460500Y1545590D02*
X1521460Y1484630D01*
X1710690Y1207770D02*
Y1220470D01*
X1521460Y1409700D02*
X1710690Y1220470D01*
X1436370Y1324819D02*
X1450131Y1338580D01*
X1488440D02*
X1499870Y1350010D01*
X1450131Y1338580D02*
X1488440D01*
X1436370Y1322070D02*
Y1324819D01*
X1499870Y1350010D02*
Y1362710D01*
X1385570Y1341120D02*
Y1369060D01*
Y1341120D02*
X1417320Y1309370D01*
X1663700Y1215390D02*
Y1236980D01*
X1502410Y1398270D02*
X1663700Y1236980D01*
X1512570Y1400810D02*
X1686560Y1226820D01*
Y1207770D02*
Y1226820D01*
D172*
X904260Y1297940D02*
X919500Y1313180D01*
X1122680D01*
X1202690Y1233170D01*
X929660Y1297940D02*
X1125220D01*
X916960Y1285240D02*
X1125220D01*
X1126490Y1272540D02*
X1210310Y1188720D01*
X929660Y1272540D02*
X1126490D01*
X916960Y1259840D02*
X1126490D01*
X1214120Y1172210D01*
X1129030Y1247140D02*
X1242060Y1134110D01*
X929660Y1247140D02*
X1129030D01*
X1132840Y1234440D02*
X1252220Y1115060D01*
X916960Y1234440D02*
X1132840D01*
X1737360Y984250D02*
X1772920Y948690D01*
X1952010D02*
X1965980Y934720D01*
X1772920Y948690D02*
X1952010D01*
X1704340Y946150D02*
X1715770Y934720D01*
X1940580D01*
X1694180Y923290D02*
X1952010D01*
X1965980Y909320D01*
X1687830Y929640D02*
X1694180Y923290D01*
X1657350Y941070D02*
X1689100Y909320D01*
X1940580D01*
X1242060Y1134110D02*
X1330960D01*
X1214120Y1172210D02*
X1348740D01*
X1210310Y1188720D02*
X1330960D01*
X1207770Y1202690D02*
X1313180D01*
X1125220Y1285240D02*
X1207770Y1202690D01*
X1197991Y1225169D02*
X1289431D01*
X1125220Y1297940D02*
X1197991Y1225169D01*
X1202690Y1233170D02*
X1276350D01*
X904260Y1272540D02*
X916960Y1285240D01*
X904260Y1247140D02*
X916960Y1259840D01*
X1289431Y1225169D02*
X1295400Y1219200D01*
X904260Y1221740D02*
X916960Y1234440D01*
X1252220Y1115060D02*
X1348740D01*
D173*
X2095260Y294970D02*
D03*
X2045260D02*
D03*
X2073510Y1737830D02*
D03*
X2023510D02*
D03*
D174*
X971550Y406400D02*
D03*
X946150D02*
D03*
X920750D02*
D03*
X869950D02*
D03*
X844550D02*
D03*
X793750D02*
D03*
X742950D02*
D03*
X717550D02*
D03*
X768350D02*
D03*
X819150D02*
D03*
X895350D02*
D03*
X2189480Y668020D02*
D03*
Y718820D02*
D03*
Y769620D02*
D03*
Y744220D02*
D03*
Y693420D02*
D03*
Y642620D02*
D03*
Y617220D02*
D03*
X2063750Y463550D02*
D03*
X2012950D02*
D03*
X1962150D02*
D03*
X1987550D02*
D03*
X2038350D02*
D03*
X2089150D02*
D03*
X2114550D02*
D03*
X1779270Y621030D02*
D03*
Y671830D02*
D03*
Y722630D02*
D03*
Y697230D02*
D03*
Y646430D02*
D03*
Y595630D02*
D03*
Y570230D02*
D03*
D175*
X692150Y406400D02*
D03*
X1936750Y463550D02*
D03*
D176*
X2189480Y795020D02*
D03*
X1779270Y748030D02*
D03*
D177*
X2600960Y1711960D02*
D03*
Y320040D02*
D03*
X701040D02*
D03*
Y1711960D02*
D03*
D178*
X2040890Y904240D02*
D03*
X1485900Y1558290D02*
D03*
D179*
X2015490Y904240D02*
D03*
X1460500Y1558290D02*
D03*
D180*
X746760Y958850D02*
D03*
X1071880Y664210D02*
D03*
D181*
X746760Y984250D02*
D03*
Y1009650D02*
D03*
Y1035050D02*
D03*
X1071880Y740410D02*
D03*
Y715010D02*
D03*
Y689610D02*
D03*
D182*
X868680Y853440D02*
D03*
X1684020Y1718310D02*
D03*
D183*
X868680Y828040D02*
D03*
Y802640D02*
D03*
X1684020Y1667510D02*
D03*
Y1692910D02*
D03*
X1221740Y1303020D02*
D03*
X1196340D02*
D03*
D184*
X1170940D02*
D03*
D185*
X821055Y1385570D02*
D03*
X844550Y1253490D02*
D03*
X660400Y1388110D02*
D03*
X685800Y1305560D02*
D03*
X720090Y1370330D02*
D03*
X701040Y1332230D02*
D03*
X839470Y1351280D02*
D03*
X1891030Y1696720D02*
D03*
X2179320Y1417320D02*
D03*
X2109470Y1339850D02*
D03*
X2094230Y1525270D02*
D03*
X2112010Y1460500D02*
D03*
X2148840Y1357630D02*
D03*
X2482850Y600710D02*
D03*
X830580Y1729740D02*
D03*
X2345690Y647700D02*
D03*
X2388870Y678180D02*
D03*
X2277110Y687070D02*
D03*
X1714500Y554990D02*
D03*
X1690370Y556260D02*
D03*
X1875790Y1233170D02*
D03*
X1921510Y1327150D02*
D03*
X1734820Y1211580D02*
D03*
X1758950Y1214120D02*
D03*
X1771650Y1196340D02*
D03*
X1596390Y1270000D02*
D03*
X1572260Y1206500D02*
D03*
X1531620Y1280160D02*
D03*
X1553210Y1304290D02*
D03*
X1678940Y1163320D02*
D03*
X864870Y1066800D02*
D03*
X814070D02*
D03*
X2131060Y279400D02*
D03*
X2009140D02*
D03*
X2109470Y1752600D02*
D03*
X1554480Y1758950D02*
D03*
X2123440Y839470D02*
D03*
Y890270D02*
D03*
X787400Y1205230D02*
D03*
X1960880Y1682750D02*
D03*
X1809750Y1678940D02*
D03*
X1827530Y1625600D02*
D03*
X1744980Y1658620D02*
D03*
X2082800Y1694180D02*
D03*
X2185670Y1612900D02*
D03*
X2112010Y1546860D02*
D03*
X2072640Y1581150D02*
D03*
X2128520Y1617980D02*
D03*
X2094230D02*
D03*
X2015490Y1127760D02*
D03*
X2075180Y1209040D02*
D03*
X2104390Y1226820D02*
D03*
X782320Y1499870D02*
D03*
X734060Y1504950D02*
D03*
X721360Y1548130D02*
D03*
X749300D02*
D03*
X919480Y1692910D02*
D03*
X891540Y1595120D02*
D03*
X712470Y1418590D02*
D03*
X787400Y1163320D02*
D03*
X938530Y1645920D02*
D03*
X784860Y1418590D02*
D03*
X836930Y1616710D02*
D03*
X2048510Y1666240D02*
D03*
X2024380Y1652270D02*
D03*
X2424430Y708660D02*
D03*
X2227580Y718820D02*
D03*
X1062990Y828040D02*
D03*
X1023620Y919480D02*
D03*
X947420Y899160D02*
D03*
X906780Y586740D02*
D03*
X1101090Y998220D02*
D03*
X979170Y920750D02*
D03*
X960120Y993140D02*
D03*
X1389380Y849630D02*
D03*
X817880Y1018540D02*
D03*
X1564640Y1136650D02*
D03*
X1197610Y1644650D02*
D03*
X2239010Y1140460D02*
D03*
X2259330D02*
D03*
X2279650D02*
D03*
X2299970D02*
D03*
X2320290D02*
D03*
X2340610D02*
D03*
X2360930D02*
D03*
X2381250D02*
D03*
X2401570D02*
D03*
X2421890D02*
D03*
X2442210D02*
D03*
X2462530D02*
D03*
X2482850D02*
D03*
X2503170D02*
D03*
X2523490D02*
D03*
X2509520Y1177290D02*
D03*
X2489200D02*
D03*
X2468880D02*
D03*
X2448560D02*
D03*
X2428240D02*
D03*
X2407920D02*
D03*
X2387600D02*
D03*
X2367280D02*
D03*
X2346960D02*
D03*
X2326640D02*
D03*
X2306320D02*
D03*
X2286000D02*
D03*
X2265680D02*
D03*
X2245360D02*
D03*
X2114550Y801370D02*
D03*
X1230630Y1699260D02*
D03*
X1206500Y1756410D02*
D03*
X1592580Y1501140D02*
D03*
X1639570Y1570990D02*
D03*
X1543050Y1554480D02*
D03*
X1221740Y1487170D02*
D03*
X1129020Y1745470D02*
D03*
X1258570Y1715770D02*
D03*
X1557020Y1473200D02*
D03*
X1623060D02*
D03*
X1441450D02*
D03*
X1357630D02*
D03*
X1350010Y1442720D02*
D03*
X1553210Y1504950D02*
D03*
X1210310Y1548130D02*
D03*
X1417320Y1540510D02*
D03*
X1341120Y1581150D02*
D03*
X1416050Y1564640D02*
D03*
X1410970Y1718310D02*
D03*
X1403350Y1764030D02*
D03*
X660400Y551180D02*
D03*
Y464820D02*
D03*
X699770Y487680D02*
D03*
X974090Y1332230D02*
D03*
X923290Y1410970D02*
D03*
X952500Y1473200D02*
D03*
X1016000Y1385570D02*
D03*
X787400Y1549400D02*
D03*
X1645920Y1656080D02*
D03*
X1234440Y909320D02*
D03*
X1163320Y918210D02*
D03*
X1132840Y970280D02*
D03*
X1250950Y979170D02*
D03*
X878840Y993140D02*
D03*
X1638300Y735330D02*
D03*
X2192020Y1249680D02*
D03*
X2099310Y1049020D02*
D03*
X2174240Y1017270D02*
D03*
X2080260Y1019810D02*
D03*
X1210310Y1014730D02*
D03*
X1295400Y901700D02*
D03*
X1446530Y872490D02*
D03*
X1305560Y1339850D02*
D03*
X1014730Y1446530D02*
D03*
X1046480Y1455420D02*
D03*
X1104900Y1480820D02*
D03*
X1156970Y1343660D02*
D03*
X1242060Y1390650D02*
D03*
X1021080Y1488440D02*
D03*
X689610Y1579880D02*
D03*
X668020Y1504950D02*
D03*
X1148080Y1385570D02*
D03*
X1257300Y1443990D02*
D03*
X869950Y1145540D02*
D03*
X962660Y1169670D02*
D03*
X1821180Y1013460D02*
D03*
X1813560Y1098550D02*
D03*
X1775460Y1013460D02*
D03*
X1615440Y1071880D02*
D03*
X1614170Y1016000D02*
D03*
X1657350Y941070D02*
D03*
X1687830Y929640D02*
D03*
X1737360Y984250D02*
D03*
X1704340Y946150D02*
D03*
Y970280D02*
D03*
X1724660Y750570D02*
D03*
X1638300Y871220D02*
D03*
Y803910D02*
D03*
X1348740Y1172210D02*
D03*
X1330960Y1188720D02*
D03*
X1313180Y1202690D02*
D03*
X1295400Y1219200D02*
D03*
X1276350Y1233170D02*
D03*
X1381760Y1123950D02*
D03*
X1348740Y1115060D02*
D03*
X1330960Y1134110D02*
D03*
X1374140Y1068070D02*
D03*
X1551283Y1332843D02*
D03*
X1654810Y1342390D02*
D03*
X1436370Y1322070D02*
D03*
X1417320Y1309370D02*
D03*
X1385570Y1369060D02*
D03*
X1499870Y1381760D02*
D03*
Y1362710D02*
D03*
X1416050Y1264920D02*
D03*
X1430020Y1248410D02*
D03*
X1441450Y1230630D02*
D03*
X1455420Y1211580D02*
D03*
X1466850Y1192530D02*
D03*
X1513840Y1300480D02*
D03*
Y1136650D02*
D03*
X1637030Y1217930D02*
D03*
X1663700Y1215390D02*
D03*
X1686560Y1207770D02*
D03*
X1710690D02*
D03*
X1626870Y1342390D02*
D03*
X1701800Y1148080D02*
D03*
X1654810Y1408430D02*
D03*
X1372870Y1205230D02*
D03*
X1362710Y1261110D02*
D03*
X1460500Y1066800D02*
D03*
X1358900Y1150620D02*
D03*
X1181100Y1408430D02*
D03*
X1205230Y1395730D02*
D03*
X1604010Y974090D02*
D03*
X1503680Y972820D02*
D03*
X1557020D02*
D03*
X2078990Y770890D02*
D03*
X1694180Y854710D02*
D03*
X1129020Y1714990D02*
D03*
X660400Y626110D02*
D03*
X2448560Y748030D02*
D03*
X2465070Y654050D02*
D03*
X1908810Y554990D02*
D03*
X2020570Y683260D02*
D03*
X1948180Y652780D02*
D03*
X1936750Y830580D02*
D03*
X1911350Y819150D02*
D03*
X1878330Y810260D02*
D03*
X1987550Y1753870D02*
D03*
X1555750Y1638300D02*
D03*
Y1723390D02*
D03*
X1614170Y1673860D02*
D03*
Y1136650D02*
D03*
X1461770Y1659890D02*
D03*
X1489710Y1431290D02*
D03*
X1441450Y1447800D02*
D03*
X1431290Y1414780D02*
D03*
X1569720Y1407160D02*
D03*
X1375410Y1619250D02*
D03*
X1696720Y1342390D02*
D03*
X1710690Y1394460D02*
D03*
X1615440Y1393190D02*
D03*
X1400810Y1385570D02*
D03*
X1503680Y1677670D02*
D03*
X1457960Y1687830D02*
D03*
X1704340Y1431290D02*
D03*
X1614170Y1428750D02*
D03*
X1399540D02*
D03*
X1659890Y1445260D02*
D03*
X1567180Y1443990D02*
D03*
X1341120Y1412240D02*
D03*
X1461770Y1127760D02*
D03*
X1981200Y618490D02*
D03*
X2014220Y617220D02*
D03*
X1949450Y618490D02*
D03*
X2015490Y652780D02*
D03*
X2014220Y713740D02*
D03*
X1949450D02*
D03*
X1981200Y748030D02*
D03*
X2012950Y749300D02*
D03*
X1949450D02*
D03*
X1418590Y916940D02*
D03*
X1459230Y972820D02*
D03*
X647700Y746760D02*
D03*
X764540Y654050D02*
D03*
X680720D02*
D03*
X721360Y711200D02*
D03*
Y635000D02*
D03*
X764540Y673100D02*
D03*
Y692150D02*
D03*
X680720Y673100D02*
D03*
X740410Y711200D02*
D03*
X703580D02*
D03*
X740410Y635000D02*
D03*
D186*
X768770Y1303450D02*
D03*
X757770D02*
D03*
X768770Y1314450D02*
D03*
X757770D02*
D03*
X768770Y1325450D02*
D03*
X757770D02*
D03*
M02*
