G04*
G04 #@! TF.GenerationSoftware,Altium Limited,Altium Designer,23.9.2 (47)*
G04*
G04 Layer_Physical_Order=1*
G04 Layer_Color=255*
%FSLAX44Y44*%
%MOMM*%
G71*
G04*
G04 #@! TF.SameCoordinates,8F5B2CAB-9582-47EE-AD33-95BA57DA0C1B*
G04*
G04*
G04 #@! TF.FilePolarity,Positive*
G04*
G01*
G75*
%ADD31C,0.5000*%
%ADD32R,0.5400X0.5800*%
%ADD33R,0.5500X0.5500*%
G04:AMPARAMS|DCode=34|XSize=2.4mm|YSize=3.38mm|CornerRadius=0.048mm|HoleSize=0mm|Usage=FLASHONLY|Rotation=0.000|XOffset=0mm|YOffset=0mm|HoleType=Round|Shape=RoundedRectangle|*
%AMROUNDEDRECTD34*
21,1,2.4000,3.2840,0,0,0.0*
21,1,2.3040,3.3800,0,0,0.0*
1,1,0.0960,1.1520,-1.6420*
1,1,0.0960,-1.1520,-1.6420*
1,1,0.0960,-1.1520,1.6420*
1,1,0.0960,1.1520,1.6420*
%
%ADD34ROUNDEDRECTD34*%
G04:AMPARAMS|DCode=35|XSize=0.35mm|YSize=1.45mm|CornerRadius=0.0508mm|HoleSize=0mm|Usage=FLASHONLY|Rotation=90.000|XOffset=0mm|YOffset=0mm|HoleType=Round|Shape=RoundedRectangle|*
%AMROUNDEDRECTD35*
21,1,0.3500,1.3485,0,0,90.0*
21,1,0.2485,1.4500,0,0,90.0*
1,1,0.1015,0.6743,0.1243*
1,1,0.1015,0.6743,-0.1243*
1,1,0.1015,-0.6743,-0.1243*
1,1,0.1015,-0.6743,0.1243*
%
%ADD35ROUNDEDRECTD35*%
%ADD36R,1.5082X1.3061*%
%ADD37R,0.5000X0.6000*%
%ADD38R,1.0000X0.7500*%
%ADD39R,0.7581X0.8121*%
%ADD40R,1.0300X1.0000*%
%ADD41R,0.4800X1.8000*%
%ADD42R,0.6500X1.3000*%
%ADD43R,1.6000X1.4000*%
%ADD44R,1.3000X1.5500*%
%ADD45R,0.4000X1.3500*%
%ADD46R,1.5000X1.9000*%
%ADD47R,0.4200X0.2200*%
%ADD48R,0.6500X0.9000*%
%ADD49R,0.9000X0.7500*%
%ADD50R,0.5800X0.5400*%
%ADD51R,0.5000X0.4500*%
%ADD52R,0.4500X0.5000*%
%ADD53R,0.6000X0.5500*%
G04:AMPARAMS|DCode=54|XSize=0.76mm|YSize=0.6604mm|CornerRadius=0.0825mm|HoleSize=0mm|Usage=FLASHONLY|Rotation=0.000|XOffset=0mm|YOffset=0mm|HoleType=Round|Shape=RoundedRectangle|*
%AMROUNDEDRECTD54*
21,1,0.7600,0.4953,0,0,0.0*
21,1,0.5949,0.6604,0,0,0.0*
1,1,0.1651,0.2975,-0.2477*
1,1,0.1651,-0.2975,-0.2477*
1,1,0.1651,-0.2975,0.2477*
1,1,0.1651,0.2975,0.2477*
%
%ADD54ROUNDEDRECTD54*%
%ADD55R,3.6800X1.2700*%
%ADD56R,0.8000X0.9000*%
%ADD57R,0.8000X0.8000*%
%ADD58R,0.9000X0.9500*%
%ADD59R,0.6500X0.6500*%
G04:AMPARAMS|DCode=60|XSize=0.55mm|YSize=0.5mm|CornerRadius=0.0625mm|HoleSize=0mm|Usage=FLASHONLY|Rotation=0.000|XOffset=0mm|YOffset=0mm|HoleType=Round|Shape=RoundedRectangle|*
%AMROUNDEDRECTD60*
21,1,0.5500,0.3750,0,0,0.0*
21,1,0.4250,0.5000,0,0,0.0*
1,1,0.1250,0.2125,-0.1875*
1,1,0.1250,-0.2125,-0.1875*
1,1,0.1250,-0.2125,0.1875*
1,1,0.1250,0.2125,0.1875*
%
%ADD60ROUNDEDRECTD60*%
%ADD61R,0.6500X0.6500*%
G04:AMPARAMS|DCode=62|XSize=0.55mm|YSize=0.5mm|CornerRadius=0.0625mm|HoleSize=0mm|Usage=FLASHONLY|Rotation=270.000|XOffset=0mm|YOffset=0mm|HoleType=Round|Shape=RoundedRectangle|*
%AMROUNDEDRECTD62*
21,1,0.5500,0.3750,0,0,270.0*
21,1,0.4250,0.5000,0,0,270.0*
1,1,0.1250,-0.1875,-0.2125*
1,1,0.1250,-0.1875,0.2125*
1,1,0.1250,0.1875,0.2125*
1,1,0.1250,0.1875,-0.2125*
%
%ADD62ROUNDEDRECTD62*%
G04:AMPARAMS|DCode=63|XSize=0.76mm|YSize=0.6604mm|CornerRadius=0.0825mm|HoleSize=0mm|Usage=FLASHONLY|Rotation=90.000|XOffset=0mm|YOffset=0mm|HoleType=Round|Shape=RoundedRectangle|*
%AMROUNDEDRECTD63*
21,1,0.7600,0.4953,0,0,90.0*
21,1,0.5949,0.6604,0,0,90.0*
1,1,0.1651,0.2477,0.2975*
1,1,0.1651,0.2477,-0.2975*
1,1,0.1651,-0.2477,-0.2975*
1,1,0.1651,-0.2477,0.2975*
%
%ADD63ROUNDEDRECTD63*%
%ADD64R,0.5153X0.4725*%
%ADD65R,0.4725X0.5153*%
G04:AMPARAMS|DCode=66|XSize=0.65mm|YSize=1.65mm|CornerRadius=0.0488mm|HoleSize=0mm|Usage=FLASHONLY|Rotation=180.000|XOffset=0mm|YOffset=0mm|HoleType=Round|Shape=RoundedRectangle|*
%AMROUNDEDRECTD66*
21,1,0.6500,1.5525,0,0,180.0*
21,1,0.5525,1.6500,0,0,180.0*
1,1,0.0975,-0.2763,0.7763*
1,1,0.0975,0.2763,0.7763*
1,1,0.0975,0.2763,-0.7763*
1,1,0.0975,-0.2763,-0.7763*
%
%ADD66ROUNDEDRECTD66*%
%ADD67R,0.6250X0.8500*%
%ADD68R,1.0500X2.2000*%
%ADD69R,1.0000X1.0500*%
%ADD70R,3.7000X1.4000*%
%ADD71R,5.6000X2.6000*%
%ADD72R,0.9682X1.0065*%
%ADD73R,1.3562X1.1544*%
%ADD74R,0.2925X0.5561*%
G04:AMPARAMS|DCode=75|XSize=0.5561mm|YSize=0.2925mm|CornerRadius=0.1462mm|HoleSize=0mm|Usage=FLASHONLY|Rotation=90.000|XOffset=0mm|YOffset=0mm|HoleType=Round|Shape=RoundedRectangle|*
%AMROUNDEDRECTD75*
21,1,0.5561,0.0000,0,0,90.0*
21,1,0.2636,0.2925,0,0,90.0*
1,1,0.2925,0.0000,0.1318*
1,1,0.2925,0.0000,-0.1318*
1,1,0.2925,0.0000,-0.1318*
1,1,0.2925,0.0000,0.1318*
%
%ADD75ROUNDEDRECTD75*%
%ADD76R,0.8000X0.8000*%
%ADD77R,0.3500X1.3500*%
%ADD78R,0.5500X0.5000*%
%ADD79R,0.9000X2.0000*%
%ADD80R,2.0000X0.9000*%
%ADD81R,1.3300X1.3300*%
%ADD82R,0.9500X0.9000*%
%ADD83R,2.2000X1.0500*%
%ADD84R,1.0500X1.0000*%
%ADD85R,1.5000X0.7000*%
%ADD86R,1.5000X1.0000*%
%ADD87R,0.7000X1.5000*%
%ADD88R,0.5000X0.5500*%
%ADD89R,0.9500X0.8000*%
%ADD90R,1.3500X0.3500*%
%ADD91R,0.2425X0.8810*%
G04:AMPARAMS|DCode=92|XSize=0.881mm|YSize=0.2425mm|CornerRadius=0.1212mm|HoleSize=0mm|Usage=FLASHONLY|Rotation=90.000|XOffset=0mm|YOffset=0mm|HoleType=Round|Shape=RoundedRectangle|*
%AMROUNDEDRECTD92*
21,1,0.8810,0.0000,0,0,90.0*
21,1,0.6385,0.2425,0,0,90.0*
1,1,0.2425,0.0000,0.3193*
1,1,0.2425,0.0000,-0.3193*
1,1,0.2425,0.0000,-0.3193*
1,1,0.2425,0.0000,0.3193*
%
%ADD92ROUNDEDRECTD92*%
%ADD113R,0.2400X0.3200*%
%ADD129R,0.2500X0.2500*%
%ADD132R,1.7000X1.1000*%
%ADD135R,0.3000X0.8000*%
%ADD140R,2.4800X1.6500*%
%ADD141C,1.5700*%
%ADD142R,1.5700X1.5700*%
%ADD143R,1.5700X1.5700*%
%ADD149C,1.6700*%
%ADD150R,1.6700X1.6700*%
%ADD153R,1.3900X1.3900*%
%ADD154R,1.3890X1.3890*%
%ADD155C,1.3890*%
%ADD156R,1.3900X1.3900*%
%ADD164C,1.3900*%
%ADD165C,0.2540*%
%ADD166C,0.7620*%
%ADD167C,0.5080*%
%ADD168C,0.3810*%
%ADD169R,1.1000X1.1000*%
%ADD170R,0.8000X1.5000*%
%ADD171R,1.5000X0.8000*%
%ADD172C,0.1270*%
%ADD173C,1.4500*%
%ADD174C,1.6000*%
G04:AMPARAMS|DCode=175|XSize=1.6mm|YSize=1.6mm|CornerRadius=0.4mm|HoleSize=0mm|Usage=FLASHONLY|Rotation=0.000|XOffset=0mm|YOffset=0mm|HoleType=Round|Shape=RoundedRectangle|*
%AMROUNDEDRECTD175*
21,1,1.6000,0.8000,0,0,0.0*
21,1,0.8000,1.6000,0,0,0.0*
1,1,0.8000,0.4000,-0.4000*
1,1,0.8000,-0.4000,-0.4000*
1,1,0.8000,-0.4000,0.4000*
1,1,0.8000,0.4000,0.4000*
%
%ADD175ROUNDEDRECTD175*%
G04:AMPARAMS|DCode=176|XSize=1.6mm|YSize=1.6mm|CornerRadius=0.4mm|HoleSize=0mm|Usage=FLASHONLY|Rotation=270.000|XOffset=0mm|YOffset=0mm|HoleType=Round|Shape=RoundedRectangle|*
%AMROUNDEDRECTD176*
21,1,1.6000,0.8000,0,0,270.0*
21,1,0.8000,1.6000,0,0,270.0*
1,1,0.8000,-0.4000,-0.4000*
1,1,0.8000,-0.4000,0.4000*
1,1,0.8000,0.4000,0.4000*
1,1,0.8000,0.4000,-0.4000*
%
%ADD176ROUNDEDRECTD176*%
%ADD177C,5.0800*%
%ADD178R,1.4000X1.4000*%
%ADD179C,1.4000*%
%ADD180R,1.8000X1.8000*%
%ADD181C,1.8000*%
%ADD182R,1.5500X1.5500*%
%ADD183C,1.5500*%
%ADD184R,1.5500X1.5500*%
%ADD185C,1.2700*%
%ADD186C,0.5000*%
G36*
X2034260Y263470D02*
Y272470D01*
X2029260D01*
X2029260Y263470D01*
X2034260D01*
D02*
G37*
G36*
X2047260Y258470D02*
Y277470D01*
X2034260D01*
Y258470D01*
X2047260D01*
D02*
G37*
G36*
X2093260Y277470D02*
Y258470D01*
X2106260D01*
Y277470D01*
X2093260D01*
D02*
G37*
G36*
X2106260Y272470D02*
Y263470D01*
X2111260D01*
X2111260Y272470D01*
X2106260D01*
D02*
G37*
G36*
X2533650Y836930D02*
X2533650Y835804D01*
X2533211Y833596D01*
X2532349Y831516D01*
X2531098Y829644D01*
X2529506Y828052D01*
X2527634Y826801D01*
X2525554Y825939D01*
X2523346Y825500D01*
X2522220Y825500D01*
X2241550D01*
X2240299Y825500D01*
X2237845Y825988D01*
X2235534Y826945D01*
X2233454Y828335D01*
X2231685Y830104D01*
X2230295Y832184D01*
X2229338Y834495D01*
X2228850Y836949D01*
X2228850Y838200D01*
Y838200D01*
X2228850Y1151170D01*
X2533650Y1151170D01*
X2533650Y836930D01*
D02*
G37*
G36*
X2089510Y1760330D02*
X2084510D01*
Y1769330D01*
X2089510D01*
X2089510Y1760330D01*
D02*
G37*
G36*
X2012510Y1760330D02*
X2007510D01*
X2007510Y1769330D01*
X2012510D01*
Y1760330D01*
D02*
G37*
G36*
X2084510Y1755330D02*
X2071510D01*
Y1774330D01*
X2084510D01*
Y1755330D01*
D02*
G37*
G36*
X2025510D02*
X2012510D01*
Y1774330D01*
X2025510D01*
Y1755330D01*
D02*
G37*
G36*
X2524654Y1740682D02*
X2526966Y1739724D01*
X2529046Y1738335D01*
X2530815Y1736566D01*
X2532204Y1734486D01*
X2533162Y1732174D01*
X2533650Y1729721D01*
X2533650Y1728470D01*
X2533650Y1728470D01*
X2533650Y1728470D01*
X2533650Y1165310D01*
X2228850Y1165310D01*
X2228850Y1728470D01*
X2228850Y1729721D01*
X2229338Y1732174D01*
X2230295Y1734486D01*
X2231685Y1736566D01*
X2233454Y1738335D01*
X2235534Y1739724D01*
X2237845Y1740682D01*
X2240299Y1741170D01*
X2241550D01*
X2241550Y1741170D01*
X2520950Y1741170D01*
X2522201Y1741170D01*
X2524654Y1740682D01*
D02*
G37*
%LPC*%
G36*
X2524760Y1149323D02*
Y1141730D01*
X2532353D01*
X2531774Y1143891D01*
X2530604Y1145919D01*
X2528949Y1147574D01*
X2526921Y1148744D01*
X2524760Y1149323D01*
D02*
G37*
G36*
X2522220D02*
X2520059Y1148744D01*
X2518031Y1147574D01*
X2516376Y1145919D01*
X2515206Y1143891D01*
X2514627Y1141730D01*
X2522220D01*
Y1149323D01*
D02*
G37*
G36*
X2504440D02*
Y1141730D01*
X2512033D01*
X2511454Y1143891D01*
X2510284Y1145919D01*
X2508629Y1147574D01*
X2506601Y1148744D01*
X2504440Y1149323D01*
D02*
G37*
G36*
X2501900D02*
X2499739Y1148744D01*
X2497711Y1147574D01*
X2496056Y1145919D01*
X2494886Y1143891D01*
X2494307Y1141730D01*
X2501900D01*
Y1149323D01*
D02*
G37*
G36*
X2484120D02*
Y1141730D01*
X2491713D01*
X2491134Y1143891D01*
X2489964Y1145919D01*
X2488309Y1147574D01*
X2486281Y1148744D01*
X2484120Y1149323D01*
D02*
G37*
G36*
X2481580D02*
X2479419Y1148744D01*
X2477391Y1147574D01*
X2475736Y1145919D01*
X2474566Y1143891D01*
X2473987Y1141730D01*
X2481580D01*
Y1149323D01*
D02*
G37*
G36*
X2463800D02*
Y1141730D01*
X2471393D01*
X2470814Y1143891D01*
X2469644Y1145919D01*
X2467989Y1147574D01*
X2465961Y1148744D01*
X2463800Y1149323D01*
D02*
G37*
G36*
X2461260D02*
X2459099Y1148744D01*
X2457071Y1147574D01*
X2455416Y1145919D01*
X2454246Y1143891D01*
X2453667Y1141730D01*
X2461260D01*
Y1149323D01*
D02*
G37*
G36*
X2443480D02*
Y1141730D01*
X2451073D01*
X2450494Y1143891D01*
X2449324Y1145919D01*
X2447669Y1147574D01*
X2445641Y1148744D01*
X2443480Y1149323D01*
D02*
G37*
G36*
X2440940D02*
X2438779Y1148744D01*
X2436751Y1147574D01*
X2435096Y1145919D01*
X2433926Y1143891D01*
X2433347Y1141730D01*
X2440940D01*
Y1149323D01*
D02*
G37*
G36*
X2423160D02*
Y1141730D01*
X2430753D01*
X2430174Y1143891D01*
X2429004Y1145919D01*
X2427349Y1147574D01*
X2425321Y1148744D01*
X2423160Y1149323D01*
D02*
G37*
G36*
X2420620D02*
X2418459Y1148744D01*
X2416431Y1147574D01*
X2414776Y1145919D01*
X2413606Y1143891D01*
X2413027Y1141730D01*
X2420620D01*
Y1149323D01*
D02*
G37*
G36*
X2402840D02*
Y1141730D01*
X2410433D01*
X2409854Y1143891D01*
X2408684Y1145919D01*
X2407029Y1147574D01*
X2405001Y1148744D01*
X2402840Y1149323D01*
D02*
G37*
G36*
X2400300D02*
X2398139Y1148744D01*
X2396111Y1147574D01*
X2394456Y1145919D01*
X2393286Y1143891D01*
X2392707Y1141730D01*
X2400300D01*
Y1149323D01*
D02*
G37*
G36*
X2382520D02*
Y1141730D01*
X2390113D01*
X2389534Y1143891D01*
X2388364Y1145919D01*
X2386709Y1147574D01*
X2384681Y1148744D01*
X2382520Y1149323D01*
D02*
G37*
G36*
X2379980D02*
X2377819Y1148744D01*
X2375791Y1147574D01*
X2374136Y1145919D01*
X2372966Y1143891D01*
X2372387Y1141730D01*
X2379980D01*
Y1149323D01*
D02*
G37*
G36*
X2362200D02*
Y1141730D01*
X2369793D01*
X2369214Y1143891D01*
X2368044Y1145919D01*
X2366389Y1147574D01*
X2364361Y1148744D01*
X2362200Y1149323D01*
D02*
G37*
G36*
X2359660D02*
X2357499Y1148744D01*
X2355471Y1147574D01*
X2353816Y1145919D01*
X2352646Y1143891D01*
X2352067Y1141730D01*
X2359660D01*
Y1149323D01*
D02*
G37*
G36*
X2341880D02*
Y1141730D01*
X2349473D01*
X2348894Y1143891D01*
X2347724Y1145919D01*
X2346069Y1147574D01*
X2344041Y1148744D01*
X2341880Y1149323D01*
D02*
G37*
G36*
X2339340D02*
X2337179Y1148744D01*
X2335151Y1147574D01*
X2333496Y1145919D01*
X2332326Y1143891D01*
X2331747Y1141730D01*
X2339340D01*
Y1149323D01*
D02*
G37*
G36*
X2321560D02*
Y1141730D01*
X2329153D01*
X2328574Y1143891D01*
X2327404Y1145919D01*
X2325749Y1147574D01*
X2323721Y1148744D01*
X2321560Y1149323D01*
D02*
G37*
G36*
X2319020D02*
X2316859Y1148744D01*
X2314831Y1147574D01*
X2313176Y1145919D01*
X2312006Y1143891D01*
X2311427Y1141730D01*
X2319020D01*
Y1149323D01*
D02*
G37*
G36*
X2301240D02*
Y1141730D01*
X2308833D01*
X2308254Y1143891D01*
X2307084Y1145919D01*
X2305429Y1147574D01*
X2303401Y1148744D01*
X2301240Y1149323D01*
D02*
G37*
G36*
X2298700D02*
X2296539Y1148744D01*
X2294511Y1147574D01*
X2292856Y1145919D01*
X2291686Y1143891D01*
X2291107Y1141730D01*
X2298700D01*
Y1149323D01*
D02*
G37*
G36*
X2280920D02*
Y1141730D01*
X2288513D01*
X2287934Y1143891D01*
X2286764Y1145919D01*
X2285109Y1147574D01*
X2283081Y1148744D01*
X2280920Y1149323D01*
D02*
G37*
G36*
X2278380D02*
X2276219Y1148744D01*
X2274191Y1147574D01*
X2272536Y1145919D01*
X2271366Y1143891D01*
X2270787Y1141730D01*
X2278380D01*
Y1149323D01*
D02*
G37*
G36*
X2260600D02*
Y1141730D01*
X2268193D01*
X2267614Y1143891D01*
X2266444Y1145919D01*
X2264789Y1147574D01*
X2262761Y1148744D01*
X2260600Y1149323D01*
D02*
G37*
G36*
X2258060D02*
X2255899Y1148744D01*
X2253871Y1147574D01*
X2252216Y1145919D01*
X2251046Y1143891D01*
X2250467Y1141730D01*
X2258060D01*
Y1149323D01*
D02*
G37*
G36*
X2240280D02*
Y1141730D01*
X2247873D01*
X2247294Y1143891D01*
X2246124Y1145919D01*
X2244469Y1147574D01*
X2242441Y1148744D01*
X2240280Y1149323D01*
D02*
G37*
G36*
X2237740D02*
X2235579Y1148744D01*
X2233551Y1147574D01*
X2231896Y1145919D01*
X2230726Y1143891D01*
X2230147Y1141730D01*
X2237740D01*
Y1149323D01*
D02*
G37*
G36*
X2532353Y1139190D02*
X2524760D01*
Y1131597D01*
X2526921Y1132176D01*
X2528949Y1133346D01*
X2530604Y1135001D01*
X2531774Y1137029D01*
X2532353Y1139190D01*
D02*
G37*
G36*
X2522220D02*
X2514627D01*
X2515206Y1137029D01*
X2516376Y1135001D01*
X2518031Y1133346D01*
X2520059Y1132176D01*
X2522220Y1131597D01*
Y1139190D01*
D02*
G37*
G36*
X2512033D02*
X2504440D01*
Y1131597D01*
X2506601Y1132176D01*
X2508629Y1133346D01*
X2510284Y1135001D01*
X2511454Y1137029D01*
X2512033Y1139190D01*
D02*
G37*
G36*
X2501900D02*
X2494307D01*
X2494886Y1137029D01*
X2496056Y1135001D01*
X2497711Y1133346D01*
X2499739Y1132176D01*
X2501900Y1131597D01*
Y1139190D01*
D02*
G37*
G36*
X2491713D02*
X2484120D01*
Y1131597D01*
X2486281Y1132176D01*
X2488309Y1133346D01*
X2489964Y1135001D01*
X2491134Y1137029D01*
X2491713Y1139190D01*
D02*
G37*
G36*
X2481580D02*
X2473987D01*
X2474566Y1137029D01*
X2475736Y1135001D01*
X2477391Y1133346D01*
X2479419Y1132176D01*
X2481580Y1131597D01*
Y1139190D01*
D02*
G37*
G36*
X2471393D02*
X2463800D01*
Y1131597D01*
X2465961Y1132176D01*
X2467989Y1133346D01*
X2469644Y1135001D01*
X2470814Y1137029D01*
X2471393Y1139190D01*
D02*
G37*
G36*
X2461260D02*
X2453667D01*
X2454246Y1137029D01*
X2455416Y1135001D01*
X2457071Y1133346D01*
X2459099Y1132176D01*
X2461260Y1131597D01*
Y1139190D01*
D02*
G37*
G36*
X2451073D02*
X2443480D01*
Y1131597D01*
X2445641Y1132176D01*
X2447669Y1133346D01*
X2449324Y1135001D01*
X2450494Y1137029D01*
X2451073Y1139190D01*
D02*
G37*
G36*
X2440940D02*
X2433347D01*
X2433926Y1137029D01*
X2435096Y1135001D01*
X2436751Y1133346D01*
X2438779Y1132176D01*
X2440940Y1131597D01*
Y1139190D01*
D02*
G37*
G36*
X2430753D02*
X2423160D01*
Y1131597D01*
X2425321Y1132176D01*
X2427349Y1133346D01*
X2429004Y1135001D01*
X2430174Y1137029D01*
X2430753Y1139190D01*
D02*
G37*
G36*
X2420620D02*
X2413027D01*
X2413606Y1137029D01*
X2414776Y1135001D01*
X2416431Y1133346D01*
X2418459Y1132176D01*
X2420620Y1131597D01*
Y1139190D01*
D02*
G37*
G36*
X2410433D02*
X2402840D01*
Y1131597D01*
X2405001Y1132176D01*
X2407029Y1133346D01*
X2408684Y1135001D01*
X2409854Y1137029D01*
X2410433Y1139190D01*
D02*
G37*
G36*
X2400300D02*
X2392707D01*
X2393286Y1137029D01*
X2394456Y1135001D01*
X2396111Y1133346D01*
X2398139Y1132176D01*
X2400300Y1131597D01*
Y1139190D01*
D02*
G37*
G36*
X2390113D02*
X2382520D01*
Y1131597D01*
X2384681Y1132176D01*
X2386709Y1133346D01*
X2388364Y1135001D01*
X2389534Y1137029D01*
X2390113Y1139190D01*
D02*
G37*
G36*
X2379980D02*
X2372387D01*
X2372966Y1137029D01*
X2374136Y1135001D01*
X2375791Y1133346D01*
X2377819Y1132176D01*
X2379980Y1131597D01*
Y1139190D01*
D02*
G37*
G36*
X2369793D02*
X2362200D01*
Y1131597D01*
X2364361Y1132176D01*
X2366389Y1133346D01*
X2368044Y1135001D01*
X2369214Y1137029D01*
X2369793Y1139190D01*
D02*
G37*
G36*
X2359660D02*
X2352067D01*
X2352646Y1137029D01*
X2353816Y1135001D01*
X2355471Y1133346D01*
X2357499Y1132176D01*
X2359660Y1131597D01*
Y1139190D01*
D02*
G37*
G36*
X2349473D02*
X2341880D01*
Y1131597D01*
X2344041Y1132176D01*
X2346069Y1133346D01*
X2347724Y1135001D01*
X2348894Y1137029D01*
X2349473Y1139190D01*
D02*
G37*
G36*
X2339340D02*
X2331747D01*
X2332326Y1137029D01*
X2333496Y1135001D01*
X2335151Y1133346D01*
X2337179Y1132176D01*
X2339340Y1131597D01*
Y1139190D01*
D02*
G37*
G36*
X2329153D02*
X2321560D01*
Y1131597D01*
X2323721Y1132176D01*
X2325749Y1133346D01*
X2327404Y1135001D01*
X2328574Y1137029D01*
X2329153Y1139190D01*
D02*
G37*
G36*
X2319020D02*
X2311427D01*
X2312006Y1137029D01*
X2313176Y1135001D01*
X2314831Y1133346D01*
X2316859Y1132176D01*
X2319020Y1131597D01*
Y1139190D01*
D02*
G37*
G36*
X2308833D02*
X2301240D01*
Y1131597D01*
X2303401Y1132176D01*
X2305429Y1133346D01*
X2307084Y1135001D01*
X2308254Y1137029D01*
X2308833Y1139190D01*
D02*
G37*
G36*
X2298700D02*
X2291107D01*
X2291686Y1137029D01*
X2292856Y1135001D01*
X2294511Y1133346D01*
X2296539Y1132176D01*
X2298700Y1131597D01*
Y1139190D01*
D02*
G37*
G36*
X2288513D02*
X2280920D01*
Y1131597D01*
X2283081Y1132176D01*
X2285109Y1133346D01*
X2286764Y1135001D01*
X2287934Y1137029D01*
X2288513Y1139190D01*
D02*
G37*
G36*
X2278380D02*
X2270787D01*
X2271366Y1137029D01*
X2272536Y1135001D01*
X2274191Y1133346D01*
X2276219Y1132176D01*
X2278380Y1131597D01*
Y1139190D01*
D02*
G37*
G36*
X2268193D02*
X2260600D01*
Y1131597D01*
X2262761Y1132176D01*
X2264789Y1133346D01*
X2266444Y1135001D01*
X2267614Y1137029D01*
X2268193Y1139190D01*
D02*
G37*
G36*
X2258060D02*
X2250467D01*
X2251046Y1137029D01*
X2252216Y1135001D01*
X2253871Y1133346D01*
X2255899Y1132176D01*
X2258060Y1131597D01*
Y1139190D01*
D02*
G37*
G36*
X2247873D02*
X2240280D01*
Y1131597D01*
X2242441Y1132176D01*
X2244469Y1133346D01*
X2246124Y1135001D01*
X2247294Y1137029D01*
X2247873Y1139190D01*
D02*
G37*
G36*
X2237740D02*
X2230147D01*
X2230726Y1137029D01*
X2231896Y1135001D01*
X2233551Y1133346D01*
X2235579Y1132176D01*
X2237740Y1131597D01*
Y1139190D01*
D02*
G37*
G36*
X2510790Y1186153D02*
Y1178560D01*
X2518383D01*
X2517804Y1180721D01*
X2516634Y1182749D01*
X2514979Y1184404D01*
X2512951Y1185574D01*
X2510790Y1186153D01*
D02*
G37*
G36*
X2508250D02*
X2506089Y1185574D01*
X2504061Y1184404D01*
X2502406Y1182749D01*
X2501236Y1180721D01*
X2500657Y1178560D01*
X2508250D01*
Y1186153D01*
D02*
G37*
G36*
X2490470D02*
Y1178560D01*
X2498063D01*
X2497484Y1180721D01*
X2496314Y1182749D01*
X2494659Y1184404D01*
X2492631Y1185574D01*
X2490470Y1186153D01*
D02*
G37*
G36*
X2487930D02*
X2485769Y1185574D01*
X2483741Y1184404D01*
X2482086Y1182749D01*
X2480916Y1180721D01*
X2480337Y1178560D01*
X2487930D01*
Y1186153D01*
D02*
G37*
G36*
X2470150D02*
Y1178560D01*
X2477743D01*
X2477164Y1180721D01*
X2475994Y1182749D01*
X2474339Y1184404D01*
X2472311Y1185574D01*
X2470150Y1186153D01*
D02*
G37*
G36*
X2467610D02*
X2465449Y1185574D01*
X2463421Y1184404D01*
X2461766Y1182749D01*
X2460596Y1180721D01*
X2460017Y1178560D01*
X2467610D01*
Y1186153D01*
D02*
G37*
G36*
X2449830D02*
Y1178560D01*
X2457423D01*
X2456844Y1180721D01*
X2455674Y1182749D01*
X2454019Y1184404D01*
X2451991Y1185574D01*
X2449830Y1186153D01*
D02*
G37*
G36*
X2447290D02*
X2445129Y1185574D01*
X2443101Y1184404D01*
X2441446Y1182749D01*
X2440276Y1180721D01*
X2439697Y1178560D01*
X2447290D01*
Y1186153D01*
D02*
G37*
G36*
X2429510D02*
Y1178560D01*
X2437103D01*
X2436524Y1180721D01*
X2435354Y1182749D01*
X2433699Y1184404D01*
X2431671Y1185574D01*
X2429510Y1186153D01*
D02*
G37*
G36*
X2426970D02*
X2424809Y1185574D01*
X2422781Y1184404D01*
X2421126Y1182749D01*
X2419956Y1180721D01*
X2419377Y1178560D01*
X2426970D01*
Y1186153D01*
D02*
G37*
G36*
X2409190D02*
Y1178560D01*
X2416783D01*
X2416204Y1180721D01*
X2415034Y1182749D01*
X2413379Y1184404D01*
X2411351Y1185574D01*
X2409190Y1186153D01*
D02*
G37*
G36*
X2406650D02*
X2404489Y1185574D01*
X2402461Y1184404D01*
X2400806Y1182749D01*
X2399636Y1180721D01*
X2399057Y1178560D01*
X2406650D01*
Y1186153D01*
D02*
G37*
G36*
X2388870D02*
Y1178560D01*
X2396463D01*
X2395884Y1180721D01*
X2394714Y1182749D01*
X2393059Y1184404D01*
X2391031Y1185574D01*
X2388870Y1186153D01*
D02*
G37*
G36*
X2386330D02*
X2384169Y1185574D01*
X2382141Y1184404D01*
X2380486Y1182749D01*
X2379316Y1180721D01*
X2378737Y1178560D01*
X2386330D01*
Y1186153D01*
D02*
G37*
G36*
X2368550D02*
Y1178560D01*
X2376143D01*
X2375564Y1180721D01*
X2374394Y1182749D01*
X2372739Y1184404D01*
X2370711Y1185574D01*
X2368550Y1186153D01*
D02*
G37*
G36*
X2366010D02*
X2363849Y1185574D01*
X2361821Y1184404D01*
X2360166Y1182749D01*
X2358996Y1180721D01*
X2358417Y1178560D01*
X2366010D01*
Y1186153D01*
D02*
G37*
G36*
X2348230D02*
Y1178560D01*
X2355823D01*
X2355244Y1180721D01*
X2354074Y1182749D01*
X2352419Y1184404D01*
X2350391Y1185574D01*
X2348230Y1186153D01*
D02*
G37*
G36*
X2345690D02*
X2343529Y1185574D01*
X2341501Y1184404D01*
X2339846Y1182749D01*
X2338676Y1180721D01*
X2338097Y1178560D01*
X2345690D01*
Y1186153D01*
D02*
G37*
G36*
X2327910D02*
Y1178560D01*
X2335503D01*
X2334924Y1180721D01*
X2333754Y1182749D01*
X2332099Y1184404D01*
X2330071Y1185574D01*
X2327910Y1186153D01*
D02*
G37*
G36*
X2325370D02*
X2323209Y1185574D01*
X2321181Y1184404D01*
X2319526Y1182749D01*
X2318356Y1180721D01*
X2317777Y1178560D01*
X2325370D01*
Y1186153D01*
D02*
G37*
G36*
X2307590D02*
Y1178560D01*
X2315183D01*
X2314604Y1180721D01*
X2313434Y1182749D01*
X2311779Y1184404D01*
X2309751Y1185574D01*
X2307590Y1186153D01*
D02*
G37*
G36*
X2305050D02*
X2302889Y1185574D01*
X2300861Y1184404D01*
X2299206Y1182749D01*
X2298036Y1180721D01*
X2297457Y1178560D01*
X2305050D01*
Y1186153D01*
D02*
G37*
G36*
X2287270D02*
Y1178560D01*
X2294863D01*
X2294284Y1180721D01*
X2293114Y1182749D01*
X2291459Y1184404D01*
X2289431Y1185574D01*
X2287270Y1186153D01*
D02*
G37*
G36*
X2284730D02*
X2282569Y1185574D01*
X2280541Y1184404D01*
X2278886Y1182749D01*
X2277716Y1180721D01*
X2277137Y1178560D01*
X2284730D01*
Y1186153D01*
D02*
G37*
G36*
X2266950D02*
Y1178560D01*
X2274543D01*
X2273964Y1180721D01*
X2272794Y1182749D01*
X2271139Y1184404D01*
X2269111Y1185574D01*
X2266950Y1186153D01*
D02*
G37*
G36*
X2264410D02*
X2262249Y1185574D01*
X2260221Y1184404D01*
X2258566Y1182749D01*
X2257396Y1180721D01*
X2256817Y1178560D01*
X2264410D01*
Y1186153D01*
D02*
G37*
G36*
X2246630D02*
Y1178560D01*
X2254223D01*
X2253644Y1180721D01*
X2252474Y1182749D01*
X2250819Y1184404D01*
X2248791Y1185574D01*
X2246630Y1186153D01*
D02*
G37*
G36*
X2244090D02*
X2241929Y1185574D01*
X2239901Y1184404D01*
X2238246Y1182749D01*
X2237076Y1180721D01*
X2236497Y1178560D01*
X2244090D01*
Y1186153D01*
D02*
G37*
G36*
X2518383Y1176020D02*
X2510790D01*
Y1168427D01*
X2512951Y1169006D01*
X2514979Y1170176D01*
X2516634Y1171831D01*
X2517804Y1173859D01*
X2518383Y1176020D01*
D02*
G37*
G36*
X2508250D02*
X2500657D01*
X2501236Y1173859D01*
X2502406Y1171831D01*
X2504061Y1170176D01*
X2506089Y1169006D01*
X2508250Y1168427D01*
Y1176020D01*
D02*
G37*
G36*
X2498063D02*
X2490470D01*
Y1168427D01*
X2492631Y1169006D01*
X2494659Y1170176D01*
X2496314Y1171831D01*
X2497484Y1173859D01*
X2498063Y1176020D01*
D02*
G37*
G36*
X2487930D02*
X2480337D01*
X2480916Y1173859D01*
X2482086Y1171831D01*
X2483741Y1170176D01*
X2485769Y1169006D01*
X2487930Y1168427D01*
Y1176020D01*
D02*
G37*
G36*
X2477743D02*
X2470150D01*
Y1168427D01*
X2472311Y1169006D01*
X2474339Y1170176D01*
X2475994Y1171831D01*
X2477164Y1173859D01*
X2477743Y1176020D01*
D02*
G37*
G36*
X2467610D02*
X2460017D01*
X2460596Y1173859D01*
X2461766Y1171831D01*
X2463421Y1170176D01*
X2465449Y1169006D01*
X2467610Y1168427D01*
Y1176020D01*
D02*
G37*
G36*
X2457423D02*
X2449830D01*
Y1168427D01*
X2451991Y1169006D01*
X2454019Y1170176D01*
X2455674Y1171831D01*
X2456844Y1173859D01*
X2457423Y1176020D01*
D02*
G37*
G36*
X2447290D02*
X2439697D01*
X2440276Y1173859D01*
X2441446Y1171831D01*
X2443101Y1170176D01*
X2445129Y1169006D01*
X2447290Y1168427D01*
Y1176020D01*
D02*
G37*
G36*
X2437103D02*
X2429510D01*
Y1168427D01*
X2431671Y1169006D01*
X2433699Y1170176D01*
X2435354Y1171831D01*
X2436524Y1173859D01*
X2437103Y1176020D01*
D02*
G37*
G36*
X2426970D02*
X2419377D01*
X2419956Y1173859D01*
X2421126Y1171831D01*
X2422781Y1170176D01*
X2424809Y1169006D01*
X2426970Y1168427D01*
Y1176020D01*
D02*
G37*
G36*
X2416783D02*
X2409190D01*
Y1168427D01*
X2411351Y1169006D01*
X2413379Y1170176D01*
X2415034Y1171831D01*
X2416204Y1173859D01*
X2416783Y1176020D01*
D02*
G37*
G36*
X2406650D02*
X2399057D01*
X2399636Y1173859D01*
X2400806Y1171831D01*
X2402461Y1170176D01*
X2404489Y1169006D01*
X2406650Y1168427D01*
Y1176020D01*
D02*
G37*
G36*
X2396463D02*
X2388870D01*
Y1168427D01*
X2391031Y1169006D01*
X2393059Y1170176D01*
X2394714Y1171831D01*
X2395884Y1173859D01*
X2396463Y1176020D01*
D02*
G37*
G36*
X2386330D02*
X2378737D01*
X2379316Y1173859D01*
X2380486Y1171831D01*
X2382141Y1170176D01*
X2384169Y1169006D01*
X2386330Y1168427D01*
Y1176020D01*
D02*
G37*
G36*
X2376143D02*
X2368550D01*
Y1168427D01*
X2370711Y1169006D01*
X2372739Y1170176D01*
X2374394Y1171831D01*
X2375564Y1173859D01*
X2376143Y1176020D01*
D02*
G37*
G36*
X2366010D02*
X2358417D01*
X2358996Y1173859D01*
X2360166Y1171831D01*
X2361821Y1170176D01*
X2363849Y1169006D01*
X2366010Y1168427D01*
Y1176020D01*
D02*
G37*
G36*
X2355823D02*
X2348230D01*
Y1168427D01*
X2350391Y1169006D01*
X2352419Y1170176D01*
X2354074Y1171831D01*
X2355244Y1173859D01*
X2355823Y1176020D01*
D02*
G37*
G36*
X2345690D02*
X2338097D01*
X2338676Y1173859D01*
X2339846Y1171831D01*
X2341501Y1170176D01*
X2343529Y1169006D01*
X2345690Y1168427D01*
Y1176020D01*
D02*
G37*
G36*
X2335503D02*
X2327910D01*
Y1168427D01*
X2330071Y1169006D01*
X2332099Y1170176D01*
X2333754Y1171831D01*
X2334924Y1173859D01*
X2335503Y1176020D01*
D02*
G37*
G36*
X2325370D02*
X2317777D01*
X2318356Y1173859D01*
X2319526Y1171831D01*
X2321181Y1170176D01*
X2323209Y1169006D01*
X2325370Y1168427D01*
Y1176020D01*
D02*
G37*
G36*
X2315183D02*
X2307590D01*
Y1168427D01*
X2309751Y1169006D01*
X2311779Y1170176D01*
X2313434Y1171831D01*
X2314604Y1173859D01*
X2315183Y1176020D01*
D02*
G37*
G36*
X2305050D02*
X2297457D01*
X2298036Y1173859D01*
X2299206Y1171831D01*
X2300861Y1170176D01*
X2302889Y1169006D01*
X2305050Y1168427D01*
Y1176020D01*
D02*
G37*
G36*
X2294863D02*
X2287270D01*
Y1168427D01*
X2289431Y1169006D01*
X2291459Y1170176D01*
X2293114Y1171831D01*
X2294284Y1173859D01*
X2294863Y1176020D01*
D02*
G37*
G36*
X2284730D02*
X2277137D01*
X2277716Y1173859D01*
X2278886Y1171831D01*
X2280541Y1170176D01*
X2282569Y1169006D01*
X2284730Y1168427D01*
Y1176020D01*
D02*
G37*
G36*
X2274543D02*
X2266950D01*
Y1168427D01*
X2269111Y1169006D01*
X2271139Y1170176D01*
X2272794Y1171831D01*
X2273964Y1173859D01*
X2274543Y1176020D01*
D02*
G37*
G36*
X2264410D02*
X2256817D01*
X2257396Y1173859D01*
X2258566Y1171831D01*
X2260221Y1170176D01*
X2262249Y1169006D01*
X2264410Y1168427D01*
Y1176020D01*
D02*
G37*
G36*
X2254223D02*
X2246630D01*
Y1168427D01*
X2248791Y1169006D01*
X2250819Y1170176D01*
X2252474Y1171831D01*
X2253644Y1173859D01*
X2254223Y1176020D01*
D02*
G37*
G36*
X2244090D02*
X2236497D01*
X2237076Y1173859D01*
X2238246Y1171831D01*
X2239901Y1170176D01*
X2241929Y1169006D01*
X2244090Y1168427D01*
Y1176020D01*
D02*
G37*
%LPD*%
D31*
X2087010Y1760330D02*
G03*
X2083510Y1762621I-2500J0D01*
G01*
Y1758039D02*
G03*
X2087010Y1760330I1000J2291D01*
G01*
X2083510Y1762621D02*
G03*
X2083510Y1758039I1000J-2291D01*
G01*
X2036638Y273242D02*
G03*
X2035260Y274761I-2378J-772D01*
G01*
D02*
G03*
X2035260Y270179I-1000J-2291D01*
G01*
X2035260Y270179D02*
G03*
X2036295Y271018I-1000J2291D01*
G01*
X2036760Y263470D02*
G03*
X2036760Y263470I-2500J0D01*
G01*
X2108760Y263470D02*
G03*
X2108760Y263470I-2500J0D01*
G01*
X2107761Y270471D02*
G03*
X2108260Y270969I-1501J1999D01*
G01*
D02*
G03*
X2108722Y272036I-1999J1501D01*
G01*
D02*
G03*
X2108758Y272364I-2462J434D01*
G01*
X2108758Y272364D02*
G03*
X2108760Y272470I-2498J106D01*
G01*
X2108511Y273557D02*
X2108511Y273558D01*
X2108760Y272470D02*
G03*
X2108511Y273557I-2500J0D01*
G01*
X2107758Y274472D02*
G03*
X2107092Y274828I-1498J-2002D01*
G01*
X2108370Y273812D02*
G03*
X2107758Y274472I-2109J-1342D01*
G01*
X2108511Y273558D02*
G03*
X2108370Y273812I-2251J-1088D01*
G01*
X2105386Y270128D02*
G03*
X2107761Y270471I874J2342D01*
G01*
X2104709Y270509D02*
X2104710Y270509D01*
X2104710Y270509D02*
G03*
X2104816Y270429I1550J1961D01*
G01*
X2105260Y270179D02*
G03*
X2105386Y270128I1000J2291D01*
G01*
X2104816Y270429D02*
G03*
X2105260Y270179I1444J2041D01*
G01*
X2104225Y271018D02*
G03*
X2104709Y270509I2035J1452D01*
G01*
X2104710Y274432D02*
G03*
X2104225Y271018I1550J-1961D01*
G01*
X2104910Y274574D02*
G03*
X2104710Y274432I1351J-2104D01*
G01*
X2105260Y274761D02*
G03*
X2104910Y274574I1001J-2291D01*
G01*
X2105262Y274762D02*
G03*
X2105260Y274762I999J-2292D01*
G01*
X2105429Y274828D02*
G03*
X2105262Y274762I831J-2358D01*
G01*
X2107091Y274828D02*
G03*
X2105429Y274828I-831J-2358D01*
G01*
X2036722Y272034D02*
G03*
X2036760Y272470I-2462J436D01*
G01*
X2036760Y272514D02*
G03*
X2036689Y273061I-2500J-44D01*
G01*
X2036689Y273062D02*
G03*
X2036638Y273242I-2429J-591D01*
G01*
X2036760Y272470D02*
G03*
X2036760Y272514I-2500J-0D01*
G01*
X2036295Y271018D02*
G03*
X2036638Y271698I-2035J1452D01*
G01*
D02*
G03*
X2036722Y272034I-2378J772D01*
G01*
X2015010Y1769330D02*
G03*
X2015010Y1769330I-2500J0D01*
G01*
X2087010Y1769330D02*
G03*
X2087010Y1769330I-2500J0D01*
G01*
X2015010Y1760330D02*
G03*
X2013510Y1762621I-2500J0D01*
G01*
D02*
G03*
X2013510Y1758039I-1000J-2291D01*
G01*
D02*
G03*
X2015010Y1760330I-1000J2291D01*
G01*
D32*
X660400Y1344840D02*
D03*
Y1352640D02*
D03*
X2463800Y762100D02*
D03*
Y769900D02*
D03*
X2080260Y801460D02*
D03*
Y793660D02*
D03*
X1719580Y1362990D02*
D03*
Y1355190D02*
D03*
X1626870Y1371690D02*
D03*
Y1363890D02*
D03*
X1257300Y1422490D02*
D03*
Y1414690D02*
D03*
X1140460Y826860D02*
D03*
Y819060D02*
D03*
X923290Y1442810D02*
D03*
Y1435010D02*
D03*
X1097280Y1442630D02*
D03*
Y1450430D02*
D03*
X1441450Y916940D02*
D03*
Y924740D02*
D03*
X1516380Y921840D02*
D03*
Y929640D02*
D03*
X1565910Y921840D02*
D03*
Y929640D02*
D03*
X1619250Y848540D02*
D03*
Y840740D02*
D03*
X1681480Y1137830D02*
D03*
Y1145630D02*
D03*
X1389380Y1223010D02*
D03*
Y1230810D02*
D03*
X1362710Y1228090D02*
D03*
Y1235890D02*
D03*
X1214120Y909230D02*
D03*
Y917030D02*
D03*
X1286510Y979260D02*
D03*
Y971460D02*
D03*
X689610Y1603830D02*
D03*
Y1611630D02*
D03*
D33*
X838890Y1318260D02*
D03*
X829890D02*
D03*
D34*
X763270Y1314450D02*
D03*
D35*
X793020Y1285200D02*
D03*
Y1291700D02*
D03*
Y1298200D02*
D03*
Y1304700D02*
D03*
Y1311200D02*
D03*
Y1317700D02*
D03*
Y1324200D02*
D03*
Y1330700D02*
D03*
Y1337200D02*
D03*
Y1343700D02*
D03*
X733520Y1285200D02*
D03*
Y1291700D02*
D03*
Y1298200D02*
D03*
Y1304700D02*
D03*
Y1311200D02*
D03*
Y1317700D02*
D03*
Y1324200D02*
D03*
Y1330700D02*
D03*
Y1337200D02*
D03*
Y1343700D02*
D03*
D36*
X1916430Y1625999D02*
D03*
Y1645521D02*
D03*
D37*
X2104310Y1492250D02*
D03*
X2094310D02*
D03*
X1837770Y1690370D02*
D03*
X1847770D02*
D03*
D38*
X2148840Y1382000D02*
D03*
Y1397000D02*
D03*
D39*
X2108280Y1419860D02*
D03*
X2120820D02*
D03*
D40*
X2393700Y449600D02*
D03*
X2483000D02*
D03*
D41*
X2391650Y506800D02*
D03*
Y564300D02*
D03*
X2484950D02*
D03*
Y506800D02*
D03*
D42*
X2470150Y571500D02*
D03*
X2432050D02*
D03*
X2406650D02*
D03*
X2457450D02*
D03*
X2444750D02*
D03*
X2419350D02*
D03*
D43*
X811530Y1655050D02*
D03*
Y1685050D02*
D03*
X1691640Y1568690D02*
D03*
Y1598690D02*
D03*
D44*
X1055730Y850520D02*
D03*
X1100730D02*
D03*
X1055730Y930020D02*
D03*
X1100730D02*
D03*
D45*
X2057260Y294970D02*
D03*
X2063760D02*
D03*
X2070260D02*
D03*
X2076760D02*
D03*
X2083260D02*
D03*
X2035510Y1737830D02*
D03*
X2042010D02*
D03*
X2048510D02*
D03*
X2055010D02*
D03*
X2061510D02*
D03*
D46*
X2060260Y267970D02*
D03*
X2080260D02*
D03*
X2038510Y1764830D02*
D03*
X2058510D02*
D03*
D47*
X2162960Y1600200D02*
D03*
Y1604200D02*
D03*
Y1608200D02*
D03*
X2156460Y1600200D02*
D03*
Y1604200D02*
D03*
Y1608200D02*
D03*
D48*
X1699920Y647000D02*
D03*
X1718920D02*
D03*
Y623000D02*
D03*
X1709420D02*
D03*
X1699920D02*
D03*
D49*
X2344420Y707040D02*
D03*
Y695040D02*
D03*
X2418080Y770540D02*
D03*
Y758540D02*
D03*
X2312670Y668940D02*
D03*
Y656940D02*
D03*
X2371090Y743870D02*
D03*
Y731870D02*
D03*
X2099310Y1084230D02*
D03*
Y1072230D02*
D03*
D50*
X1690280Y591820D02*
D03*
X1698080D02*
D03*
X652690Y527050D02*
D03*
X660490D02*
D03*
X1170850Y1385570D02*
D03*
X1178650D02*
D03*
X1588860Y1220470D02*
D03*
X1581060D02*
D03*
X1374050Y1139190D02*
D03*
X1381850D02*
D03*
X1802220Y1013460D02*
D03*
X1794420D02*
D03*
X1838870Y1098550D02*
D03*
X1846670D02*
D03*
X1520100Y1261110D02*
D03*
X1527900D02*
D03*
D51*
X835660Y1066800D02*
D03*
X843160D02*
D03*
X2184460Y1158240D02*
D03*
X2191960D02*
D03*
X1339850Y1733550D02*
D03*
X1347350D02*
D03*
D52*
X2123440Y861120D02*
D03*
Y868620D02*
D03*
X2156460Y1203900D02*
D03*
Y1196400D02*
D03*
X1389380Y1741050D02*
D03*
Y1733550D02*
D03*
D53*
X1802130Y1598760D02*
D03*
Y1609260D02*
D03*
D54*
X829310Y1284590D02*
D03*
Y1298590D02*
D03*
D55*
X989980Y1671320D02*
D03*
Y1645920D02*
D03*
Y1620520D02*
D03*
Y1595120D02*
D03*
X1039480D02*
D03*
Y1671320D02*
D03*
Y1645920D02*
D03*
Y1620520D02*
D03*
D56*
X1875130Y1625440D02*
D03*
X1856130D02*
D03*
X1865630Y1605440D02*
D03*
D57*
X1817250Y1562100D02*
D03*
X1802250D02*
D03*
D58*
X1993390Y1682750D02*
D03*
X2024890D02*
D03*
D59*
X2015490Y1154590D02*
D03*
Y1164590D02*
D03*
X2033270Y976550D02*
D03*
Y966550D02*
D03*
X1592580Y1534080D02*
D03*
Y1524080D02*
D03*
X1659890Y1568370D02*
D03*
Y1558370D02*
D03*
X680720Y467440D02*
D03*
Y477440D02*
D03*
X854710Y1654730D02*
D03*
Y1644730D02*
D03*
D60*
X2052320Y1177870D02*
D03*
Y1186870D02*
D03*
X981710Y1443410D02*
D03*
Y1434410D02*
D03*
X1127760Y1444680D02*
D03*
Y1435680D02*
D03*
X990600Y842700D02*
D03*
Y833700D02*
D03*
X817880Y993830D02*
D03*
Y984830D02*
D03*
X1187450Y926520D02*
D03*
Y917520D02*
D03*
X1153160Y939110D02*
D03*
Y948110D02*
D03*
X1257300Y1472620D02*
D03*
Y1463620D02*
D03*
X1600200Y1369060D02*
D03*
Y1378060D02*
D03*
X1696720Y1375520D02*
D03*
Y1366520D02*
D03*
D61*
X1197690Y1668780D02*
D03*
X1207690D02*
D03*
X772240Y1524000D02*
D03*
X782240D02*
D03*
X1098630Y1510030D02*
D03*
X1108630D02*
D03*
D62*
X672410Y440690D02*
D03*
X681410D02*
D03*
X1694760Y833120D02*
D03*
X1703760D02*
D03*
X690300Y515620D02*
D03*
X681300D02*
D03*
X1202110Y1361440D02*
D03*
X1193110D02*
D03*
D63*
X654670Y492760D02*
D03*
X668670D02*
D03*
D64*
X693444Y1504950D02*
D03*
X701016D02*
D03*
D65*
X1565910Y1537946D02*
D03*
Y1530374D02*
D03*
X1638300Y764564D02*
D03*
Y772136D02*
D03*
Y848336D02*
D03*
Y840764D02*
D03*
D66*
X1617980Y1613210D02*
D03*
X1605280D02*
D03*
X1592580D02*
D03*
X1579880D02*
D03*
X1617980Y1556710D02*
D03*
X1605280D02*
D03*
X1592580D02*
D03*
X1579880D02*
D03*
X736600Y1578300D02*
D03*
X749300D02*
D03*
X762000D02*
D03*
X774700D02*
D03*
X736600Y1634800D02*
D03*
X749300D02*
D03*
X762000D02*
D03*
X774700D02*
D03*
D67*
X2147295Y1125220D02*
D03*
X2160545D02*
D03*
X2155465Y1017270D02*
D03*
X2142215D02*
D03*
D68*
X2141710Y1249680D02*
D03*
X2171210D02*
D03*
D69*
X2156460Y1234430D02*
D03*
X2160270Y1085730D02*
D03*
Y1070730D02*
D03*
D70*
X2602890Y1157200D02*
D03*
Y1177200D02*
D03*
D71*
X2612390Y1092200D02*
D03*
Y1472200D02*
D03*
D72*
X2082800Y972459D02*
D03*
Y957941D02*
D03*
D73*
X923290Y1368651D02*
D03*
Y1382169D02*
D03*
D74*
X1039980Y1402460D02*
D03*
D75*
X1046480D02*
D03*
X1052980D02*
D03*
Y1422021D02*
D03*
X1046480D02*
D03*
X1039980D02*
D03*
D76*
X1061720Y1503560D02*
D03*
Y1488560D02*
D03*
D77*
X1589120Y1160350D02*
D03*
X1444120D02*
D03*
X1449120D02*
D03*
X1454120D02*
D03*
X1459120D02*
D03*
X1464120D02*
D03*
X1469120D02*
D03*
X1474120D02*
D03*
X1479120D02*
D03*
X1484120D02*
D03*
X1489120D02*
D03*
X1494120D02*
D03*
X1499120D02*
D03*
X1504120D02*
D03*
X1509120D02*
D03*
X1514120D02*
D03*
X1519120D02*
D03*
X1524120D02*
D03*
X1529120D02*
D03*
X1534120D02*
D03*
X1539120D02*
D03*
X1544120D02*
D03*
X1549120D02*
D03*
X1554120D02*
D03*
X1559120D02*
D03*
X1564120D02*
D03*
X1569120D02*
D03*
X1574120D02*
D03*
X1579120D02*
D03*
X1584120D02*
D03*
X1594120D02*
D03*
X1599120D02*
D03*
X1604120D02*
D03*
X1609120D02*
D03*
X1614120D02*
D03*
X1619120D02*
D03*
Y947850D02*
D03*
X1614120D02*
D03*
X1609120D02*
D03*
X1604120D02*
D03*
X1599120D02*
D03*
X1594120D02*
D03*
X1589120D02*
D03*
X1584120D02*
D03*
X1579120D02*
D03*
X1574120D02*
D03*
X1569120D02*
D03*
X1564120D02*
D03*
X1559120D02*
D03*
X1554120D02*
D03*
X1549120D02*
D03*
X1544120D02*
D03*
X1539120D02*
D03*
X1534120D02*
D03*
X1529120D02*
D03*
X1524120D02*
D03*
X1519120D02*
D03*
X1514120D02*
D03*
X1509120D02*
D03*
X1504120D02*
D03*
X1499120D02*
D03*
X1494120D02*
D03*
X1489120D02*
D03*
X1484120D02*
D03*
X1479120D02*
D03*
X1474120D02*
D03*
X1469120D02*
D03*
X1464120D02*
D03*
X1459120D02*
D03*
X1454120D02*
D03*
X1449120D02*
D03*
X1444120D02*
D03*
D78*
X1360170Y1699260D02*
D03*
X1374140Y1677670D02*
D03*
X1381640D02*
D03*
X1568390Y1705610D02*
D03*
X1560890D02*
D03*
X1367670Y1699260D02*
D03*
X1353820Y1601470D02*
D03*
X1361320D02*
D03*
X1573410Y1686560D02*
D03*
X1565910D02*
D03*
X1595000Y1656080D02*
D03*
X1587500D02*
D03*
X1365250Y1637030D02*
D03*
X1372750D02*
D03*
X1376680Y1652270D02*
D03*
X1384180D02*
D03*
D79*
X647170Y598260D02*
D03*
X659870D02*
D03*
X672570D02*
D03*
X685270D02*
D03*
X697970D02*
D03*
X710670D02*
D03*
X723370D02*
D03*
X736070D02*
D03*
X748770D02*
D03*
X761470D02*
D03*
X774170D02*
D03*
X786870D02*
D03*
X799570D02*
D03*
X812270D02*
D03*
Y768260D02*
D03*
X799570D02*
D03*
X786870D02*
D03*
X774170D02*
D03*
X761470D02*
D03*
X748770D02*
D03*
X736070D02*
D03*
X723370D02*
D03*
X710670D02*
D03*
X697970D02*
D03*
X685270D02*
D03*
X672570D02*
D03*
X659870D02*
D03*
X647170D02*
D03*
D80*
X822270Y626110D02*
D03*
Y638810D02*
D03*
Y651510D02*
D03*
Y664210D02*
D03*
Y676910D02*
D03*
Y689610D02*
D03*
Y702310D02*
D03*
Y715010D02*
D03*
Y727710D02*
D03*
Y740410D02*
D03*
D81*
X703820Y654910D02*
D03*
Y673260D02*
D03*
Y691610D02*
D03*
X722170Y654910D02*
D03*
Y673260D02*
D03*
Y691610D02*
D03*
X740520Y654910D02*
D03*
Y673260D02*
D03*
Y691610D02*
D03*
D82*
X1170940Y1496060D02*
D03*
Y1527560D02*
D03*
D83*
X1165850Y1714990D02*
D03*
Y1744490D02*
D03*
D84*
X1181100Y1729740D02*
D03*
D85*
X1526090Y1643610D02*
D03*
Y1653610D02*
D03*
Y1663610D02*
D03*
Y1673610D02*
D03*
Y1683610D02*
D03*
Y1693610D02*
D03*
Y1703610D02*
D03*
Y1713610D02*
D03*
Y1723610D02*
D03*
Y1733610D02*
D03*
Y1743610D02*
D03*
Y1753610D02*
D03*
X1438090D02*
D03*
Y1743610D02*
D03*
Y1733610D02*
D03*
Y1723610D02*
D03*
Y1713610D02*
D03*
Y1703610D02*
D03*
Y1693610D02*
D03*
Y1683610D02*
D03*
Y1673610D02*
D03*
Y1663610D02*
D03*
Y1653610D02*
D03*
Y1643610D02*
D03*
D86*
X1526090Y1765110D02*
D03*
X1438090D02*
D03*
D87*
X1462090Y1639610D02*
D03*
X1472090D02*
D03*
X1482090D02*
D03*
X1492090D02*
D03*
X1502090D02*
D03*
D88*
X1501140Y1607820D02*
D03*
Y1615320D02*
D03*
X1475740Y1607940D02*
D03*
Y1615440D02*
D03*
D89*
X1170940Y1449070D02*
D03*
Y1435570D02*
D03*
D90*
X1637870Y1141600D02*
D03*
Y1136600D02*
D03*
Y1131600D02*
D03*
Y1126600D02*
D03*
Y1121600D02*
D03*
Y1116600D02*
D03*
Y1111600D02*
D03*
Y1106600D02*
D03*
Y1101600D02*
D03*
Y1096600D02*
D03*
Y1091600D02*
D03*
Y1086600D02*
D03*
Y1081600D02*
D03*
Y1076600D02*
D03*
Y1071600D02*
D03*
Y1066600D02*
D03*
Y1061600D02*
D03*
Y1056600D02*
D03*
Y1051600D02*
D03*
Y1046600D02*
D03*
Y1041600D02*
D03*
Y1036600D02*
D03*
Y1031600D02*
D03*
Y1026600D02*
D03*
Y1021600D02*
D03*
Y1016600D02*
D03*
Y1011600D02*
D03*
Y1006600D02*
D03*
Y1001600D02*
D03*
Y996600D02*
D03*
Y991600D02*
D03*
Y986600D02*
D03*
Y981600D02*
D03*
Y976600D02*
D03*
Y971600D02*
D03*
Y966600D02*
D03*
X1425370D02*
D03*
Y971600D02*
D03*
Y976600D02*
D03*
Y981600D02*
D03*
Y986600D02*
D03*
Y991600D02*
D03*
Y996600D02*
D03*
Y1001600D02*
D03*
Y1006600D02*
D03*
Y1011600D02*
D03*
Y1016600D02*
D03*
Y1021600D02*
D03*
Y1026600D02*
D03*
Y1031600D02*
D03*
Y1036600D02*
D03*
Y1041600D02*
D03*
Y1046600D02*
D03*
Y1051600D02*
D03*
Y1056600D02*
D03*
Y1061600D02*
D03*
Y1066600D02*
D03*
Y1071600D02*
D03*
Y1076600D02*
D03*
Y1081600D02*
D03*
Y1086600D02*
D03*
Y1091600D02*
D03*
Y1096600D02*
D03*
Y1101600D02*
D03*
Y1106600D02*
D03*
Y1111600D02*
D03*
Y1116600D02*
D03*
Y1121600D02*
D03*
Y1126600D02*
D03*
Y1131600D02*
D03*
Y1136600D02*
D03*
Y1141600D02*
D03*
D91*
X1206620Y1420945D02*
D03*
D92*
X1211620D02*
D03*
X1216620D02*
D03*
X1221620D02*
D03*
Y1449255D02*
D03*
X1216620D02*
D03*
X1211620D02*
D03*
X1206620D02*
D03*
D113*
X2490460Y673100D02*
D03*
X2486660D02*
D03*
X2379990Y655320D02*
D03*
X2383790D02*
D03*
X2418070Y678180D02*
D03*
X2414270D02*
D03*
X2453630Y694690D02*
D03*
X2449830D02*
D03*
X2055500Y1019810D02*
D03*
X2059300D02*
D03*
D129*
X1221550Y1725550D02*
D03*
Y1729550D02*
D03*
Y1733550D02*
D03*
X1225550D02*
D03*
Y1729550D02*
D03*
Y1725550D02*
D03*
D132*
X1046480Y1412240D02*
D03*
D135*
X1376640Y1429010D02*
D03*
X1681440Y1431550D02*
D03*
X1592540Y1429010D02*
D03*
X1466810Y1431550D02*
D03*
X1456810Y1400550D02*
D03*
X1461810D02*
D03*
X1466810D02*
D03*
X1471810D02*
D03*
Y1431550D02*
D03*
X1461810D02*
D03*
X1456810D02*
D03*
X1582540Y1429010D02*
D03*
X1587540D02*
D03*
X1597540D02*
D03*
Y1398010D02*
D03*
X1592540D02*
D03*
X1587540D02*
D03*
X1582540D02*
D03*
X1671440Y1400550D02*
D03*
X1676440D02*
D03*
X1681440D02*
D03*
X1686440D02*
D03*
Y1431550D02*
D03*
X1676440D02*
D03*
X1671440D02*
D03*
X1366640Y1398010D02*
D03*
X1371640D02*
D03*
X1376640D02*
D03*
X1381640D02*
D03*
Y1429010D02*
D03*
X1371640D02*
D03*
X1366640D02*
D03*
D140*
X1214120Y1435100D02*
D03*
D141*
X1838960Y722630D02*
D03*
Y748030D02*
D03*
Y773430D02*
D03*
Y798830D02*
D03*
X1322070Y1601470D02*
D03*
Y1626870D02*
D03*
Y1652270D02*
D03*
Y1677670D02*
D03*
X833120Y899160D02*
D03*
X807720D02*
D03*
X782320D02*
D03*
X756920D02*
D03*
X1121410Y610870D02*
D03*
Y585470D02*
D03*
Y560070D02*
D03*
Y534670D02*
D03*
D142*
X1838960Y824230D02*
D03*
X1322070Y1703070D02*
D03*
X1121410Y509270D02*
D03*
D143*
X731520Y899160D02*
D03*
D149*
X751840Y1205230D02*
D03*
D150*
Y1179830D02*
D03*
D153*
X929660Y993140D02*
D03*
X1965980Y909320D02*
D03*
D154*
X2035810Y1416050D02*
D03*
D155*
Y1441450D02*
D03*
Y1466850D02*
D03*
Y1492250D02*
D03*
Y1517650D02*
D03*
Y1543050D02*
D03*
Y1568450D02*
D03*
Y1593850D02*
D03*
X2010410Y1416050D02*
D03*
Y1441450D02*
D03*
Y1466850D02*
D03*
Y1492250D02*
D03*
Y1517650D02*
D03*
Y1543050D02*
D03*
Y1568450D02*
D03*
Y1593850D02*
D03*
D156*
X1289050Y655300D02*
D03*
D164*
X904260Y1297940D02*
D03*
Y1272540D02*
D03*
Y1247140D02*
D03*
Y1221740D02*
D03*
Y1196340D02*
D03*
Y1170940D02*
D03*
Y1145540D02*
D03*
Y1120140D02*
D03*
Y1094740D02*
D03*
Y1069340D02*
D03*
Y1043940D02*
D03*
Y1018540D02*
D03*
Y993140D02*
D03*
X929660Y1297940D02*
D03*
Y1272540D02*
D03*
Y1247140D02*
D03*
Y1221740D02*
D03*
Y1196340D02*
D03*
Y1170940D02*
D03*
Y1145540D02*
D03*
Y1120140D02*
D03*
Y1094740D02*
D03*
Y1069340D02*
D03*
Y1043940D02*
D03*
Y1018540D02*
D03*
X1940580Y1214120D02*
D03*
Y1188720D02*
D03*
Y1163320D02*
D03*
Y1137920D02*
D03*
Y1112520D02*
D03*
Y1087120D02*
D03*
Y1061720D02*
D03*
Y1036320D02*
D03*
Y1010920D02*
D03*
Y985520D02*
D03*
Y960120D02*
D03*
Y934720D02*
D03*
Y909320D02*
D03*
X1965980Y1214120D02*
D03*
Y1188720D02*
D03*
Y1163320D02*
D03*
Y1137920D02*
D03*
Y1112520D02*
D03*
Y1087120D02*
D03*
Y1061720D02*
D03*
Y1036320D02*
D03*
Y1010920D02*
D03*
Y985520D02*
D03*
Y960120D02*
D03*
Y934720D02*
D03*
X1593850Y680700D02*
D03*
X1568450D02*
D03*
X1543050D02*
D03*
X1517650D02*
D03*
X1492250D02*
D03*
X1466850D02*
D03*
X1441450D02*
D03*
X1416050D02*
D03*
X1390650D02*
D03*
X1365250D02*
D03*
X1339850D02*
D03*
X1314450D02*
D03*
X1289050D02*
D03*
X1593850Y655300D02*
D03*
X1568450D02*
D03*
X1543050D02*
D03*
X1517650D02*
D03*
X1492250D02*
D03*
X1466850D02*
D03*
X1441450D02*
D03*
X1416050D02*
D03*
X1390650D02*
D03*
X1365250D02*
D03*
X1339850D02*
D03*
X1314450D02*
D03*
D165*
X1625290Y1556710D02*
G03*
X1639570Y1570990I0J14280D01*
G01*
X1565910Y1537946D02*
G03*
X1579880Y1551916I0J13970D01*
G01*
X1543050Y1554480D02*
G03*
X1559584Y1537946I16534J0D01*
G01*
X1281640Y1733550D02*
G03*
X1281450Y1733360I0J-190D01*
G01*
X2602890Y1157200D02*
G03*
X2601850Y1158240I-1040J0D01*
G01*
X2083510Y1762621D02*
Y1764830D01*
Y1758039D02*
Y1762621D01*
Y1747830D02*
Y1758039D01*
X1617980Y1556710D02*
X1625290D01*
X2035260Y270179D02*
Y274761D01*
Y267970D02*
Y270179D01*
Y274761D02*
Y284970D01*
X1559584Y1537946D02*
X1565910D01*
X768770Y1325450D02*
X769370D01*
X839180Y1350990D02*
X839470Y1351280D01*
X829310Y1298590D02*
X829808D01*
X757170Y1325450D02*
X757770D01*
X757170Y1303450D02*
X757770D01*
X2424430Y708660D02*
X2438400Y694690D01*
X2401220Y731870D02*
X2424430Y708660D01*
X1875190Y1625380D02*
X1915811D01*
X1916430Y1625999D01*
Y1645521D02*
Y1671320D01*
X1891030Y1696720D02*
X1916430Y1671320D01*
X2104310Y1491750D02*
X2178740Y1417320D01*
X2179320D01*
X2104310Y1491750D02*
Y1492250D01*
X2108280Y1419860D02*
X2108875Y1419265D01*
Y1340445D02*
Y1419265D01*
Y1340445D02*
X2109470Y1339850D01*
X2120820Y1408770D02*
X2147590Y1382000D01*
X2148840D01*
X2120820Y1408770D02*
Y1419860D01*
X2148840Y1397000D02*
Y1423670D01*
Y1357630D02*
Y1382000D01*
X2112010Y1460500D02*
X2148840Y1423670D01*
X2094230Y1525270D02*
X2094270Y1525230D01*
Y1492290D02*
X2094310Y1492250D01*
X1987550Y1188720D02*
X2094310Y1295480D01*
Y1492250D01*
X2094270Y1492290D02*
Y1525230D01*
X2470150Y571500D02*
Y588010D01*
X2482850Y600710D01*
X2457450Y571500D02*
Y619760D01*
X2444240Y639570D02*
Y655985D01*
X2432050Y571500D02*
Y627380D01*
X2444240Y639570D01*
X2418840Y572010D02*
X2419350Y571500D01*
X2383790Y655060D02*
X2406650Y632200D01*
Y571500D02*
Y632200D01*
X854710Y1634490D02*
Y1644730D01*
X836930Y1616710D02*
X854710Y1634490D01*
X811850Y1654730D02*
X854710D01*
X811530Y1655050D02*
X811850Y1654730D01*
X801130Y1685050D02*
X811530D01*
X774700Y1658620D02*
X801130Y1685050D01*
X774700Y1634800D02*
Y1658620D01*
X1690640Y1598690D02*
X1691640D01*
X1676120Y1613210D02*
X1690640Y1598690D01*
X1617980Y1613210D02*
X1676120D01*
X1659890Y1568370D02*
X1691320D01*
X1691640Y1568690D01*
X2172970Y1600200D02*
X2185670Y1612900D01*
X2162960Y1600200D02*
X2172970D01*
X1925201Y771260D02*
X1928700Y767760D01*
X1911700Y771260D02*
X1925201D01*
X1949450Y618490D02*
X1981200D01*
X1928700Y616760D02*
X1930430Y618490D01*
X1949450D01*
X721360Y1548130D02*
X736600Y1563370D01*
Y1578300D01*
X2313420Y656940D02*
X2322660Y647700D01*
X2295240Y668940D02*
X2375250D01*
X2277110Y687070D02*
X2295240Y668940D01*
X2362030Y678180D02*
X2388870D01*
X2345170Y695040D02*
X2362030Y678180D01*
X2344420Y695040D02*
X2345170D01*
X2322660Y647700D02*
X2345690D01*
X2353310Y655320D01*
X2379990D01*
X2312670Y656940D02*
X2313420D01*
X2383720Y655390D02*
X2383790Y655320D01*
X2383720Y655390D02*
Y660470D01*
X2383790Y655060D02*
Y655320D01*
X2375250Y668940D02*
X2383720Y660470D01*
X2189655Y744045D02*
X2370915D01*
X2371090Y743870D01*
X2189480Y744220D02*
X2189655Y744045D01*
X2371440Y744220D02*
X2415540D01*
X2371090Y743870D02*
X2371440Y744220D01*
X2371090Y731870D02*
X2401220D01*
X2388870Y678180D02*
X2414270D01*
X2266950Y707390D02*
X2397760D01*
X2418070Y687080D01*
X2252980Y693420D02*
X2266950Y707390D01*
X2453630Y694690D02*
Y706130D01*
X2415540Y744220D02*
X2453630Y706130D01*
X2189480Y693420D02*
X2252980D01*
X2418070Y678180D02*
Y687080D01*
Y677920D02*
Y678180D01*
Y677920D02*
X2418840Y677150D01*
Y572010D02*
Y677150D01*
X2189940Y770080D02*
X2417620D01*
X2189480Y769620D02*
X2189940Y770080D01*
X2417620D02*
X2418080Y770540D01*
X2418770Y769850D01*
X2418830Y758540D02*
X2429340Y748030D01*
X2418080Y758540D02*
X2418830D01*
X2429340Y748030D02*
X2448560D01*
X2463800Y755650D02*
Y762000D01*
X2418770Y769850D02*
X2463750D01*
X2463800Y769700D02*
X2473880D01*
X1698080Y582840D02*
Y591820D01*
Y582840D02*
X1714500Y566420D01*
Y554990D02*
Y566420D01*
X1698080Y591820D02*
Y599530D01*
X1709420Y610870D02*
Y623000D01*
X1698080Y599530D02*
X1709420Y610870D01*
X1690325Y556305D02*
X1690370Y556260D01*
X1690280Y591820D02*
X1690325Y591775D01*
Y556305D02*
Y591775D01*
X1690280Y600875D02*
X1699920Y610515D01*
X1690280Y591820D02*
Y600875D01*
X1699920Y610515D02*
Y623000D01*
X971550Y406400D02*
Y419100D01*
X812332Y578318D02*
X971550Y419100D01*
X799632Y577048D02*
X946150Y430530D01*
Y406400D02*
Y430530D01*
X786870Y575840D02*
X920750Y441960D01*
Y406400D02*
Y441960D01*
X774170Y574570D02*
X895350Y453390D01*
Y406400D02*
Y453390D01*
X869950Y406400D02*
Y464820D01*
X761470Y573300D02*
X869950Y464820D01*
X844550Y406400D02*
Y468630D01*
X748770Y564410D02*
X844550Y468630D01*
X736070Y559330D02*
X819150Y476250D01*
Y406400D02*
Y476250D01*
X723370Y554250D02*
X793750Y483870D01*
Y406400D02*
Y483870D01*
X710670Y550440D02*
X768350Y492760D01*
Y406400D02*
Y492760D01*
X2063755Y294975D02*
Y463545D01*
X2063750Y463550D02*
X2063755Y463545D01*
X2089150Y421640D02*
Y463550D01*
X2114550D02*
Y537270D01*
X2067560Y584260D02*
X2114550Y537270D01*
X2003200Y549500D02*
X2089150Y463550D01*
X2003200Y549500D02*
Y563760D01*
X1992200Y535100D02*
X2063750Y463550D01*
X2035810D02*
X2038350D01*
X1981200Y518160D02*
X2035810Y463550D01*
X2012950D02*
Y464820D01*
X1970200Y507570D02*
X2012950Y464820D01*
X1959200Y491900D02*
X1987550Y463550D01*
X1948200Y477500D02*
X1962150Y463550D01*
X1936750D02*
X1937200Y464000D01*
X2167520Y595260D02*
X2189480Y617220D01*
X2050700Y595260D02*
X2167520D01*
X2153120Y606260D02*
X2189480Y642620D01*
X2050700Y606260D02*
X2153120D01*
X2050700Y617260D02*
X2138720D01*
X2189480Y668020D01*
X1779270Y646430D02*
X1866900D01*
X1719490D02*
X1779270D01*
X1874070Y639260D02*
X1911700D01*
X1866900Y646430D02*
X1874070Y639260D01*
X1779270Y570230D02*
X1864360D01*
X1889390Y595260D01*
X1779270Y595630D02*
X1865630D01*
X1884530Y614530D01*
X1779270Y621030D02*
X1866900D01*
X1874130Y628260D01*
X1779270Y748030D02*
X1833040Y694260D01*
X1779270Y748030D02*
Y972820D01*
X1718920Y647000D02*
X1719490Y646430D01*
X1671320Y676850D02*
X1699920Y648250D01*
Y647000D02*
Y648250D01*
X1902460Y1098550D02*
X1913890Y1087120D01*
X1875790Y1233170D02*
X1946930D01*
X1965980Y1214120D01*
X1720960Y1126600D02*
X1921510Y1327150D01*
X1637870Y1126600D02*
X1720960D01*
X1713230Y1189990D02*
X1734820Y1211580D01*
X1729740Y1184910D02*
X1758950Y1214120D01*
X1628140Y1184910D02*
X1729740D01*
X1754738Y1179428D02*
X1771650Y1196340D01*
X1629008Y1179428D02*
X1754738D01*
X1625600Y1189990D02*
X1713230D01*
X1609120Y1173510D02*
X1625600Y1189990D01*
X1609120Y1160350D02*
Y1173510D01*
X1614120Y1170890D02*
X1628140Y1184910D01*
X1614120Y1160350D02*
Y1170890D01*
X1544220Y1216560D02*
X1596390Y1268730D01*
Y1270000D01*
X1544220Y1160450D02*
Y1216560D01*
X1555750Y1638300D02*
X1568450D01*
X1541780D02*
X1555750D01*
X1178750Y1385070D02*
Y1385570D01*
X1544120Y1160350D02*
X1544220Y1160450D01*
X1524120Y1234560D02*
X1611630Y1322070D01*
X1524120Y1160350D02*
Y1234560D01*
X1611630Y1322070D02*
X1664970D01*
X1519120Y1160350D02*
Y1238450D01*
X1587540Y1306870D02*
Y1390470D01*
X1519120Y1238450D02*
X1587540Y1306870D01*
X1062990Y828040D02*
X1084580Y806450D01*
X1055730Y835300D02*
X1062990Y828040D01*
X1619120Y1169540D02*
X1629008Y1179428D01*
X1619120Y1160350D02*
Y1169540D01*
X1211620Y1477050D02*
X1221740Y1487170D01*
X1211620Y1449255D02*
Y1477050D01*
X1668780Y1163320D02*
X1678940D01*
X1647060Y1141600D02*
X1668780Y1163320D01*
X1637870Y1141600D02*
X1647060D01*
X814070Y1066800D02*
X835660D01*
X843160D02*
X864870D01*
X2083510Y1764830D02*
X2097240D01*
X2109470Y1752600D01*
X1987550Y1753870D02*
X1998510Y1764830D01*
X2013510D01*
X2119630Y267970D02*
X2131060Y279400D01*
X2105260Y267970D02*
X2119630D01*
X2013510Y1764830D02*
X2038510D01*
X2080260Y267970D02*
X2105260D01*
X2038510Y1764830D02*
X2058510D01*
X2035260Y267970D02*
X2060260D01*
X2020570D02*
X2035260D01*
X2009140Y279400D02*
X2020570Y267970D01*
X2023510Y1737830D02*
X2035510D01*
X2061510Y1715791D02*
Y1737830D01*
X2061350Y1715630D02*
X2061510Y1715791D01*
X2054850Y1687840D02*
X2055010Y1688000D01*
Y1737830D01*
X2048510Y1666240D02*
X2048510Y1666240D01*
X2048510Y1666240D02*
Y1737830D01*
X2024890Y1700775D02*
X2042010Y1717895D01*
Y1737830D01*
X2035260Y284970D02*
X2045260Y294970D01*
X2035810Y1748390D02*
X2038510Y1751090D01*
X2035510Y1737830D02*
X2035810Y1738130D01*
X2038510Y1751090D02*
Y1764830D01*
X2035810Y1738130D02*
Y1748390D01*
X2073510Y1737830D02*
X2083510Y1747830D01*
X2058510Y1764830D02*
X2083510D01*
X1546272Y1765110D02*
X1552432Y1758950D01*
X1554480D01*
X1526090Y1765110D02*
X1546272D01*
X1526090Y1733610D02*
Y1743610D01*
Y1753610D01*
Y1765110D01*
X2123440Y868620D02*
Y890270D01*
Y839470D02*
Y861120D01*
X2509520Y1177290D02*
X2602800D01*
X2602890Y1177200D01*
X751840Y1205230D02*
X787400D01*
X770890Y1179830D02*
X787400Y1163320D01*
X751840Y1179830D02*
X770890D01*
X685270Y545360D02*
Y598260D01*
Y545360D02*
X717550Y513080D01*
Y406400D02*
Y513080D01*
X2070260Y294970D02*
Y402750D01*
X2089150Y421640D01*
X2063755Y294975D02*
X2063760Y294970D01*
X1960880Y1682750D02*
X1993390D01*
X1809750Y1678940D02*
X1809959D01*
X1821389Y1690370D01*
X1837770D01*
X1827530Y1625600D02*
X1855970D01*
X1856130Y1625440D01*
X1875130D02*
X1875190Y1625380D01*
X1875130Y1625440D02*
Y1625940D01*
X1847770Y1653300D02*
Y1690370D01*
Y1653300D02*
X1875130Y1625940D01*
X1865630Y1581150D02*
Y1605440D01*
X1846580Y1562100D02*
X1865630Y1581150D01*
X1817250Y1562100D02*
X1846580D01*
X1802130Y1562220D02*
Y1598760D01*
Y1562220D02*
X1802250Y1562100D01*
X1745729Y1657871D02*
X1776209D01*
X1802130Y1631950D01*
Y1609260D02*
Y1631950D01*
X1744980Y1658620D02*
X1745729Y1657871D01*
X2061350Y1715630D02*
X2082800Y1694180D01*
X2054850Y1687840D02*
X2094230Y1648460D01*
Y1617980D02*
Y1648460D01*
X2112010Y1572260D02*
X2139950Y1600200D01*
X2112010Y1546860D02*
Y1572260D01*
X2139950Y1600200D02*
X2156460D01*
X2113280Y1581150D02*
X2136330Y1604200D01*
X2072640Y1581150D02*
X2113280D01*
X2136330Y1604200D02*
X2156460D01*
X1965980Y1188720D02*
X1987550D01*
X2138300Y1608200D02*
X2156460D01*
X2128520Y1617980D02*
X2138300Y1608200D01*
X2015490Y1127760D02*
Y1154590D01*
X2074740Y1209040D02*
X2075180D01*
X2052570Y1186870D02*
X2074740Y1209040D01*
X2052320Y1186870D02*
X2052570D01*
X2104390Y1226820D02*
X2127250Y1249680D01*
X2141710D01*
X2024890Y1682750D02*
Y1700775D01*
X2024380Y1652270D02*
Y1682240D01*
X2024890Y1682750D01*
X1676440Y1333540D02*
Y1395320D01*
X1664970Y1322070D02*
X1676440Y1333540D01*
X668020Y1504950D02*
X693444D01*
X701016D02*
X734060D01*
X782280Y1499910D02*
X782320Y1499870D01*
X782240Y1524000D02*
X782280Y1523960D01*
Y1499910D02*
Y1523960D01*
X1061720Y1503560D02*
X1079380D01*
X1085850Y1510030D02*
X1098630D01*
X1079380Y1503560D02*
X1085850Y1510030D01*
X1021080Y1488440D02*
X1061600D01*
X1061720Y1488560D01*
X1568450Y1638300D02*
X1579880Y1626870D01*
X1555640Y1723500D02*
X1555750Y1723390D01*
X1162050Y792480D02*
X1346170Y976600D01*
X911860Y920750D02*
X979170D01*
X2038790Y1164590D02*
X2052070Y1177870D01*
X2015490Y1164590D02*
X2038790D01*
X2052070Y1177870D02*
X2052320D01*
X2014855Y1163955D02*
X2015490Y1164590D01*
X1966615Y1163955D02*
X2014855D01*
X1965980Y1163320D02*
X1966615Y1163955D01*
X1808480Y1176020D02*
X1953280D01*
X1637870Y1106600D02*
X1739060D01*
X1808480Y1176020D01*
X1953280D02*
X1965980Y1163320D01*
X2473880Y769700D02*
X2490460Y753120D01*
Y673100D02*
Y753120D01*
X2463750Y769850D02*
X2463800Y769900D01*
X2438400Y694690D02*
X2449830D01*
X2189480Y718820D02*
X2227580D01*
X2109920Y639260D02*
X2189480Y718820D01*
X1084580Y806450D02*
X1127850D01*
X1055730Y835300D02*
Y850520D01*
X1127850Y806450D02*
X1138830Y817430D01*
X1023620Y919480D02*
X1034160Y930020D01*
X1055730D01*
X947420Y899160D02*
X990600Y855980D01*
Y842700D02*
Y855980D01*
X817880Y993830D02*
Y1018540D01*
X1100730Y930020D02*
X1101090Y930380D01*
Y998220D01*
X1140460Y818860D02*
Y819060D01*
X1139030Y817430D02*
X1140460Y818860D01*
X1138830Y817430D02*
X1139030D01*
X847780Y984830D02*
X911860Y920750D01*
X817880Y984830D02*
X847780D01*
X747340D02*
X817880D01*
X1380620Y966600D02*
X1425370D01*
X1186180Y772160D02*
X1380620Y966600D01*
X1003300Y772160D02*
X1186180D01*
X685270Y922760D02*
X747340Y984830D01*
X1346170Y976600D02*
X1425370D01*
X746760Y958850D02*
X840740D01*
X965890Y833700D02*
X990600D01*
X840740Y958850D02*
X965890Y833700D01*
X1003990D02*
X1045210Y792480D01*
X990600Y833700D02*
X1003990D01*
X1045210Y792480D02*
X1162050D01*
X833120Y924560D02*
X850900D01*
X1003300Y772160D01*
X929660Y993140D02*
X960120D01*
X807720Y899160D02*
X833120Y924560D01*
X868680Y802640D02*
X935990D01*
X826770Y853440D02*
X868680D01*
X825500Y828040D02*
X868680D01*
X820420Y802640D02*
X868680D01*
X1389380Y849630D02*
X1405890D01*
X1469120Y912860D01*
X1071880Y740410D02*
X1197610D01*
X1203960Y715010D02*
X1380490Y891540D01*
X1071880Y715010D02*
X1203960D01*
X1059180Y727710D02*
X1071880Y715010D01*
X1380490Y891540D02*
X1440180D01*
X1191260Y759460D02*
X1366520Y934720D01*
X935990Y802640D02*
X979170Y759460D01*
X1191260D01*
X822270Y651510D02*
X916032D01*
X1032872Y534670D01*
X1121410D01*
X822270Y664210D02*
X922382D01*
X1026522Y560070D01*
X1121410D01*
X822270Y676910D02*
X928732D01*
X1020172Y585470D01*
X1121410D01*
X822270Y689610D02*
X935082D01*
X1013822Y610870D01*
X1121410D01*
X822270Y638810D02*
X904240D01*
X1033780Y509270D02*
X1121410D01*
X904240Y638810D02*
X1033780Y509270D01*
X822270Y702310D02*
X1033780D01*
X1071880Y664210D01*
X822270Y715010D02*
X1046480D01*
X1071880Y689610D01*
X822270Y727710D02*
X1059180D01*
X822270Y740410D02*
X1071880D01*
X1637570Y1016300D02*
X1637870Y1016600D01*
X1614470Y1016300D02*
X1637570D01*
X1614170Y1016000D02*
X1614470Y1016300D01*
X1637730Y1071740D02*
X1637870Y1071600D01*
X1615580Y1071740D02*
X1637730D01*
X1615440Y1071880D02*
X1615580Y1071740D01*
X1513980Y1160210D02*
X1514120Y1160350D01*
X1513980Y1136790D02*
Y1160210D01*
X1513840Y1136650D02*
X1513980Y1136790D01*
X1564120Y1160350D02*
X1564380Y1160090D01*
Y1136910D02*
Y1160090D01*
Y1136910D02*
X1564640Y1136650D01*
X1207690Y1668780D02*
Y1676320D01*
X1230630Y1699260D01*
Y1711240D01*
X1197690Y1668780D02*
Y1701690D01*
X1197650Y1668740D02*
X1197690Y1668780D01*
X1197650Y1644690D02*
Y1668740D01*
X1197610Y1644650D02*
X1197650Y1644690D01*
X1197690Y1701690D02*
X1221550Y1725550D01*
X681410Y440440D02*
Y440690D01*
Y440440D02*
X692150Y429700D01*
Y406400D02*
Y429700D01*
X680720Y441380D02*
X681410Y440690D01*
X680720Y441380D02*
Y467440D01*
X672410Y440690D02*
Y440940D01*
X660400Y452950D02*
X672410Y440940D01*
X660400Y452950D02*
Y464820D01*
X2147295Y1107165D02*
Y1125220D01*
X2099310Y1084230D02*
X2124360D01*
X2147295Y1107165D01*
X2084990Y1084230D02*
X2099310D01*
X2080260Y801460D02*
X2080305Y801415D01*
X2114505D01*
X2114550Y801370D01*
X2051000Y793560D02*
X2080160D01*
X2080260Y793660D01*
X1225550Y1716320D02*
Y1725550D01*
Y1716320D02*
X1230630Y1711240D01*
X1165850Y1744490D02*
X1180610D01*
X1192530Y1756410D02*
X1206500D01*
X1180610Y1744490D02*
X1192530Y1756410D01*
X1206500D02*
X1221550Y1741360D01*
Y1733550D02*
Y1741360D01*
X1592580Y1501140D02*
Y1524080D01*
X1579880Y1551916D02*
Y1556710D01*
X1225740Y1733360D02*
X1281450D01*
X1281640Y1733550D02*
X1339850D01*
X1214120Y1420945D02*
X1216620D01*
X1211620D02*
X1214120D01*
X1225550Y1729550D02*
X1244790D01*
X1258570Y1715770D01*
X1181290Y1729550D02*
X1221550D01*
X1181100Y1729740D02*
X1181290Y1729550D01*
X1225550Y1733550D02*
X1225740Y1733360D01*
X1642030Y1540510D02*
X1659890Y1558370D01*
X1605280Y1540510D02*
X1642030D01*
X1565910Y1530374D02*
X1588874D01*
X1592580Y1534080D01*
X1598850D02*
X1605280Y1540510D01*
Y1556710D01*
X1592580Y1534080D02*
X1598850D01*
X1592580D02*
Y1556710D01*
X1565910Y1530160D02*
Y1530374D01*
X1553210Y1517460D02*
X1565910Y1530160D01*
X1553210Y1504950D02*
Y1517460D01*
X1567180Y1473200D02*
X1592540Y1447840D01*
X1557020Y1473200D02*
X1567180D01*
X1592540Y1429010D02*
Y1447840D01*
X1623060Y1473200D02*
X1661160D01*
X1681440Y1452920D01*
X1466810Y1431550D02*
Y1447840D01*
X1441450Y1473200D02*
X1466810Y1447840D01*
X1376640Y1429010D02*
Y1454190D01*
X1357630Y1473200D02*
X1376640Y1454190D01*
X1350010Y1442720D02*
X1362022D01*
X1371410Y1433332D01*
Y1429240D02*
X1371640Y1429010D01*
X1371410Y1429240D02*
Y1433332D01*
X1171190Y1527810D02*
X1189990D01*
X1210310Y1548130D01*
X1170940Y1527560D02*
X1171190Y1527810D01*
X1300480Y1540510D02*
X1417320D01*
X1278890Y1562100D02*
X1300480Y1540510D01*
X1316990Y1564640D02*
X1416050D01*
X1296670Y1584960D02*
Y1626870D01*
Y1584960D02*
X1316990Y1564640D01*
X1353820Y1593850D02*
Y1601470D01*
X1341120Y1581150D02*
X1353820Y1593850D01*
X1322070Y1601470D02*
X1353820D01*
X1579880Y1613210D02*
Y1626870D01*
X1418419Y1713610D02*
X1438090D01*
X1413719Y1718310D02*
X1418419Y1713610D01*
X1410970Y1718310D02*
X1413719D01*
X1419019Y1723610D02*
X1438090D01*
X1413719Y1718310D02*
X1419019Y1723610D01*
X1413770Y1753610D02*
X1438090D01*
X1403350Y1764030D02*
X1413770Y1753610D01*
X1437010Y1764030D02*
X1438090Y1765110D01*
X1403350Y1764030D02*
X1437010D01*
X660445Y527095D02*
Y551135D01*
X660400Y551180D02*
X660445Y551135D01*
Y527095D02*
X660490Y527050D01*
Y512990D02*
Y527050D01*
X660400Y464820D02*
Y476220D01*
X690300Y497150D02*
Y515620D01*
Y497150D02*
X699770Y487680D01*
X668670Y492760D02*
Y504810D01*
X660490Y512990D02*
X668670Y504810D01*
X654670Y492760D02*
Y504840D01*
Y481950D02*
X660400Y476220D01*
X654670Y481950D02*
Y492760D01*
X681010Y515330D02*
X681300Y515620D01*
X681010Y477730D02*
Y515330D01*
X680720Y477440D02*
X681010Y477730D01*
X681300Y515620D02*
Y531550D01*
X672410Y540440D02*
X681300Y531550D01*
X672410Y540440D02*
Y598100D01*
X652690Y527050D02*
Y533490D01*
Y506820D02*
Y527050D01*
Y506820D02*
X654670Y504840D01*
X647170Y539010D02*
Y598260D01*
Y539010D02*
X652690Y533490D01*
X697970Y547900D02*
X742950Y502920D01*
X697970Y547900D02*
Y598260D01*
X742950Y406400D02*
Y502920D01*
X710670Y550440D02*
Y598260D01*
X723370Y554250D02*
Y598260D01*
X736070Y559330D02*
Y598260D01*
X748770Y564410D02*
Y598260D01*
X761470Y573300D02*
Y598260D01*
X774170Y574570D02*
Y598260D01*
X786870Y575840D02*
Y598260D01*
X799632Y577048D02*
Y598198D01*
X812332Y578318D02*
Y598198D01*
X923290Y1352550D02*
Y1368651D01*
X943610Y1332230D02*
X974090D01*
X923290Y1352550D02*
X943610Y1332230D01*
X923290Y1382169D02*
Y1410970D01*
Y1435010D01*
X952500Y1473200D02*
X969010D01*
X935990D02*
X952500D01*
X981710Y1443410D02*
Y1460500D01*
X969010Y1473200D02*
X981710Y1460500D01*
X923290Y1443010D02*
Y1460500D01*
X935990Y1473200D01*
X1002030Y1385570D02*
X1016000D01*
X981710Y1405890D02*
X1002030Y1385570D01*
X981710Y1405890D02*
Y1434410D01*
X1016000Y1385570D02*
X1035050D01*
X1039980Y1390500D02*
Y1402460D01*
X1035050Y1385570D02*
X1039980Y1390500D01*
X1127760Y1444680D02*
Y1468120D01*
X1170830Y1435680D02*
X1170940Y1435570D01*
X1127760Y1435680D02*
X1170830D01*
X1117020D02*
X1127760D01*
X1110070Y1442630D02*
X1117020Y1435680D01*
X1097280Y1442630D02*
X1110070D01*
X1148080Y1385570D02*
X1170750D01*
X787360Y1549360D02*
X787400Y1549400D01*
X774700Y1562100D02*
X787400Y1549400D01*
X774700Y1562100D02*
Y1578300D01*
X1645920Y1656080D02*
X1657350Y1667510D01*
X1595000Y1656080D02*
X1645920D01*
X1657350Y1667510D02*
X1684020D01*
X1214120Y917030D02*
Y942340D01*
X1250995Y979215D01*
X1141040Y948110D02*
X1153160D01*
X1132840Y956310D02*
X1141040Y948110D01*
X1132840Y956310D02*
Y970280D01*
X1153160Y948110D02*
X1172790D01*
X1187450Y926520D02*
Y933450D01*
X1172790Y948110D02*
X1187450Y933450D01*
Y926520D02*
X1187700D01*
X1153160Y928370D02*
Y939110D01*
Y928370D02*
X1163320Y918210D01*
X1187105Y917865D02*
X1187450Y917520D01*
X1163665Y917865D02*
X1187105D01*
X1163320Y918210D02*
X1163665Y917865D01*
X1197190Y917030D02*
X1214120D01*
X1187700Y926520D02*
X1197190Y917030D01*
X1195990Y909230D02*
X1214120D01*
X1187700Y917520D02*
X1195990Y909230D01*
X1187450Y917520D02*
X1187700D01*
X1214120Y909230D02*
X1214165Y909275D01*
X1234395D01*
X1234440Y909320D01*
X1253490D01*
X1286510Y942340D02*
Y971460D01*
X1253490Y909320D02*
X1286510Y942340D01*
X1286465Y979215D02*
X1286510Y979260D01*
X1250995Y979215D02*
X1286465D01*
X878840Y993140D02*
X904260D01*
X1430020Y1183640D02*
X1444120Y1169540D01*
X1372870Y1192530D02*
X1381760Y1183640D01*
X1430020D01*
X1358900Y1150620D02*
X1367790D01*
X1374050Y1144360D01*
Y1139190D02*
Y1144360D01*
X1381805Y1139145D02*
X1381850Y1139190D01*
X1381805Y1123995D02*
Y1139145D01*
X1381760Y1123950D02*
X1381805Y1123995D01*
X1778635Y697230D02*
X1779270D01*
X1725295Y750570D02*
X1778635Y697230D01*
X1724660Y750570D02*
X1725295D01*
X1703760Y833120D02*
X1737360Y866720D01*
Y958850D01*
X1703760Y747340D02*
Y833120D01*
X1694470Y833410D02*
X1694760Y833120D01*
X1694470Y833410D02*
Y854420D01*
X1694180Y854710D02*
X1694470Y854420D01*
X1638300Y735330D02*
Y764564D01*
Y772136D02*
Y803910D01*
X2155465Y1017270D02*
X2174240D01*
X2059300Y1019810D02*
X2080260D01*
X2099310Y1049020D02*
Y1072230D01*
X2171210Y1249680D02*
X2192020D01*
X2184460Y1158240D02*
Y1168400D01*
X2156460Y1196150D02*
Y1196400D01*
Y1196150D02*
X2157440Y1195170D01*
X2157690D01*
X2184460Y1168400D01*
X2160545Y1125220D02*
Y1134575D01*
X2184210Y1158240D01*
X2156460Y1203900D02*
Y1234430D01*
X2160545Y1086005D02*
Y1125220D01*
X2142215Y1017270D02*
Y1037315D01*
X2160270Y1055370D02*
Y1070730D01*
X2142215Y1037315D02*
X2160270Y1055370D01*
X2142215Y1000485D02*
Y1017270D01*
X2160270Y1085730D02*
X2160545Y1086005D01*
X2114189Y972459D02*
X2142215Y1000485D01*
X2082800Y972459D02*
X2114189D01*
X2040890Y904240D02*
Y915840D01*
X2082800Y957750D01*
Y957941D01*
X2014200Y839040D02*
X2040890Y865730D01*
X2014200Y802760D02*
Y839040D01*
X2040890Y865730D02*
Y904240D01*
X2015490D02*
Y918210D01*
Y887730D02*
Y904240D01*
X1948200Y820440D02*
X2015490Y887730D01*
X1948200Y802760D02*
Y820440D01*
X2033270Y935990D02*
Y966550D01*
X2015490Y918210D02*
X2033270Y935990D01*
Y976550D02*
Y988060D01*
X2055500Y1010290D01*
Y1019810D01*
Y1054740D01*
X2084990Y1084230D01*
X761470Y852910D02*
X807720Y899160D01*
X1286510Y971460D02*
X1319440D01*
X1286510Y979260D02*
X1315810D01*
X1328150Y991600D02*
X1425370D01*
X1315810Y979260D02*
X1328150Y991600D01*
X1329580Y981600D02*
X1425370D01*
X1319440Y971460D02*
X1329580Y981600D01*
X1197610Y740410D02*
X1358900Y901700D01*
X1442720D02*
X1459120Y918100D01*
X1358900Y901700D02*
X1442720D01*
X1210310Y1014730D02*
X1217180Y1021600D01*
X1425370D01*
X1295400Y901700D02*
X1365300Y971600D01*
X1425370D01*
Y991600D02*
Y996600D01*
X1366520Y934720D02*
X1440180D01*
X1474120Y900080D02*
Y947850D01*
X1446530Y872490D02*
X1474120Y900080D01*
X1440180Y891540D02*
X1464120Y915480D01*
X1014730Y1446530D02*
X1026160D01*
X1039980Y1432710D01*
Y1422021D02*
Y1432710D01*
X1046480Y1422021D02*
Y1455420D01*
X1052980Y1422021D02*
Y1430170D01*
X1065440Y1442630D02*
X1097280D01*
X1052980Y1430170D02*
X1065440Y1442630D01*
X1104900Y1480820D02*
X1115060D01*
X1127760Y1468120D01*
X1097280Y1450430D02*
Y1473200D01*
X1104900Y1480820D01*
X1193110Y1361190D02*
Y1361440D01*
X1191880Y1359960D02*
X1193110Y1361190D01*
X1191630Y1359960D02*
X1191880D01*
X1175330Y1343660D02*
X1191630Y1359960D01*
X1156970Y1343660D02*
X1175330D01*
X1178750Y1385070D02*
X1193110Y1370710D01*
Y1361440D02*
Y1370710D01*
X1257300Y1405890D02*
Y1414590D01*
X1242060Y1390650D02*
X1257300Y1405890D01*
Y1443990D02*
Y1463620D01*
Y1422590D02*
Y1443990D01*
X1196340Y1303020D02*
Y1320800D01*
X1290320Y1414780D02*
Y1449070D01*
X1196340Y1320800D02*
X1290320Y1414780D01*
X1221740Y1303020D02*
Y1322070D01*
X1305560Y1405890D02*
Y1452880D01*
X1221740Y1322070D02*
X1305560Y1405890D01*
X1266770Y1472620D02*
X1290320Y1449070D01*
X1275080Y1483360D02*
X1305560Y1452880D01*
X1170940Y1252220D02*
Y1303020D01*
X1196340Y1235710D02*
Y1303020D01*
X1221740Y1220470D02*
Y1303020D01*
X1221620Y1387990D02*
Y1420945D01*
X1202110Y1361440D02*
Y1368480D01*
X1221620Y1387990D01*
X1202110Y1349430D02*
Y1361440D01*
X1170940Y1318260D02*
X1202110Y1349430D01*
X1170940Y1303020D02*
Y1318260D01*
X1221620Y1449255D02*
Y1456570D01*
X1237670Y1472620D02*
X1257300D01*
X1221620Y1456570D02*
X1237670Y1472620D01*
X1216678Y1464328D02*
X1235710Y1483360D01*
X1275080D01*
X1216678Y1449313D02*
Y1464328D01*
X1170940Y1252220D02*
X1331560Y1091600D01*
X1425370Y1066600D02*
X1425470Y1066700D01*
X1460400D01*
X1460500Y1066800D01*
X929660Y1170940D02*
X930295Y1170305D01*
X962025D01*
X962660Y1169670D01*
X869950Y1145540D02*
X904260D01*
X1802220Y1013460D02*
X1821180D01*
X1775460D02*
X1794420D01*
X1637870Y1021600D02*
X1767320D01*
X1775460Y1013460D01*
X1913890Y1087120D02*
X1940580D01*
X1846670Y1098550D02*
X1902460D01*
X1813560D02*
X1838870D01*
X1791610Y1076600D02*
X1813560Y1098550D01*
X1637870Y1076600D02*
X1791610D01*
X1637870Y1011600D02*
X1749380D01*
X1800860Y960120D02*
X1940580D01*
X1749380Y1011600D02*
X1800860Y960120D01*
X1637870Y1111600D02*
X1733900D01*
X1811020Y1188720D02*
X1940580D01*
X1733900Y1111600D02*
X1811020Y1188720D01*
X1637870Y1116600D02*
X1728740D01*
X1813560Y1201420D02*
X1953280D01*
X1728740Y1116600D02*
X1813560Y1201420D01*
X1637870Y1121600D02*
X1724850D01*
X1817370Y1214120D02*
X1940580D01*
X1724850Y1121600D02*
X1817370Y1214120D01*
X1953280Y1201420D02*
X1965980Y1188720D01*
X1637870Y971600D02*
X1659840D01*
X1671320Y676850D02*
Y960120D01*
X1659840Y971600D02*
X1671320Y960120D01*
X1741600Y1001600D02*
X1756410Y986790D01*
Y745490D02*
X1779270Y722630D01*
X1756410Y745490D02*
Y986790D01*
X1637870Y1001600D02*
X1741600D01*
X1637870Y1006600D02*
X1745490D01*
X1779270Y972820D01*
Y722630D02*
X1818640Y683260D01*
X1637870Y986600D02*
X1688020D01*
X1704340Y970280D01*
X1637870Y991600D02*
X1704610D01*
X1737360Y958850D01*
X1703760Y747340D02*
X1779270Y671830D01*
X1789840Y661260D01*
X1804240Y672260D02*
X1911700D01*
X1779270Y697230D02*
X1804240Y672260D01*
X1818640Y683260D02*
X1911700D01*
X1833040Y694260D02*
X1911700D01*
X1789840Y661260D02*
X1911700D01*
X1624330Y803910D02*
X1638300D01*
X1619250Y808990D02*
X1624330Y803910D01*
X1638300D02*
X1647190Y812800D01*
Y822960D01*
X1638300Y848336D02*
Y871220D01*
X1381760Y1123950D02*
X1389245Y1116465D01*
X1372870Y1192530D02*
Y1205230D01*
X1362710Y1215390D02*
X1372870Y1205230D01*
X1551283Y1356973D02*
X1582540Y1388230D01*
X1551283Y1332843D02*
Y1356973D01*
X1654810Y1342390D02*
Y1371600D01*
X1671320Y1388110D01*
X1489120Y1160350D02*
Y1306150D01*
X1397000Y1334770D02*
X1460500D01*
X1489120Y1306150D01*
X1436370Y1309370D02*
X1484120Y1261620D01*
Y1160350D02*
Y1261620D01*
X1436370Y1309370D02*
Y1322070D01*
X1419860Y1309370D02*
X1479120Y1250110D01*
X1417320Y1309370D02*
X1419860D01*
X1479120Y1160350D02*
Y1250110D01*
X1366520Y1365250D02*
Y1397587D01*
Y1365250D02*
X1397000Y1334770D01*
X1384380Y1369060D02*
X1385570D01*
X1371640Y1381800D02*
X1384380Y1369060D01*
X1371640Y1381800D02*
Y1398010D01*
X1456810Y1370210D02*
Y1400550D01*
X1494120Y1160350D02*
Y1332900D01*
X1456810Y1370210D02*
X1494120Y1332900D01*
X1461810Y1389340D02*
Y1400550D01*
X1488440Y1362710D02*
X1499870D01*
X1461810Y1389340D02*
X1488440Y1362710D01*
X1483360Y1381760D02*
X1499870D01*
X1471810Y1393310D02*
Y1400550D01*
Y1393310D02*
X1483360Y1381760D01*
X1444120Y1160350D02*
Y1169540D01*
X1582540Y1388230D02*
Y1398010D01*
X1589120Y1185260D02*
X1614170Y1210310D01*
X1629410D02*
X1637030Y1217930D01*
X1614170Y1210310D02*
X1629410D01*
X1616710Y1205230D02*
X1653540D01*
X1663700Y1215390D01*
X1619250Y1200150D02*
X1678015D01*
X1685636Y1207770D02*
X1686560D01*
X1678015Y1200150D02*
X1685636Y1207770D01*
X1623060Y1195070D02*
X1697990D01*
X1710690Y1207770D01*
X1614170Y1342390D02*
X1626870D01*
X1600200Y1356360D02*
Y1369060D01*
Y1356360D02*
X1614170Y1342390D01*
X1626870D02*
Y1363790D01*
X1589120Y1160350D02*
Y1185260D01*
X1604120Y1176130D02*
X1623060Y1195070D01*
X1604120Y1160350D02*
Y1176130D01*
X1594120Y1182640D02*
X1616710Y1205230D01*
X1681480Y1137830D02*
X1691550D01*
X1657380Y1131600D02*
X1663610Y1137830D01*
X1637870Y1131600D02*
X1657380D01*
X1663610Y1137830D02*
X1681480D01*
X1658710Y1145630D02*
X1681480D01*
X1649680Y1136600D02*
X1658710Y1145630D01*
X1691550Y1137830D02*
X1701800Y1148080D01*
X1599120Y1160350D02*
Y1180020D01*
X1619250Y1200150D01*
X1594120Y1160350D02*
Y1182640D01*
X1654810Y1408430D02*
Y1422400D01*
X1663960Y1431550D01*
X1362710Y1215390D02*
Y1228090D01*
X1372870Y1206300D02*
X1389380Y1222810D01*
X1362710Y1235890D02*
Y1261110D01*
X1389380Y1222810D02*
Y1223010D01*
X1619352Y848438D02*
X1638198D01*
X1619250Y848540D02*
X1619352Y848438D01*
X1638198D02*
X1638300Y848336D01*
X1619185Y848605D02*
X1619250Y848540D01*
X1638300Y831850D02*
Y840764D01*
Y831850D02*
X1647190Y822960D01*
X1619250Y808990D02*
Y840740D01*
X1425235Y1116465D02*
X1425370Y1116600D01*
X1389245Y1116465D02*
X1425235D01*
X1216620Y1449255D02*
X1216678Y1449313D01*
X1340610Y1101600D02*
X1425370D01*
X1221740Y1220470D02*
X1340610Y1101600D01*
X1257300Y1472620D02*
X1266770D01*
X1196340Y1235710D02*
X1335450Y1096600D01*
X1425370D01*
X1181100Y1408430D02*
X1201420D01*
X1170940Y1418590D02*
X1181100Y1408430D01*
X1206620Y1413630D02*
Y1420945D01*
X1201420Y1408430D02*
X1206620Y1413630D01*
X1170940Y1418590D02*
Y1435570D01*
X1331560Y1091600D02*
X1425370D01*
X1614120Y947850D02*
Y963980D01*
X1604010Y974090D02*
X1614120Y963980D01*
X1619120Y947850D02*
X1619185Y947785D01*
Y848605D02*
Y947785D01*
X1564120Y947850D02*
Y965720D01*
X1557020Y972820D02*
X1564120Y965720D01*
X1514120Y947850D02*
Y962380D01*
X1503680Y972820D02*
X1514120Y962380D01*
X1469120Y912860D02*
Y947850D01*
X1440180Y934720D02*
X1444120Y938660D01*
Y947850D01*
X1464120Y915480D02*
Y947850D01*
X1459120Y918100D02*
Y947850D01*
X2050700Y771260D02*
X2051070Y770890D01*
X2078990D01*
X2050700Y793260D02*
X2051000Y793560D01*
X2050700Y771260D02*
Y782260D01*
Y793260D01*
X1347350Y1733550D02*
X1389380D01*
Y1741050D02*
X1399420D01*
X1401980Y1743610D02*
X1438090D01*
X1399420Y1741050D02*
X1401980Y1743610D01*
X1438060Y1733580D02*
X1438090Y1733610D01*
X1389410Y1733580D02*
X1438060D01*
X1389380Y1733550D02*
X1389410Y1733580D01*
X1367670Y1699260D02*
X1400810D01*
X1405160Y1703610D02*
X1438090D01*
X1400810Y1699260D02*
X1405160Y1703610D01*
X1278890Y1634490D02*
X1322070Y1677670D01*
X1278890Y1562100D02*
Y1634490D01*
X1296670Y1626870D02*
X1322070Y1652270D01*
X1460500Y1558290D02*
Y1577340D01*
X1475740Y1592580D02*
Y1607940D01*
X1460500Y1577340D02*
X1475740Y1592580D01*
X2050700Y628260D02*
X2124320D01*
X2189480Y693420D01*
X2050700Y639260D02*
X2109920D01*
X2095520Y650260D02*
X2189480Y744220D01*
X2050700Y650260D02*
X2095520D01*
X2081120Y661260D02*
X2189480Y769620D01*
X2050700Y661260D02*
X2081120D01*
X2066720Y672260D02*
X2189480Y795020D01*
X647170Y598260D02*
Y612880D01*
X660400Y626110D01*
X799570Y598260D02*
X799632Y598198D01*
X812270Y598260D02*
X812332Y598198D01*
X647170Y768260D02*
X647700Y767730D01*
Y746760D02*
Y767730D01*
X1992200Y535100D02*
Y563760D01*
X1981200Y518160D02*
Y563760D01*
X1970200Y507570D02*
Y563760D01*
X1959200Y491900D02*
Y563760D01*
X1948200Y477500D02*
Y563760D01*
X1937200Y464000D02*
Y563760D01*
X1874130Y628260D02*
X1911700D01*
X1884530Y614530D02*
X1908970D01*
X1889390Y595260D02*
X1911700D01*
X1908970Y614530D02*
X1911700Y617260D01*
X2050700Y672260D02*
X2066720D01*
X2444240Y655985D02*
X2453630Y665375D01*
Y694690D01*
X2448560Y748030D02*
X2456180D01*
X2463800Y755650D01*
X2465070Y654050D02*
X2484120Y673100D01*
X2486660D01*
X2490460Y652770D02*
Y673100D01*
X2457450Y619760D02*
X2490460Y652770D01*
X1926200Y560260D02*
Y563760D01*
X1923470Y557530D02*
X1926200Y560260D01*
X1914099Y557530D02*
X1923470D01*
X1911559Y554990D02*
X1914099Y557530D01*
X1908810Y554990D02*
X1911559D01*
X1911540Y573260D02*
X1911700D01*
X1908810Y570530D02*
X1911540Y573260D01*
X1908810Y554990D02*
Y570530D01*
X2033240Y617220D02*
X2033700Y616760D01*
X2014220Y617220D02*
X2033240D01*
X2033680Y652780D02*
X2033700Y652760D01*
X2015490Y652780D02*
X2033680D01*
X2020570Y683260D02*
X2050700D01*
X2033680Y713740D02*
X2033700Y713760D01*
X2014220Y713740D02*
X2033680D01*
X1911700Y650260D02*
X1926200D01*
X1928700Y652760D01*
X2036200Y563760D02*
Y578259D01*
X2033700Y580760D02*
X2036200Y578259D01*
X2014200Y563760D02*
Y579260D01*
X2012700Y580760D02*
X2014200Y579260D01*
X1911700Y573260D02*
Y584260D01*
X1928700Y652760D02*
X1928720Y652780D01*
X1948180D01*
X1928700Y713760D02*
X1928720Y713740D01*
X1949450D01*
X2033239Y749300D02*
X2033700Y749760D01*
X2012950Y749300D02*
X2033239D01*
X1970700Y758530D02*
Y767760D01*
Y758530D02*
X1981200Y748030D01*
X1929160Y749300D02*
X1949450D01*
X1936750Y803210D02*
X1937200Y802760D01*
X1936750Y803210D02*
Y830580D01*
X1928700Y749760D02*
X1929160Y749300D01*
X1911700Y749260D02*
X1928200D01*
X1928700Y749760D01*
X1911350Y793610D02*
X1911700Y793260D01*
X1911350Y793610D02*
Y819150D01*
X1896110Y782320D02*
X1911640D01*
X1878330Y800100D02*
Y810260D01*
Y800100D02*
X1896110Y782320D01*
X1911640D02*
X1911700Y782260D01*
X1838960Y824230D02*
X1902460Y760730D01*
X1911230D01*
X1926200Y788261D02*
X1928700Y785760D01*
X1926200Y788261D02*
Y802760D01*
X1937200D01*
X1911230Y760730D02*
X1911700Y760260D01*
X1870730Y716260D02*
X1911700D01*
X1838960Y748030D02*
X1870730Y716260D01*
X1856330Y705260D02*
X1911700D01*
X1838960Y722630D02*
X1856330Y705260D01*
X1885130Y727260D02*
X1911700D01*
X1838960Y773430D02*
X1885130Y727260D01*
X1838960Y798830D02*
X1899530Y738260D01*
X1911700D01*
X1908970Y674990D02*
X1911700Y672260D01*
X1614170Y1673860D02*
X1664970D01*
X1684020Y1692910D01*
X1568390Y1705610D02*
X1619440D01*
X1632140Y1718310D01*
X1573410Y1686560D02*
X1601470D01*
X1614170Y1673860D01*
X1551690Y1686560D02*
X1565910D01*
X1544640Y1693610D02*
X1551690Y1686560D01*
X1548130Y1705610D02*
X1560890D01*
X1526090Y1703610D02*
X1546130D01*
X1548130Y1705610D01*
X1637845Y1136625D02*
X1637870Y1136600D01*
X1614195Y1136625D02*
X1637845D01*
X1614170Y1136650D02*
X1614195Y1136625D01*
X1637870Y1136600D02*
X1649680D01*
X1441450Y916940D02*
X1447800D01*
X1418590D02*
X1441450D01*
X1485900Y1558290D02*
X1501140Y1573530D01*
X1526090Y1643610D02*
X1536470D01*
X1541780Y1638300D01*
X1552030Y1663610D02*
X1559560Y1656080D01*
X1526090Y1663610D02*
X1552030D01*
X1559560Y1656080D02*
X1587500D01*
X1526090Y1713610D02*
X1545970D01*
X1555750Y1723390D01*
X1526200Y1723500D02*
X1555640D01*
X1526090Y1723610D02*
X1526200Y1723500D01*
X1632140Y1718310D02*
X1684020D01*
X1502090Y1639610D02*
X1502885Y1640405D01*
Y1676875D01*
X1503680Y1677670D01*
X1461930Y1639770D02*
X1462090Y1639610D01*
X1461930Y1639770D02*
Y1659730D01*
X1461770Y1659890D02*
X1461930Y1659730D01*
X1671320Y1388110D02*
Y1400430D01*
X1501140Y1573530D02*
Y1607820D01*
X1492090Y1624620D02*
Y1639610D01*
Y1624620D02*
X1501140Y1615570D01*
Y1615320D02*
Y1615570D01*
X1482090Y1622040D02*
Y1639610D01*
X1475740Y1615690D02*
X1482090Y1622040D01*
X1475740Y1615440D02*
Y1615690D01*
X1472040Y1431290D02*
X1489710D01*
X1441450Y1447800D02*
X1443394Y1445856D01*
X1431290Y1414780D02*
X1447800Y1431290D01*
X1456580D01*
X1443394Y1445856D02*
X1451596D01*
X1461580Y1435872D01*
Y1431780D02*
Y1435872D01*
Y1431780D02*
X1461810Y1431550D01*
X1471810Y1431520D02*
Y1431550D01*
Y1431520D02*
X1472040Y1431290D01*
X1569720Y1407160D02*
Y1421130D01*
X1577600Y1429010D02*
X1582540D01*
X1569720Y1421130D02*
X1577600Y1429010D01*
X1322070Y1677670D02*
X1374140D01*
X1381640D02*
X1416312D01*
X1420372Y1673610D01*
X1365250Y1629410D02*
X1375410Y1619250D01*
X1365250Y1629410D02*
Y1637030D01*
X1384180Y1652270D02*
X1418590D01*
X1429930Y1663610D01*
X1325880Y1699260D02*
X1360170D01*
X1322070Y1703070D02*
X1325880Y1699260D01*
X1322070Y1652270D02*
X1376680D01*
X1332230Y1637030D02*
X1365250D01*
X1322070Y1626870D02*
X1332230Y1637030D01*
X1681440Y1431550D02*
Y1452920D01*
X1696470Y1375520D02*
X1696720D01*
X1676670Y1395320D02*
X1696470Y1375520D01*
X1676670Y1395320D02*
Y1400320D01*
X1676440Y1400550D02*
X1676670Y1400320D01*
X1719580Y1363090D02*
Y1385570D01*
X1710690Y1394460D02*
X1719580Y1385570D01*
X1719080Y1355090D02*
X1719580D01*
X1706880Y1342890D02*
X1719080Y1355090D01*
X1697220Y1342890D02*
X1706880D01*
X1696720Y1342390D02*
X1697220Y1342890D01*
X1696720Y1342390D02*
Y1366520D01*
X1686440Y1400550D02*
X1702411D01*
X1708501Y1394460D01*
X1710690D01*
X1671320Y1400430D02*
X1671440Y1400550D01*
X1599950Y1378060D02*
X1600200D01*
X1587540Y1390470D02*
X1599950Y1378060D01*
X1587540Y1390470D02*
Y1398010D01*
X1626870Y1371790D02*
Y1381760D01*
X1615440Y1393190D02*
X1626870Y1381760D01*
X1597540Y1398010D02*
X1607871D01*
X1612691Y1393190D01*
X1615440D01*
X1381640Y1398010D02*
X1388370D01*
X1400810Y1385570D01*
X1438090Y1683610D02*
X1450991D01*
X1455211Y1687830D01*
X1457960D01*
X1438090Y1693610D02*
X1449431D01*
X1455211Y1687830D01*
X1506168Y1677670D02*
X1506429D01*
X1503680D02*
X1506168D01*
X1510489Y1673610D02*
X1526090D01*
X1506429Y1677670D02*
X1510489Y1673610D01*
X1512108Y1683610D02*
X1526090D01*
X1506168Y1677670D02*
X1512108Y1683610D01*
X1587500Y1656080D02*
X1587500Y1656080D01*
X1526090Y1693610D02*
X1544640D01*
X1372750Y1637030D02*
X1410970D01*
X1425956Y1652016D02*
X1434084D01*
X1410970Y1637030D02*
X1425956Y1652016D01*
X1361320Y1601470D02*
X1385256D01*
X1427396Y1643610D01*
X1438090D01*
X1686440Y1431520D02*
Y1431550D01*
Y1431520D02*
X1686670Y1431290D01*
X1704340D01*
X1597540Y1428980D02*
Y1429010D01*
Y1428980D02*
X1597770Y1428750D01*
X1614170D01*
X1381640Y1428980D02*
Y1429010D01*
Y1428980D02*
X1381870Y1428750D01*
X1399540D01*
X1676210Y1431780D02*
X1676440Y1431550D01*
X1676210Y1431780D02*
Y1435872D01*
X1668766Y1443316D02*
X1676210Y1435872D01*
X1661834Y1443316D02*
X1668766D01*
X1659890Y1445260D02*
X1661834Y1443316D01*
X1567180Y1443990D02*
X1567868Y1443302D01*
X1577340D01*
X1587310Y1429240D02*
Y1433332D01*
X1577340Y1443302D02*
X1587310Y1433332D01*
Y1429240D02*
X1587540Y1429010D01*
X1663960Y1431550D02*
X1671440D01*
X1456580Y1431320D02*
X1456810Y1431550D01*
X1456580Y1431290D02*
Y1431320D01*
X1341120Y1412240D02*
X1357890Y1429010D01*
X1366640D01*
X1377770Y1230810D02*
X1389380D01*
X1372690Y1235890D02*
X1377770Y1230810D01*
X1362710Y1235890D02*
X1372690D01*
X1449120Y1140410D02*
Y1160350D01*
Y1140410D02*
X1461770Y1127760D01*
X1949700Y598760D02*
X1970700D01*
X1991700D01*
X2012700D01*
X2033700D01*
Y616760D01*
Y580760D02*
Y598760D01*
X2012700Y580760D02*
X2033700D01*
X1991700D02*
X2012700D01*
X1970700D02*
X1991700D01*
X1949700D02*
X1970700D01*
X1928700D02*
X1949700D01*
X1928700D02*
Y598760D01*
Y616760D01*
X1949700Y767760D02*
X1970700D01*
X1991700D01*
X2012700D01*
X2033700D01*
X2050378Y760582D02*
X2050700Y760260D01*
X2040878Y760582D02*
X2050378D01*
X2033700Y767760D02*
X2040878Y760582D01*
X2036200Y788261D02*
Y802760D01*
X2033700Y785760D02*
X2036200Y788261D01*
X2025200Y802760D02*
X2026482Y801478D01*
Y792978D02*
Y801478D01*
Y792978D02*
X2033700Y785760D01*
X2003200Y802760D02*
X2004982Y800978D01*
Y793478D02*
Y800978D01*
Y793478D02*
X2012700Y785760D01*
X1992200Y786261D02*
Y802760D01*
X1991700Y785760D02*
X1992200Y786261D01*
X1981200Y802760D02*
X1983878Y800082D01*
Y793582D02*
Y800082D01*
Y793582D02*
X1991700Y785760D01*
X1970200Y786261D02*
Y802760D01*
Y786261D02*
X1970700Y785760D01*
X1957418Y800978D02*
X1959200Y802760D01*
X1957418Y793478D02*
Y800978D01*
X1949700Y785760D02*
X1957418Y793478D01*
X2033700Y767760D02*
Y785760D01*
X2012700D02*
X2033700D01*
X1991700D02*
X2012700D01*
X1970700D02*
X1991700D01*
X1949700D02*
X1970700D01*
X1928700D02*
X1949700D01*
X1928700Y749760D02*
Y767760D01*
Y785760D01*
X1441450Y924740D02*
Y924940D01*
X1449120Y932610D01*
Y947850D01*
Y962710D01*
X1459230Y972820D01*
X1454120Y923260D02*
Y947850D01*
X1447800Y916940D02*
X1454120Y923260D01*
X792480Y626110D02*
X822270D01*
X764540Y654050D02*
X792480Y626110D01*
X740410Y691720D02*
X740520Y691610D01*
X740410Y691720D02*
Y711200D01*
X721360Y692420D02*
X722170Y691610D01*
X721360Y692420D02*
Y711200D01*
X703580Y691850D02*
X703820Y691610D01*
X703580Y691850D02*
Y711200D01*
X740520Y691610D02*
X741060Y692150D01*
X764540D01*
X740520Y673260D02*
X740680Y673100D01*
X764540D01*
X740520Y654910D02*
X741380Y654050D01*
X764540D01*
X703660Y673100D02*
X703820Y673260D01*
X680720Y673100D02*
X703660D01*
X702960Y654050D02*
X703820Y654910D01*
X680720Y654050D02*
X702960D01*
X721360Y654100D02*
X722170Y654910D01*
X721360Y635000D02*
Y654100D01*
X740410Y654800D02*
X740520Y654910D01*
X740410Y635000D02*
Y654800D01*
X722170Y673260D02*
X740520D01*
Y691610D01*
X722170D02*
X740520D01*
X703820D02*
X722170D01*
X703820Y673260D02*
Y691610D01*
X722170Y654910D02*
X740520D01*
X703820D02*
X722170D01*
X703820D02*
Y673260D01*
X812270Y768260D02*
Y794490D01*
X820420Y802640D01*
X799570Y768260D02*
Y802110D01*
X825500Y828040D01*
X786870Y813540D02*
X826770Y853440D01*
X786870Y768260D02*
Y813540D01*
X774170Y768260D02*
Y840210D01*
X833120Y899160D01*
X761470Y768260D02*
Y852910D01*
X748770Y768260D02*
Y865610D01*
X782320Y899160D01*
X736070Y768260D02*
Y878310D01*
X756920Y899160D01*
X710670Y768260D02*
Y878310D01*
X731520Y899160D01*
X697970Y768260D02*
Y910060D01*
X746760Y958850D01*
X685270Y768260D02*
Y922760D01*
X672570Y768260D02*
Y935460D01*
X746760Y1009650D01*
X659870Y768260D02*
Y948160D01*
X746760Y1035050D01*
X1425370Y981600D02*
Y986600D01*
X1434084Y1652016D02*
Y1653610D01*
X2050700Y584260D02*
X2067560D01*
X1434084Y1653610D02*
X1438090D01*
X1420372Y1673610D02*
X1438090D01*
X2083260Y294970D02*
X2095260D01*
X2060260Y267970D02*
X2080260D01*
X2083260Y282908D02*
Y294970D01*
X2080260Y279908D02*
X2083260Y282908D01*
X2080260Y267970D02*
Y279908D01*
X1429930Y1663610D02*
X1438090D01*
X116840Y994403D02*
Y979168D01*
X124458D01*
X126997Y981708D01*
Y984247D01*
X124458Y986786D01*
X116840D01*
X124458D01*
X126997Y989325D01*
Y991864D01*
X124458Y994403D01*
X116840D01*
X132075D02*
Y979168D01*
X142232D01*
X157467Y994403D02*
X147310D01*
Y979168D01*
X157467D01*
X147310Y986786D02*
X152388D01*
X177780Y979168D02*
Y989325D01*
X182859Y994403D01*
X187937Y989325D01*
Y979168D01*
Y986786D01*
X177780D01*
X193015Y979168D02*
Y989325D01*
X200633D01*
X203172Y986786D01*
Y979168D01*
X210790Y991864D02*
Y989325D01*
X208250D01*
X213329D01*
X210790D01*
Y981708D01*
X213329Y979168D01*
X228564D02*
X223486D01*
X220946Y981708D01*
Y986786D01*
X223486Y989325D01*
X228564D01*
X231103Y986786D01*
Y984247D01*
X220946D01*
X236181Y979168D02*
Y989325D01*
X243799D01*
X246338Y986786D01*
Y979168D01*
X251416D02*
Y989325D01*
X259034D01*
X261573Y986786D01*
Y979168D01*
X269191Y989325D02*
X274269D01*
X276808Y986786D01*
Y979168D01*
X269191D01*
X266651Y981708D01*
X269191Y984247D01*
X276808D01*
X297122Y994403D02*
Y979168D01*
Y984247D01*
X307278Y994403D01*
X299661Y986786D01*
X307278Y979168D01*
X319974D02*
X314896D01*
X312357Y981708D01*
Y986786D01*
X314896Y989325D01*
X319974D01*
X322514Y986786D01*
Y984247D01*
X312357D01*
X335209Y979168D02*
X330131D01*
X327592Y981708D01*
Y986786D01*
X330131Y989325D01*
X335209D01*
X337748Y986786D01*
Y984247D01*
X327592D01*
X342827Y974090D02*
Y989325D01*
X350444D01*
X352984Y986786D01*
Y981708D01*
X350444Y979168D01*
X342827D01*
X360601D02*
X365680D01*
X368219Y981708D01*
Y986786D01*
X365680Y989325D01*
X360601D01*
X358062Y986786D01*
Y981708D01*
X360601Y979168D01*
X373297Y989325D02*
Y981708D01*
X375836Y979168D01*
X383454D01*
Y989325D01*
X391071Y991864D02*
Y989325D01*
X388532D01*
X393610D01*
X391071D01*
Y981708D01*
X393610Y979168D01*
D166*
X880960Y1595120D02*
G03*
X840139Y1554299I0J-40821D01*
G01*
X769620Y1470660D02*
G03*
X840139Y1541179I0J70519D01*
G01*
X726440Y1470660D02*
G03*
X701040Y1445260I0J-25400D01*
G01*
Y1436370D02*
G03*
X705530Y1425530I15330J0D01*
G01*
X1210528Y1401028D02*
G03*
X1214120Y1409700I-8672J8672D01*
G01*
Y1420945D02*
Y1435100D01*
Y1409700D02*
Y1420945D01*
X880960Y1595120D02*
X891540D01*
X726440Y1470660D02*
X726440D01*
X769620Y1470660D01*
X701040Y1436370D02*
Y1445260D01*
X705530Y1425530D02*
X712470Y1418590D01*
X830580Y1729740D02*
X886460Y1673860D01*
Y1656782D02*
Y1673860D01*
Y1656782D02*
X922722Y1620520D01*
X989980D01*
X762000Y1705610D02*
X786130Y1729740D01*
X830580D01*
X762000Y1634800D02*
Y1705610D01*
X1039480Y1595120D02*
Y1620520D01*
X891540Y1595120D02*
X989980D01*
X749300Y1546940D02*
X772240Y1524000D01*
X749300Y1546940D02*
Y1578300D01*
X762000D01*
X941070Y1671320D02*
X989980D01*
X919480Y1692910D02*
X941070Y1671320D01*
X891540Y1595120D02*
X891540Y1595120D01*
X840139Y1541179D02*
Y1554299D01*
X938530Y1645920D02*
X989980D01*
X1039480Y1620520D02*
Y1645920D01*
Y1671320D01*
X1205230Y1395730D02*
X1210528Y1401028D01*
X660135Y551445D02*
X660400Y551180D01*
X660135Y551445D02*
Y597995D01*
X659870Y598260D02*
X660135Y597995D01*
X749300Y1634800D02*
X762000D01*
X736600D02*
X749300D01*
D167*
X660400Y1330960D02*
G03*
X685800Y1305560I25400J0D01*
G01*
X829310Y1268730D02*
X844550Y1253490D01*
X829310Y1268730D02*
Y1284590D01*
X660400Y1330960D02*
Y1344840D01*
Y1352640D02*
Y1388110D01*
X660400Y1388110D01*
X839180Y1318550D02*
Y1350990D01*
X838890Y1307672D02*
Y1318260D01*
X829808Y1298590D02*
X838890Y1307672D01*
X1108710Y1510110D02*
Y1592580D01*
X1108630Y1510030D02*
X1108710Y1510110D01*
X1122600Y1496060D02*
X1170940D01*
X1108630Y1510030D02*
X1122600Y1496060D01*
X1080770Y1620520D02*
X1108710Y1592580D01*
X1039480Y1620520D02*
X1080770D01*
X689610Y1624330D02*
X700080Y1634800D01*
X689610Y1611630D02*
Y1624330D01*
Y1579880D02*
Y1603830D01*
X700080Y1634800D02*
X736600D01*
X1100730Y850520D02*
Y930020D01*
Y838560D02*
Y850520D01*
X1112430Y826860D02*
X1140460D01*
X1100730Y838560D02*
X1112430Y826860D01*
X1579880Y1613210D02*
X1592580D01*
X1605280D01*
X1129020Y1714990D02*
X1165850D01*
X1130290Y1745470D02*
X1164869D01*
D168*
X1188784Y1483328D02*
G03*
X1176020Y1496060I-12765J-33D01*
G01*
X1206620Y1457840D02*
G03*
X1196340Y1468120I-10280J0D01*
G01*
X1188784Y1475676D02*
G03*
X1196340Y1468120I7556J0D01*
G01*
X1179154Y1465926D02*
G03*
X1188784Y1483250I-10849J17370D01*
G01*
X1179154Y1465926D02*
G03*
X1171057Y1449084I9274J-14826D01*
G01*
X793020Y1343700D02*
Y1357535D01*
X821055Y1385570D01*
X793020Y1337200D02*
Y1343700D01*
X720090Y1370330D02*
X733520Y1356900D01*
Y1343700D02*
Y1356900D01*
X701040Y1332230D02*
X715570Y1317700D01*
X733520D01*
X685800Y1305560D02*
X686660Y1304700D01*
X733520D01*
X768770Y1303450D02*
X769370D01*
X781120Y1291700D01*
X769370Y1325450D02*
X781120Y1337200D01*
X793020D01*
X799080Y1318260D02*
X829890D01*
X793020Y1317700D02*
X798520D01*
X799080Y1318260D01*
X838890D02*
X839180Y1318550D01*
X793215Y1298395D02*
X829115D01*
X799130Y1284590D02*
X829310D01*
X798520Y1285200D02*
X799130Y1284590D01*
X793020Y1285200D02*
X798520D01*
X829115Y1298395D02*
X829310Y1298590D01*
X793020Y1298200D02*
X793215Y1298395D01*
X793020Y1285200D02*
Y1291700D01*
X733520Y1304700D02*
Y1311200D01*
X793020Y1298200D02*
Y1304700D01*
X733520Y1330700D02*
Y1337200D01*
Y1343700D01*
Y1330700D02*
X751920D01*
X733520Y1317700D02*
X754520D01*
X751920Y1330700D02*
X757170Y1325450D01*
X754520Y1317700D02*
X757770Y1314450D01*
X733520Y1291700D02*
X745420D01*
X781120D02*
X793020D01*
X745420D02*
X757170Y1303450D01*
X733520Y1285200D02*
Y1291700D01*
X1176020Y1496060D02*
X1176020D01*
X1170940D02*
X1176020D01*
X1206620Y1449255D02*
Y1457840D01*
X1188784Y1483250D02*
Y1483328D01*
Y1475676D02*
Y1483250D01*
X2228850Y1158240D02*
X2601850Y1158240D01*
X2191960D02*
X2192555Y1158240D01*
X2228850D01*
D169*
X1928700Y713760D02*
D03*
X2033700D02*
D03*
Y652760D02*
D03*
X1928700D02*
D03*
X2033700Y616760D02*
D03*
X1928700D02*
D03*
X2033700Y580760D02*
D03*
X2012700D02*
D03*
X1991700D02*
D03*
X1970700D02*
D03*
X1949700D02*
D03*
X1928700D02*
D03*
X2033700Y598760D02*
D03*
X2012700D02*
D03*
X1991700D02*
D03*
X1970700D02*
D03*
X1949700D02*
D03*
X1928700D02*
D03*
X2033700Y749760D02*
D03*
X1928700D02*
D03*
X2033700Y767760D02*
D03*
X2012700D02*
D03*
X1991700D02*
D03*
X1970700D02*
D03*
X1949700D02*
D03*
X1928700D02*
D03*
X2033700Y785760D02*
D03*
X2012700D02*
D03*
X1991700D02*
D03*
X1970700D02*
D03*
X1949700D02*
D03*
X1928700D02*
D03*
D170*
X1926200Y802760D02*
D03*
X1937200D02*
D03*
X1948200D02*
D03*
X1959200D02*
D03*
X1970200D02*
D03*
X1981200D02*
D03*
X1992200D02*
D03*
X2003200D02*
D03*
X2014200D02*
D03*
X2025200D02*
D03*
X2036200D02*
D03*
Y563760D02*
D03*
X2025200D02*
D03*
X2014200D02*
D03*
X2003200D02*
D03*
X1992200D02*
D03*
X1981200D02*
D03*
X1970200D02*
D03*
X1959200D02*
D03*
X1948200D02*
D03*
X1937200D02*
D03*
X1926200D02*
D03*
D171*
X2050700Y793260D02*
D03*
Y782260D02*
D03*
Y771260D02*
D03*
Y760260D02*
D03*
Y749260D02*
D03*
Y738260D02*
D03*
Y727260D02*
D03*
Y716260D02*
D03*
Y705260D02*
D03*
Y694260D02*
D03*
Y683260D02*
D03*
Y672260D02*
D03*
Y661260D02*
D03*
Y650260D02*
D03*
Y639260D02*
D03*
Y628260D02*
D03*
Y617260D02*
D03*
Y606260D02*
D03*
Y595260D02*
D03*
Y584260D02*
D03*
Y573260D02*
D03*
X1911700D02*
D03*
Y584260D02*
D03*
Y595260D02*
D03*
Y606260D02*
D03*
Y617260D02*
D03*
Y628260D02*
D03*
Y639260D02*
D03*
Y650260D02*
D03*
Y661260D02*
D03*
Y672260D02*
D03*
Y683260D02*
D03*
Y694260D02*
D03*
Y705260D02*
D03*
Y716260D02*
D03*
Y727260D02*
D03*
Y738260D02*
D03*
Y749260D02*
D03*
Y760260D02*
D03*
Y771260D02*
D03*
Y782260D02*
D03*
Y793260D02*
D03*
D172*
X1756410Y1305560D02*
X1943100Y1492250D01*
X1615440Y1305560D02*
X1756410D01*
X1539120Y1229240D02*
X1615440Y1305560D01*
X1750060Y1310640D02*
X1944370Y1504950D01*
X1534120Y1230590D02*
X1614170Y1310640D01*
X1750060D01*
X1612900Y1315720D02*
X1743710D01*
X1529120Y1231940D02*
X1612900Y1315720D01*
X1743710D02*
X1945640Y1517650D01*
X1584120Y1160350D02*
Y1186610D01*
X1639498Y1241988D02*
X1779198D01*
X1584120Y1186610D02*
X1639498Y1241988D01*
X1579120Y1185420D02*
X1647190Y1253490D01*
X1579120Y1160350D02*
Y1185420D01*
X1574120Y1160350D02*
Y1184230D01*
X1601470Y1211580D01*
Y1215390D01*
X1597660Y1212850D02*
Y1235710D01*
X1569120Y1160350D02*
Y1184310D01*
X1597660Y1212850D01*
X1588860Y1207860D02*
Y1220470D01*
X1564120Y1160350D02*
Y1183120D01*
X1588860Y1207860D01*
X1572260Y1206500D02*
X1581060Y1215300D01*
Y1220470D01*
X1559120Y1160350D02*
Y1193360D01*
X1572260Y1206500D01*
X1620520Y1272540D02*
X1750060D01*
X1554120Y1160350D02*
Y1206140D01*
X1620520Y1272540D01*
X1549120Y1206220D02*
X1620520Y1277620D01*
X1741170D01*
X1549120Y1160350D02*
Y1206220D01*
X1597660Y1235710D02*
X1629410Y1267460D01*
X1761490D01*
X1539120Y1160350D02*
Y1229240D01*
X1534120Y1160350D02*
Y1230590D01*
X1529120Y1160350D02*
Y1231940D01*
X1527759Y1257249D02*
Y1260969D01*
X1527900Y1261110D01*
X1514120Y1160350D02*
Y1243610D01*
X1527759Y1257249D01*
X1509120Y1160350D02*
Y1244960D01*
X1520100Y1255940D01*
Y1261110D01*
Y1268640D01*
X1531620Y1280160D01*
X1536700Y1304290D02*
X1553210D01*
X1504120Y1271710D02*
X1536700Y1304290D01*
X1504120Y1160350D02*
Y1271710D01*
X1314450Y680700D02*
X1489120Y855370D01*
Y947850D01*
X1327451Y668301D02*
Y687371D01*
X1494120Y854040D02*
Y947850D01*
X1327451Y687371D02*
X1494120Y854040D01*
X1301750Y668000D02*
Y684530D01*
X1484120Y866900D02*
Y947850D01*
X1301750Y684530D02*
X1484120Y866900D01*
X1289050Y680700D02*
X1479120Y870770D01*
Y947850D01*
X1289050Y655300D02*
X1301750Y668000D01*
X1339850Y680700D02*
X1499120Y839970D01*
Y947850D01*
X1352550Y688340D02*
X1504120Y839910D01*
X1352550Y668000D02*
Y688340D01*
X1504120Y839910D02*
Y947850D01*
X1365250Y680700D02*
Y695960D01*
X1509120Y839830D02*
Y947850D01*
X1365250Y695960D02*
X1509120Y839830D01*
X1377950Y668000D02*
Y701040D01*
X1516380Y839470D02*
Y921840D01*
X1377950Y701040D02*
X1516380Y839470D01*
X1390650Y680700D02*
Y706120D01*
X1524120Y839590D01*
Y947850D01*
X1403350Y668000D02*
Y713740D01*
X1529120Y839510D02*
Y947850D01*
X1403350Y713740D02*
X1529120Y839510D01*
X1416050Y680700D02*
Y721360D01*
X1534120Y839430D02*
Y947850D01*
X1416050Y721360D02*
X1534120Y839430D01*
X1428750Y668000D02*
Y728980D01*
X1539120Y839350D02*
Y947850D01*
X1428750Y728980D02*
X1539120Y839350D01*
X1441450Y680700D02*
Y736600D01*
X1544120Y839270D02*
Y947850D01*
X1441450Y736600D02*
X1544120Y839270D01*
X1454150Y668000D02*
Y744220D01*
X1549120Y839190D02*
Y947850D01*
X1454150Y744220D02*
X1549120Y839190D01*
X1554120Y839110D02*
Y947850D01*
X1466850Y751840D02*
X1554120Y839110D01*
X1466850Y680700D02*
Y751840D01*
X1479031Y758941D02*
X1559120Y839030D01*
Y947850D01*
X1479031Y667481D02*
Y758941D01*
X1504950Y668000D02*
Y778510D01*
X1565910Y839470D01*
Y921840D01*
Y929440D02*
Y929640D01*
Y935990D01*
X1517650Y680700D02*
Y782320D01*
X1574120Y838790D02*
Y947850D01*
X1517650Y782320D02*
X1574120Y838790D01*
X1579120Y838710D02*
Y947850D01*
X1530350Y668000D02*
Y789940D01*
X1579120Y838710D01*
X1584120Y838630D02*
Y947850D01*
X1543050Y680700D02*
Y797560D01*
X1584120Y838630D01*
X1556286Y805716D02*
X1589120Y838550D01*
X1556286Y668536D02*
Y805716D01*
X1589120Y838550D02*
Y947850D01*
X1594120Y838470D02*
Y947850D01*
X1568450Y680700D02*
Y812800D01*
X1594120Y838470D01*
X1593850Y680700D02*
Y828040D01*
X1604120Y838310D02*
Y947850D01*
X1593850Y828040D02*
X1604120Y838310D01*
X1599120Y838390D02*
Y947850D01*
X1581686Y820956D02*
X1599120Y838390D01*
X1581686Y668536D02*
Y820956D01*
X904260Y1120140D02*
X916940Y1132820D01*
Y1132840D01*
X1455420Y1184910D02*
X1469120Y1171210D01*
Y1160350D02*
Y1171210D01*
X1455420Y1184910D02*
Y1211580D01*
X1464120Y1160350D02*
Y1171130D01*
X1441450Y1193800D02*
Y1230630D01*
Y1193800D02*
X1464120Y1171130D01*
X1430020Y1200150D02*
X1459120Y1171050D01*
Y1160350D02*
Y1171050D01*
X1430020Y1200150D02*
Y1248410D01*
X1454120Y1160350D02*
Y1170970D01*
X1416050Y1209040D02*
Y1264920D01*
Y1209040D02*
X1454120Y1170970D01*
X1136073Y1196340D02*
X1263073Y1069340D01*
X1329690D02*
X1341120Y1080770D01*
X1263073Y1069340D02*
X1329690D01*
X1341120Y1080770D02*
X1389380D01*
X1270000Y1075690D02*
X1325880D01*
X1333500Y1083310D02*
X1390073D01*
X1325880Y1075690D02*
X1333500Y1083310D01*
X1136650Y1209040D02*
X1270000Y1075690D01*
X1334366Y1062990D02*
X1349606Y1078230D01*
X1257300Y1062990D02*
X1334366D01*
X1349606Y1078230D02*
X1385455D01*
X1135380Y1184910D02*
X1257300Y1062990D01*
X918230Y1184910D02*
X1135380D01*
X929660Y1196340D02*
X1136073D01*
X916960Y1209040D02*
X1136650D01*
X929660Y1221740D02*
X1135380D01*
X1270520Y1086600D01*
X929660Y1145540D02*
X1144630D01*
X916940Y1132840D02*
X1143420D01*
X1224660Y1051600D01*
X929660Y1120140D02*
X1144270D01*
X1217810Y1046600D01*
X916940Y1107440D02*
X1143000D01*
X1208840Y1041600D01*
X1144270Y1094740D02*
X1202410Y1036600D01*
X929660Y1094740D02*
X1144270D01*
Y1082040D02*
X1194710Y1031600D01*
X916940Y1082040D02*
X1144270D01*
X1145540Y1069340D02*
X1188280Y1026600D01*
X929660Y1069340D02*
X1145540D01*
X929660Y1043940D02*
X1149350D01*
X1198880Y994410D01*
X1223010D01*
X916940Y1056620D02*
X1146830D01*
X1203960Y999490D01*
X1151890Y1031240D02*
X1193800Y989330D01*
X916940Y1031240D02*
X1151890D01*
X929660Y1018540D02*
X1155700D01*
X1189990Y984250D02*
X1231900D01*
X1249250Y1001600D02*
X1425370D01*
X1231900Y984250D02*
X1249250Y1001600D01*
X1193800Y989330D02*
X1226820D01*
X1244090Y1006600D02*
X1425370D01*
X1226820Y989330D02*
X1244090Y1006600D01*
X1240200Y1011600D02*
X1425370D01*
X1223010Y994410D02*
X1240200Y1011600D01*
X1217930Y999490D02*
X1235040Y1016600D01*
X1425370D01*
X1203960Y999490D02*
X1217930D01*
X1637870Y1081600D02*
X1764860D01*
X1795780Y1112520D02*
X1940580D01*
X1764860Y1081600D02*
X1795780Y1112520D01*
X1799590Y1125220D02*
X1953280D01*
X1637870Y1086600D02*
X1760970D01*
X1799590Y1125220D01*
X1637870Y1066600D02*
X1903530D01*
X1910080Y1073150D02*
X1954550D01*
X1903530Y1066600D02*
X1910080Y1073150D01*
X1866460Y1026600D02*
X1920240Y972820D01*
X1953280D01*
X1637870Y1026600D02*
X1866460D01*
X1637870Y1031600D02*
X1874160D01*
X1920240Y985520D01*
X1940580D01*
X1637870Y1036600D02*
X1883130D01*
X1921510Y998220D02*
X1953280D01*
X1883130Y1036600D02*
X1921510Y998220D01*
X1637870Y1041600D02*
X1890830D01*
X1921510Y1010920D02*
X1940580D01*
X1890830Y1041600D02*
X1921510Y1010920D01*
X1899800Y1046600D02*
X1922780Y1023620D01*
X1953280D01*
X1637870Y1046600D02*
X1899800D01*
X1637870Y1051600D02*
X1907500D01*
X1922780Y1036320D02*
X1940580D01*
X1907500Y1051600D02*
X1922780Y1036320D01*
X1931670Y1049020D02*
X1953280D01*
X1637870Y1056600D02*
X1924090D01*
X1931670Y1049020D01*
X1637870Y1091600D02*
X1758350D01*
X1804670Y1137920D02*
X1940580D01*
X1758350Y1091600D02*
X1804670Y1137920D01*
X1637870Y1096600D02*
X1751920D01*
X1805940Y1150620D02*
X1953280D01*
X1751920Y1096600D02*
X1805940Y1150620D01*
X1637870Y1101600D02*
X1745490D01*
X1807210Y1163320D02*
X1940580D01*
X1745490Y1101600D02*
X1807210Y1163320D01*
X1954550Y1073150D02*
X1965980Y1061720D01*
X1953280Y1150620D02*
X1965980Y1137920D01*
X1953280Y1125220D02*
X1965980Y1112520D01*
X1637870Y1061600D02*
X1637930Y1061660D01*
X1940520D01*
X1940580Y1061720D01*
X1953280Y1049020D02*
X1965980Y1036320D01*
X1953280Y1023620D02*
X1965980Y1010920D01*
X1953280Y972820D02*
X1965980Y960120D01*
X1953280Y998220D02*
X1965980Y985520D01*
X1637870Y996600D02*
X1725010D01*
X1737360Y984250D01*
X1665000Y976600D02*
X1687830Y953770D01*
X1637870Y976600D02*
X1665000D01*
X1687830Y929640D02*
Y953770D01*
X1637870Y981600D02*
X1668890D01*
X1704340Y946150D01*
X1657350Y941070D02*
Y958850D01*
X1649600Y966600D02*
X1657350Y958850D01*
X1637870Y966600D02*
X1649600D01*
X904260Y1170940D02*
X918230Y1184910D01*
X1348740Y1172210D02*
X1363980D01*
X1414590Y1121600D01*
X1330960Y1188720D02*
X1352550D01*
X1414670Y1126600D01*
X1313180Y1202690D02*
X1343660D01*
X1414750Y1131600D01*
X1295400Y1219200D02*
X1332230D01*
X1414830Y1136600D01*
X1276350Y1233170D02*
X1323340D01*
X1414910Y1141600D01*
X1330960Y1134110D02*
X1346200D01*
X1368710Y1111600D02*
X1425370D01*
X1346200Y1134110D02*
X1368710Y1111600D01*
X1357200Y1106600D02*
X1425370D01*
X1348740Y1115060D02*
X1357200Y1106600D01*
X1414590Y1121600D02*
X1425370D01*
X1414670Y1126600D02*
X1425370D01*
X1414750Y1131600D02*
X1425370D01*
X1414830Y1136600D02*
X1425370D01*
X1414910Y1141600D02*
X1425370D01*
X1385455Y1078230D02*
X1392085Y1071600D01*
X1389380Y1080770D02*
X1393550Y1076600D01*
X1390073Y1083310D02*
X1391783Y1081600D01*
X904260Y1196340D02*
X916960Y1209040D01*
X1391783Y1081600D02*
X1425370D01*
X1270520Y1086600D02*
X1425370D01*
X1393550Y1076600D02*
X1425370D01*
X1374140Y1068070D02*
X1380610Y1061600D01*
X1425370D01*
X1392085Y1071600D02*
X1425370D01*
X904260Y1094740D02*
Y1094760D01*
X916940Y1107440D01*
X904260Y1069340D02*
Y1069360D01*
X916940Y1082040D01*
X904260Y1043940D02*
X916940Y1056620D01*
X904260Y1018560D02*
X916940Y1031240D01*
X1217810Y1046600D02*
X1425370D01*
X1233570Y1056600D02*
X1425370D01*
X1144630Y1145540D02*
X1233570Y1056600D01*
X1224660Y1051600D02*
X1425370D01*
X1208840Y1041600D02*
X1425370D01*
X1202410Y1036600D02*
X1425370D01*
X1194710Y1031600D02*
X1425370D01*
X1188280Y1026600D02*
X1425370D01*
X1155700Y1018540D02*
X1189990Y984250D01*
X1647190Y1253490D02*
X1778000D01*
X1953260Y1428750D01*
X1601470Y1215390D02*
X1647190Y1261110D01*
X1771650D02*
X1951990Y1441450D01*
X1647190Y1261110D02*
X1771650D01*
X1761490Y1267460D02*
X1948180Y1454150D01*
X1750060Y1272540D02*
X1944370Y1466850D01*
X1948180Y1454150D02*
X2023110D01*
X1951990Y1441450D02*
X2010410D01*
X1953260Y1428750D02*
X2023110D01*
X1953260Y1416050D02*
X2010410D01*
X1779198Y1241988D02*
X1953260Y1416050D01*
X1944370Y1466850D02*
X2010410D01*
X1943100Y1492250D02*
X2010410D01*
X1943100Y1479550D02*
X2023110D01*
X1741170Y1277620D02*
X1943100Y1479550D01*
X1944370Y1504950D02*
X2023110D01*
X1945640Y1517650D02*
X2010410D01*
X1499120Y1160350D02*
Y1285760D01*
X1513840Y1300480D01*
X1466850Y1177990D02*
Y1192530D01*
X1474120Y1160350D02*
Y1170720D01*
X1466850Y1177990D02*
X1474120Y1170720D01*
X2023110Y1428750D02*
X2035810Y1416050D01*
X2023110Y1454150D02*
X2035810Y1441450D01*
X2023110Y1504950D02*
X2035810Y1492250D01*
X2023110Y1479550D02*
X2035810Y1466850D01*
X1514120Y938507D02*
Y947850D01*
X1609120Y670570D02*
Y947850D01*
X1593850Y655300D02*
X1609120Y670570D01*
X1568450Y655300D02*
X1581686Y668536D01*
X1543050Y655300D02*
X1556286Y668536D01*
X1517650Y655300D02*
X1530350Y668000D01*
X1492250Y655300D02*
X1504950Y668000D01*
X1565910Y921840D02*
Y922040D01*
X1567975Y924105D01*
X1568310D02*
X1570261Y926056D01*
X1567975Y924105D02*
X1568310D01*
X1564120Y937780D02*
Y947850D01*
Y937780D02*
X1565910Y935990D01*
X1570261Y926056D02*
Y933325D01*
X1569120Y934466D02*
X1570261Y933325D01*
X1569120Y934466D02*
Y947850D01*
X1416050Y655300D02*
X1428750Y668000D01*
X1365250Y655300D02*
X1377950Y668000D01*
X1314450Y655300D02*
X1327451Y668301D01*
X1466850Y655300D02*
X1479031Y667481D01*
X1441450Y655300D02*
X1454150Y668000D01*
X1390650Y655300D02*
X1403350Y668000D01*
X1518445Y924105D02*
X1518780D01*
X1520731Y926056D01*
Y933224D01*
X1516380Y921840D02*
Y922040D01*
X1518445Y924105D01*
X1519120Y934835D02*
Y947850D01*
Y934835D02*
X1520731Y933224D01*
X1516380Y929640D02*
Y936247D01*
X1514120Y938507D02*
X1516380Y936247D01*
X1339850Y655300D02*
X1352550Y668000D01*
D173*
X2095260Y294970D02*
D03*
X2045260D02*
D03*
X2073510Y1737830D02*
D03*
X2023510D02*
D03*
D174*
X971550Y406400D02*
D03*
X946150D02*
D03*
X920750D02*
D03*
X869950D02*
D03*
X844550D02*
D03*
X793750D02*
D03*
X742950D02*
D03*
X717550D02*
D03*
X768350D02*
D03*
X819150D02*
D03*
X895350D02*
D03*
X2189480Y668020D02*
D03*
Y718820D02*
D03*
Y769620D02*
D03*
Y744220D02*
D03*
Y693420D02*
D03*
Y642620D02*
D03*
Y617220D02*
D03*
X2063750Y463550D02*
D03*
X2012950D02*
D03*
X1962150D02*
D03*
X1987550D02*
D03*
X2038350D02*
D03*
X2089150D02*
D03*
X2114550D02*
D03*
X1779270Y621030D02*
D03*
Y671830D02*
D03*
Y722630D02*
D03*
Y697230D02*
D03*
Y646430D02*
D03*
Y595630D02*
D03*
Y570230D02*
D03*
D175*
X692150Y406400D02*
D03*
X1936750Y463550D02*
D03*
D176*
X2189480Y795020D02*
D03*
X1779270Y748030D02*
D03*
D177*
X2600960Y1711960D02*
D03*
Y320040D02*
D03*
X701040D02*
D03*
Y1711960D02*
D03*
D178*
X2040890Y904240D02*
D03*
X1485900Y1558290D02*
D03*
D179*
X2015490Y904240D02*
D03*
X1460500Y1558290D02*
D03*
D180*
X746760Y958850D02*
D03*
X1071880Y664210D02*
D03*
D181*
X746760Y984250D02*
D03*
Y1009650D02*
D03*
Y1035050D02*
D03*
X1071880Y740410D02*
D03*
Y715010D02*
D03*
Y689610D02*
D03*
D182*
X868680Y853440D02*
D03*
X1684020Y1718310D02*
D03*
D183*
X868680Y828040D02*
D03*
Y802640D02*
D03*
X1684020Y1667510D02*
D03*
Y1692910D02*
D03*
X1221740Y1303020D02*
D03*
X1196340D02*
D03*
D184*
X1170940D02*
D03*
D185*
X821055Y1385570D02*
D03*
X844550Y1253490D02*
D03*
X660400Y1388110D02*
D03*
X685800Y1305560D02*
D03*
X720090Y1370330D02*
D03*
X701040Y1332230D02*
D03*
X839470Y1351280D02*
D03*
X1891030Y1696720D02*
D03*
X2179320Y1417320D02*
D03*
X2109470Y1339850D02*
D03*
X2094230Y1525270D02*
D03*
X2112010Y1460500D02*
D03*
X2148840Y1357630D02*
D03*
X2482850Y600710D02*
D03*
X830580Y1729740D02*
D03*
X2345690Y647700D02*
D03*
X2388870Y678180D02*
D03*
X2277110Y687070D02*
D03*
X1714500Y554990D02*
D03*
X1690370Y556260D02*
D03*
X1875790Y1233170D02*
D03*
X1921510Y1327150D02*
D03*
X1734820Y1211580D02*
D03*
X1758950Y1214120D02*
D03*
X1771650Y1196340D02*
D03*
X1596390Y1270000D02*
D03*
X1572260Y1206500D02*
D03*
X1531620Y1280160D02*
D03*
X1553210Y1304290D02*
D03*
X1678940Y1163320D02*
D03*
X864870Y1066800D02*
D03*
X814070D02*
D03*
X2131060Y279400D02*
D03*
X2009140D02*
D03*
X2109470Y1752600D02*
D03*
X1554480Y1758950D02*
D03*
X2123440Y839470D02*
D03*
Y890270D02*
D03*
X787400Y1205230D02*
D03*
X1960880Y1682750D02*
D03*
X1809750Y1678940D02*
D03*
X1827530Y1625600D02*
D03*
X1744980Y1658620D02*
D03*
X2082800Y1694180D02*
D03*
X2185670Y1612900D02*
D03*
X2112010Y1546860D02*
D03*
X2072640Y1581150D02*
D03*
X2128520Y1617980D02*
D03*
X2094230D02*
D03*
X2015490Y1127760D02*
D03*
X2075180Y1209040D02*
D03*
X2104390Y1226820D02*
D03*
X782320Y1499870D02*
D03*
X734060Y1504950D02*
D03*
X721360Y1548130D02*
D03*
X749300D02*
D03*
X919480Y1692910D02*
D03*
X891540Y1595120D02*
D03*
X712470Y1418590D02*
D03*
X787400Y1163320D02*
D03*
X938530Y1645920D02*
D03*
X784860Y1418590D02*
D03*
X836930Y1616710D02*
D03*
X2048510Y1666240D02*
D03*
X2024380Y1652270D02*
D03*
X2424430Y708660D02*
D03*
X2227580Y718820D02*
D03*
X1062990Y828040D02*
D03*
X1023620Y919480D02*
D03*
X947420Y899160D02*
D03*
X906780Y586740D02*
D03*
X1101090Y998220D02*
D03*
X979170Y920750D02*
D03*
X960120Y993140D02*
D03*
X1389380Y849630D02*
D03*
X817880Y1018540D02*
D03*
X1564640Y1136650D02*
D03*
X1197610Y1644650D02*
D03*
X2239010Y1140460D02*
D03*
X2259330D02*
D03*
X2279650D02*
D03*
X2299970D02*
D03*
X2320290D02*
D03*
X2340610D02*
D03*
X2360930D02*
D03*
X2381250D02*
D03*
X2401570D02*
D03*
X2421890D02*
D03*
X2442210D02*
D03*
X2462530D02*
D03*
X2482850D02*
D03*
X2503170D02*
D03*
X2523490D02*
D03*
X2509520Y1177290D02*
D03*
X2489200D02*
D03*
X2468880D02*
D03*
X2448560D02*
D03*
X2428240D02*
D03*
X2407920D02*
D03*
X2387600D02*
D03*
X2367280D02*
D03*
X2346960D02*
D03*
X2326640D02*
D03*
X2306320D02*
D03*
X2286000D02*
D03*
X2265680D02*
D03*
X2245360D02*
D03*
X2114550Y801370D02*
D03*
X1230630Y1699260D02*
D03*
X1206500Y1756410D02*
D03*
X1592580Y1501140D02*
D03*
X1639570Y1570990D02*
D03*
X1543050Y1554480D02*
D03*
X1221740Y1487170D02*
D03*
X1129020Y1745470D02*
D03*
X1258570Y1715770D02*
D03*
X1557020Y1473200D02*
D03*
X1623060D02*
D03*
X1441450D02*
D03*
X1357630D02*
D03*
X1350010Y1442720D02*
D03*
X1553210Y1504950D02*
D03*
X1210310Y1548130D02*
D03*
X1417320Y1540510D02*
D03*
X1341120Y1581150D02*
D03*
X1416050Y1564640D02*
D03*
X1410970Y1718310D02*
D03*
X1403350Y1764030D02*
D03*
X660400Y551180D02*
D03*
Y464820D02*
D03*
X699770Y487680D02*
D03*
X974090Y1332230D02*
D03*
X923290Y1410970D02*
D03*
X952500Y1473200D02*
D03*
X1016000Y1385570D02*
D03*
X787400Y1549400D02*
D03*
X1645920Y1656080D02*
D03*
X1234440Y909320D02*
D03*
X1163320Y918210D02*
D03*
X1132840Y970280D02*
D03*
X1250950Y979170D02*
D03*
X878840Y993140D02*
D03*
X1638300Y735330D02*
D03*
X2192020Y1249680D02*
D03*
X2099310Y1049020D02*
D03*
X2174240Y1017270D02*
D03*
X2080260Y1019810D02*
D03*
X1210310Y1014730D02*
D03*
X1295400Y901700D02*
D03*
X1446530Y872490D02*
D03*
X1305560Y1339850D02*
D03*
X1014730Y1446530D02*
D03*
X1046480Y1455420D02*
D03*
X1104900Y1480820D02*
D03*
X1156970Y1343660D02*
D03*
X1242060Y1390650D02*
D03*
X1021080Y1488440D02*
D03*
X689610Y1579880D02*
D03*
X668020Y1504950D02*
D03*
X1148080Y1385570D02*
D03*
X1257300Y1443990D02*
D03*
X869950Y1145540D02*
D03*
X962660Y1169670D02*
D03*
X1821180Y1013460D02*
D03*
X1813560Y1098550D02*
D03*
X1775460Y1013460D02*
D03*
X1615440Y1071880D02*
D03*
X1614170Y1016000D02*
D03*
X1657350Y941070D02*
D03*
X1687830Y929640D02*
D03*
X1737360Y984250D02*
D03*
X1704340Y946150D02*
D03*
Y970280D02*
D03*
X1724660Y750570D02*
D03*
X1638300Y871220D02*
D03*
Y803910D02*
D03*
X1348740Y1172210D02*
D03*
X1330960Y1188720D02*
D03*
X1313180Y1202690D02*
D03*
X1295400Y1219200D02*
D03*
X1276350Y1233170D02*
D03*
X1381760Y1123950D02*
D03*
X1348740Y1115060D02*
D03*
X1330960Y1134110D02*
D03*
X1374140Y1068070D02*
D03*
X1551283Y1332843D02*
D03*
X1654810Y1342390D02*
D03*
X1436370Y1322070D02*
D03*
X1417320Y1309370D02*
D03*
X1385570Y1369060D02*
D03*
X1499870Y1381760D02*
D03*
Y1362710D02*
D03*
X1416050Y1264920D02*
D03*
X1430020Y1248410D02*
D03*
X1441450Y1230630D02*
D03*
X1455420Y1211580D02*
D03*
X1466850Y1192530D02*
D03*
X1513840Y1300480D02*
D03*
Y1136650D02*
D03*
X1637030Y1217930D02*
D03*
X1663700Y1215390D02*
D03*
X1686560Y1207770D02*
D03*
X1710690D02*
D03*
X1626870Y1342390D02*
D03*
X1701800Y1148080D02*
D03*
X1654810Y1408430D02*
D03*
X1372870Y1205230D02*
D03*
X1362710Y1261110D02*
D03*
X1460500Y1066800D02*
D03*
X1358900Y1150620D02*
D03*
X1181100Y1408430D02*
D03*
X1205230Y1395730D02*
D03*
X1604010Y974090D02*
D03*
X1503680Y972820D02*
D03*
X1557020D02*
D03*
X2078990Y770890D02*
D03*
X1694180Y854710D02*
D03*
X1129020Y1714990D02*
D03*
X660400Y626110D02*
D03*
X2448560Y748030D02*
D03*
X2465070Y654050D02*
D03*
X1908810Y554990D02*
D03*
X2020570Y683260D02*
D03*
X1948180Y652780D02*
D03*
X1936750Y830580D02*
D03*
X1911350Y819150D02*
D03*
X1878330Y810260D02*
D03*
X1987550Y1753870D02*
D03*
X1555750Y1638300D02*
D03*
Y1723390D02*
D03*
X1614170Y1673860D02*
D03*
Y1136650D02*
D03*
X1461770Y1659890D02*
D03*
X1489710Y1431290D02*
D03*
X1441450Y1447800D02*
D03*
X1431290Y1414780D02*
D03*
X1569720Y1407160D02*
D03*
X1375410Y1619250D02*
D03*
X1696720Y1342390D02*
D03*
X1710690Y1394460D02*
D03*
X1615440Y1393190D02*
D03*
X1400810Y1385570D02*
D03*
X1503680Y1677670D02*
D03*
X1457960Y1687830D02*
D03*
X1704340Y1431290D02*
D03*
X1614170Y1428750D02*
D03*
X1399540D02*
D03*
X1659890Y1445260D02*
D03*
X1567180Y1443990D02*
D03*
X1341120Y1412240D02*
D03*
X1461770Y1127760D02*
D03*
X1981200Y618490D02*
D03*
X2014220Y617220D02*
D03*
X1949450Y618490D02*
D03*
X2015490Y652780D02*
D03*
X2014220Y713740D02*
D03*
X1949450D02*
D03*
X1981200Y748030D02*
D03*
X2012950Y749300D02*
D03*
X1949450D02*
D03*
X1418590Y916940D02*
D03*
X1459230Y972820D02*
D03*
X647700Y746760D02*
D03*
X764540Y654050D02*
D03*
X680720D02*
D03*
X721360Y711200D02*
D03*
Y635000D02*
D03*
X764540Y673100D02*
D03*
Y692150D02*
D03*
X680720Y673100D02*
D03*
X740410Y711200D02*
D03*
X703580D02*
D03*
X740410Y635000D02*
D03*
D186*
X768770Y1303450D02*
D03*
X757770D02*
D03*
X768770Y1314450D02*
D03*
X757770D02*
D03*
X768770Y1325450D02*
D03*
X757770D02*
D03*
M02*
