M48
;Layer_Color=9474304
;FILE_FORMAT=4:4
METRIC,LZ
;TYPE=PLATED
T01F00S00C0.2000
T03F00S00C0.7112
T04F00S00C0.8500
T05F00S00C0.8890
T06F00S00C0.8900
T07F00S00C1.0200
T08F00S00C1.1000
T09F00S00C1.2700
T10F00S00C3.9688
%
T01
X0075777Y0130345
X0076877
Y0131445
X0075777
Y0132545
X0076877
T03
X0200914Y002794
X0213106
X0238887Y0067818
X0242443Y0070866
X0244856Y0074803
X0246507Y0065405
X0248285Y0060071
X0234569Y006477
X0227711Y0068707
X0222758Y0071882
X0207899Y0077089
X0201295Y007493
X0201422Y0071374
X0202057Y0068326
X0201549Y0065278
X0201422Y0061722
X019812Y0061849
X0194945
X0194818Y0065278
X0194945Y0071374
Y007493
X019812Y0074803
X0172466Y0075057
X016383Y0073533
X0169037Y0055626
X017145Y0055499
X0190881
X0090678Y0058674
X0076454Y0065405
Y006731
Y0069215
X0074041Y007112
X0072136
X0070358
X0068072Y006731
Y0065405
X006604Y0062611
X0072136Y00635
X0074041
X006604Y0055118
Y0046482
X0069977Y0048768
X006477Y0074676
X007874Y0116332
X0086995Y0114554
X0086487Y010668
X0081407
X0081788Y0101854
X0087884Y0099314
X0096012
X0097917Y0092075
X0102362Y0091948
X0094742Y0089916
X0106299Y0082804
X0116332Y0091821
X0113284Y0097028
X0110109Y0099822
X0096266Y0116967
X0133096Y0118872
X0134874Y0117221
X013589Y0115062
X0133096Y0113411
X0134874Y0111506
X0138176Y0112395
X0137414Y0106807
X014605Y010668
X0146177Y0112776
X0151384Y0113665
X0156464
X0155702Y0097282
X0150368
X0145923
X0141859Y0091694
X0144653Y0087249
X0138938Y0084963
X012954Y009017
X0123444Y0090932
X0125095Y0097917
X0121031Y0101473
X0161417Y01016
X0160401Y0097409
X0165735Y0094107
X0168783Y0092964
X0170434Y0094615
Y0097028
X0173736Y0098425
X0177546Y0101346
X0182118
X0181356Y0109855
X017018Y0114808
X0167894Y0116332
X0161417Y0113665
X0161544Y0107188
X016383Y0087122
Y0080391
X0169418Y0085471
X0187833Y0081026
X0191135Y0081915
X0193675Y0083058
X0212344Y0083947
X0211455Y0080137
X0212344Y0089027
X0208026Y0101981
X0209931Y0104902
X0217424Y0101727
X0223901Y0114046
X0225933
X0227965
X0229997
X0232029
X0234061
X0236093
X0236728Y0117729
X0234696
X0232664
X0230632
X02286
X0226568
X0224536
X0201549Y0112776
X0238125Y0114046
X0240157
X0242189
X0244221
X0246253
X0248285
X0250317
X0252349
X0250952Y0117729
X024892
X0246888
X0244856
X0242824
X0240792
X023876
X0219202Y0124968
X0210439Y0122682
X0207518Y0120904
X0210947Y0133985
X0214884Y0135763
X0217932Y0141732
X0211201Y014605
X0209423Y0152527
X0211201Y0154686
X0207264Y0158115
X0192151Y0132715
X0187579Y0123317
X0175895Y0121412
X0173482Y0121158
X0171069Y0120777
X0168656
X016637Y0121539
X0163703Y0121793
X0159639Y0127
X0162687Y0134239
X0165481
X0169672
X0171069Y0139446
X0170434Y0143129
X0165989Y0144526
X0165481Y0140843
X0161544Y0139319
X0161417Y0142875
X0162306Y014732
X0159258Y0150114
X0163957Y0157099
X0177165Y0119634
X0157226Y012065
X0153162Y0128016
X0151384Y0130048
X0155321Y0130429
X01551283Y01332843
X0149987Y0136271
Y0138176
X0148971Y0143129
X0144145Y014478
Y014732
X0143129Y0141478
X0139954Y0142875
X0140081Y0138557
X0138557Y0136906
X0134112Y0141224
X0135001Y0144272
X0135763Y014732
X0134112Y0158115
X0141605Y0156464
X0141732Y0154051
X0154305Y0155448
X0155321Y0150495
X0155702Y014732
X0156718Y0144399
X0156972Y0140716
X0143637Y0132207
X0141732Y0130937
X0141605Y0126492
X0143002Y0124841
X0144145Y0123063
X0145542Y0121158
X0146685Y0119253
X0137287Y0120523
X0131318Y0120269
X012954Y012192
X0127635Y0123317
X0136271Y0126111
X0130556Y0133985
X0124206Y0139065
X0120523Y0139573
X012573Y0144399
X0122174Y0148717
X0121031Y0154813
X011811Y0140843
X0114808Y0138557
X0115697Y0134366
X01016Y0138557
X0101473Y0144653
X0104648Y0145542
X0102108Y0148844
X009525Y014732
X0092329Y0141097
X00821055Y0138557
X0083947Y0135128
X0084455Y0125349
X0097409Y0133223
X011049Y0148082
X0078232Y0149987
X0073406Y0150495
X0072136Y0154813
X007493
X007874Y015494
X0068961Y0157988
X0066802Y0150495
X006604Y0138811
X0072009Y0137033
X0071247Y0141859
X0078486
X0070104Y0133223
X006858Y0130556
X007874Y0120523
X0083693Y0161671
X0089154Y0159512
X0093853Y0164592
X0091948Y0169291
X0083058Y0172974
X0112902Y0171499
Y0174547
X012065Y0175641
X0123063Y0169926
X0125857Y0171577
X0119761Y0164465
X0137541Y0161925
X0146177Y0165989
X0145796Y0168783
X0150368Y0167767
X0155575Y016383
Y0172339
X0155448Y0175895
X0140335Y0176403
X0141097Y0171831
X0161417Y0167386
X0164592Y0165608
X0174498Y0165862
X0180975Y0167894
X0182753Y016256
X0189103Y0169672
X0196088Y0168275
X0202438Y0165227
X0204851Y0166624
X020828Y0169418
X0210947Y017526
X0198755Y0175387
X0209423Y0161798
X0212852
X0218567Y016129
T04
X0204526Y0029497
X0209526
X0207351Y0173783
X0202351
T05
X0201041Y0141605
X0203581
Y0144145
Y0146685
Y0149225
Y0151765
Y0154305
Y0156845
X0201041
Y0154305
Y0151765
Y0149225
Y0146685
Y0144145
Y0159385
X0203581
T06
X0159385Y006553
Y006807
X0156845
X0154305
X0151765
X0149225
X0146685
X0144145
X0141605
X0139065
X0136525
X0133985
X0131445
X0128905
Y006553
X0131445
X0133985
X0136525
X0139065
X0141605
X0144145
X0146685
X0149225
X0151765
X0154305
X0156845
X0092966Y0099314
X0090426
Y0101854
Y0104394
Y0106934
Y0109474
Y0112014
Y0114554
Y0117094
X0092966
Y0114554
Y0112014
Y0109474
Y0106934
Y0104394
Y0101854
X0194058Y0101092
Y0103632
Y0106172
Y0108712
Y0111252
Y0113792
Y0116332
Y0118872
X0196598
Y0116332
Y0113792
Y0111252
Y0108712
Y0106172
Y0103632
Y0101092
Y0098552
X0194058
Y0096012
Y0093472
Y0090932
X0196598
Y0093472
Y0096012
X0201549Y0090424
X0204089
X0196598Y0121412
X0194058
X014859Y0155829
X014605
X0092966Y0129794
X0090426
Y0127254
Y0124714
Y0122174
Y0119634
X0092966
Y0122174
Y0124714
Y0127254
T07
X0183896Y0072263
Y0074803
Y0077343
X0112141Y0061087
Y0058547
Y0056007
Y0053467
Y0050927
X0078232Y0089916
X0075692
X0073152
X0075184Y0117983
X0080772Y0089916
X0083312
X0086868Y0085344
Y0082804
Y0080264
X0183896Y0079883
Y0082423
X0122174Y0130302
X0119634
X0117094
X0075184Y0120523
X0132207Y0160147
Y0162687
Y0165227
Y0167767
Y0170307
X0168402Y0169291
Y0166751
Y0171831
T08
X0198755Y0046355
X0201295
X0203835
X0206375
X0208915
X0211455
X0218948Y0061722
Y0064262
Y0066802
Y0069342
Y0071882
Y0074422
Y0076962
X0177927Y0074803
Y0072263
Y0069723
Y0067183
Y0064643
Y0062103
Y0059563
Y0057023
X0193675Y0046355
X0196215
X0097155Y004064
X0094615
X0092075
X0089535
X0086995
X0084455
X0081915
X0079375
X0076835
X0074295
X0071755
X0069215
X0218948Y0079502
T09
X0107188Y0066421
Y0068961
Y0071501
Y0074041
X0074676Y0095885
Y0098425
Y0100965
Y0103505
T10
X0070104Y0032004
X0260096
X0070104Y0171196
X0260096
M30
