%TF.GenerationSoftware,Altium Limited,Altium Designer,23.9.2 (47)*%
G04 Layer_Color=0*
%FSLAX45Y45*%
%MOMM*%
%TF.SameCoordinates,7747E0AE-D8E6-467E-A507-EEFEC3D8B4F9*%
%TF.FilePolarity,Positive*%
%TF.FileFunction,Plated,1,6,PTH,Drill*%
%TF.Part,Single*%
G01*
G75*
%TA.AperFunction,ComponentDrill*%
%ADD191C,1.02000*%
%ADD192C,1.02000*%
%ADD193C,0.85000*%
%ADD194O,0.60000X1.30000*%
%ADD195C,1.10000*%
%ADD196C,1.10000*%
%TA.AperFunction,OtherDrill,Pad Free-5 (260.096mm,171.196mm)*%
%ADD197C,3.96875*%
%TA.AperFunction,OtherDrill,Pad Free-4 (260.096mm,32.004mm)*%
%ADD198C,3.96875*%
%TA.AperFunction,OtherDrill,Pad Free-3 (70.104mm,32.004mm)*%
%ADD199C,3.96875*%
%TA.AperFunction,OtherDrill,Pad Free-2 (70.104mm,171.196mm)*%
%ADD200C,3.96875*%
%TA.AperFunction,ComponentDrill*%
%ADD201C,0.89000*%
%ADD202C,0.89000*%
%ADD203C,0.88900*%
%ADD204C,1.27000*%
%TA.AperFunction,ViaDrill,NotFilled*%
%ADD205C,0.71120*%
%ADD206C,0.20000*%
%ADD207C,0.89000*%
D191*
X18389600Y7226300D02*
D03*
Y7480300D02*
D03*
Y7734300D02*
D03*
Y7988300D02*
D03*
Y8242300D02*
D03*
X13220700Y16014700D02*
D03*
Y16268700D02*
D03*
Y16522701D02*
D03*
Y16776700D02*
D03*
Y17030701D02*
D03*
X11214100Y6108700D02*
D03*
Y5854700D02*
D03*
Y5600700D02*
D03*
Y5346700D02*
D03*
Y5092700D02*
D03*
X8686800Y8534400D02*
D03*
Y8280400D02*
D03*
Y8026400D02*
D03*
X16840199Y16675101D02*
D03*
Y16929100D02*
D03*
Y17183099D02*
D03*
D192*
X8331200Y8991600D02*
D03*
X8077200D02*
D03*
X7823200D02*
D03*
X7569200D02*
D03*
X7315200D02*
D03*
X7518400Y12052300D02*
D03*
Y11798300D02*
D03*
X12217400Y13030200D02*
D03*
X11963400D02*
D03*
X11709400D02*
D03*
D193*
X20952602Y2949702D02*
D03*
X20452603D02*
D03*
X20735100Y17378300D02*
D03*
X20235100D02*
D03*
D194*
X21052602Y2679700D02*
D03*
X20352603D02*
D03*
X20835100Y17648300D02*
D03*
X20135100D02*
D03*
D195*
X9715500Y4064000D02*
D03*
X9461500D02*
D03*
X9207500D02*
D03*
X8699500D02*
D03*
X8445500D02*
D03*
X7937500D02*
D03*
X7429500D02*
D03*
X6921500D02*
D03*
X7175500D02*
D03*
X7683500D02*
D03*
X8191500D02*
D03*
X8953500D02*
D03*
X20637500Y4635500D02*
D03*
X20129500D02*
D03*
X19621500D02*
D03*
X19367500D02*
D03*
X19875500D02*
D03*
X20383501D02*
D03*
X20891499D02*
D03*
X21145500D02*
D03*
D196*
X21894800Y6680200D02*
D03*
Y7188200D02*
D03*
Y7696200D02*
D03*
Y7950200D02*
D03*
Y7442200D02*
D03*
Y6934200D02*
D03*
Y6426200D02*
D03*
Y6172200D02*
D03*
X17792700Y6210300D02*
D03*
Y6718300D02*
D03*
Y7226300D02*
D03*
Y7480300D02*
D03*
Y6972300D02*
D03*
Y6464300D02*
D03*
Y5956300D02*
D03*
Y5702300D02*
D03*
D197*
X26009601Y17119600D02*
D03*
D198*
Y3200400D02*
D03*
D199*
X7010400D02*
D03*
D200*
Y17119600D02*
D03*
D201*
X20408897Y9042400D02*
D03*
X20154898D02*
D03*
X12890500Y6553000D02*
D03*
X14605000Y15582899D02*
D03*
X14859000D02*
D03*
D202*
X9296600Y9931400D02*
D03*
X19659801Y9093200D02*
D03*
D203*
X20358099Y14160500D02*
D03*
Y14414500D02*
D03*
Y14668500D02*
D03*
Y14922501D02*
D03*
Y15176500D02*
D03*
Y15430499D02*
D03*
Y15684500D02*
D03*
Y15938499D02*
D03*
X20104100Y14160500D02*
D03*
Y14414500D02*
D03*
Y14668500D02*
D03*
Y14922501D02*
D03*
Y15176500D02*
D03*
Y15430499D02*
D03*
Y15684500D02*
D03*
Y15938499D02*
D03*
D204*
X7467600Y9588500D02*
D03*
Y9842500D02*
D03*
Y10096500D02*
D03*
Y10350500D02*
D03*
X10718798Y7404100D02*
D03*
Y7150100D02*
D03*
Y6896100D02*
D03*
Y6642100D02*
D03*
D205*
X8210550Y13855701D02*
D03*
X8445500Y12534900D02*
D03*
X6604000Y13881100D02*
D03*
X6858000Y13055600D02*
D03*
X7200900Y13703300D02*
D03*
X7010400Y13322301D02*
D03*
X8394700Y13512801D02*
D03*
X18910300Y16967200D02*
D03*
X21793201Y14173199D02*
D03*
X21094701Y13398500D02*
D03*
X20942300Y15252699D02*
D03*
X21120100Y14605000D02*
D03*
X21488400Y13576300D02*
D03*
X24828500Y6007100D02*
D03*
X8305800Y17297400D02*
D03*
X23456900Y6477000D02*
D03*
X23888699Y6781800D02*
D03*
X22771100Y6870700D02*
D03*
X17145000Y5549900D02*
D03*
X16903700Y5562600D02*
D03*
X18757899Y12331700D02*
D03*
X19215100Y13271500D02*
D03*
X17348199Y12115800D02*
D03*
X17589500Y12141200D02*
D03*
X17716499Y11963400D02*
D03*
X15963901Y12700000D02*
D03*
X15722600Y12065000D02*
D03*
X15316200Y12801601D02*
D03*
X15532100Y13042900D02*
D03*
X16789400Y11633200D02*
D03*
X8648700Y10668000D02*
D03*
X8140700D02*
D03*
X21310600Y2794000D02*
D03*
X20091400D02*
D03*
X21094701Y17525999D02*
D03*
X15544800Y17589500D02*
D03*
X21234399Y8394700D02*
D03*
Y8902700D02*
D03*
X7874000Y12052300D02*
D03*
X19608800Y16827499D02*
D03*
X18097501Y16789400D02*
D03*
X18275301Y16256000D02*
D03*
X17449800Y16586200D02*
D03*
X20828000Y16941800D02*
D03*
X21856700Y16128999D02*
D03*
X21120100Y15468600D02*
D03*
X20726401Y15811501D02*
D03*
X21285201Y16179800D02*
D03*
X20942300D02*
D03*
X20154900Y11277600D02*
D03*
X20751801Y12090400D02*
D03*
X21043900Y12268200D02*
D03*
X7823200Y14998700D02*
D03*
X7340600Y15049500D02*
D03*
X7213600Y15481300D02*
D03*
X7493000D02*
D03*
X9194800Y16929100D02*
D03*
X8915400Y15951199D02*
D03*
X7124700Y14185899D02*
D03*
X7874000Y11633200D02*
D03*
X9385300Y16459200D02*
D03*
X7848600Y14185899D02*
D03*
X8369300Y16167101D02*
D03*
X20485100Y16662399D02*
D03*
X20243800Y16522701D02*
D03*
X24244299Y7086600D02*
D03*
X22275800Y7188200D02*
D03*
X10629900Y8280400D02*
D03*
X10236200Y9194800D02*
D03*
X9474200Y8991600D02*
D03*
X9067800Y5867400D02*
D03*
X11010900Y9982200D02*
D03*
X9791700Y9207500D02*
D03*
X9601200Y9931400D02*
D03*
X13893800Y8496300D02*
D03*
X8178800Y10185400D02*
D03*
X15646400Y11366500D02*
D03*
X11976100Y16446500D02*
D03*
X22390100Y11404600D02*
D03*
X22593300D02*
D03*
X22796500D02*
D03*
X22999699D02*
D03*
X23202901D02*
D03*
X23406100D02*
D03*
X23609300D02*
D03*
X23812500D02*
D03*
X24015700D02*
D03*
X24218900D02*
D03*
X24422099D02*
D03*
X24625301D02*
D03*
X24828500D02*
D03*
X25031700D02*
D03*
X25234900D02*
D03*
X25095200Y11772900D02*
D03*
X24892000D02*
D03*
X24688800D02*
D03*
X24485600D02*
D03*
X24282401D02*
D03*
X24079201D02*
D03*
X23875999D02*
D03*
X23672800D02*
D03*
X23469600D02*
D03*
X23266400D02*
D03*
X23063200D02*
D03*
X22860001D02*
D03*
X22656799D02*
D03*
X22453600D02*
D03*
X21145500Y8013700D02*
D03*
X12306300Y16992599D02*
D03*
X12065000Y17564101D02*
D03*
X15925800Y15011400D02*
D03*
X16395700Y15709900D02*
D03*
X15430499Y15544800D02*
D03*
X12217400Y14871700D02*
D03*
X11290198Y17454703D02*
D03*
X12585700Y17157700D02*
D03*
X15570200Y14732001D02*
D03*
X16230600D02*
D03*
X14414500D02*
D03*
X13576300D02*
D03*
X13500101Y14427200D02*
D03*
X15532100Y15049500D02*
D03*
X12103100Y15481300D02*
D03*
X14173199Y15405099D02*
D03*
X13411200Y15811501D02*
D03*
X14160500Y15646400D02*
D03*
X14109700Y17183099D02*
D03*
X14033501Y17640300D02*
D03*
X6604000Y5511800D02*
D03*
Y4648200D02*
D03*
X6997700Y4876800D02*
D03*
X9740900Y13322301D02*
D03*
X9232900Y14109700D02*
D03*
X9525000Y14732001D02*
D03*
X10160000Y13855701D02*
D03*
X7874000Y15494000D02*
D03*
X16459200Y16560800D02*
D03*
X12344400Y9093200D02*
D03*
X11633200Y9182100D02*
D03*
X11328400Y9702800D02*
D03*
X12509500Y9791700D02*
D03*
X8788400Y9931400D02*
D03*
X16383000Y7353300D02*
D03*
X21920200Y12496800D02*
D03*
X20993100Y10490200D02*
D03*
X21742400Y10172700D02*
D03*
X20802600Y10198100D02*
D03*
X12103100Y10147300D02*
D03*
X12953999Y9017000D02*
D03*
X14465300Y8724900D02*
D03*
X13055600Y13398500D02*
D03*
X10147300Y14465300D02*
D03*
X10464800Y14554201D02*
D03*
X11049000Y14808200D02*
D03*
X11569700Y13436600D02*
D03*
X12420600Y13906500D02*
D03*
X10210800Y14884399D02*
D03*
X6896100Y15798801D02*
D03*
X6680200Y15049500D02*
D03*
X11480800Y13855701D02*
D03*
X12573000Y14439900D02*
D03*
X8699500Y11455400D02*
D03*
X9626600Y11696700D02*
D03*
X18211800Y10134600D02*
D03*
X18135600Y10985500D02*
D03*
X17754601Y10134600D02*
D03*
X16154401Y10718800D02*
D03*
X16141701Y10160000D02*
D03*
X16573500Y9410700D02*
D03*
X16878300Y9296400D02*
D03*
X17373599Y9842500D02*
D03*
X17043401Y9461500D02*
D03*
Y9702800D02*
D03*
X17246600Y7505700D02*
D03*
X16383000Y8712200D02*
D03*
Y8039100D02*
D03*
X13487399Y11722100D02*
D03*
X13309599Y11887200D02*
D03*
X13131799Y12026900D02*
D03*
X12953999Y12192000D02*
D03*
X12763500Y12331700D02*
D03*
X13817599Y11239500D02*
D03*
X13487399Y11150600D02*
D03*
X13309599Y11341100D02*
D03*
X13741400Y10680700D02*
D03*
X15512833Y13328433D02*
D03*
X16548100Y13423900D02*
D03*
X14363699Y13220700D02*
D03*
X14173199Y13093700D02*
D03*
X13855701Y13690601D02*
D03*
X14998700Y13817599D02*
D03*
Y13627100D02*
D03*
X14160500Y12649200D02*
D03*
X14300200Y12484100D02*
D03*
X14414500Y12306300D02*
D03*
X14554201Y12115800D02*
D03*
X14668500Y11925300D02*
D03*
X15138400Y13004800D02*
D03*
Y11366500D02*
D03*
X16370300Y12179300D02*
D03*
X16637000Y12153900D02*
D03*
X16865601Y12077700D02*
D03*
X17106900D02*
D03*
X16268700Y13423900D02*
D03*
X17017999Y11480800D02*
D03*
X16548100Y14084300D02*
D03*
X13728700Y12052300D02*
D03*
X13627100Y12611100D02*
D03*
X14605000Y10668000D02*
D03*
X13589000Y11506200D02*
D03*
X11811000Y14084300D02*
D03*
X12052300Y13957300D02*
D03*
X16040100Y9740900D02*
D03*
X15036800Y9728200D02*
D03*
X15570200D02*
D03*
X20789900Y7708900D02*
D03*
X16941800Y8547100D02*
D03*
X11290198Y17149902D02*
D03*
X6604000Y6261100D02*
D03*
X24485600Y7480300D02*
D03*
X24650700Y6540500D02*
D03*
X19088100Y5549900D02*
D03*
X20205701Y6832600D02*
D03*
X19481799Y6527800D02*
D03*
X19367500Y8305800D02*
D03*
X19113499Y8191500D02*
D03*
X18783299Y8102600D02*
D03*
X19875500Y17538699D02*
D03*
X15557500Y16383000D02*
D03*
Y17233900D02*
D03*
X16141701Y16738600D02*
D03*
Y11366500D02*
D03*
X14617700Y16598900D02*
D03*
X14897099Y14312900D02*
D03*
X14414500Y14478000D02*
D03*
X14312900Y14147800D02*
D03*
X15697200Y14071600D02*
D03*
X13754100Y16192500D02*
D03*
X16967200Y13423900D02*
D03*
X17106900Y13944600D02*
D03*
X16154401Y13931900D02*
D03*
X14008099Y13855701D02*
D03*
X15036800Y16776700D02*
D03*
X14579601Y16878300D02*
D03*
X17043401Y14312900D02*
D03*
X16141701Y14287500D02*
D03*
X13995399D02*
D03*
X16598900Y14452600D02*
D03*
X15671800Y14439900D02*
D03*
X13411200Y14122400D02*
D03*
X14617700Y11277600D02*
D03*
X19812000Y6184900D02*
D03*
X20142200Y6172200D02*
D03*
X19494501Y6184900D02*
D03*
X20154900Y6527800D02*
D03*
X20142200Y7137400D02*
D03*
X19494501D02*
D03*
X19812000Y7480300D02*
D03*
X20129500Y7493000D02*
D03*
X19494501D02*
D03*
X14185899Y9169400D02*
D03*
X14592300Y9728200D02*
D03*
X6477000Y7467600D02*
D03*
X7645400Y6540500D02*
D03*
X6807200D02*
D03*
X7213600Y7112000D02*
D03*
Y6350000D02*
D03*
X7645400Y6731000D02*
D03*
Y6921500D02*
D03*
X6807200Y6731000D02*
D03*
X7404100Y7112000D02*
D03*
X7035800D02*
D03*
X7404100Y6350000D02*
D03*
D206*
X7687700Y13034500D02*
D03*
X7577700D02*
D03*
X7687700Y13144501D02*
D03*
X7577700D02*
D03*
X7687700Y13254500D02*
D03*
X7577700D02*
D03*
D207*
X9042600Y12979401D02*
D03*
Y12725400D02*
D03*
Y12471400D02*
D03*
Y12217400D02*
D03*
Y11963400D02*
D03*
Y11709400D02*
D03*
Y11455400D02*
D03*
Y11201400D02*
D03*
Y10947400D02*
D03*
Y10693400D02*
D03*
Y10439400D02*
D03*
Y10185400D02*
D03*
Y9931400D02*
D03*
X9296600Y12979401D02*
D03*
Y12725400D02*
D03*
Y12471400D02*
D03*
Y12217400D02*
D03*
Y11963400D02*
D03*
Y11709400D02*
D03*
Y11455400D02*
D03*
Y11201400D02*
D03*
Y10947400D02*
D03*
Y10693400D02*
D03*
Y10439400D02*
D03*
Y10185400D02*
D03*
X19405800Y12141200D02*
D03*
Y11887200D02*
D03*
Y11633200D02*
D03*
Y11379200D02*
D03*
Y11125200D02*
D03*
Y10871200D02*
D03*
Y10617200D02*
D03*
Y10363200D02*
D03*
Y10109200D02*
D03*
Y9855200D02*
D03*
Y9601200D02*
D03*
Y9347200D02*
D03*
Y9093200D02*
D03*
X19659801Y12141200D02*
D03*
Y11887200D02*
D03*
Y11633200D02*
D03*
Y11379200D02*
D03*
Y11125200D02*
D03*
Y10871200D02*
D03*
Y10617200D02*
D03*
Y10363200D02*
D03*
Y10109200D02*
D03*
Y9855200D02*
D03*
Y9601200D02*
D03*
Y9347200D02*
D03*
X15938499Y6807000D02*
D03*
X15684500D02*
D03*
X15430499D02*
D03*
X15176500D02*
D03*
X14922501D02*
D03*
X14668500D02*
D03*
X14414500D02*
D03*
X14160500D02*
D03*
X13906500D02*
D03*
X13652499D02*
D03*
X13398500D02*
D03*
X13144501D02*
D03*
X12890500D02*
D03*
X15938499Y6553000D02*
D03*
X15684500D02*
D03*
X15430499D02*
D03*
X15176500D02*
D03*
X14922501D02*
D03*
X14668500D02*
D03*
X14414500D02*
D03*
X14160500D02*
D03*
X13906500D02*
D03*
X13652499D02*
D03*
X13398500D02*
D03*
X13144501D02*
D03*
%TF.MD5,168e8b5df52db328ad88db692127c8eb*%
M02*
