%TF.GenerationSoftware,Altium Limited,Altium Designer,23.9.2 (47)*%
G04 Layer_Color=8421504*
%FSLAX45Y45*%
%MOMM*%
%TF.SameCoordinates,7747E0AE-D8E6-467E-A507-EEFEC3D8B4F9*%
%TF.FilePolarity,Positive*%
%TF.FileFunction,Paste,Top*%
%TF.Part,Single*%
G01*
G75*
%TA.AperFunction,Conductor*%
%ADD10C,0.50000*%
%TA.AperFunction,SMDPad,CuDef*%
%ADD15R,0.54000X0.58000*%
%ADD16R,0.55000X0.55000*%
G04:AMPARAMS|DCode=17|XSize=2.4mm|YSize=3.38mm|CornerRadius=0.048mm|HoleSize=0mm|Usage=FLASHONLY|Rotation=0.000|XOffset=0mm|YOffset=0mm|HoleType=Round|Shape=RoundedRectangle|*
%AMROUNDEDRECTD17*
21,1,2.40000,3.28400,0,0,0.0*
21,1,2.30400,3.38000,0,0,0.0*
1,1,0.09600,1.15200,-1.64200*
1,1,0.09600,-1.15200,-1.64200*
1,1,0.09600,-1.15200,1.64200*
1,1,0.09600,1.15200,1.64200*
%
%ADD17ROUNDEDRECTD17*%
G04:AMPARAMS|DCode=18|XSize=0.35mm|YSize=1.45mm|CornerRadius=0.05075mm|HoleSize=0mm|Usage=FLASHONLY|Rotation=90.000|XOffset=0mm|YOffset=0mm|HoleType=Round|Shape=RoundedRectangle|*
%AMROUNDEDRECTD18*
21,1,0.35000,1.34850,0,0,90.0*
21,1,0.24850,1.45000,0,0,90.0*
1,1,0.10150,0.67425,0.12425*
1,1,0.10150,0.67425,-0.12425*
1,1,0.10150,-0.67425,-0.12425*
1,1,0.10150,-0.67425,0.12425*
%
%ADD18ROUNDEDRECTD18*%
%ADD19R,1.50822X1.30606*%
%ADD20R,0.50000X0.60000*%
%ADD21R,1.00000X0.75000*%
%ADD22R,0.75814X0.81213*%
%ADD23R,1.03000X1.00000*%
%ADD24R,0.48000X1.80000*%
%ADD25R,0.65000X1.30000*%
%ADD26R,1.60000X1.40000*%
%ADD27R,1.30000X1.55000*%
%ADD28R,0.40000X1.35000*%
%ADD29R,1.50000X1.90000*%
%ADD31R,0.42000X0.22000*%
%ADD32R,0.65000X0.90000*%
%ADD33R,0.90000X0.75000*%
%ADD34R,0.58000X0.54000*%
%ADD35R,0.50000X0.45000*%
%ADD36R,0.45000X0.50000*%
%ADD37R,0.60000X0.55000*%
G04:AMPARAMS|DCode=38|XSize=0.76mm|YSize=0.6604mm|CornerRadius=0.08255mm|HoleSize=0mm|Usage=FLASHONLY|Rotation=0.000|XOffset=0mm|YOffset=0mm|HoleType=Round|Shape=RoundedRectangle|*
%AMROUNDEDRECTD38*
21,1,0.76000,0.49530,0,0,0.0*
21,1,0.59490,0.66040,0,0,0.0*
1,1,0.16510,0.29745,-0.24765*
1,1,0.16510,-0.29745,-0.24765*
1,1,0.16510,-0.29745,0.24765*
1,1,0.16510,0.29745,0.24765*
%
%ADD38ROUNDEDRECTD38*%
%ADD39R,3.68000X1.27000*%
%ADD40R,0.80000X0.90000*%
%ADD41R,0.80000X0.80000*%
%ADD42R,0.90000X0.95000*%
%ADD43R,0.65000X0.65000*%
G04:AMPARAMS|DCode=44|XSize=0.55mm|YSize=0.5mm|CornerRadius=0.0625mm|HoleSize=0mm|Usage=FLASHONLY|Rotation=0.000|XOffset=0mm|YOffset=0mm|HoleType=Round|Shape=RoundedRectangle|*
%AMROUNDEDRECTD44*
21,1,0.55000,0.37500,0,0,0.0*
21,1,0.42500,0.50000,0,0,0.0*
1,1,0.12500,0.21250,-0.18750*
1,1,0.12500,-0.21250,-0.18750*
1,1,0.12500,-0.21250,0.18750*
1,1,0.12500,0.21250,0.18750*
%
%ADD44ROUNDEDRECTD44*%
%ADD45R,0.65000X0.65000*%
G04:AMPARAMS|DCode=46|XSize=0.55mm|YSize=0.5mm|CornerRadius=0.0625mm|HoleSize=0mm|Usage=FLASHONLY|Rotation=270.000|XOffset=0mm|YOffset=0mm|HoleType=Round|Shape=RoundedRectangle|*
%AMROUNDEDRECTD46*
21,1,0.55000,0.37500,0,0,270.0*
21,1,0.42500,0.50000,0,0,270.0*
1,1,0.12500,-0.18750,-0.21250*
1,1,0.12500,-0.18750,0.21250*
1,1,0.12500,0.18750,0.21250*
1,1,0.12500,0.18750,-0.21250*
%
%ADD46ROUNDEDRECTD46*%
G04:AMPARAMS|DCode=47|XSize=0.76mm|YSize=0.6604mm|CornerRadius=0.08255mm|HoleSize=0mm|Usage=FLASHONLY|Rotation=90.000|XOffset=0mm|YOffset=0mm|HoleType=Round|Shape=RoundedRectangle|*
%AMROUNDEDRECTD47*
21,1,0.76000,0.49530,0,0,90.0*
21,1,0.59490,0.66040,0,0,90.0*
1,1,0.16510,0.24765,0.29745*
1,1,0.16510,0.24765,-0.29745*
1,1,0.16510,-0.24765,-0.29745*
1,1,0.16510,-0.24765,0.29745*
%
%ADD47ROUNDEDRECTD47*%
%ADD48R,0.51535X0.47247*%
%ADD49R,0.47247X0.51535*%
G04:AMPARAMS|DCode=50|XSize=0.65mm|YSize=1.65mm|CornerRadius=0.04875mm|HoleSize=0mm|Usage=FLASHONLY|Rotation=180.000|XOffset=0mm|YOffset=0mm|HoleType=Round|Shape=RoundedRectangle|*
%AMROUNDEDRECTD50*
21,1,0.65000,1.55250,0,0,180.0*
21,1,0.55250,1.65000,0,0,180.0*
1,1,0.09750,-0.27625,0.77625*
1,1,0.09750,0.27625,0.77625*
1,1,0.09750,0.27625,-0.77625*
1,1,0.09750,-0.27625,-0.77625*
%
%ADD50ROUNDEDRECTD50*%
%ADD52R,0.62500X0.85000*%
%ADD53R,1.05000X2.20000*%
%ADD54R,1.00000X1.05000*%
%ADD55R,3.70000X1.40000*%
%ADD56R,5.60000X2.60000*%
%ADD57R,0.96822X1.00650*%
%ADD58R,1.35620X1.15443*%
%ADD60R,0.29247X0.55607*%
G04:AMPARAMS|DCode=61|XSize=0.55607mm|YSize=0.29247mm|CornerRadius=0.14624mm|HoleSize=0mm|Usage=FLASHONLY|Rotation=90.000|XOffset=0mm|YOffset=0mm|HoleType=Round|Shape=RoundedRectangle|*
%AMROUNDEDRECTD61*
21,1,0.55607,0.00000,0,0,90.0*
21,1,0.26360,0.29247,0,0,90.0*
1,1,0.29247,0.00000,0.13180*
1,1,0.29247,0.00000,-0.13180*
1,1,0.29247,0.00000,-0.13180*
1,1,0.29247,0.00000,0.13180*
%
%ADD61ROUNDEDRECTD61*%
%ADD62R,0.80000X0.80000*%
%ADD63R,0.35000X1.35000*%
%ADD64R,0.55000X0.50000*%
%ADD66R,0.90000X2.00000*%
%ADD67R,2.00000X0.90000*%
%TA.AperFunction,BGAPad,CuDef*%
%ADD68R,1.33000X1.33000*%
%TA.AperFunction,SMDPad,CuDef*%
%ADD69R,0.95000X0.90000*%
%ADD70R,2.20000X1.05000*%
%ADD71R,1.05000X1.00000*%
%ADD72R,1.50000X0.70000*%
%ADD73R,1.50000X1.00000*%
%ADD74R,0.70000X1.50000*%
%ADD78R,0.50000X0.55000*%
%ADD79R,0.95000X0.80000*%
%ADD80R,1.35000X0.35000*%
%ADD82R,0.24247X0.88102*%
G04:AMPARAMS|DCode=83|XSize=0.88102mm|YSize=0.24247mm|CornerRadius=0.12124mm|HoleSize=0mm|Usage=FLASHONLY|Rotation=90.000|XOffset=0mm|YOffset=0mm|HoleType=Round|Shape=RoundedRectangle|*
%AMROUNDEDRECTD83*
21,1,0.88102,0.00000,0,0,90.0*
21,1,0.63854,0.24247,0,0,90.0*
1,1,0.24247,0.00000,0.31927*
1,1,0.24247,0.00000,-0.31927*
1,1,0.24247,0.00000,-0.31927*
1,1,0.24247,0.00000,0.31927*
%
%ADD83ROUNDEDRECTD83*%
%TA.AperFunction,NonConductor*%
%ADD177C,0.12500*%
%ADD178R,1.21544X0.61539*%
%ADD179R,1.04999X1.04999*%
%ADD180R,1.05004X1.04999*%
%ADD181R,0.75001X1.54996*%
%ADD182R,0.74996X1.54996*%
%ADD183R,1.55001X0.74996*%
%ADD184R,1.55001X0.75001*%
%ADD185R,1.76002X0.93000*%
%ADD186R,0.24999X0.75001*%
%ADD187R,0.24999X0.74996*%
%ADD188R,0.25004X0.75001*%
%ADD189R,0.25004X0.74996*%
G36*
X20125099Y17603297D02*
X20075102D01*
X20075101Y17693300D01*
X20125099D01*
Y17603297D01*
D02*
G37*
G36*
X20255099Y17553300D02*
X20125101D01*
Y17743300D01*
X20255099D01*
Y17553300D01*
D02*
G37*
G36*
X20845100D02*
X20715100D01*
Y17743300D01*
X20845100D01*
Y17553300D01*
D02*
G37*
G36*
X20895100Y17603300D02*
X20845100D01*
Y17693303D01*
X20895097D01*
X20895100Y17603300D01*
D02*
G37*
D10*
X20870100D02*
G03*
X20835100Y17626213I-25000J0D01*
G01*
Y17580386D02*
G03*
X20870100Y17603300I10000J22913D01*
G01*
X20835100Y17626213D02*
G03*
X20835100Y17580386I10000J-22913D01*
G01*
X20150101Y17693300D02*
G03*
X20150101Y17693300I-25000J0D01*
G01*
X20870100Y17693300D02*
G03*
X20870100Y17693300I-25000J0D01*
G01*
X20150101Y17603300D02*
G03*
X20135100Y17626213I-25000J0D01*
G01*
D02*
G03*
X20135100Y17580386I-10000J-22913D01*
G01*
D02*
G03*
X20150101Y17603300I-10000J22913D01*
G01*
D15*
X6604000Y13448399D02*
D03*
Y13526401D02*
D03*
X24638000Y7621000D02*
D03*
Y7699000D02*
D03*
X20802600Y8014600D02*
D03*
Y7936600D02*
D03*
X17195799Y13629900D02*
D03*
Y13551900D02*
D03*
X16268700Y13716901D02*
D03*
Y13638901D02*
D03*
X12573000Y14224899D02*
D03*
Y14146899D02*
D03*
X11404600Y8268598D02*
D03*
Y8190600D02*
D03*
X9232900Y14428099D02*
D03*
Y14350101D02*
D03*
X10972800Y14426300D02*
D03*
Y14504298D02*
D03*
X14414500Y9169400D02*
D03*
Y9247398D02*
D03*
X15163800Y9218402D02*
D03*
Y9296400D02*
D03*
X15659100Y9218402D02*
D03*
Y9296400D02*
D03*
X16192500Y8485398D02*
D03*
Y8407400D02*
D03*
X16814799Y11378300D02*
D03*
Y11456298D02*
D03*
X13893800Y12230100D02*
D03*
Y12308098D02*
D03*
X13627100Y12280900D02*
D03*
Y12358898D02*
D03*
X12141200Y9092302D02*
D03*
Y9170300D02*
D03*
X12865100Y9792600D02*
D03*
Y9714602D02*
D03*
X6896100Y16038303D02*
D03*
Y16116299D02*
D03*
D16*
X8388900Y13182600D02*
D03*
X8298900D02*
D03*
D17*
X7632700Y13144501D02*
D03*
D18*
X7930200Y12852000D02*
D03*
Y12917000D02*
D03*
Y12982001D02*
D03*
Y13047000D02*
D03*
Y13112000D02*
D03*
Y13177000D02*
D03*
Y13242000D02*
D03*
Y13307001D02*
D03*
Y13372000D02*
D03*
Y13437000D02*
D03*
X7335200Y12852000D02*
D03*
Y12917000D02*
D03*
Y12982001D02*
D03*
Y13047000D02*
D03*
Y13112000D02*
D03*
Y13177000D02*
D03*
Y13242000D02*
D03*
Y13307001D02*
D03*
Y13372000D02*
D03*
Y13437000D02*
D03*
D19*
X19164301Y16259991D02*
D03*
Y16455208D02*
D03*
D20*
X21043100Y14922501D02*
D03*
X20943100D02*
D03*
X18377699Y16903700D02*
D03*
X18477699D02*
D03*
D21*
X21488400Y13820000D02*
D03*
Y13970000D02*
D03*
D22*
X21082800Y14198599D02*
D03*
X21208199D02*
D03*
D23*
X23937000Y4496000D02*
D03*
X24830000D02*
D03*
D24*
X23916499Y5068000D02*
D03*
Y5643000D02*
D03*
X24849500D02*
D03*
Y5068000D02*
D03*
D25*
X24701500Y5715000D02*
D03*
X24320500D02*
D03*
X24066499D02*
D03*
X24574500D02*
D03*
X24447501D02*
D03*
X24193500D02*
D03*
D26*
X8115300Y16550500D02*
D03*
Y16850500D02*
D03*
X16916400Y15686900D02*
D03*
Y15986900D02*
D03*
D27*
X10557300Y8505200D02*
D03*
X11007300D02*
D03*
X10557300Y9300200D02*
D03*
X11007300D02*
D03*
D28*
X20572603Y2949702D02*
D03*
X20637602D02*
D03*
X20702600D02*
D03*
X20767604D02*
D03*
X20832602D02*
D03*
X20355099Y17378300D02*
D03*
X20420100D02*
D03*
X20485100D02*
D03*
X20550101D02*
D03*
X20615100D02*
D03*
D29*
X20602600Y2679700D02*
D03*
X20802600D02*
D03*
X20385100Y17648300D02*
D03*
X20585100D02*
D03*
D31*
X21629601Y16002000D02*
D03*
Y16042000D02*
D03*
Y16082001D02*
D03*
X21564600Y16002000D02*
D03*
Y16042000D02*
D03*
Y16082001D02*
D03*
D32*
X16999200Y6470000D02*
D03*
X17189200D02*
D03*
Y6230000D02*
D03*
X17094200D02*
D03*
X16999200D02*
D03*
D33*
X23444200Y7070400D02*
D03*
Y6950400D02*
D03*
X24180800Y7705400D02*
D03*
Y7585400D02*
D03*
X23126700Y6689400D02*
D03*
Y6569400D02*
D03*
X23710899Y7438700D02*
D03*
Y7318700D02*
D03*
X20993100Y10842300D02*
D03*
Y10722300D02*
D03*
D34*
X16902800Y5918200D02*
D03*
X16980800D02*
D03*
X6526900Y5270500D02*
D03*
X6604900D02*
D03*
X11708500Y13855701D02*
D03*
X11786500D02*
D03*
X15888599Y12204700D02*
D03*
X15810600D02*
D03*
X13740501Y11391900D02*
D03*
X13818500D02*
D03*
X18022198Y10134600D02*
D03*
X17944200D02*
D03*
X18388699Y10985500D02*
D03*
X18466698D02*
D03*
X15201001Y12611100D02*
D03*
X15278999D02*
D03*
D35*
X8356600Y10668000D02*
D03*
X8431600D02*
D03*
X21844598Y11582400D02*
D03*
X21919600D02*
D03*
X13398500Y17335500D02*
D03*
X13473502D02*
D03*
D36*
X21234399Y8611200D02*
D03*
Y8686200D02*
D03*
X21564600Y12039001D02*
D03*
Y11964000D02*
D03*
X13893800Y17410501D02*
D03*
Y17335500D02*
D03*
D37*
X18021300Y15987601D02*
D03*
Y16092599D02*
D03*
D38*
X8293100Y12845900D02*
D03*
Y12985899D02*
D03*
D39*
X9899800Y16713200D02*
D03*
Y16459200D02*
D03*
Y16205200D02*
D03*
Y15951199D02*
D03*
X10394800D02*
D03*
Y16713200D02*
D03*
Y16459200D02*
D03*
Y16205200D02*
D03*
D40*
X18751300Y16254401D02*
D03*
X18561301D02*
D03*
X18656300Y16054401D02*
D03*
D41*
X18172501Y15621001D02*
D03*
X18022501D02*
D03*
D42*
X19933900Y16827499D02*
D03*
X20248900D02*
D03*
D43*
X20154900Y11545900D02*
D03*
Y11645900D02*
D03*
X20332700Y9765500D02*
D03*
Y9665500D02*
D03*
X15925800Y15340800D02*
D03*
Y15240800D02*
D03*
X16598900Y15683701D02*
D03*
Y15583701D02*
D03*
X6807200Y4674400D02*
D03*
Y4774400D02*
D03*
X8547100Y16547301D02*
D03*
Y16447301D02*
D03*
D44*
X20523199Y11778700D02*
D03*
Y11868700D02*
D03*
X9817100Y14434100D02*
D03*
Y14344099D02*
D03*
X11277600Y14446800D02*
D03*
Y14356799D02*
D03*
X9906000Y8427000D02*
D03*
Y8337000D02*
D03*
X8178800Y9938300D02*
D03*
Y9848300D02*
D03*
X11874500Y9265200D02*
D03*
Y9175202D02*
D03*
X11531600Y9391102D02*
D03*
Y9481100D02*
D03*
X12573000Y14726199D02*
D03*
Y14636201D02*
D03*
X16002000Y13690601D02*
D03*
Y13780602D02*
D03*
X16967200Y13755197D02*
D03*
Y13665199D02*
D03*
D45*
X11976900Y16687801D02*
D03*
X12076900D02*
D03*
X7722400Y15239999D02*
D03*
X7822400D02*
D03*
X10986300Y15100301D02*
D03*
X11086300D02*
D03*
D46*
X6724100Y4406900D02*
D03*
X6814100D02*
D03*
X16947600Y8331200D02*
D03*
X17037601D02*
D03*
X6903000Y5156200D02*
D03*
X6813000D02*
D03*
X12021099Y13614400D02*
D03*
X11931101D02*
D03*
D47*
X6546700Y4927600D02*
D03*
X6686700D02*
D03*
D48*
X6934444Y15049500D02*
D03*
X7010156D02*
D03*
D49*
X15659100Y15379456D02*
D03*
Y15303745D02*
D03*
X16383000Y7645644D02*
D03*
Y7721356D02*
D03*
Y8483356D02*
D03*
Y8407644D02*
D03*
D50*
X16179800Y16132100D02*
D03*
X16052800D02*
D03*
X15925800D02*
D03*
X15798801D02*
D03*
X16179800Y15567101D02*
D03*
X16052800D02*
D03*
X15925800D02*
D03*
X15798801D02*
D03*
X7366000Y15783002D02*
D03*
X7493000D02*
D03*
X7620000D02*
D03*
X7747000D02*
D03*
X7366000Y16348000D02*
D03*
X7493000D02*
D03*
X7620000D02*
D03*
X7747000D02*
D03*
D52*
X21472952Y11252200D02*
D03*
X21605447D02*
D03*
X21554648Y10172700D02*
D03*
X21422153D02*
D03*
D53*
X21417102Y12496800D02*
D03*
X21712099D02*
D03*
D54*
X21564600Y12344298D02*
D03*
X21602699Y10857301D02*
D03*
Y10707299D02*
D03*
D55*
X26028900Y11572001D02*
D03*
Y11772001D02*
D03*
D56*
X26123901Y10922000D02*
D03*
Y14722003D02*
D03*
D57*
X20828000Y9724586D02*
D03*
Y9579414D02*
D03*
D58*
X9232900Y13686510D02*
D03*
Y13821689D02*
D03*
D60*
X10399801Y14024596D02*
D03*
D61*
X10464800D02*
D03*
X10529799D02*
D03*
Y14220206D02*
D03*
X10464800D02*
D03*
X10399801D02*
D03*
D62*
X10617200Y15035600D02*
D03*
Y14885599D02*
D03*
D63*
X15891200Y11603502D02*
D03*
X14441200D02*
D03*
X14491199D02*
D03*
X14541200D02*
D03*
X14591199D02*
D03*
X14641200D02*
D03*
X14691203D02*
D03*
X14741200D02*
D03*
X14791202D02*
D03*
X14841200D02*
D03*
X14891202D02*
D03*
X14941199D02*
D03*
X14991202D02*
D03*
X15041199D02*
D03*
X15091202D02*
D03*
X15141199D02*
D03*
X15191202D02*
D03*
X15241199D02*
D03*
X15291200D02*
D03*
X15341199D02*
D03*
X15391200D02*
D03*
X15441199D02*
D03*
X15491200D02*
D03*
X15541199D02*
D03*
X15591200D02*
D03*
X15641199D02*
D03*
X15691200D02*
D03*
X15741199D02*
D03*
X15791200D02*
D03*
X15841199D02*
D03*
X15941203D02*
D03*
X15991200D02*
D03*
X16041202D02*
D03*
X16091200D02*
D03*
X16141202D02*
D03*
X16191200D02*
D03*
Y9478498D02*
D03*
X16141202D02*
D03*
X16091200D02*
D03*
X16041202D02*
D03*
X15991200D02*
D03*
X15941203D02*
D03*
X15891200D02*
D03*
X15841199D02*
D03*
X15791200D02*
D03*
X15741199D02*
D03*
X15691200D02*
D03*
X15641199D02*
D03*
X15591200D02*
D03*
X15541199D02*
D03*
X15491200D02*
D03*
X15441199D02*
D03*
X15391200D02*
D03*
X15341199D02*
D03*
X15291200D02*
D03*
X15241199D02*
D03*
X15191202D02*
D03*
X15141199D02*
D03*
X15091202D02*
D03*
X15041199D02*
D03*
X14991202D02*
D03*
X14941199D02*
D03*
X14891202D02*
D03*
X14841200D02*
D03*
X14791202D02*
D03*
X14741200D02*
D03*
X14691203D02*
D03*
X14641200D02*
D03*
X14591199D02*
D03*
X14541200D02*
D03*
X14491199D02*
D03*
X14441200D02*
D03*
D64*
X13601700Y16992599D02*
D03*
X13741400Y16776700D02*
D03*
X13816402D02*
D03*
X15683900Y17056100D02*
D03*
X15608900D02*
D03*
X13676701Y16992599D02*
D03*
X13538200Y16014700D02*
D03*
X13613200D02*
D03*
X15734100Y16865601D02*
D03*
X15659100D02*
D03*
X15950002Y16560800D02*
D03*
X15875000D02*
D03*
X13652499Y16370300D02*
D03*
X13727501D02*
D03*
X13766800Y16522701D02*
D03*
X13841801D02*
D03*
D66*
X6471702Y5982599D02*
D03*
X6598702D02*
D03*
X6725702D02*
D03*
X6852702D02*
D03*
X6979702D02*
D03*
X7106702D02*
D03*
X7233702D02*
D03*
X7360702D02*
D03*
X7487702D02*
D03*
X7614702D02*
D03*
X7741702D02*
D03*
X7868702D02*
D03*
X7995702D02*
D03*
X8122702D02*
D03*
Y7682601D02*
D03*
X7995702D02*
D03*
X7868702D02*
D03*
X7741702D02*
D03*
X7614702D02*
D03*
X7487702D02*
D03*
X7360702D02*
D03*
X7233702D02*
D03*
X7106702D02*
D03*
X6979702D02*
D03*
X6852702D02*
D03*
X6725702D02*
D03*
X6598702D02*
D03*
X6471702D02*
D03*
D67*
X8222701Y6261100D02*
D03*
Y6388100D02*
D03*
Y6515100D02*
D03*
Y6642100D02*
D03*
Y6769100D02*
D03*
Y6896100D02*
D03*
Y7023100D02*
D03*
Y7150100D02*
D03*
Y7277100D02*
D03*
Y7404100D02*
D03*
D68*
X7038198Y6549100D02*
D03*
Y6732600D02*
D03*
Y6916100D02*
D03*
X7221698Y6549100D02*
D03*
Y6732600D02*
D03*
Y6916100D02*
D03*
X7405202Y6549100D02*
D03*
Y6732600D02*
D03*
Y6916100D02*
D03*
D69*
X11709400Y14960600D02*
D03*
Y15275601D02*
D03*
D70*
X11658498Y17149902D02*
D03*
Y17444897D02*
D03*
D71*
X11811000Y17297400D02*
D03*
D72*
X15260899Y16436101D02*
D03*
Y16536101D02*
D03*
Y16636101D02*
D03*
Y16736101D02*
D03*
Y16836099D02*
D03*
Y16936099D02*
D03*
Y17036099D02*
D03*
Y17136099D02*
D03*
Y17236099D02*
D03*
Y17336099D02*
D03*
Y17436099D02*
D03*
Y17536099D02*
D03*
X14380901D02*
D03*
Y17436099D02*
D03*
Y17336099D02*
D03*
Y17236099D02*
D03*
Y17136099D02*
D03*
Y17036099D02*
D03*
Y16936099D02*
D03*
Y16836099D02*
D03*
Y16736101D02*
D03*
Y16636101D02*
D03*
Y16536101D02*
D03*
Y16436101D02*
D03*
D73*
X15260899Y17651100D02*
D03*
X14380901D02*
D03*
D74*
X14620900Y16396101D02*
D03*
X14720900D02*
D03*
X14820900D02*
D03*
X14920900D02*
D03*
X15020900D02*
D03*
D78*
X15011400Y16078200D02*
D03*
Y16153201D02*
D03*
X14757401Y16079399D02*
D03*
Y16154401D02*
D03*
D79*
X11709400Y14490700D02*
D03*
Y14355699D02*
D03*
D80*
X16378702Y11416000D02*
D03*
Y11366002D02*
D03*
Y11316000D02*
D03*
Y11266002D02*
D03*
Y11216000D02*
D03*
Y11166003D02*
D03*
Y11116000D02*
D03*
Y11065998D02*
D03*
Y11016000D02*
D03*
Y10965998D02*
D03*
Y10916001D02*
D03*
Y10865998D02*
D03*
Y10816001D02*
D03*
Y10765998D02*
D03*
Y10716001D02*
D03*
Y10665998D02*
D03*
Y10616001D02*
D03*
Y10565999D02*
D03*
Y10516001D02*
D03*
Y10465999D02*
D03*
Y10416002D02*
D03*
Y10365999D02*
D03*
Y10316002D02*
D03*
Y10265999D02*
D03*
Y10216002D02*
D03*
Y10165999D02*
D03*
Y10116002D02*
D03*
Y10066000D02*
D03*
Y10016002D02*
D03*
Y9966000D02*
D03*
Y9916003D02*
D03*
Y9866000D02*
D03*
Y9815998D02*
D03*
Y9766000D02*
D03*
Y9715998D02*
D03*
Y9666000D02*
D03*
X14253699D02*
D03*
Y9715998D02*
D03*
Y9766000D02*
D03*
Y9815998D02*
D03*
Y9866000D02*
D03*
Y9916003D02*
D03*
Y9966000D02*
D03*
Y10016002D02*
D03*
Y10066000D02*
D03*
Y10116002D02*
D03*
Y10165999D02*
D03*
Y10216002D02*
D03*
Y10265999D02*
D03*
Y10316002D02*
D03*
Y10365999D02*
D03*
Y10416002D02*
D03*
Y10465999D02*
D03*
Y10516001D02*
D03*
Y10565999D02*
D03*
Y10616001D02*
D03*
Y10665998D02*
D03*
Y10716001D02*
D03*
Y10765998D02*
D03*
Y10816001D02*
D03*
Y10865998D02*
D03*
Y10916001D02*
D03*
Y10965998D02*
D03*
Y11016000D02*
D03*
Y11065998D02*
D03*
Y11116000D02*
D03*
Y11166003D02*
D03*
Y11216000D02*
D03*
Y11266002D02*
D03*
Y11316000D02*
D03*
Y11366002D02*
D03*
Y11416000D02*
D03*
D82*
X12066200Y14209448D02*
D03*
D83*
X12116202D02*
D03*
X12166200D02*
D03*
X12216202D02*
D03*
Y14492552D02*
D03*
X12166200D02*
D03*
X12116202D02*
D03*
X12066200D02*
D03*
D177*
X12261750Y17335500D02*
G03*
X12261750Y17335500I-6250J0D01*
G01*
Y17295500D02*
G03*
X12261750Y17295500I-6250J0D01*
G01*
Y17255499D02*
G03*
X12261750Y17255499I-6250J0D01*
G01*
X12221750D02*
G03*
X12221750Y17255499I-6250J0D01*
G01*
Y17295500D02*
G03*
X12221750Y17295500I-6250J0D01*
G01*
Y17335500D02*
G03*
X12221750Y17335500I-6250J0D01*
G01*
D178*
X10464800Y14122400D02*
D03*
D179*
X20337000Y6167600D02*
D03*
X19287000D02*
D03*
X20337000Y6527599D02*
D03*
X19287000D02*
D03*
X20337000Y7137601D02*
D03*
X19287000D02*
D03*
X20337000Y7497600D02*
D03*
X19287000D02*
D03*
X20337000Y5807601D02*
D03*
X19917001D02*
D03*
X19706999D02*
D03*
X19497002D02*
D03*
X19287000D02*
D03*
X20337000Y5987600D02*
D03*
X19917001D02*
D03*
X19706999D02*
D03*
X19497002D02*
D03*
X19287000D02*
D03*
X20337000Y7677600D02*
D03*
X19917001D02*
D03*
X19706999D02*
D03*
X19497002D02*
D03*
X19287000D02*
D03*
X20337000Y7857599D02*
D03*
X19917001D02*
D03*
X19706999D02*
D03*
X19497002D02*
D03*
X19287000D02*
D03*
D180*
X20127000Y5807601D02*
D03*
Y5987600D02*
D03*
Y7677600D02*
D03*
Y7857599D02*
D03*
D181*
X19262000Y8032600D02*
D03*
X19372002D02*
D03*
X19592000D02*
D03*
X19812000D02*
D03*
X20032001D02*
D03*
X20142001D02*
D03*
X20251999D02*
D03*
X20362001D02*
D03*
Y5632600D02*
D03*
X20251999D02*
D03*
X20142001D02*
D03*
X20032001D02*
D03*
X19812000D02*
D03*
X19592000D02*
D03*
X19372002D02*
D03*
X19262000D02*
D03*
D182*
X19482001Y8032600D02*
D03*
X19702000D02*
D03*
X19922000D02*
D03*
Y5632600D02*
D03*
X19702000D02*
D03*
X19482001D02*
D03*
D183*
X20512000Y7932600D02*
D03*
Y6942600D02*
D03*
Y6722600D02*
D03*
Y6502601D02*
D03*
Y5732600D02*
D03*
X19112001D02*
D03*
Y6502601D02*
D03*
Y6722600D02*
D03*
Y6942600D02*
D03*
Y7932600D02*
D03*
D184*
X20512000Y7822601D02*
D03*
Y7712598D02*
D03*
Y7602601D02*
D03*
Y7492599D02*
D03*
Y7382601D02*
D03*
Y7272599D02*
D03*
Y7162602D02*
D03*
Y7052600D02*
D03*
Y6832600D02*
D03*
Y6612600D02*
D03*
Y6392601D02*
D03*
Y6282599D02*
D03*
Y6172601D02*
D03*
Y6062599D02*
D03*
Y5952602D02*
D03*
Y5842599D02*
D03*
X19112001D02*
D03*
Y5952602D02*
D03*
Y6062599D02*
D03*
Y6172601D02*
D03*
Y6282599D02*
D03*
Y6392601D02*
D03*
Y6612600D02*
D03*
Y6832600D02*
D03*
Y7052600D02*
D03*
Y7162602D02*
D03*
Y7272599D02*
D03*
Y7382601D02*
D03*
Y7492599D02*
D03*
Y7602601D02*
D03*
Y7712598D02*
D03*
Y7822601D02*
D03*
D185*
X12141722Y14350999D02*
D03*
D186*
X14568098Y14005502D02*
D03*
X14618102D02*
D03*
X14668098D02*
D03*
X14718102D02*
D03*
X14568098Y14315498D02*
D03*
X14618102D02*
D03*
X14668098D02*
D03*
X14718102D02*
D03*
X15875401Y14290099D02*
D03*
X15825404D02*
D03*
X15925398Y13980103D02*
D03*
X15875401D02*
D03*
X15825404D02*
D03*
X16714404Y14005502D02*
D03*
X16764401D02*
D03*
X16814400D02*
D03*
X16714404Y14315498D02*
D03*
X16764401D02*
D03*
X13766399Y13980103D02*
D03*
X13816402D02*
D03*
X13716402Y14290099D02*
D03*
D187*
X15975398D02*
D03*
Y13980103D02*
D03*
X16864400Y14005502D02*
D03*
Y14315498D02*
D03*
X13666402Y14290099D02*
D03*
D188*
X15925398Y14290102D02*
D03*
X16814400Y14315501D02*
D03*
X13716402Y13980099D02*
D03*
X13766399Y14290102D02*
D03*
X13816402D02*
D03*
D189*
X13666402Y13980099D02*
D03*
%TF.MD5,375c90db26a79d0c187bc30991f26343*%
M02*
