%TF.GenerationSoftware,Altium Limited,Altium Designer,23.9.2 (47)*%
G04 Layer_Physical_Order=2*
G04 Layer_Color=6736896*
%FSLAX45Y45*%
%MOMM*%
%TF.SameCoordinates,7747E0AE-D8E6-467E-A507-EEFEC3D8B4F9*%
%TF.FilePolarity,Positive*%
%TF.FileFunction,Copper,L2,Inr,Signal*%
%TF.Part,Single*%
G01*
G75*
%TA.AperFunction,Conductor*%
%ADD11C,0.25400*%
%ADD84C,0.12700*%
%TA.AperFunction,ComponentPad*%
%ADD86C,1.57000*%
%ADD87R,1.57000X1.57000*%
%ADD88R,1.57000X1.57000*%
%ADD89C,1.45000*%
%ADD90C,1.60000*%
G04:AMPARAMS|DCode=91|XSize=1.6mm|YSize=1.6mm|CornerRadius=0.4mm|HoleSize=0mm|Usage=FLASHONLY|Rotation=0.000|XOffset=0mm|YOffset=0mm|HoleType=Round|Shape=RoundedRectangle|*
%AMROUNDEDRECTD91*
21,1,1.60000,0.80000,0,0,0.0*
21,1,0.80000,1.60000,0,0,0.0*
1,1,0.80000,0.40000,-0.40000*
1,1,0.80000,-0.40000,-0.40000*
1,1,0.80000,-0.40000,0.40000*
1,1,0.80000,0.40000,0.40000*
%
%ADD91ROUNDEDRECTD91*%
G04:AMPARAMS|DCode=92|XSize=1.6mm|YSize=1.6mm|CornerRadius=0.4mm|HoleSize=0mm|Usage=FLASHONLY|Rotation=270.000|XOffset=0mm|YOffset=0mm|HoleType=Round|Shape=RoundedRectangle|*
%AMROUNDEDRECTD92*
21,1,1.60000,0.80000,0,0,270.0*
21,1,0.80000,1.60000,0,0,270.0*
1,1,0.80000,-0.40000,-0.40000*
1,1,0.80000,-0.40000,0.40000*
1,1,0.80000,0.40000,0.40000*
1,1,0.80000,0.40000,-0.40000*
%
%ADD92ROUNDEDRECTD92*%
%TA.AperFunction,ViaPad*%
%ADD93C,5.08000*%
%TA.AperFunction,ComponentPad*%
%ADD94C,1.67000*%
%ADD95R,1.67000X1.67000*%
%ADD96R,1.40000X1.40000*%
%ADD97C,1.40000*%
%ADD98R,1.39000X1.39000*%
%ADD99R,1.38900X1.38900*%
%ADD100C,1.38900*%
%ADD101R,1.39000X1.39000*%
%ADD102R,1.80000X1.80000*%
%ADD103C,1.80000*%
%ADD104R,1.55000X1.55000*%
%ADD105C,1.55000*%
%ADD106R,1.55000X1.55000*%
%TA.AperFunction,ViaPad*%
%ADD107C,1.27000*%
%ADD108C,0.50000*%
%ADD109C,1.39000*%
G36*
X25209500Y17411699D02*
Y17411699D01*
X25222008Y17411699D01*
X25246544Y17406819D01*
X25269656Y17397244D01*
X25290457Y17383347D01*
X25308147Y17365657D01*
X25322046Y17344856D01*
X25331619Y17321744D01*
X25336501Y17297208D01*
X25336499Y17284700D01*
X25336501Y8382000D01*
X25336497Y8381998D01*
Y8369490D01*
X25331618Y8344954D01*
X25322044Y8321842D01*
X25308147Y8301042D01*
X25290456Y8283352D01*
X25269656Y8269454D01*
X25246544Y8259880D01*
X25222008Y8255000D01*
X22402992D01*
X22378455Y8259880D01*
X22355344Y8269454D01*
X22334541Y8283352D01*
X22316852Y8301042D01*
X22302954Y8321843D01*
X22293381Y8344955D01*
X22288499Y8369492D01*
Y8382000D01*
Y17284700D01*
Y17297208D01*
X22293381Y17321744D01*
X22302954Y17344856D01*
X22316852Y17365659D01*
X22334541Y17383347D01*
X22355344Y17397246D01*
X22378455Y17406819D01*
X22402992Y17411700D01*
X25209499D01*
X25209500Y17411699D01*
D02*
G37*
%LPC*%
G36*
X25107899Y11861533D02*
Y11785600D01*
X25183833D01*
X25178043Y11807214D01*
X25166338Y11827486D01*
X25149786Y11844038D01*
X25129514Y11855742D01*
X25107899Y11861533D01*
D02*
G37*
G36*
X25082500D02*
X25060886Y11855742D01*
X25040614Y11844038D01*
X25024062Y11827486D01*
X25012358Y11807214D01*
X25006567Y11785600D01*
X25082500D01*
Y11861533D01*
D02*
G37*
G36*
X24904700D02*
Y11785600D01*
X24980634D01*
X24974841Y11807214D01*
X24963138Y11827486D01*
X24946587Y11844038D01*
X24926314Y11855742D01*
X24904700Y11861533D01*
D02*
G37*
G36*
X24879300D02*
X24857686Y11855742D01*
X24837415Y11844038D01*
X24820862Y11827486D01*
X24809158Y11807214D01*
X24803368Y11785600D01*
X24879300D01*
Y11861533D01*
D02*
G37*
G36*
X24701500D02*
Y11785600D01*
X24777432D01*
X24771642Y11807214D01*
X24759938Y11827486D01*
X24743385Y11844038D01*
X24723114Y11855742D01*
X24701500Y11861533D01*
D02*
G37*
G36*
X24676100D02*
X24654486Y11855742D01*
X24634213Y11844038D01*
X24617662Y11827486D01*
X24605959Y11807214D01*
X24600166Y11785600D01*
X24676100D01*
Y11861533D01*
D02*
G37*
G36*
X24498300D02*
Y11785600D01*
X24574232D01*
X24568442Y11807214D01*
X24556738Y11827486D01*
X24540186Y11844038D01*
X24519914Y11855742D01*
X24498300Y11861533D01*
D02*
G37*
G36*
X24472900D02*
X24451286Y11855742D01*
X24431013Y11844038D01*
X24414462Y11827486D01*
X24402757Y11807214D01*
X24396967Y11785600D01*
X24472900D01*
Y11861533D01*
D02*
G37*
G36*
X24295100D02*
Y11785600D01*
X24371033D01*
X24365242Y11807214D01*
X24353539Y11827486D01*
X24336986Y11844038D01*
X24316714Y11855742D01*
X24295100Y11861533D01*
D02*
G37*
G36*
X24269701D02*
X24248087Y11855742D01*
X24227814Y11844038D01*
X24211263Y11827486D01*
X24199557Y11807214D01*
X24193767Y11785600D01*
X24269701D01*
Y11861533D01*
D02*
G37*
G36*
X24091901D02*
Y11785600D01*
X24167833D01*
X24162042Y11807214D01*
X24150339Y11827486D01*
X24133786Y11844038D01*
X24113515Y11855742D01*
X24091901Y11861533D01*
D02*
G37*
G36*
X24066499D02*
X24044885Y11855742D01*
X24024614Y11844038D01*
X24008063Y11827486D01*
X23996358Y11807214D01*
X23990567Y11785600D01*
X24066499D01*
Y11861533D01*
D02*
G37*
G36*
X23888699D02*
Y11785600D01*
X23964633D01*
X23958842Y11807214D01*
X23947137Y11827486D01*
X23930586Y11844038D01*
X23910313Y11855742D01*
X23888699Y11861533D01*
D02*
G37*
G36*
X23863300D02*
X23841685Y11855742D01*
X23821414Y11844038D01*
X23804861Y11827486D01*
X23793158Y11807214D01*
X23787367Y11785600D01*
X23863300D01*
Y11861533D01*
D02*
G37*
G36*
X23685500D02*
Y11785600D01*
X23761433D01*
X23755643Y11807214D01*
X23743938Y11827486D01*
X23727386Y11844038D01*
X23707114Y11855742D01*
X23685500Y11861533D01*
D02*
G37*
G36*
X23660100D02*
X23638486Y11855742D01*
X23618214Y11844038D01*
X23601662Y11827486D01*
X23589958Y11807214D01*
X23584167Y11785600D01*
X23660100D01*
Y11861533D01*
D02*
G37*
G36*
X23482300D02*
Y11785600D01*
X23558234D01*
X23552441Y11807214D01*
X23540738Y11827486D01*
X23524187Y11844038D01*
X23503914Y11855742D01*
X23482300Y11861533D01*
D02*
G37*
G36*
X23456900D02*
X23435286Y11855742D01*
X23415015Y11844038D01*
X23398462Y11827486D01*
X23386758Y11807214D01*
X23380968Y11785600D01*
X23456900D01*
Y11861533D01*
D02*
G37*
G36*
X23279100D02*
Y11785600D01*
X23355032D01*
X23349242Y11807214D01*
X23337538Y11827486D01*
X23320985Y11844038D01*
X23300714Y11855742D01*
X23279100Y11861533D01*
D02*
G37*
G36*
X23253700D02*
X23232086Y11855742D01*
X23211813Y11844038D01*
X23195262Y11827486D01*
X23183559Y11807214D01*
X23177766Y11785600D01*
X23253700D01*
Y11861533D01*
D02*
G37*
G36*
X23075900D02*
Y11785600D01*
X23151833D01*
X23146042Y11807214D01*
X23134338Y11827486D01*
X23117786Y11844038D01*
X23097514Y11855742D01*
X23075900Y11861533D01*
D02*
G37*
G36*
X23050500D02*
X23028886Y11855742D01*
X23008614Y11844038D01*
X22992062Y11827486D01*
X22980357Y11807214D01*
X22974567Y11785600D01*
X23050500D01*
Y11861533D01*
D02*
G37*
G36*
X22872701D02*
Y11785600D01*
X22948633D01*
X22942842Y11807214D01*
X22931139Y11827486D01*
X22914586Y11844038D01*
X22894315Y11855742D01*
X22872701Y11861533D01*
D02*
G37*
G36*
X22847301D02*
X22825687Y11855742D01*
X22805414Y11844038D01*
X22788863Y11827486D01*
X22777158Y11807214D01*
X22771367Y11785600D01*
X22847301D01*
Y11861533D01*
D02*
G37*
G36*
X22669501D02*
Y11785600D01*
X22745433D01*
X22739642Y11807214D01*
X22727937Y11827486D01*
X22711386Y11844038D01*
X22691113Y11855742D01*
X22669501Y11861533D01*
D02*
G37*
G36*
X22644099D02*
X22622485Y11855742D01*
X22602214Y11844038D01*
X22585661Y11827486D01*
X22573958Y11807214D01*
X22568167Y11785600D01*
X22644099D01*
Y11861533D01*
D02*
G37*
G36*
X22466299D02*
Y11785600D01*
X22542233D01*
X22536443Y11807214D01*
X22524738Y11827486D01*
X22508186Y11844038D01*
X22487914Y11855742D01*
X22466299Y11861533D01*
D02*
G37*
G36*
X22440900D02*
X22419286Y11855742D01*
X22399014Y11844038D01*
X22382462Y11827486D01*
X22370758Y11807214D01*
X22364967Y11785600D01*
X22440900D01*
Y11861533D01*
D02*
G37*
G36*
X25183833Y11760200D02*
X25107899D01*
Y11684267D01*
X25129514Y11690058D01*
X25149786Y11701762D01*
X25166338Y11718314D01*
X25178043Y11738586D01*
X25183833Y11760200D01*
D02*
G37*
G36*
X25082500D02*
X25006567D01*
X25012358Y11738586D01*
X25024062Y11718314D01*
X25040614Y11701762D01*
X25060886Y11690058D01*
X25082500Y11684267D01*
Y11760200D01*
D02*
G37*
G36*
X24980634D02*
X24904700D01*
Y11684267D01*
X24926314Y11690058D01*
X24946587Y11701762D01*
X24963138Y11718314D01*
X24974841Y11738586D01*
X24980634Y11760200D01*
D02*
G37*
G36*
X24879300D02*
X24803368D01*
X24809158Y11738586D01*
X24820862Y11718314D01*
X24837415Y11701762D01*
X24857686Y11690058D01*
X24879300Y11684267D01*
Y11760200D01*
D02*
G37*
G36*
X24777432D02*
X24701500D01*
Y11684267D01*
X24723114Y11690058D01*
X24743385Y11701762D01*
X24759938Y11718314D01*
X24771642Y11738586D01*
X24777432Y11760200D01*
D02*
G37*
G36*
X24676100D02*
X24600166D01*
X24605959Y11738586D01*
X24617662Y11718314D01*
X24634213Y11701762D01*
X24654486Y11690058D01*
X24676100Y11684267D01*
Y11760200D01*
D02*
G37*
G36*
X24574232D02*
X24498300D01*
Y11684267D01*
X24519914Y11690058D01*
X24540186Y11701762D01*
X24556738Y11718314D01*
X24568442Y11738586D01*
X24574232Y11760200D01*
D02*
G37*
G36*
X24472900D02*
X24396967D01*
X24402757Y11738586D01*
X24414462Y11718314D01*
X24431013Y11701762D01*
X24451286Y11690058D01*
X24472900Y11684267D01*
Y11760200D01*
D02*
G37*
G36*
X24371033D02*
X24295100D01*
Y11684267D01*
X24316714Y11690058D01*
X24336986Y11701762D01*
X24353539Y11718314D01*
X24365242Y11738586D01*
X24371033Y11760200D01*
D02*
G37*
G36*
X24269701D02*
X24193767D01*
X24199557Y11738586D01*
X24211263Y11718314D01*
X24227814Y11701762D01*
X24248087Y11690058D01*
X24269701Y11684267D01*
Y11760200D01*
D02*
G37*
G36*
X24167833D02*
X24091901D01*
Y11684267D01*
X24113515Y11690058D01*
X24133786Y11701762D01*
X24150339Y11718314D01*
X24162042Y11738586D01*
X24167833Y11760200D01*
D02*
G37*
G36*
X24066499D02*
X23990567D01*
X23996358Y11738586D01*
X24008063Y11718314D01*
X24024614Y11701762D01*
X24044885Y11690058D01*
X24066499Y11684267D01*
Y11760200D01*
D02*
G37*
G36*
X23964633D02*
X23888699D01*
Y11684267D01*
X23910313Y11690058D01*
X23930586Y11701762D01*
X23947137Y11718314D01*
X23958842Y11738586D01*
X23964633Y11760200D01*
D02*
G37*
G36*
X23863300D02*
X23787367D01*
X23793158Y11738586D01*
X23804861Y11718314D01*
X23821414Y11701762D01*
X23841685Y11690058D01*
X23863300Y11684267D01*
Y11760200D01*
D02*
G37*
G36*
X23761433D02*
X23685500D01*
Y11684267D01*
X23707114Y11690058D01*
X23727386Y11701762D01*
X23743938Y11718314D01*
X23755643Y11738586D01*
X23761433Y11760200D01*
D02*
G37*
G36*
X23660100D02*
X23584167D01*
X23589958Y11738586D01*
X23601662Y11718314D01*
X23618214Y11701762D01*
X23638486Y11690058D01*
X23660100Y11684267D01*
Y11760200D01*
D02*
G37*
G36*
X23558234D02*
X23482300D01*
Y11684267D01*
X23503914Y11690058D01*
X23524187Y11701762D01*
X23540738Y11718314D01*
X23552441Y11738586D01*
X23558234Y11760200D01*
D02*
G37*
G36*
X23456900D02*
X23380968D01*
X23386758Y11738586D01*
X23398462Y11718314D01*
X23415015Y11701762D01*
X23435286Y11690058D01*
X23456900Y11684267D01*
Y11760200D01*
D02*
G37*
G36*
X23355032D02*
X23279100D01*
Y11684267D01*
X23300714Y11690058D01*
X23320985Y11701762D01*
X23337538Y11718314D01*
X23349242Y11738586D01*
X23355032Y11760200D01*
D02*
G37*
G36*
X23253700D02*
X23177766D01*
X23183559Y11738586D01*
X23195262Y11718314D01*
X23211813Y11701762D01*
X23232086Y11690058D01*
X23253700Y11684267D01*
Y11760200D01*
D02*
G37*
G36*
X23151833D02*
X23075900D01*
Y11684267D01*
X23097514Y11690058D01*
X23117786Y11701762D01*
X23134338Y11718314D01*
X23146042Y11738586D01*
X23151833Y11760200D01*
D02*
G37*
G36*
X23050500D02*
X22974567D01*
X22980357Y11738586D01*
X22992062Y11718314D01*
X23008614Y11701762D01*
X23028886Y11690058D01*
X23050500Y11684267D01*
Y11760200D01*
D02*
G37*
G36*
X22948633D02*
X22872701D01*
Y11684267D01*
X22894315Y11690058D01*
X22914586Y11701762D01*
X22931139Y11718314D01*
X22942842Y11738586D01*
X22948633Y11760200D01*
D02*
G37*
G36*
X22847301D02*
X22771367D01*
X22777158Y11738586D01*
X22788863Y11718314D01*
X22805414Y11701762D01*
X22825687Y11690058D01*
X22847301Y11684267D01*
Y11760200D01*
D02*
G37*
G36*
X22745433D02*
X22669501D01*
Y11684267D01*
X22691113Y11690058D01*
X22711386Y11701762D01*
X22727937Y11718314D01*
X22739642Y11738586D01*
X22745433Y11760200D01*
D02*
G37*
G36*
X22644099D02*
X22568167D01*
X22573958Y11738586D01*
X22585661Y11718314D01*
X22602214Y11701762D01*
X22622485Y11690058D01*
X22644099Y11684267D01*
Y11760200D01*
D02*
G37*
G36*
X22542233D02*
X22466299D01*
Y11684267D01*
X22487914Y11690058D01*
X22508186Y11701762D01*
X22524738Y11718314D01*
X22536443Y11738586D01*
X22542233Y11760200D01*
D02*
G37*
G36*
X22440900D02*
X22364967D01*
X22370758Y11738586D01*
X22382462Y11718314D01*
X22399014Y11701762D01*
X22419286Y11690058D01*
X22440900Y11684267D01*
Y11760200D01*
D02*
G37*
G36*
X25247600Y11493233D02*
Y11417300D01*
X25323534D01*
X25317741Y11438914D01*
X25306038Y11459186D01*
X25289487Y11475738D01*
X25269214Y11487442D01*
X25247600Y11493233D01*
D02*
G37*
G36*
X25222200D02*
X25200586Y11487442D01*
X25180315Y11475738D01*
X25163762Y11459186D01*
X25152058Y11438914D01*
X25146268Y11417300D01*
X25222200D01*
Y11493233D01*
D02*
G37*
G36*
X25044400D02*
Y11417300D01*
X25120332D01*
X25114542Y11438914D01*
X25102838Y11459186D01*
X25086285Y11475738D01*
X25066014Y11487442D01*
X25044400Y11493233D01*
D02*
G37*
G36*
X25019000D02*
X24997386Y11487442D01*
X24977113Y11475738D01*
X24960562Y11459186D01*
X24948859Y11438914D01*
X24943066Y11417300D01*
X25019000D01*
Y11493233D01*
D02*
G37*
G36*
X24841200D02*
Y11417300D01*
X24917133D01*
X24911342Y11438914D01*
X24899638Y11459186D01*
X24883086Y11475738D01*
X24862814Y11487442D01*
X24841200Y11493233D01*
D02*
G37*
G36*
X24815800D02*
X24794186Y11487442D01*
X24773914Y11475738D01*
X24757362Y11459186D01*
X24745657Y11438914D01*
X24739867Y11417300D01*
X24815800D01*
Y11493233D01*
D02*
G37*
G36*
X24638000D02*
Y11417300D01*
X24713933D01*
X24708142Y11438914D01*
X24696439Y11459186D01*
X24679886Y11475738D01*
X24659615Y11487442D01*
X24638000Y11493233D01*
D02*
G37*
G36*
X24612601D02*
X24590987Y11487442D01*
X24570714Y11475738D01*
X24554163Y11459186D01*
X24542458Y11438914D01*
X24536667Y11417300D01*
X24612601D01*
Y11493233D01*
D02*
G37*
G36*
X24434801D02*
Y11417300D01*
X24510733D01*
X24504942Y11438914D01*
X24493237Y11459186D01*
X24476686Y11475738D01*
X24456413Y11487442D01*
X24434801Y11493233D01*
D02*
G37*
G36*
X24409399D02*
X24387785Y11487442D01*
X24367514Y11475738D01*
X24350961Y11459186D01*
X24339258Y11438914D01*
X24333467Y11417300D01*
X24409399D01*
Y11493233D01*
D02*
G37*
G36*
X24231599D02*
Y11417300D01*
X24307533D01*
X24301743Y11438914D01*
X24290038Y11459186D01*
X24273486Y11475738D01*
X24253214Y11487442D01*
X24231599Y11493233D01*
D02*
G37*
G36*
X24206200D02*
X24184586Y11487442D01*
X24164314Y11475738D01*
X24147762Y11459186D01*
X24136058Y11438914D01*
X24130267Y11417300D01*
X24206200D01*
Y11493233D01*
D02*
G37*
G36*
X24028400D02*
Y11417300D01*
X24104333D01*
X24098541Y11438914D01*
X24086838Y11459186D01*
X24070287Y11475738D01*
X24050014Y11487442D01*
X24028400Y11493233D01*
D02*
G37*
G36*
X24003000D02*
X23981386Y11487442D01*
X23961115Y11475738D01*
X23944562Y11459186D01*
X23932858Y11438914D01*
X23927068Y11417300D01*
X24003000D01*
Y11493233D01*
D02*
G37*
G36*
X23825200D02*
Y11417300D01*
X23901134D01*
X23895341Y11438914D01*
X23883638Y11459186D01*
X23867085Y11475738D01*
X23846814Y11487442D01*
X23825200Y11493233D01*
D02*
G37*
G36*
X23799800D02*
X23778186Y11487442D01*
X23757915Y11475738D01*
X23741362Y11459186D01*
X23729659Y11438914D01*
X23723866Y11417300D01*
X23799800D01*
Y11493233D01*
D02*
G37*
G36*
X23622000D02*
Y11417300D01*
X23697932D01*
X23692142Y11438914D01*
X23680438Y11459186D01*
X23663885Y11475738D01*
X23643614Y11487442D01*
X23622000Y11493233D01*
D02*
G37*
G36*
X23596600D02*
X23574986Y11487442D01*
X23554713Y11475738D01*
X23538162Y11459186D01*
X23526459Y11438914D01*
X23520667Y11417300D01*
X23596600D01*
Y11493233D01*
D02*
G37*
G36*
X23418800D02*
Y11417300D01*
X23494733D01*
X23488942Y11438914D01*
X23477238Y11459186D01*
X23460686Y11475738D01*
X23440414Y11487442D01*
X23418800Y11493233D01*
D02*
G37*
G36*
X23393401D02*
X23371786Y11487442D01*
X23351514Y11475738D01*
X23334962Y11459186D01*
X23323257Y11438914D01*
X23317467Y11417300D01*
X23393401D01*
Y11493233D01*
D02*
G37*
G36*
X23215601D02*
Y11417300D01*
X23291533D01*
X23285742Y11438914D01*
X23274039Y11459186D01*
X23257486Y11475738D01*
X23237215Y11487442D01*
X23215601Y11493233D01*
D02*
G37*
G36*
X23190199D02*
X23168587Y11487442D01*
X23148314Y11475738D01*
X23131763Y11459186D01*
X23120058Y11438914D01*
X23114267Y11417300D01*
X23190199D01*
Y11493233D01*
D02*
G37*
G36*
X23012399D02*
Y11417300D01*
X23088333D01*
X23082542Y11438914D01*
X23070837Y11459186D01*
X23054286Y11475738D01*
X23034013Y11487442D01*
X23012399Y11493233D01*
D02*
G37*
G36*
X22987000D02*
X22965385Y11487442D01*
X22945114Y11475738D01*
X22928561Y11459186D01*
X22916858Y11438914D01*
X22911067Y11417300D01*
X22987000D01*
Y11493233D01*
D02*
G37*
G36*
X22809200D02*
Y11417300D01*
X22885133D01*
X22879343Y11438914D01*
X22867638Y11459186D01*
X22851086Y11475738D01*
X22830814Y11487442D01*
X22809200Y11493233D01*
D02*
G37*
G36*
X22783800D02*
X22762186Y11487442D01*
X22741914Y11475738D01*
X22725362Y11459186D01*
X22713658Y11438914D01*
X22707867Y11417300D01*
X22783800D01*
Y11493233D01*
D02*
G37*
G36*
X22606000D02*
Y11417300D01*
X22681934D01*
X22676141Y11438914D01*
X22664438Y11459186D01*
X22647887Y11475738D01*
X22627614Y11487442D01*
X22606000Y11493233D01*
D02*
G37*
G36*
X22580600D02*
X22558986Y11487442D01*
X22538715Y11475738D01*
X22522162Y11459186D01*
X22510458Y11438914D01*
X22504668Y11417300D01*
X22580600D01*
Y11493233D01*
D02*
G37*
G36*
X22402800D02*
Y11417300D01*
X22478732D01*
X22472942Y11438914D01*
X22461238Y11459186D01*
X22444685Y11475738D01*
X22424414Y11487442D01*
X22402800Y11493233D01*
D02*
G37*
G36*
X22377400D02*
X22355786Y11487442D01*
X22335513Y11475738D01*
X22318962Y11459186D01*
X22307259Y11438914D01*
X22301466Y11417300D01*
X22377400D01*
Y11493233D01*
D02*
G37*
G36*
X25323534Y11391900D02*
X25247600D01*
Y11315967D01*
X25269214Y11321758D01*
X25289487Y11333462D01*
X25306038Y11350014D01*
X25317741Y11370286D01*
X25323534Y11391900D01*
D02*
G37*
G36*
X25222200D02*
X25146268D01*
X25152058Y11370286D01*
X25163762Y11350014D01*
X25180315Y11333462D01*
X25200586Y11321758D01*
X25222200Y11315967D01*
Y11391900D01*
D02*
G37*
G36*
X25120332D02*
X25044400D01*
Y11315967D01*
X25066014Y11321758D01*
X25086285Y11333462D01*
X25102838Y11350014D01*
X25114542Y11370286D01*
X25120332Y11391900D01*
D02*
G37*
G36*
X25019000D02*
X24943066D01*
X24948859Y11370286D01*
X24960562Y11350014D01*
X24977113Y11333462D01*
X24997386Y11321758D01*
X25019000Y11315967D01*
Y11391900D01*
D02*
G37*
G36*
X24917133D02*
X24841200D01*
Y11315967D01*
X24862814Y11321758D01*
X24883086Y11333462D01*
X24899638Y11350014D01*
X24911342Y11370286D01*
X24917133Y11391900D01*
D02*
G37*
G36*
X24815800D02*
X24739867D01*
X24745657Y11370286D01*
X24757362Y11350014D01*
X24773914Y11333462D01*
X24794186Y11321758D01*
X24815800Y11315967D01*
Y11391900D01*
D02*
G37*
G36*
X24713933D02*
X24638000D01*
Y11315967D01*
X24659615Y11321758D01*
X24679886Y11333462D01*
X24696439Y11350014D01*
X24708142Y11370286D01*
X24713933Y11391900D01*
D02*
G37*
G36*
X24612601D02*
X24536667D01*
X24542458Y11370286D01*
X24554163Y11350014D01*
X24570714Y11333462D01*
X24590987Y11321758D01*
X24612601Y11315967D01*
Y11391900D01*
D02*
G37*
G36*
X24510733D02*
X24434801D01*
Y11315967D01*
X24456413Y11321758D01*
X24476686Y11333462D01*
X24493237Y11350014D01*
X24504942Y11370286D01*
X24510733Y11391900D01*
D02*
G37*
G36*
X24409399D02*
X24333467D01*
X24339258Y11370286D01*
X24350961Y11350014D01*
X24367514Y11333462D01*
X24387785Y11321758D01*
X24409399Y11315967D01*
Y11391900D01*
D02*
G37*
G36*
X24307533D02*
X24231599D01*
Y11315967D01*
X24253214Y11321758D01*
X24273486Y11333462D01*
X24290038Y11350014D01*
X24301743Y11370286D01*
X24307533Y11391900D01*
D02*
G37*
G36*
X24206200D02*
X24130267D01*
X24136058Y11370286D01*
X24147762Y11350014D01*
X24164314Y11333462D01*
X24184586Y11321758D01*
X24206200Y11315967D01*
Y11391900D01*
D02*
G37*
G36*
X24104333D02*
X24028400D01*
Y11315967D01*
X24050014Y11321758D01*
X24070287Y11333462D01*
X24086838Y11350014D01*
X24098541Y11370286D01*
X24104333Y11391900D01*
D02*
G37*
G36*
X24003000D02*
X23927068D01*
X23932858Y11370286D01*
X23944562Y11350014D01*
X23961115Y11333462D01*
X23981386Y11321758D01*
X24003000Y11315967D01*
Y11391900D01*
D02*
G37*
G36*
X23901134D02*
X23825200D01*
Y11315967D01*
X23846814Y11321758D01*
X23867085Y11333462D01*
X23883638Y11350014D01*
X23895341Y11370286D01*
X23901134Y11391900D01*
D02*
G37*
G36*
X23799800D02*
X23723866D01*
X23729659Y11370286D01*
X23741362Y11350014D01*
X23757915Y11333462D01*
X23778186Y11321758D01*
X23799800Y11315967D01*
Y11391900D01*
D02*
G37*
G36*
X23697932D02*
X23622000D01*
Y11315967D01*
X23643614Y11321758D01*
X23663885Y11333462D01*
X23680438Y11350014D01*
X23692142Y11370286D01*
X23697932Y11391900D01*
D02*
G37*
G36*
X23596600D02*
X23520667D01*
X23526459Y11370286D01*
X23538162Y11350014D01*
X23554713Y11333462D01*
X23574986Y11321758D01*
X23596600Y11315967D01*
Y11391900D01*
D02*
G37*
G36*
X23494733D02*
X23418800D01*
Y11315967D01*
X23440414Y11321758D01*
X23460686Y11333462D01*
X23477238Y11350014D01*
X23488942Y11370286D01*
X23494733Y11391900D01*
D02*
G37*
G36*
X23393401D02*
X23317467D01*
X23323257Y11370286D01*
X23334962Y11350014D01*
X23351514Y11333462D01*
X23371786Y11321758D01*
X23393401Y11315967D01*
Y11391900D01*
D02*
G37*
G36*
X23291533D02*
X23215601D01*
Y11315967D01*
X23237215Y11321758D01*
X23257486Y11333462D01*
X23274039Y11350014D01*
X23285742Y11370286D01*
X23291533Y11391900D01*
D02*
G37*
G36*
X23190199D02*
X23114267D01*
X23120058Y11370286D01*
X23131763Y11350014D01*
X23148314Y11333462D01*
X23168587Y11321758D01*
X23190199Y11315967D01*
Y11391900D01*
D02*
G37*
G36*
X23088333D02*
X23012399D01*
Y11315967D01*
X23034013Y11321758D01*
X23054286Y11333462D01*
X23070837Y11350014D01*
X23082542Y11370286D01*
X23088333Y11391900D01*
D02*
G37*
G36*
X22987000D02*
X22911067D01*
X22916858Y11370286D01*
X22928561Y11350014D01*
X22945114Y11333462D01*
X22965385Y11321758D01*
X22987000Y11315967D01*
Y11391900D01*
D02*
G37*
G36*
X22885133D02*
X22809200D01*
Y11315967D01*
X22830814Y11321758D01*
X22851086Y11333462D01*
X22867638Y11350014D01*
X22879343Y11370286D01*
X22885133Y11391900D01*
D02*
G37*
G36*
X22783800D02*
X22707867D01*
X22713658Y11370286D01*
X22725362Y11350014D01*
X22741914Y11333462D01*
X22762186Y11321758D01*
X22783800Y11315967D01*
Y11391900D01*
D02*
G37*
G36*
X22681934D02*
X22606000D01*
Y11315967D01*
X22627614Y11321758D01*
X22647887Y11333462D01*
X22664438Y11350014D01*
X22676141Y11370286D01*
X22681934Y11391900D01*
D02*
G37*
G36*
X22580600D02*
X22504668D01*
X22510458Y11370286D01*
X22522162Y11350014D01*
X22538715Y11333462D01*
X22558986Y11321758D01*
X22580600Y11315967D01*
Y11391900D01*
D02*
G37*
G36*
X22478732D02*
X22402800D01*
Y11315967D01*
X22424414Y11321758D01*
X22444685Y11333462D01*
X22461238Y11350014D01*
X22472942Y11370286D01*
X22478732Y11391900D01*
D02*
G37*
G36*
X22377400D02*
X22301466D01*
X22307259Y11370286D01*
X22318962Y11350014D01*
X22335513Y11333462D01*
X22355786Y11321758D01*
X22377400Y11315967D01*
Y11391900D01*
D02*
G37*
%LPD*%
D11*
X20452603Y2949702D02*
X20952602D01*
X21793201Y13474699D02*
Y14173199D01*
X20408900Y12090400D02*
X21793201Y13474699D01*
X20320000Y12128500D02*
X21488400Y13296899D01*
Y13576300D01*
X22453600Y7188200D02*
X22771100Y6870700D01*
X22275800Y7188200D02*
X22453600D01*
X17564101Y12331700D02*
X18757899D01*
X17348199Y12115800D02*
X17564101Y12331700D01*
X20726401Y15811501D02*
Y16421100D01*
Y13461800D02*
Y15811501D01*
X20942300Y16179800D02*
X21285201D01*
X19405800Y12141200D02*
X20726401Y13461800D01*
X20485100Y16662399D02*
X20726401Y16421100D01*
X20320000Y10922000D02*
Y12128500D01*
X11010900Y9982200D02*
X11176000Y10147300D01*
X12103100D01*
X19659801Y10363200D02*
X19888200D01*
X20408900Y10883900D01*
Y12090400D01*
X19532800Y10490200D02*
X19888200D01*
X20320000Y10922000D01*
X19405800Y10363200D02*
X19532800Y10490200D01*
X12801601Y8864600D02*
X12953999Y9017000D01*
X10134600Y8864600D02*
X12801601D01*
X9791700Y9207500D02*
X10134600Y8864600D01*
X13576300Y14732001D02*
X16230600D01*
X13233400D02*
X13576300D01*
X12433300Y15532100D02*
X13233400Y14732001D01*
X12433300Y15532100D02*
Y16446500D01*
X13017500Y17030701D01*
X17157700Y7594600D02*
X17246600Y7505700D01*
X17157700Y7594600D02*
Y9588500D01*
X17043401Y9702800D02*
X17157700Y9588500D01*
X13017500Y17030701D02*
X13220700D01*
D84*
X17183099Y13208000D02*
X19405600Y15430499D01*
X15138400Y13004800D02*
X15341600Y13208000D01*
X17183099D01*
X17195799Y13042900D02*
X19456400Y15303500D01*
X15532100Y13042900D02*
X17195799D01*
X14668500Y12750800D02*
X15481300Y13563600D01*
X17399001D02*
X19392900Y15557500D01*
X15481300Y13563600D02*
X17399001D01*
X19418300Y15938499D02*
X20104100D01*
X15303500Y13716000D02*
X17195799D01*
X19418300Y15938499D01*
X15278101Y13766800D02*
X17132300D01*
X19494501Y16128999D02*
X20167599D01*
X17132300Y13766800D02*
X19494501Y16128999D01*
X20167599D02*
X20358099Y15938499D01*
X20231100Y15303500D02*
X20358099Y15176500D01*
X19456400Y15303500D02*
X20231100D01*
X19405600Y15430499D02*
X20104100D01*
X19392900Y15557500D02*
X20231100D01*
X20358099Y15430499D01*
X17259300Y13665199D02*
X19405600Y15811501D01*
X20231100D02*
X20358099Y15684500D01*
X19405600Y15811501D02*
X20231100D01*
X19380200Y15684500D02*
X20104100D01*
X17310100Y13614400D02*
X19380200Y15684500D01*
X14160500Y12649200D02*
X15278101Y13766800D01*
X14300200Y12712700D02*
X15303500Y13716000D01*
X14414500Y12712700D02*
X15367000Y13665199D01*
X17259300D01*
X15417799Y13614400D02*
X17310100D01*
X14554201Y12750800D02*
X15417799Y13614400D01*
X14668500Y11925300D02*
Y12750800D01*
X14554201Y12115800D02*
Y12750800D01*
X14414500Y12306300D02*
Y12712700D01*
X14300200Y12484100D02*
Y12712700D01*
D86*
X18389600Y7226300D02*
D03*
Y7480300D02*
D03*
Y7734300D02*
D03*
Y7988300D02*
D03*
X13220700Y16014700D02*
D03*
Y16268700D02*
D03*
Y16522701D02*
D03*
Y16776700D02*
D03*
X8331200Y8991600D02*
D03*
X8077200D02*
D03*
X7823200D02*
D03*
X7569200D02*
D03*
X11214100Y6108700D02*
D03*
Y5854700D02*
D03*
Y5600700D02*
D03*
Y5346700D02*
D03*
D87*
X18389600Y8242300D02*
D03*
X13220700Y17030701D02*
D03*
X11214100Y5092700D02*
D03*
D88*
X7315200Y8991600D02*
D03*
D89*
X20952602Y2949702D02*
D03*
X20452603D02*
D03*
X20735100Y17378300D02*
D03*
X20235100D02*
D03*
D90*
X9715500Y4064000D02*
D03*
X9461500D02*
D03*
X9207500D02*
D03*
X8699500D02*
D03*
X8445500D02*
D03*
X7937500D02*
D03*
X7429500D02*
D03*
X7175500D02*
D03*
X7683500D02*
D03*
X8191500D02*
D03*
X8953500D02*
D03*
X21894800Y6680200D02*
D03*
Y7188200D02*
D03*
Y7696200D02*
D03*
Y7442200D02*
D03*
Y6934200D02*
D03*
Y6426200D02*
D03*
Y6172200D02*
D03*
X20637500Y4635500D02*
D03*
X20129500D02*
D03*
X19621500D02*
D03*
X19875500D02*
D03*
X20383501D02*
D03*
X20891499D02*
D03*
X21145500D02*
D03*
X17792700Y6210300D02*
D03*
Y6718300D02*
D03*
Y7226300D02*
D03*
Y6972300D02*
D03*
Y6464300D02*
D03*
Y5956300D02*
D03*
Y5702300D02*
D03*
D91*
X6921500Y4064000D02*
D03*
X19367500Y4635500D02*
D03*
D92*
X21894800Y7950200D02*
D03*
X17792700Y7480300D02*
D03*
D93*
X26009601Y17119600D02*
D03*
Y3200400D02*
D03*
X7010400D02*
D03*
Y17119600D02*
D03*
D94*
X7518400Y12052300D02*
D03*
D95*
Y11798300D02*
D03*
D96*
X20408897Y9042400D02*
D03*
X14859000Y15582899D02*
D03*
D97*
X20154898Y9042400D02*
D03*
X14605000Y15582899D02*
D03*
D98*
X9296600Y9931400D02*
D03*
X19659801Y9093200D02*
D03*
D99*
X20358099Y14160500D02*
D03*
D100*
Y14414500D02*
D03*
Y14668500D02*
D03*
Y14922501D02*
D03*
Y15176500D02*
D03*
Y15430499D02*
D03*
Y15684500D02*
D03*
Y15938499D02*
D03*
X20104100Y14160500D02*
D03*
Y14414500D02*
D03*
Y14668500D02*
D03*
Y14922501D02*
D03*
Y15176500D02*
D03*
Y15430499D02*
D03*
Y15684500D02*
D03*
Y15938499D02*
D03*
D101*
X12890500Y6553000D02*
D03*
D102*
X7467600Y9588500D02*
D03*
X10718798Y6642100D02*
D03*
D103*
X7467600Y9842500D02*
D03*
Y10096500D02*
D03*
Y10350500D02*
D03*
X10718798Y7404100D02*
D03*
Y7150100D02*
D03*
Y6896100D02*
D03*
D104*
X8686800Y8534400D02*
D03*
X16840199Y17183099D02*
D03*
D105*
X8686800Y8280400D02*
D03*
Y8026400D02*
D03*
X16840199Y16675101D02*
D03*
Y16929100D02*
D03*
X12217400Y13030200D02*
D03*
X11963400D02*
D03*
D106*
X11709400D02*
D03*
D107*
X8210550Y13855701D02*
D03*
X8445500Y12534900D02*
D03*
X6604000Y13881100D02*
D03*
X6858000Y13055600D02*
D03*
X7200900Y13703300D02*
D03*
X7010400Y13322301D02*
D03*
X8394700Y13512801D02*
D03*
X18910300Y16967200D02*
D03*
X21793201Y14173199D02*
D03*
X21094701Y13398500D02*
D03*
X20942300Y15252699D02*
D03*
X21120100Y14605000D02*
D03*
X21488400Y13576300D02*
D03*
X24828500Y6007100D02*
D03*
X8305800Y17297400D02*
D03*
X23456900Y6477000D02*
D03*
X23888699Y6781800D02*
D03*
X22771100Y6870700D02*
D03*
X17145000Y5549900D02*
D03*
X16903700Y5562600D02*
D03*
X18757899Y12331700D02*
D03*
X19215100Y13271500D02*
D03*
X17348199Y12115800D02*
D03*
X17589500Y12141200D02*
D03*
X17716499Y11963400D02*
D03*
X15963901Y12700000D02*
D03*
X15722600Y12065000D02*
D03*
X15316200Y12801601D02*
D03*
X15532100Y13042900D02*
D03*
X16789400Y11633200D02*
D03*
X8648700Y10668000D02*
D03*
X8140700D02*
D03*
X21310600Y2794000D02*
D03*
X20091400D02*
D03*
X21094701Y17525999D02*
D03*
X15544800Y17589500D02*
D03*
X21234399Y8394700D02*
D03*
Y8902700D02*
D03*
X7874000Y12052300D02*
D03*
X19608800Y16827499D02*
D03*
X18097501Y16789400D02*
D03*
X18275301Y16256000D02*
D03*
X17449800Y16586200D02*
D03*
X20828000Y16941800D02*
D03*
X21856700Y16128999D02*
D03*
X21120100Y15468600D02*
D03*
X20726401Y15811501D02*
D03*
X21285201Y16179800D02*
D03*
X20942300D02*
D03*
X20154900Y11277600D02*
D03*
X20751801Y12090400D02*
D03*
X21043900Y12268200D02*
D03*
X7823200Y14998700D02*
D03*
X7340600Y15049500D02*
D03*
X7213600Y15481300D02*
D03*
X7493000D02*
D03*
X9194800Y16929100D02*
D03*
X8915400Y15951199D02*
D03*
X7124700Y14185899D02*
D03*
X7874000Y11633200D02*
D03*
X9385300Y16459200D02*
D03*
X7848600Y14185899D02*
D03*
X8369300Y16167101D02*
D03*
X20485100Y16662399D02*
D03*
X20243800Y16522701D02*
D03*
X24244299Y7086600D02*
D03*
X22275800Y7188200D02*
D03*
X10629900Y8280400D02*
D03*
X10236200Y9194800D02*
D03*
X9474200Y8991600D02*
D03*
X9067800Y5867400D02*
D03*
X11010900Y9982200D02*
D03*
X9791700Y9207500D02*
D03*
X9601200Y9931400D02*
D03*
X13893800Y8496300D02*
D03*
X8178800Y10185400D02*
D03*
X15646400Y11366500D02*
D03*
X11976100Y16446500D02*
D03*
X22390100Y11404600D02*
D03*
X22593300D02*
D03*
X22796500D02*
D03*
X22999699D02*
D03*
X23202901D02*
D03*
X23406100D02*
D03*
X23609300D02*
D03*
X23812500D02*
D03*
X24015700D02*
D03*
X24218900D02*
D03*
X24422099D02*
D03*
X24625301D02*
D03*
X24828500D02*
D03*
X25031700D02*
D03*
X25234900D02*
D03*
X25095200Y11772900D02*
D03*
X24892000D02*
D03*
X24688800D02*
D03*
X24485600D02*
D03*
X24282401D02*
D03*
X24079201D02*
D03*
X23875999D02*
D03*
X23672800D02*
D03*
X23469600D02*
D03*
X23266400D02*
D03*
X23063200D02*
D03*
X22860001D02*
D03*
X22656799D02*
D03*
X22453600D02*
D03*
X21145500Y8013700D02*
D03*
X12306300Y16992599D02*
D03*
X12065000Y17564101D02*
D03*
X15925800Y15011400D02*
D03*
X16395700Y15709900D02*
D03*
X15430499Y15544800D02*
D03*
X12217400Y14871700D02*
D03*
X11290198Y17454703D02*
D03*
X12585700Y17157700D02*
D03*
X15570200Y14732001D02*
D03*
X16230600D02*
D03*
X14414500D02*
D03*
X13576300D02*
D03*
X13500101Y14427200D02*
D03*
X15532100Y15049500D02*
D03*
X12103100Y15481300D02*
D03*
X14173199Y15405099D02*
D03*
X13411200Y15811501D02*
D03*
X14160500Y15646400D02*
D03*
X14109700Y17183099D02*
D03*
X14033501Y17640300D02*
D03*
X6604000Y5511800D02*
D03*
Y4648200D02*
D03*
X6997700Y4876800D02*
D03*
X9740900Y13322301D02*
D03*
X9232900Y14109700D02*
D03*
X9525000Y14732001D02*
D03*
X10160000Y13855701D02*
D03*
X7874000Y15494000D02*
D03*
X16459200Y16560800D02*
D03*
X12344400Y9093200D02*
D03*
X11633200Y9182100D02*
D03*
X11328400Y9702800D02*
D03*
X12509500Y9791700D02*
D03*
X8788400Y9931400D02*
D03*
X16383000Y7353300D02*
D03*
X21920200Y12496800D02*
D03*
X20993100Y10490200D02*
D03*
X21742400Y10172700D02*
D03*
X20802600Y10198100D02*
D03*
X12103100Y10147300D02*
D03*
X12953999Y9017000D02*
D03*
X14465300Y8724900D02*
D03*
X13055600Y13398500D02*
D03*
X10147300Y14465300D02*
D03*
X10464800Y14554201D02*
D03*
X11049000Y14808200D02*
D03*
X11569700Y13436600D02*
D03*
X12420600Y13906500D02*
D03*
X10210800Y14884399D02*
D03*
X6896100Y15798801D02*
D03*
X6680200Y15049500D02*
D03*
X11480800Y13855701D02*
D03*
X12573000Y14439900D02*
D03*
X8699500Y11455400D02*
D03*
X9626600Y11696700D02*
D03*
X18211800Y10134600D02*
D03*
X18135600Y10985500D02*
D03*
X17754601Y10134600D02*
D03*
X16154401Y10718800D02*
D03*
X16141701Y10160000D02*
D03*
X16573500Y9410700D02*
D03*
X16878300Y9296400D02*
D03*
X17373599Y9842500D02*
D03*
X17043401Y9461500D02*
D03*
Y9702800D02*
D03*
X17246600Y7505700D02*
D03*
X16383000Y8712200D02*
D03*
Y8039100D02*
D03*
X13487399Y11722100D02*
D03*
X13309599Y11887200D02*
D03*
X13131799Y12026900D02*
D03*
X12953999Y12192000D02*
D03*
X12763500Y12331700D02*
D03*
X13817599Y11239500D02*
D03*
X13487399Y11150600D02*
D03*
X13309599Y11341100D02*
D03*
X13741400Y10680700D02*
D03*
X15512833Y13328433D02*
D03*
X16548100Y13423900D02*
D03*
X14363699Y13220700D02*
D03*
X14173199Y13093700D02*
D03*
X13855701Y13690601D02*
D03*
X14998700Y13817599D02*
D03*
Y13627100D02*
D03*
X14160500Y12649200D02*
D03*
X14300200Y12484100D02*
D03*
X14414500Y12306300D02*
D03*
X14554201Y12115800D02*
D03*
X14668500Y11925300D02*
D03*
X15138400Y13004800D02*
D03*
Y11366500D02*
D03*
X16370300Y12179300D02*
D03*
X16637000Y12153900D02*
D03*
X16865601Y12077700D02*
D03*
X17106900D02*
D03*
X16268700Y13423900D02*
D03*
X17017999Y11480800D02*
D03*
X16548100Y14084300D02*
D03*
X13728700Y12052300D02*
D03*
X13627100Y12611100D02*
D03*
X14605000Y10668000D02*
D03*
X13589000Y11506200D02*
D03*
X11811000Y14084300D02*
D03*
X12052300Y13957300D02*
D03*
X16040100Y9740900D02*
D03*
X15036800Y9728200D02*
D03*
X15570200D02*
D03*
X20789900Y7708900D02*
D03*
X16941800Y8547100D02*
D03*
X11290198Y17149902D02*
D03*
X6604000Y6261100D02*
D03*
X24485600Y7480300D02*
D03*
X24650700Y6540500D02*
D03*
X19088100Y5549900D02*
D03*
X20205701Y6832600D02*
D03*
X19481799Y6527800D02*
D03*
X19367500Y8305800D02*
D03*
X19113499Y8191500D02*
D03*
X18783299Y8102600D02*
D03*
X19875500Y17538699D02*
D03*
X15557500Y16383000D02*
D03*
Y17233900D02*
D03*
X16141701Y16738600D02*
D03*
Y11366500D02*
D03*
X14617700Y16598900D02*
D03*
X14897099Y14312900D02*
D03*
X14414500Y14478000D02*
D03*
X14312900Y14147800D02*
D03*
X15697200Y14071600D02*
D03*
X13754100Y16192500D02*
D03*
X16967200Y13423900D02*
D03*
X17106900Y13944600D02*
D03*
X16154401Y13931900D02*
D03*
X14008099Y13855701D02*
D03*
X15036800Y16776700D02*
D03*
X14579601Y16878300D02*
D03*
X17043401Y14312900D02*
D03*
X16141701Y14287500D02*
D03*
X13995399D02*
D03*
X16598900Y14452600D02*
D03*
X15671800Y14439900D02*
D03*
X13411200Y14122400D02*
D03*
X14617700Y11277600D02*
D03*
X19812000Y6184900D02*
D03*
X20142200Y6172200D02*
D03*
X19494501Y6184900D02*
D03*
X20154900Y6527800D02*
D03*
X20142200Y7137400D02*
D03*
X19494501D02*
D03*
X19812000Y7480300D02*
D03*
X20129500Y7493000D02*
D03*
X19494501D02*
D03*
X14185899Y9169400D02*
D03*
X14592300Y9728200D02*
D03*
X6477000Y7467600D02*
D03*
X7645400Y6540500D02*
D03*
X6807200D02*
D03*
X7213600Y7112000D02*
D03*
Y6350000D02*
D03*
X7645400Y6731000D02*
D03*
Y6921500D02*
D03*
X6807200Y6731000D02*
D03*
X7404100Y7112000D02*
D03*
X7035800D02*
D03*
X7404100Y6350000D02*
D03*
D108*
X7687700Y13034500D02*
D03*
X7577700D02*
D03*
X7687700Y13144501D02*
D03*
X7577700D02*
D03*
X7687700Y13254500D02*
D03*
X7577700D02*
D03*
D109*
X9042600Y12979401D02*
D03*
Y12725400D02*
D03*
Y12471400D02*
D03*
Y12217400D02*
D03*
Y11963400D02*
D03*
Y11709400D02*
D03*
Y11455400D02*
D03*
Y11201400D02*
D03*
Y10947400D02*
D03*
Y10693400D02*
D03*
Y10439400D02*
D03*
Y10185400D02*
D03*
Y9931400D02*
D03*
X9296600Y12979401D02*
D03*
Y12725400D02*
D03*
Y12471400D02*
D03*
Y12217400D02*
D03*
Y11963400D02*
D03*
Y11709400D02*
D03*
Y11455400D02*
D03*
Y11201400D02*
D03*
Y10947400D02*
D03*
Y10693400D02*
D03*
Y10439400D02*
D03*
Y10185400D02*
D03*
X19405800Y12141200D02*
D03*
Y11887200D02*
D03*
Y11633200D02*
D03*
Y11379200D02*
D03*
Y11125200D02*
D03*
Y10871200D02*
D03*
Y10617200D02*
D03*
Y10363200D02*
D03*
Y10109200D02*
D03*
Y9855200D02*
D03*
Y9601200D02*
D03*
Y9347200D02*
D03*
Y9093200D02*
D03*
X19659801Y12141200D02*
D03*
Y11887200D02*
D03*
Y11633200D02*
D03*
Y11379200D02*
D03*
Y11125200D02*
D03*
Y10871200D02*
D03*
Y10617200D02*
D03*
Y10363200D02*
D03*
Y10109200D02*
D03*
Y9855200D02*
D03*
Y9601200D02*
D03*
Y9347200D02*
D03*
X15938499Y6807000D02*
D03*
X15684500D02*
D03*
X15430499D02*
D03*
X15176500D02*
D03*
X14922501D02*
D03*
X14668500D02*
D03*
X14414500D02*
D03*
X14160500D02*
D03*
X13906500D02*
D03*
X13652499D02*
D03*
X13398500D02*
D03*
X13144501D02*
D03*
X12890500D02*
D03*
X15938499Y6553000D02*
D03*
X15684500D02*
D03*
X15430499D02*
D03*
X15176500D02*
D03*
X14922501D02*
D03*
X14668500D02*
D03*
X14414500D02*
D03*
X14160500D02*
D03*
X13906500D02*
D03*
X13652499D02*
D03*
X13398500D02*
D03*
X13144501D02*
D03*
%TF.MD5,b088483045dd18396f79e8f549913e47*%
M02*
