%TF.GenerationSoftware,Altium Limited,Altium Designer,23.9.2 (47)*%
G04 Layer_Physical_Order=1*
G04 Layer_Color=255*
%FSLAX45Y45*%
%MOMM*%
%TF.SameCoordinates,7747E0AE-D8E6-467E-A507-EEFEC3D8B4F9*%
%TF.FilePolarity,Positive*%
%TF.FileFunction,Copper,L1,Top,Signal*%
%TF.Part,Single*%
G01*
G75*
%TA.AperFunction,Conductor*%
%ADD10C,0.50000*%
%ADD11C,0.25400*%
%ADD12C,0.76200*%
%ADD13C,0.50800*%
%ADD14C,0.38100*%
%TA.AperFunction,SMDPad,CuDef*%
%ADD15R,0.54000X0.58000*%
%ADD16R,0.55000X0.55000*%
G04:AMPARAMS|DCode=17|XSize=2.4mm|YSize=3.38mm|CornerRadius=0.048mm|HoleSize=0mm|Usage=FLASHONLY|Rotation=0.000|XOffset=0mm|YOffset=0mm|HoleType=Round|Shape=RoundedRectangle|*
%AMROUNDEDRECTD17*
21,1,2.40000,3.28400,0,0,0.0*
21,1,2.30400,3.38000,0,0,0.0*
1,1,0.09600,1.15200,-1.64200*
1,1,0.09600,-1.15200,-1.64200*
1,1,0.09600,-1.15200,1.64200*
1,1,0.09600,1.15200,1.64200*
%
%ADD17ROUNDEDRECTD17*%
G04:AMPARAMS|DCode=18|XSize=0.35mm|YSize=1.45mm|CornerRadius=0.05075mm|HoleSize=0mm|Usage=FLASHONLY|Rotation=90.000|XOffset=0mm|YOffset=0mm|HoleType=Round|Shape=RoundedRectangle|*
%AMROUNDEDRECTD18*
21,1,0.35000,1.34850,0,0,90.0*
21,1,0.24850,1.45000,0,0,90.0*
1,1,0.10150,0.67425,0.12425*
1,1,0.10150,0.67425,-0.12425*
1,1,0.10150,-0.67425,-0.12425*
1,1,0.10150,-0.67425,0.12425*
%
%ADD18ROUNDEDRECTD18*%
%ADD19R,1.50822X1.30606*%
%ADD20R,0.50000X0.60000*%
%ADD21R,1.00000X0.75000*%
%ADD22R,0.75814X0.81213*%
%ADD23R,1.03000X1.00000*%
%ADD24R,0.48000X1.80000*%
%ADD25R,0.65000X1.30000*%
%ADD26R,1.60000X1.40000*%
%ADD27R,1.30000X1.55000*%
%ADD28R,0.40000X1.35000*%
%ADD29R,1.50000X1.90000*%
%ADD30R,0.24000X0.32000*%
%ADD31R,0.42000X0.22000*%
%ADD32R,0.65000X0.90000*%
%ADD33R,0.90000X0.75000*%
%ADD34R,0.58000X0.54000*%
%ADD35R,0.50000X0.45000*%
%ADD36R,0.45000X0.50000*%
%ADD37R,0.60000X0.55000*%
G04:AMPARAMS|DCode=38|XSize=0.76mm|YSize=0.6604mm|CornerRadius=0.08255mm|HoleSize=0mm|Usage=FLASHONLY|Rotation=0.000|XOffset=0mm|YOffset=0mm|HoleType=Round|Shape=RoundedRectangle|*
%AMROUNDEDRECTD38*
21,1,0.76000,0.49530,0,0,0.0*
21,1,0.59490,0.66040,0,0,0.0*
1,1,0.16510,0.29745,-0.24765*
1,1,0.16510,-0.29745,-0.24765*
1,1,0.16510,-0.29745,0.24765*
1,1,0.16510,0.29745,0.24765*
%
%ADD38ROUNDEDRECTD38*%
%ADD39R,3.68000X1.27000*%
%ADD40R,0.80000X0.90000*%
%ADD41R,0.80000X0.80000*%
%ADD42R,0.90000X0.95000*%
%ADD43R,0.65000X0.65000*%
G04:AMPARAMS|DCode=44|XSize=0.55mm|YSize=0.5mm|CornerRadius=0.0625mm|HoleSize=0mm|Usage=FLASHONLY|Rotation=0.000|XOffset=0mm|YOffset=0mm|HoleType=Round|Shape=RoundedRectangle|*
%AMROUNDEDRECTD44*
21,1,0.55000,0.37500,0,0,0.0*
21,1,0.42500,0.50000,0,0,0.0*
1,1,0.12500,0.21250,-0.18750*
1,1,0.12500,-0.21250,-0.18750*
1,1,0.12500,-0.21250,0.18750*
1,1,0.12500,0.21250,0.18750*
%
%ADD44ROUNDEDRECTD44*%
%ADD45R,0.65000X0.65000*%
G04:AMPARAMS|DCode=46|XSize=0.55mm|YSize=0.5mm|CornerRadius=0.0625mm|HoleSize=0mm|Usage=FLASHONLY|Rotation=270.000|XOffset=0mm|YOffset=0mm|HoleType=Round|Shape=RoundedRectangle|*
%AMROUNDEDRECTD46*
21,1,0.55000,0.37500,0,0,270.0*
21,1,0.42500,0.50000,0,0,270.0*
1,1,0.12500,-0.18750,-0.21250*
1,1,0.12500,-0.18750,0.21250*
1,1,0.12500,0.18750,0.21250*
1,1,0.12500,0.18750,-0.21250*
%
%ADD46ROUNDEDRECTD46*%
G04:AMPARAMS|DCode=47|XSize=0.76mm|YSize=0.6604mm|CornerRadius=0.08255mm|HoleSize=0mm|Usage=FLASHONLY|Rotation=90.000|XOffset=0mm|YOffset=0mm|HoleType=Round|Shape=RoundedRectangle|*
%AMROUNDEDRECTD47*
21,1,0.76000,0.49530,0,0,90.0*
21,1,0.59490,0.66040,0,0,90.0*
1,1,0.16510,0.24765,0.29745*
1,1,0.16510,0.24765,-0.29745*
1,1,0.16510,-0.24765,-0.29745*
1,1,0.16510,-0.24765,0.29745*
%
%ADD47ROUNDEDRECTD47*%
%ADD48R,0.51535X0.47247*%
%ADD49R,0.47247X0.51535*%
G04:AMPARAMS|DCode=50|XSize=0.65mm|YSize=1.65mm|CornerRadius=0.04875mm|HoleSize=0mm|Usage=FLASHONLY|Rotation=180.000|XOffset=0mm|YOffset=0mm|HoleType=Round|Shape=RoundedRectangle|*
%AMROUNDEDRECTD50*
21,1,0.65000,1.55250,0,0,180.0*
21,1,0.55250,1.65000,0,0,180.0*
1,1,0.09750,-0.27625,0.77625*
1,1,0.09750,0.27625,0.77625*
1,1,0.09750,0.27625,-0.77625*
1,1,0.09750,-0.27625,-0.77625*
%
%ADD50ROUNDEDRECTD50*%
%TA.AperFunction,BGAPad,CuDef*%
%ADD51R,0.25000X0.25000*%
%TA.AperFunction,SMDPad,CuDef*%
%ADD52R,0.62500X0.85000*%
%ADD53R,1.05000X2.20000*%
%ADD54R,1.00000X1.05000*%
%ADD55R,3.70000X1.40000*%
%ADD56R,5.60000X2.60000*%
%ADD57R,0.96822X1.00650*%
%ADD58R,1.35620X1.15443*%
%ADD59R,1.70000X1.10000*%
%ADD60R,0.29247X0.55607*%
G04:AMPARAMS|DCode=61|XSize=0.55607mm|YSize=0.29247mm|CornerRadius=0.14624mm|HoleSize=0mm|Usage=FLASHONLY|Rotation=90.000|XOffset=0mm|YOffset=0mm|HoleType=Round|Shape=RoundedRectangle|*
%AMROUNDEDRECTD61*
21,1,0.55607,0.00000,0,0,90.0*
21,1,0.26360,0.29247,0,0,90.0*
1,1,0.29247,0.00000,0.13180*
1,1,0.29247,0.00000,-0.13180*
1,1,0.29247,0.00000,-0.13180*
1,1,0.29247,0.00000,0.13180*
%
%ADD61ROUNDEDRECTD61*%
%ADD62R,0.80000X0.80000*%
%ADD63R,0.35000X1.35000*%
%ADD64R,0.55000X0.50000*%
%ADD65R,0.30000X0.80000*%
%ADD66R,0.90000X2.00000*%
%ADD67R,2.00000X0.90000*%
%TA.AperFunction,BGAPad,CuDef*%
%ADD68R,1.33000X1.33000*%
%TA.AperFunction,SMDPad,CuDef*%
%ADD69R,0.95000X0.90000*%
%ADD70R,2.20000X1.05000*%
%ADD71R,1.05000X1.00000*%
%ADD72R,1.50000X0.70000*%
%ADD73R,1.50000X1.00000*%
%ADD74R,0.70000X1.50000*%
%TA.AperFunction,BGAPad,SMDef*%
%ADD75R,1.10000X1.10000*%
%TA.AperFunction,SMDPad,SMDef*%
%ADD76R,0.80000X1.50000*%
%ADD77R,1.50000X0.80000*%
%TA.AperFunction,SMDPad,CuDef*%
%ADD78R,0.50000X0.55000*%
%ADD79R,0.95000X0.80000*%
%ADD80R,1.35000X0.35000*%
%ADD81R,2.48000X1.65000*%
%ADD82R,0.24247X0.88102*%
G04:AMPARAMS|DCode=83|XSize=0.88102mm|YSize=0.24247mm|CornerRadius=0.12124mm|HoleSize=0mm|Usage=FLASHONLY|Rotation=90.000|XOffset=0mm|YOffset=0mm|HoleType=Round|Shape=RoundedRectangle|*
%AMROUNDEDRECTD83*
21,1,0.88102,0.00000,0,0,90.0*
21,1,0.63854,0.24247,0,0,90.0*
1,1,0.24247,0.00000,0.31927*
1,1,0.24247,0.00000,-0.31927*
1,1,0.24247,0.00000,-0.31927*
1,1,0.24247,0.00000,0.31927*
%
%ADD83ROUNDEDRECTD83*%
%TA.AperFunction,Conductor*%
%ADD84C,0.12700*%
%TA.AperFunction,NonConductor*%
%ADD85C,0.25400*%
%TA.AperFunction,ComponentPad*%
%ADD86C,1.57000*%
%ADD87R,1.57000X1.57000*%
%ADD88R,1.57000X1.57000*%
%ADD89C,1.45000*%
%ADD90C,1.60000*%
G04:AMPARAMS|DCode=91|XSize=1.6mm|YSize=1.6mm|CornerRadius=0.4mm|HoleSize=0mm|Usage=FLASHONLY|Rotation=0.000|XOffset=0mm|YOffset=0mm|HoleType=Round|Shape=RoundedRectangle|*
%AMROUNDEDRECTD91*
21,1,1.60000,0.80000,0,0,0.0*
21,1,0.80000,1.60000,0,0,0.0*
1,1,0.80000,0.40000,-0.40000*
1,1,0.80000,-0.40000,-0.40000*
1,1,0.80000,-0.40000,0.40000*
1,1,0.80000,0.40000,0.40000*
%
%ADD91ROUNDEDRECTD91*%
G04:AMPARAMS|DCode=92|XSize=1.6mm|YSize=1.6mm|CornerRadius=0.4mm|HoleSize=0mm|Usage=FLASHONLY|Rotation=270.000|XOffset=0mm|YOffset=0mm|HoleType=Round|Shape=RoundedRectangle|*
%AMROUNDEDRECTD92*
21,1,1.60000,0.80000,0,0,270.0*
21,1,0.80000,1.60000,0,0,270.0*
1,1,0.80000,-0.40000,-0.40000*
1,1,0.80000,-0.40000,0.40000*
1,1,0.80000,0.40000,0.40000*
1,1,0.80000,0.40000,-0.40000*
%
%ADD92ROUNDEDRECTD92*%
%TA.AperFunction,ViaPad*%
%ADD93C,5.08000*%
%TA.AperFunction,ComponentPad*%
%ADD94C,1.67000*%
%ADD95R,1.67000X1.67000*%
%ADD96R,1.40000X1.40000*%
%ADD97C,1.40000*%
%ADD98R,1.39000X1.39000*%
%ADD99R,1.38900X1.38900*%
%ADD100C,1.38900*%
%ADD101R,1.39000X1.39000*%
%ADD102R,1.80000X1.80000*%
%ADD103C,1.80000*%
%ADD104R,1.55000X1.55000*%
%ADD105C,1.55000*%
%ADD106R,1.55000X1.55000*%
%TA.AperFunction,ViaPad*%
%ADD107C,1.27000*%
%ADD108C,0.50000*%
%ADD109C,1.39000*%
G36*
X20342603Y2634699D02*
Y2724702D01*
X20292603D01*
X20292604Y2634699D01*
X20342603D01*
D02*
G37*
G36*
X20472601Y2584702D02*
Y2774702D01*
X20342603D01*
Y2584702D01*
X20472601D01*
D02*
G37*
G36*
X20932602Y2774702D02*
Y2584702D01*
X21062602D01*
Y2774702D01*
X20932602D01*
D02*
G37*
G36*
X21062604Y2724705D02*
Y2634702D01*
X21112602D01*
X21112601Y2724705D01*
X21062604D01*
D02*
G37*
G36*
X25336499Y8369299D02*
X25336501Y8358042D01*
X25332108Y8335959D01*
X25323492Y8315157D01*
X25310983Y8296436D01*
X25295062Y8280516D01*
X25276340Y8268007D01*
X25255539Y8259391D01*
X25233456Y8254999D01*
X25222198Y8255000D01*
X22415500D01*
X22402991Y8255000D01*
X22378455Y8259880D01*
X22355344Y8269454D01*
X22334541Y8283352D01*
X22316853Y8301042D01*
X22302954Y8321842D01*
X22293381Y8344955D01*
X22288499Y8369490D01*
X22288501Y8381999D01*
Y8381999D01*
X22288499Y11511699D01*
X25336501Y11511700D01*
X25336499Y8369299D01*
D02*
G37*
G36*
X20895100Y17603300D02*
X20845100D01*
Y17693303D01*
X20895097D01*
X20895100Y17603300D01*
D02*
G37*
G36*
X20125099Y17603297D02*
X20075102D01*
X20075101Y17693300D01*
X20125099D01*
Y17603297D01*
D02*
G37*
G36*
X20845100Y17553300D02*
X20715100D01*
Y17743300D01*
X20845100D01*
Y17553300D01*
D02*
G37*
G36*
X20255099D02*
X20125101D01*
Y17743300D01*
X20255099D01*
Y17553300D01*
D02*
G37*
G36*
X25246544Y17406819D02*
X25269656Y17397244D01*
X25290457Y17383347D01*
X25308147Y17365657D01*
X25322044Y17344856D01*
X25331618Y17321744D01*
X25336497Y17297208D01*
X25336497Y17284698D01*
X25336497Y17284698D01*
X25336501Y17284698D01*
X25336501Y11653100D01*
X22288499Y11653100D01*
X22288499Y17284700D01*
X22288499Y17297208D01*
X22293381Y17321744D01*
X22302954Y17344856D01*
X22316852Y17365656D01*
X22334541Y17383347D01*
X22355342Y17397244D01*
X22378455Y17406818D01*
X22402991Y17411697D01*
X22415498D01*
X22415498Y17411697D01*
X25209500Y17411699D01*
X25222008Y17411700D01*
X25246544Y17406819D01*
D02*
G37*
%LPC*%
G36*
X25247600Y11493233D02*
Y11417300D01*
X25323534D01*
X25317741Y11438914D01*
X25306038Y11459186D01*
X25289487Y11475738D01*
X25269214Y11487442D01*
X25247600Y11493233D01*
D02*
G37*
G36*
X25222200D02*
X25200586Y11487442D01*
X25180315Y11475738D01*
X25163762Y11459186D01*
X25152058Y11438914D01*
X25146268Y11417300D01*
X25222200D01*
Y11493233D01*
D02*
G37*
G36*
X25044400D02*
Y11417300D01*
X25120332D01*
X25114542Y11438914D01*
X25102838Y11459186D01*
X25086285Y11475738D01*
X25066014Y11487442D01*
X25044400Y11493233D01*
D02*
G37*
G36*
X25019000D02*
X24997386Y11487442D01*
X24977113Y11475738D01*
X24960562Y11459186D01*
X24948859Y11438914D01*
X24943066Y11417300D01*
X25019000D01*
Y11493233D01*
D02*
G37*
G36*
X24841200D02*
Y11417300D01*
X24917133D01*
X24911342Y11438914D01*
X24899638Y11459186D01*
X24883086Y11475738D01*
X24862814Y11487442D01*
X24841200Y11493233D01*
D02*
G37*
G36*
X24815800D02*
X24794186Y11487442D01*
X24773914Y11475738D01*
X24757362Y11459186D01*
X24745657Y11438914D01*
X24739867Y11417300D01*
X24815800D01*
Y11493233D01*
D02*
G37*
G36*
X24638000D02*
Y11417300D01*
X24713933D01*
X24708142Y11438914D01*
X24696439Y11459186D01*
X24679886Y11475738D01*
X24659615Y11487442D01*
X24638000Y11493233D01*
D02*
G37*
G36*
X24612601D02*
X24590987Y11487442D01*
X24570714Y11475738D01*
X24554163Y11459186D01*
X24542458Y11438914D01*
X24536667Y11417300D01*
X24612601D01*
Y11493233D01*
D02*
G37*
G36*
X24434801D02*
Y11417300D01*
X24510733D01*
X24504942Y11438914D01*
X24493237Y11459186D01*
X24476686Y11475738D01*
X24456413Y11487442D01*
X24434801Y11493233D01*
D02*
G37*
G36*
X24409399D02*
X24387785Y11487442D01*
X24367514Y11475738D01*
X24350961Y11459186D01*
X24339258Y11438914D01*
X24333467Y11417300D01*
X24409399D01*
Y11493233D01*
D02*
G37*
G36*
X24231599D02*
Y11417300D01*
X24307533D01*
X24301743Y11438914D01*
X24290038Y11459186D01*
X24273486Y11475738D01*
X24253214Y11487442D01*
X24231599Y11493233D01*
D02*
G37*
G36*
X24206200D02*
X24184586Y11487442D01*
X24164314Y11475738D01*
X24147762Y11459186D01*
X24136058Y11438914D01*
X24130267Y11417300D01*
X24206200D01*
Y11493233D01*
D02*
G37*
G36*
X24028400D02*
Y11417300D01*
X24104333D01*
X24098541Y11438914D01*
X24086838Y11459186D01*
X24070287Y11475738D01*
X24050014Y11487442D01*
X24028400Y11493233D01*
D02*
G37*
G36*
X24003000D02*
X23981386Y11487442D01*
X23961115Y11475738D01*
X23944562Y11459186D01*
X23932858Y11438914D01*
X23927068Y11417300D01*
X24003000D01*
Y11493233D01*
D02*
G37*
G36*
X23825200D02*
Y11417300D01*
X23901134D01*
X23895341Y11438914D01*
X23883638Y11459186D01*
X23867085Y11475738D01*
X23846814Y11487442D01*
X23825200Y11493233D01*
D02*
G37*
G36*
X23799800D02*
X23778186Y11487442D01*
X23757915Y11475738D01*
X23741362Y11459186D01*
X23729659Y11438914D01*
X23723866Y11417300D01*
X23799800D01*
Y11493233D01*
D02*
G37*
G36*
X23622000D02*
Y11417300D01*
X23697932D01*
X23692142Y11438914D01*
X23680438Y11459186D01*
X23663885Y11475738D01*
X23643614Y11487442D01*
X23622000Y11493233D01*
D02*
G37*
G36*
X23596600D02*
X23574986Y11487442D01*
X23554713Y11475738D01*
X23538162Y11459186D01*
X23526459Y11438914D01*
X23520667Y11417300D01*
X23596600D01*
Y11493233D01*
D02*
G37*
G36*
X23418800D02*
Y11417300D01*
X23494733D01*
X23488942Y11438914D01*
X23477238Y11459186D01*
X23460686Y11475738D01*
X23440414Y11487442D01*
X23418800Y11493233D01*
D02*
G37*
G36*
X23393401D02*
X23371786Y11487442D01*
X23351514Y11475738D01*
X23334962Y11459186D01*
X23323257Y11438914D01*
X23317467Y11417300D01*
X23393401D01*
Y11493233D01*
D02*
G37*
G36*
X23215601D02*
Y11417300D01*
X23291533D01*
X23285742Y11438914D01*
X23274039Y11459186D01*
X23257486Y11475738D01*
X23237215Y11487442D01*
X23215601Y11493233D01*
D02*
G37*
G36*
X23190199D02*
X23168587Y11487442D01*
X23148314Y11475738D01*
X23131763Y11459186D01*
X23120058Y11438914D01*
X23114267Y11417300D01*
X23190199D01*
Y11493233D01*
D02*
G37*
G36*
X23012399D02*
Y11417300D01*
X23088333D01*
X23082542Y11438914D01*
X23070837Y11459186D01*
X23054286Y11475738D01*
X23034013Y11487442D01*
X23012399Y11493233D01*
D02*
G37*
G36*
X22987000D02*
X22965385Y11487442D01*
X22945114Y11475738D01*
X22928561Y11459186D01*
X22916858Y11438914D01*
X22911067Y11417300D01*
X22987000D01*
Y11493233D01*
D02*
G37*
G36*
X22809200D02*
Y11417300D01*
X22885133D01*
X22879343Y11438914D01*
X22867638Y11459186D01*
X22851086Y11475738D01*
X22830814Y11487442D01*
X22809200Y11493233D01*
D02*
G37*
G36*
X22783800D02*
X22762186Y11487442D01*
X22741914Y11475738D01*
X22725362Y11459186D01*
X22713658Y11438914D01*
X22707867Y11417300D01*
X22783800D01*
Y11493233D01*
D02*
G37*
G36*
X22606000D02*
Y11417300D01*
X22681934D01*
X22676141Y11438914D01*
X22664438Y11459186D01*
X22647887Y11475738D01*
X22627614Y11487442D01*
X22606000Y11493233D01*
D02*
G37*
G36*
X22580600D02*
X22558986Y11487442D01*
X22538715Y11475738D01*
X22522162Y11459186D01*
X22510458Y11438914D01*
X22504668Y11417300D01*
X22580600D01*
Y11493233D01*
D02*
G37*
G36*
X22402800D02*
Y11417300D01*
X22478732D01*
X22472942Y11438914D01*
X22461238Y11459186D01*
X22444685Y11475738D01*
X22424414Y11487442D01*
X22402800Y11493233D01*
D02*
G37*
G36*
X22377400D02*
X22355786Y11487442D01*
X22335513Y11475738D01*
X22318962Y11459186D01*
X22307259Y11438914D01*
X22301466Y11417300D01*
X22377400D01*
Y11493233D01*
D02*
G37*
G36*
X25323534Y11391900D02*
X25247600D01*
Y11315967D01*
X25269214Y11321758D01*
X25289487Y11333462D01*
X25306038Y11350014D01*
X25317741Y11370286D01*
X25323534Y11391900D01*
D02*
G37*
G36*
X25222200D02*
X25146268D01*
X25152058Y11370286D01*
X25163762Y11350014D01*
X25180315Y11333462D01*
X25200586Y11321758D01*
X25222200Y11315967D01*
Y11391900D01*
D02*
G37*
G36*
X25120332D02*
X25044400D01*
Y11315967D01*
X25066014Y11321758D01*
X25086285Y11333462D01*
X25102838Y11350014D01*
X25114542Y11370286D01*
X25120332Y11391900D01*
D02*
G37*
G36*
X25019000D02*
X24943066D01*
X24948859Y11370286D01*
X24960562Y11350014D01*
X24977113Y11333462D01*
X24997386Y11321758D01*
X25019000Y11315967D01*
Y11391900D01*
D02*
G37*
G36*
X24917133D02*
X24841200D01*
Y11315967D01*
X24862814Y11321758D01*
X24883086Y11333462D01*
X24899638Y11350014D01*
X24911342Y11370286D01*
X24917133Y11391900D01*
D02*
G37*
G36*
X24815800D02*
X24739867D01*
X24745657Y11370286D01*
X24757362Y11350014D01*
X24773914Y11333462D01*
X24794186Y11321758D01*
X24815800Y11315967D01*
Y11391900D01*
D02*
G37*
G36*
X24713933D02*
X24638000D01*
Y11315967D01*
X24659615Y11321758D01*
X24679886Y11333462D01*
X24696439Y11350014D01*
X24708142Y11370286D01*
X24713933Y11391900D01*
D02*
G37*
G36*
X24612601D02*
X24536667D01*
X24542458Y11370286D01*
X24554163Y11350014D01*
X24570714Y11333462D01*
X24590987Y11321758D01*
X24612601Y11315967D01*
Y11391900D01*
D02*
G37*
G36*
X24510733D02*
X24434801D01*
Y11315967D01*
X24456413Y11321758D01*
X24476686Y11333462D01*
X24493237Y11350014D01*
X24504942Y11370286D01*
X24510733Y11391900D01*
D02*
G37*
G36*
X24409399D02*
X24333467D01*
X24339258Y11370286D01*
X24350961Y11350014D01*
X24367514Y11333462D01*
X24387785Y11321758D01*
X24409399Y11315967D01*
Y11391900D01*
D02*
G37*
G36*
X24307533D02*
X24231599D01*
Y11315967D01*
X24253214Y11321758D01*
X24273486Y11333462D01*
X24290038Y11350014D01*
X24301743Y11370286D01*
X24307533Y11391900D01*
D02*
G37*
G36*
X24206200D02*
X24130267D01*
X24136058Y11370286D01*
X24147762Y11350014D01*
X24164314Y11333462D01*
X24184586Y11321758D01*
X24206200Y11315967D01*
Y11391900D01*
D02*
G37*
G36*
X24104333D02*
X24028400D01*
Y11315967D01*
X24050014Y11321758D01*
X24070287Y11333462D01*
X24086838Y11350014D01*
X24098541Y11370286D01*
X24104333Y11391900D01*
D02*
G37*
G36*
X24003000D02*
X23927068D01*
X23932858Y11370286D01*
X23944562Y11350014D01*
X23961115Y11333462D01*
X23981386Y11321758D01*
X24003000Y11315967D01*
Y11391900D01*
D02*
G37*
G36*
X23901134D02*
X23825200D01*
Y11315967D01*
X23846814Y11321758D01*
X23867085Y11333462D01*
X23883638Y11350014D01*
X23895341Y11370286D01*
X23901134Y11391900D01*
D02*
G37*
G36*
X23799800D02*
X23723866D01*
X23729659Y11370286D01*
X23741362Y11350014D01*
X23757915Y11333462D01*
X23778186Y11321758D01*
X23799800Y11315967D01*
Y11391900D01*
D02*
G37*
G36*
X23697932D02*
X23622000D01*
Y11315967D01*
X23643614Y11321758D01*
X23663885Y11333462D01*
X23680438Y11350014D01*
X23692142Y11370286D01*
X23697932Y11391900D01*
D02*
G37*
G36*
X23596600D02*
X23520667D01*
X23526459Y11370286D01*
X23538162Y11350014D01*
X23554713Y11333462D01*
X23574986Y11321758D01*
X23596600Y11315967D01*
Y11391900D01*
D02*
G37*
G36*
X23494733D02*
X23418800D01*
Y11315967D01*
X23440414Y11321758D01*
X23460686Y11333462D01*
X23477238Y11350014D01*
X23488942Y11370286D01*
X23494733Y11391900D01*
D02*
G37*
G36*
X23393401D02*
X23317467D01*
X23323257Y11370286D01*
X23334962Y11350014D01*
X23351514Y11333462D01*
X23371786Y11321758D01*
X23393401Y11315967D01*
Y11391900D01*
D02*
G37*
G36*
X23291533D02*
X23215601D01*
Y11315967D01*
X23237215Y11321758D01*
X23257486Y11333462D01*
X23274039Y11350014D01*
X23285742Y11370286D01*
X23291533Y11391900D01*
D02*
G37*
G36*
X23190199D02*
X23114267D01*
X23120058Y11370286D01*
X23131763Y11350014D01*
X23148314Y11333462D01*
X23168587Y11321758D01*
X23190199Y11315967D01*
Y11391900D01*
D02*
G37*
G36*
X23088333D02*
X23012399D01*
Y11315967D01*
X23034013Y11321758D01*
X23054286Y11333462D01*
X23070837Y11350014D01*
X23082542Y11370286D01*
X23088333Y11391900D01*
D02*
G37*
G36*
X22987000D02*
X22911067D01*
X22916858Y11370286D01*
X22928561Y11350014D01*
X22945114Y11333462D01*
X22965385Y11321758D01*
X22987000Y11315967D01*
Y11391900D01*
D02*
G37*
G36*
X22885133D02*
X22809200D01*
Y11315967D01*
X22830814Y11321758D01*
X22851086Y11333462D01*
X22867638Y11350014D01*
X22879343Y11370286D01*
X22885133Y11391900D01*
D02*
G37*
G36*
X22783800D02*
X22707867D01*
X22713658Y11370286D01*
X22725362Y11350014D01*
X22741914Y11333462D01*
X22762186Y11321758D01*
X22783800Y11315967D01*
Y11391900D01*
D02*
G37*
G36*
X22681934D02*
X22606000D01*
Y11315967D01*
X22627614Y11321758D01*
X22647887Y11333462D01*
X22664438Y11350014D01*
X22676141Y11370286D01*
X22681934Y11391900D01*
D02*
G37*
G36*
X22580600D02*
X22504668D01*
X22510458Y11370286D01*
X22522162Y11350014D01*
X22538715Y11333462D01*
X22558986Y11321758D01*
X22580600Y11315967D01*
Y11391900D01*
D02*
G37*
G36*
X22478732D02*
X22402800D01*
Y11315967D01*
X22424414Y11321758D01*
X22444685Y11333462D01*
X22461238Y11350014D01*
X22472942Y11370286D01*
X22478732Y11391900D01*
D02*
G37*
G36*
X22377400D02*
X22301466D01*
X22307259Y11370286D01*
X22318962Y11350014D01*
X22335513Y11333462D01*
X22355786Y11321758D01*
X22377400Y11315967D01*
Y11391900D01*
D02*
G37*
G36*
X25107899Y11861533D02*
Y11785600D01*
X25183833D01*
X25178043Y11807214D01*
X25166338Y11827486D01*
X25149786Y11844038D01*
X25129514Y11855742D01*
X25107899Y11861533D01*
D02*
G37*
G36*
X25082500D02*
X25060886Y11855742D01*
X25040614Y11844038D01*
X25024062Y11827486D01*
X25012358Y11807214D01*
X25006567Y11785600D01*
X25082500D01*
Y11861533D01*
D02*
G37*
G36*
X24904700D02*
Y11785600D01*
X24980634D01*
X24974841Y11807214D01*
X24963138Y11827486D01*
X24946587Y11844038D01*
X24926314Y11855742D01*
X24904700Y11861533D01*
D02*
G37*
G36*
X24879300D02*
X24857686Y11855742D01*
X24837415Y11844038D01*
X24820862Y11827486D01*
X24809158Y11807214D01*
X24803368Y11785600D01*
X24879300D01*
Y11861533D01*
D02*
G37*
G36*
X24701500D02*
Y11785600D01*
X24777432D01*
X24771642Y11807214D01*
X24759938Y11827486D01*
X24743385Y11844038D01*
X24723114Y11855742D01*
X24701500Y11861533D01*
D02*
G37*
G36*
X24676100D02*
X24654486Y11855742D01*
X24634213Y11844038D01*
X24617662Y11827486D01*
X24605959Y11807214D01*
X24600166Y11785600D01*
X24676100D01*
Y11861533D01*
D02*
G37*
G36*
X24498300D02*
Y11785600D01*
X24574232D01*
X24568442Y11807214D01*
X24556738Y11827486D01*
X24540186Y11844038D01*
X24519914Y11855742D01*
X24498300Y11861533D01*
D02*
G37*
G36*
X24472900D02*
X24451286Y11855742D01*
X24431013Y11844038D01*
X24414462Y11827486D01*
X24402757Y11807214D01*
X24396967Y11785600D01*
X24472900D01*
Y11861533D01*
D02*
G37*
G36*
X24295100D02*
Y11785600D01*
X24371033D01*
X24365242Y11807214D01*
X24353539Y11827486D01*
X24336986Y11844038D01*
X24316714Y11855742D01*
X24295100Y11861533D01*
D02*
G37*
G36*
X24269701D02*
X24248087Y11855742D01*
X24227814Y11844038D01*
X24211263Y11827486D01*
X24199557Y11807214D01*
X24193767Y11785600D01*
X24269701D01*
Y11861533D01*
D02*
G37*
G36*
X24091901D02*
Y11785600D01*
X24167833D01*
X24162042Y11807214D01*
X24150339Y11827486D01*
X24133786Y11844038D01*
X24113515Y11855742D01*
X24091901Y11861533D01*
D02*
G37*
G36*
X24066499D02*
X24044885Y11855742D01*
X24024614Y11844038D01*
X24008063Y11827486D01*
X23996358Y11807214D01*
X23990567Y11785600D01*
X24066499D01*
Y11861533D01*
D02*
G37*
G36*
X23888699D02*
Y11785600D01*
X23964633D01*
X23958842Y11807214D01*
X23947137Y11827486D01*
X23930586Y11844038D01*
X23910313Y11855742D01*
X23888699Y11861533D01*
D02*
G37*
G36*
X23863300D02*
X23841685Y11855742D01*
X23821414Y11844038D01*
X23804861Y11827486D01*
X23793158Y11807214D01*
X23787367Y11785600D01*
X23863300D01*
Y11861533D01*
D02*
G37*
G36*
X23685500D02*
Y11785600D01*
X23761433D01*
X23755643Y11807214D01*
X23743938Y11827486D01*
X23727386Y11844038D01*
X23707114Y11855742D01*
X23685500Y11861533D01*
D02*
G37*
G36*
X23660100D02*
X23638486Y11855742D01*
X23618214Y11844038D01*
X23601662Y11827486D01*
X23589958Y11807214D01*
X23584167Y11785600D01*
X23660100D01*
Y11861533D01*
D02*
G37*
G36*
X23482300D02*
Y11785600D01*
X23558234D01*
X23552441Y11807214D01*
X23540738Y11827486D01*
X23524187Y11844038D01*
X23503914Y11855742D01*
X23482300Y11861533D01*
D02*
G37*
G36*
X23456900D02*
X23435286Y11855742D01*
X23415015Y11844038D01*
X23398462Y11827486D01*
X23386758Y11807214D01*
X23380968Y11785600D01*
X23456900D01*
Y11861533D01*
D02*
G37*
G36*
X23279100D02*
Y11785600D01*
X23355032D01*
X23349242Y11807214D01*
X23337538Y11827486D01*
X23320985Y11844038D01*
X23300714Y11855742D01*
X23279100Y11861533D01*
D02*
G37*
G36*
X23253700D02*
X23232086Y11855742D01*
X23211813Y11844038D01*
X23195262Y11827486D01*
X23183559Y11807214D01*
X23177766Y11785600D01*
X23253700D01*
Y11861533D01*
D02*
G37*
G36*
X23075900D02*
Y11785600D01*
X23151833D01*
X23146042Y11807214D01*
X23134338Y11827486D01*
X23117786Y11844038D01*
X23097514Y11855742D01*
X23075900Y11861533D01*
D02*
G37*
G36*
X23050500D02*
X23028886Y11855742D01*
X23008614Y11844038D01*
X22992062Y11827486D01*
X22980357Y11807214D01*
X22974567Y11785600D01*
X23050500D01*
Y11861533D01*
D02*
G37*
G36*
X22872701D02*
Y11785600D01*
X22948633D01*
X22942842Y11807214D01*
X22931139Y11827486D01*
X22914586Y11844038D01*
X22894315Y11855742D01*
X22872701Y11861533D01*
D02*
G37*
G36*
X22847301D02*
X22825687Y11855742D01*
X22805414Y11844038D01*
X22788863Y11827486D01*
X22777158Y11807214D01*
X22771367Y11785600D01*
X22847301D01*
Y11861533D01*
D02*
G37*
G36*
X22669501D02*
Y11785600D01*
X22745433D01*
X22739642Y11807214D01*
X22727937Y11827486D01*
X22711386Y11844038D01*
X22691113Y11855742D01*
X22669501Y11861533D01*
D02*
G37*
G36*
X22644099D02*
X22622485Y11855742D01*
X22602214Y11844038D01*
X22585661Y11827486D01*
X22573958Y11807214D01*
X22568167Y11785600D01*
X22644099D01*
Y11861533D01*
D02*
G37*
G36*
X22466299D02*
Y11785600D01*
X22542233D01*
X22536443Y11807214D01*
X22524738Y11827486D01*
X22508186Y11844038D01*
X22487914Y11855742D01*
X22466299Y11861533D01*
D02*
G37*
G36*
X22440900D02*
X22419286Y11855742D01*
X22399014Y11844038D01*
X22382462Y11827486D01*
X22370758Y11807214D01*
X22364967Y11785600D01*
X22440900D01*
Y11861533D01*
D02*
G37*
G36*
X25183833Y11760200D02*
X25107899D01*
Y11684267D01*
X25129514Y11690058D01*
X25149786Y11701762D01*
X25166338Y11718314D01*
X25178043Y11738586D01*
X25183833Y11760200D01*
D02*
G37*
G36*
X25082500D02*
X25006567D01*
X25012358Y11738586D01*
X25024062Y11718314D01*
X25040614Y11701762D01*
X25060886Y11690058D01*
X25082500Y11684267D01*
Y11760200D01*
D02*
G37*
G36*
X24980634D02*
X24904700D01*
Y11684267D01*
X24926314Y11690058D01*
X24946587Y11701762D01*
X24963138Y11718314D01*
X24974841Y11738586D01*
X24980634Y11760200D01*
D02*
G37*
G36*
X24879300D02*
X24803368D01*
X24809158Y11738586D01*
X24820862Y11718314D01*
X24837415Y11701762D01*
X24857686Y11690058D01*
X24879300Y11684267D01*
Y11760200D01*
D02*
G37*
G36*
X24777432D02*
X24701500D01*
Y11684267D01*
X24723114Y11690058D01*
X24743385Y11701762D01*
X24759938Y11718314D01*
X24771642Y11738586D01*
X24777432Y11760200D01*
D02*
G37*
G36*
X24676100D02*
X24600166D01*
X24605959Y11738586D01*
X24617662Y11718314D01*
X24634213Y11701762D01*
X24654486Y11690058D01*
X24676100Y11684267D01*
Y11760200D01*
D02*
G37*
G36*
X24574232D02*
X24498300D01*
Y11684267D01*
X24519914Y11690058D01*
X24540186Y11701762D01*
X24556738Y11718314D01*
X24568442Y11738586D01*
X24574232Y11760200D01*
D02*
G37*
G36*
X24472900D02*
X24396967D01*
X24402757Y11738586D01*
X24414462Y11718314D01*
X24431013Y11701762D01*
X24451286Y11690058D01*
X24472900Y11684267D01*
Y11760200D01*
D02*
G37*
G36*
X24371033D02*
X24295100D01*
Y11684267D01*
X24316714Y11690058D01*
X24336986Y11701762D01*
X24353539Y11718314D01*
X24365242Y11738586D01*
X24371033Y11760200D01*
D02*
G37*
G36*
X24269701D02*
X24193767D01*
X24199557Y11738586D01*
X24211263Y11718314D01*
X24227814Y11701762D01*
X24248087Y11690058D01*
X24269701Y11684267D01*
Y11760200D01*
D02*
G37*
G36*
X24167833D02*
X24091901D01*
Y11684267D01*
X24113515Y11690058D01*
X24133786Y11701762D01*
X24150339Y11718314D01*
X24162042Y11738586D01*
X24167833Y11760200D01*
D02*
G37*
G36*
X24066499D02*
X23990567D01*
X23996358Y11738586D01*
X24008063Y11718314D01*
X24024614Y11701762D01*
X24044885Y11690058D01*
X24066499Y11684267D01*
Y11760200D01*
D02*
G37*
G36*
X23964633D02*
X23888699D01*
Y11684267D01*
X23910313Y11690058D01*
X23930586Y11701762D01*
X23947137Y11718314D01*
X23958842Y11738586D01*
X23964633Y11760200D01*
D02*
G37*
G36*
X23863300D02*
X23787367D01*
X23793158Y11738586D01*
X23804861Y11718314D01*
X23821414Y11701762D01*
X23841685Y11690058D01*
X23863300Y11684267D01*
Y11760200D01*
D02*
G37*
G36*
X23761433D02*
X23685500D01*
Y11684267D01*
X23707114Y11690058D01*
X23727386Y11701762D01*
X23743938Y11718314D01*
X23755643Y11738586D01*
X23761433Y11760200D01*
D02*
G37*
G36*
X23660100D02*
X23584167D01*
X23589958Y11738586D01*
X23601662Y11718314D01*
X23618214Y11701762D01*
X23638486Y11690058D01*
X23660100Y11684267D01*
Y11760200D01*
D02*
G37*
G36*
X23558234D02*
X23482300D01*
Y11684267D01*
X23503914Y11690058D01*
X23524187Y11701762D01*
X23540738Y11718314D01*
X23552441Y11738586D01*
X23558234Y11760200D01*
D02*
G37*
G36*
X23456900D02*
X23380968D01*
X23386758Y11738586D01*
X23398462Y11718314D01*
X23415015Y11701762D01*
X23435286Y11690058D01*
X23456900Y11684267D01*
Y11760200D01*
D02*
G37*
G36*
X23355032D02*
X23279100D01*
Y11684267D01*
X23300714Y11690058D01*
X23320985Y11701762D01*
X23337538Y11718314D01*
X23349242Y11738586D01*
X23355032Y11760200D01*
D02*
G37*
G36*
X23253700D02*
X23177766D01*
X23183559Y11738586D01*
X23195262Y11718314D01*
X23211813Y11701762D01*
X23232086Y11690058D01*
X23253700Y11684267D01*
Y11760200D01*
D02*
G37*
G36*
X23151833D02*
X23075900D01*
Y11684267D01*
X23097514Y11690058D01*
X23117786Y11701762D01*
X23134338Y11718314D01*
X23146042Y11738586D01*
X23151833Y11760200D01*
D02*
G37*
G36*
X23050500D02*
X22974567D01*
X22980357Y11738586D01*
X22992062Y11718314D01*
X23008614Y11701762D01*
X23028886Y11690058D01*
X23050500Y11684267D01*
Y11760200D01*
D02*
G37*
G36*
X22948633D02*
X22872701D01*
Y11684267D01*
X22894315Y11690058D01*
X22914586Y11701762D01*
X22931139Y11718314D01*
X22942842Y11738586D01*
X22948633Y11760200D01*
D02*
G37*
G36*
X22847301D02*
X22771367D01*
X22777158Y11738586D01*
X22788863Y11718314D01*
X22805414Y11701762D01*
X22825687Y11690058D01*
X22847301Y11684267D01*
Y11760200D01*
D02*
G37*
G36*
X22745433D02*
X22669501D01*
Y11684267D01*
X22691113Y11690058D01*
X22711386Y11701762D01*
X22727937Y11718314D01*
X22739642Y11738586D01*
X22745433Y11760200D01*
D02*
G37*
G36*
X22644099D02*
X22568167D01*
X22573958Y11738586D01*
X22585661Y11718314D01*
X22602214Y11701762D01*
X22622485Y11690058D01*
X22644099Y11684267D01*
Y11760200D01*
D02*
G37*
G36*
X22542233D02*
X22466299D01*
Y11684267D01*
X22487914Y11690058D01*
X22508186Y11701762D01*
X22524738Y11718314D01*
X22536443Y11738586D01*
X22542233Y11760200D01*
D02*
G37*
G36*
X22440900D02*
X22364967D01*
X22370758Y11738586D01*
X22382462Y11718314D01*
X22399014Y11701762D01*
X22419286Y11690058D01*
X22440900Y11684267D01*
Y11760200D01*
D02*
G37*
%LPD*%
D10*
X20870100Y17603300D02*
G03*
X20835100Y17626213I-25000J0D01*
G01*
Y17580386D02*
G03*
X20870100Y17603300I10000J22913D01*
G01*
X20835100Y17626213D02*
G03*
X20835100Y17580386I10000J-22913D01*
G01*
X20366380Y2732422D02*
G03*
X20352603Y2747614I-23778J-7720D01*
G01*
D02*
G03*
X20352603Y2701789I-10001J-22912D01*
G01*
X20352603Y2701790D02*
G03*
X20362952Y2710180I-10001J22912D01*
G01*
X20367603Y2634702D02*
G03*
X20367603Y2634702I-25000J0D01*
G01*
X21087602Y2634702D02*
G03*
X21087602Y2634702I-25000J0D01*
G01*
X21077609Y2704708D02*
G03*
X21082596Y2709694I-15008J19994D01*
G01*
D02*
G03*
X21087222Y2720360I-19994J15008D01*
G01*
D02*
G03*
X21087579Y2723642I-24620J4342D01*
G01*
X21087579Y2723643D02*
G03*
X21087602Y2724700I-24978J1059D01*
G01*
X21085114Y2735575D02*
G03*
X21085112Y2735579I-22512J-10873D01*
G01*
X21087602Y2724702D02*
G03*
X21085114Y2735575I-25000J0D01*
G01*
X21077580Y2744718D02*
G03*
X21070915Y2748279I-14978J-20016D01*
G01*
X21083696Y2738120D02*
G03*
X21077580Y2744718I-21094J-13418D01*
G01*
X21085110Y2735580D02*
G03*
X21083696Y2738120I-22509J-10878D01*
G01*
X21053860Y2701281D02*
G03*
X21077609Y2704708I8742J23422D01*
G01*
X21047095Y2705093D02*
G03*
X21047099Y2705090I15507J19609D01*
G01*
X21047101Y2705089D02*
G03*
X21048161Y2704295I15502J19614D01*
G01*
X21052603Y2701789D02*
G03*
X21053860Y2701281I10000J22913D01*
G01*
X21048163Y2704294D02*
G03*
X21052602Y2701790I14439J20409D01*
G01*
X21042253Y2710180D02*
G03*
X21047095Y2705093I20349J14522D01*
G01*
X21047099Y2744316D02*
G03*
X21042253Y2710180I15502J-19614D01*
G01*
X21049097Y2745740D02*
G03*
X21047099Y2744316I13506J-21038D01*
G01*
X21052597Y2747613D02*
G03*
X21049097Y2745740I10005J-22911D01*
G01*
X21052615Y2747621D02*
G03*
X21052602Y2747615I9986J-22919D01*
G01*
X21054289Y2748279D02*
G03*
X21052615Y2747621I8313J-23577D01*
G01*
X21070914Y2748280D02*
G03*
X21054291Y2748280I-8312J-23578D01*
G01*
X20367220Y2720340D02*
G03*
X20367603Y2724702I-24616J4362D01*
G01*
X20367598Y2725140D02*
G03*
X20366893Y2730612I-24996J-438D01*
G01*
X20366891Y2730617D02*
G03*
X20366380Y2732420I-24290J-5915D01*
G01*
X20367603Y2724704D02*
G03*
X20367598Y2725138I-25000J-2D01*
G01*
X20362952Y2710180D02*
G03*
X20366380Y2716982I-20350J14522D01*
G01*
D02*
G03*
X20367220Y2720340I-23778J7720D01*
G01*
X20150101Y17693300D02*
G03*
X20150101Y17693300I-25000J0D01*
G01*
X20870100Y17693300D02*
G03*
X20870100Y17693300I-25000J0D01*
G01*
X20150101Y17603300D02*
G03*
X20135100Y17626213I-25000J0D01*
G01*
D02*
G03*
X20135100Y17580386I-10000J-22913D01*
G01*
D02*
G03*
X20150101Y17603300I-10000J22913D01*
G01*
D11*
X16252901Y15567101D02*
G03*
X16395700Y15709900I0J142800D01*
G01*
X15659100Y15379456D02*
G03*
X15798801Y15519156I0J139700D01*
G01*
X15430499Y15544800D02*
G03*
X15595844Y15379456I165344J0D01*
G01*
X12816400Y17335500D02*
G03*
X12814500Y17333600I0J-1900D01*
G01*
X26028900Y11572001D02*
G03*
X26018500Y11582400I-10399J0D01*
G01*
X20835100Y17626213D02*
Y17648300D01*
Y17580386D02*
Y17626213D01*
Y17478300D02*
Y17580386D01*
X16179800Y15567101D02*
X16252901D01*
X20352603Y2701790D02*
Y2747614D01*
Y2679700D02*
Y2701790D01*
Y2747614D02*
Y2849702D01*
X15595844Y15379456D02*
X15659100D01*
X7687700Y13254500D02*
X7693700D01*
X8391800Y13509900D02*
X8394700Y13512801D01*
X8293100Y12985899D02*
X8298080D01*
X7571700Y13254500D02*
X7577700D01*
X7571700Y13034500D02*
X7577700D01*
X24244299Y7086600D02*
X24384000Y6946900D01*
X24012199Y7318700D02*
X24244299Y7086600D01*
X18751901Y16253799D02*
X19158107D01*
X19164301Y16259991D01*
Y16455208D02*
Y16713200D01*
X18910300Y16967200D02*
X19164301Y16713200D01*
X21043100Y14917500D02*
X21787399Y14173199D01*
X21793201D01*
X21043100Y14917500D02*
Y14922501D01*
X21082800Y14198599D02*
X21088750Y14192650D01*
Y13404449D02*
Y14192650D01*
Y13404449D02*
X21094701Y13398500D01*
X21208199Y14087700D02*
X21475900Y13820000D01*
X21488400D01*
X21208199Y14087700D02*
Y14198599D01*
X21488400Y13970000D02*
Y14236700D01*
Y13576300D02*
Y13820000D01*
X21120100Y14605000D02*
X21488400Y14236700D01*
X20942300Y15252699D02*
X20942700Y15252299D01*
Y14922900D02*
X20943100Y14922501D01*
X19875500Y11887200D02*
X20943100Y12954800D01*
Y14922501D01*
X20942700Y14922900D02*
Y15252299D01*
X24701500Y5715000D02*
Y5880100D01*
X24828500Y6007100D01*
X24574500Y5715000D02*
Y6197600D01*
X24442400Y6395700D02*
Y6559852D01*
X24320500Y5715000D02*
Y6273800D01*
X24442400Y6395700D01*
X24188400Y5720100D02*
X24193500Y5715000D01*
X23837900Y6550600D02*
X24066499Y6322000D01*
Y5715000D02*
Y6322000D01*
X8547100Y16344901D02*
Y16447301D01*
X8369300Y16167101D02*
X8547100Y16344901D01*
X8118500Y16547301D02*
X8547100D01*
X8115300Y16550500D02*
X8118500Y16547301D01*
X8011300Y16850500D02*
X8115300D01*
X7747000Y16586200D02*
X8011300Y16850500D01*
X7747000Y16348000D02*
Y16586200D01*
X16906400Y15986900D02*
X16916400D01*
X16761200Y16132100D02*
X16906400Y15986900D01*
X16179800Y16132100D02*
X16761200D01*
X16598900Y15683701D02*
X16913200D01*
X16916400Y15686900D01*
X21729700Y16002000D02*
X21856700Y16128999D01*
X21629601Y16002000D02*
X21729700D01*
X19252007Y7712598D02*
X19287003Y7677602D01*
X19117000Y7712598D02*
X19252007D01*
X19494501Y6184900D02*
X19812000D01*
X19287003Y6167603D02*
X19304300Y6184900D01*
X19494501D01*
X7213600Y15481300D02*
X7366000Y15633701D01*
Y15783002D01*
X23134200Y6569400D02*
X23226601Y6477000D01*
X22952400Y6689400D02*
X23752499D01*
X22771100Y6870700D02*
X22952400Y6689400D01*
X23620300Y6781800D02*
X23888699D01*
X23451700Y6950400D02*
X23620300Y6781800D01*
X23444200Y6950400D02*
X23451700D01*
X23226601Y6477000D02*
X23456900D01*
X23533099Y6553200D01*
X23799902D01*
X23126700Y6569400D02*
X23134200D01*
X23837199Y6553900D02*
X23837900Y6553200D01*
X23837199Y6553900D02*
Y6604700D01*
X23837900Y6550600D02*
Y6553200D01*
X23752499Y6689400D02*
X23837199Y6604700D01*
X21896550Y7440450D02*
X23709151D01*
X23710899Y7438700D01*
X21894800Y7442200D02*
X21896550Y7440450D01*
X23714400Y7442200D02*
X24155400D01*
X23710899Y7438700D02*
X23714400Y7442200D01*
X23710899Y7318700D02*
X24012199D01*
X23888699Y6781800D02*
X24142700D01*
X22669501Y7073900D02*
X23977600D01*
X24180698Y6870802D01*
X22529800Y6934200D02*
X22669501Y7073900D01*
X24536298Y6946900D02*
Y7061302D01*
X24155400Y7442200D02*
X24536298Y7061302D01*
X21894800Y6934200D02*
X22529800D01*
X24180698Y6781800D02*
Y6870802D01*
Y6779200D02*
Y6781800D01*
Y6779200D02*
X24188400Y6771499D01*
Y5720100D02*
Y6771499D01*
X21899400Y7700800D02*
X24176199D01*
X21894800Y7696200D02*
X21899400Y7700800D01*
X24176199D02*
X24180800Y7705400D01*
X24187701Y7698499D01*
X24188300Y7585400D02*
X24293401Y7480300D01*
X24180800Y7585400D02*
X24188300D01*
X24293401Y7480300D02*
X24485600D01*
X24638000Y7556500D02*
Y7620000D01*
X24187701Y7698499D02*
X24637498D01*
X24638000Y7697000D02*
X24738800D01*
X16980800Y5828400D02*
Y5918200D01*
Y5828400D02*
X17145000Y5664200D01*
Y5549900D02*
Y5664200D01*
X16980800Y5918200D02*
Y5995300D01*
X17094200Y6108700D02*
Y6230000D01*
X16980800Y5995300D02*
X17094200Y6108700D01*
X16903250Y5563050D02*
X16903700Y5562600D01*
X16902800Y5918200D02*
X16903250Y5917750D01*
Y5563050D02*
Y5917750D01*
X16902800Y6008750D02*
X16999200Y6105150D01*
X16902800Y5918200D02*
Y6008750D01*
X16999200Y6105150D02*
Y6230000D01*
X9715500Y4064000D02*
Y4191000D01*
X8123322Y5783178D02*
X9715500Y4191000D01*
X7996322Y5770478D02*
X9461500Y4305300D01*
Y4064000D02*
Y4305300D01*
X7868702Y5758399D02*
X9207500Y4419600D01*
Y4064000D02*
Y4419600D01*
X7741702Y5745699D02*
X8953500Y4533900D01*
Y4064000D02*
Y4533900D01*
X8699500Y4064000D02*
Y4648200D01*
X7614702Y5732998D02*
X8699500Y4648200D01*
X8445500Y4064000D02*
Y4686300D01*
X7487702Y5644098D02*
X8445500Y4686300D01*
X7360702Y5593298D02*
X8191500Y4762500D01*
Y4064000D02*
Y4762500D01*
X7233702Y5542499D02*
X7937500Y4838700D01*
Y4064000D02*
Y4838700D01*
X7106702Y5504399D02*
X7683500Y4927600D01*
Y4064000D02*
Y4927600D01*
X20637550Y2949753D02*
Y4635449D01*
X20637500Y4635500D02*
X20637550Y4635449D01*
X20891499Y4216400D02*
Y4635500D01*
X21145500D02*
Y5372699D01*
X20675600Y5842599D02*
X21145500Y5372699D01*
X20032001Y5495000D02*
X20891499Y4635500D01*
X20032001Y5495000D02*
Y5637601D01*
X19922002Y5350998D02*
X20637500Y4635500D01*
X20358099D02*
X20383501D01*
X19812000Y5181600D02*
X20358099Y4635500D01*
X20129500D02*
Y4648200D01*
X19701997Y5075702D02*
X20129500Y4648200D01*
X19592000Y4919000D02*
X19875500Y4635500D01*
X19481998Y4775002D02*
X19621500Y4635500D01*
X19367500D02*
X19372002Y4640001D01*
X21675201Y5952602D02*
X21894800Y6172200D01*
X20507001Y5952602D02*
X21675201D01*
X21531200Y6062599D02*
X21894800Y6426200D01*
X20507001Y6062599D02*
X21531200D01*
X20507001Y6172601D02*
X21387201D01*
X21894800Y6680200D01*
X17792700Y6464300D02*
X18669000D01*
X17194901D02*
X17792700D01*
X18740698Y6392601D02*
X19117000D01*
X18669000Y6464300D02*
X18740698Y6392601D01*
X17792700Y5702300D02*
X18643600D01*
X18893903Y5952602D01*
X17792700Y5956300D02*
X18656300D01*
X18845300Y6145301D01*
X17792700Y6210300D02*
X18669000D01*
X18741299Y6282599D01*
X17792700Y7480300D02*
X18330399Y6942602D01*
X17792700Y7480300D02*
Y9728200D01*
X17189200Y6470000D02*
X17194901Y6464300D01*
X16713200Y6768500D02*
X16999200Y6482500D01*
Y6470000D02*
Y6482500D01*
X19024600Y10985500D02*
X19138901Y10871200D01*
X18757899Y12331700D02*
X19469299D01*
X19659801Y12141200D01*
X17209602Y11266002D02*
X19215100Y13271500D01*
X16378702Y11266002D02*
X17209602D01*
X17132300Y11899900D02*
X17348199Y12115800D01*
X17297400Y11849100D02*
X17589500Y12141200D01*
X16281400Y11849100D02*
X17297400D01*
X17547380Y11794280D02*
X17716499Y11963400D01*
X16290080Y11794280D02*
X17547380D01*
X16256000Y11899900D02*
X17132300D01*
X16091200Y11735100D02*
X16256000Y11899900D01*
X16091200Y11603502D02*
Y11735100D01*
X16141202Y11708902D02*
X16281400Y11849100D01*
X16141202Y11603502D02*
Y11708902D01*
X15442200Y12165599D02*
X15963901Y12687300D01*
Y12700000D01*
X15442200Y11604503D02*
Y12165599D01*
X15557500Y16383000D02*
X15684500D01*
X15417799D02*
X15557500D01*
X11787500Y13850700D02*
Y13855701D01*
X15441199Y11603502D02*
X15442200Y11604503D01*
X15241199Y12345599D02*
X16116299Y13220700D01*
X15241199Y11603502D02*
Y12345599D01*
X16116299Y13220700D02*
X16649699D01*
X15191202Y11603502D02*
Y12384502D01*
X15875401Y13068701D02*
Y13904701D01*
X15191202Y12384502D02*
X15875401Y13068701D01*
X10629900Y8280400D02*
X10845800Y8064500D01*
X10557302Y8352998D02*
X10629900Y8280400D01*
X16191200Y11695400D02*
X16290080Y11794280D01*
X16191200Y11603502D02*
Y11695400D01*
X12116202Y14770502D02*
X12217400Y14871700D01*
X12116202Y14492552D02*
Y14770502D01*
X16687801Y11633200D02*
X16789400D01*
X16470599Y11416000D02*
X16687801Y11633200D01*
X16378702Y11416000D02*
X16470599D01*
X8140700Y10668000D02*
X8356600D01*
X8431600D02*
X8648700D01*
X20835100Y17648300D02*
X20972400D01*
X21094701Y17525999D01*
X19875500Y17538699D02*
X19985100Y17648300D01*
X20135100D01*
X21196300Y2679700D02*
X21310600Y2794000D01*
X21052602Y2679700D02*
X21196300D01*
X20135100Y17648300D02*
X20385100D01*
X20802600Y2679700D02*
X21052602D01*
X20385100Y17648300D02*
X20585100D01*
X20352603Y2679700D02*
X20602600D01*
X20205701D02*
X20352603D01*
X20091400Y2794000D02*
X20205701Y2679700D01*
X20235100Y17378300D02*
X20355099D01*
X20615100Y17157906D02*
Y17378300D01*
X20613496Y17156303D02*
X20615100Y17157906D01*
X20548499Y16878403D02*
X20550101Y16880003D01*
Y17378300D01*
X20485100Y16662399D02*
X20485100Y16662399D01*
X20485100Y16662399D02*
Y17378300D01*
X20248900Y17007751D02*
X20420100Y17178951D01*
Y17378300D01*
X20352603Y2849702D02*
X20452603Y2949702D01*
X20358099Y17483900D02*
X20385100Y17510899D01*
X20355099Y17378300D02*
X20358099Y17381300D01*
X20385100Y17510899D02*
Y17648300D01*
X20358099Y17381300D02*
Y17483900D01*
X20735100Y17378300D02*
X20835100Y17478300D01*
X20585100Y17648300D02*
X20835100D01*
X15462717Y17651100D02*
X15524316Y17589500D01*
X15544800D01*
X15260899Y17651100D02*
X15462717D01*
X15260899Y17336099D02*
Y17436099D01*
Y17536099D01*
Y17651100D01*
X21234399Y8686200D02*
Y8902700D01*
Y8394700D02*
Y8611200D01*
X25095200Y11772900D02*
X26028000D01*
X26028900Y11772001D01*
X7518400Y12052300D02*
X7874000D01*
X7708900Y11798300D02*
X7874000Y11633200D01*
X7518400Y11798300D02*
X7708900D01*
X6852702Y5453598D02*
Y5982599D01*
Y5453598D02*
X7175500Y5130800D01*
Y4064000D02*
Y5130800D01*
X20702600Y2949702D02*
Y4027500D01*
X20891499Y4216400D01*
X20637550Y2949753D02*
X20637602Y2949702D01*
X19608800Y16827499D02*
X19933900D01*
X18097501Y16789400D02*
X18099593D01*
X18213893Y16903700D01*
X18377699D01*
X18275301Y16256000D02*
X18559700D01*
X18561301Y16254401D01*
X18751300D02*
X18751901Y16253799D01*
X18751300Y16254401D02*
Y16259399D01*
X18477699Y16533000D02*
Y16903700D01*
Y16533000D02*
X18751300Y16259399D01*
X18656300Y15811501D02*
Y16054401D01*
X18465800Y15621001D02*
X18656300Y15811501D01*
X18172501Y15621001D02*
X18465800D01*
X18021300Y15622200D02*
Y15987601D01*
Y15622200D02*
X18022501Y15621001D01*
X17457292Y16578708D02*
X17762093D01*
X18021300Y16319501D01*
Y16092599D02*
Y16319501D01*
X17449800Y16586200D02*
X17457292Y16578708D01*
X20613496Y17156303D02*
X20828000Y16941800D01*
X20548499Y16878403D02*
X20942300Y16484599D01*
Y16179800D02*
Y16484599D01*
X21120100Y15722600D02*
X21399500Y16002000D01*
X21120100Y15468600D02*
Y15722600D01*
X21399500Y16002000D02*
X21564600D01*
X21132800Y15811501D02*
X21363300Y16042000D01*
X20726401Y15811501D02*
X21132800D01*
X21363300Y16042000D02*
X21564600D01*
X19659801Y11887200D02*
X19875500D01*
X21383000Y16082001D02*
X21564600D01*
X21285201Y16179800D02*
X21383000Y16082001D01*
X20154900Y11277600D02*
Y11545900D01*
X20747400Y12090400D02*
X20751801D01*
X20525700Y11868700D02*
X20747400Y12090400D01*
X20523199Y11868700D02*
X20525700D01*
X21043900Y12268200D02*
X21272501Y12496800D01*
X21417102D01*
X20248900Y16827499D02*
Y17007751D01*
X20243800Y16522701D02*
Y16822400D01*
X20248900Y16827499D01*
X16764401Y13335400D02*
Y13953197D01*
X16649699Y13220700D02*
X16764401Y13335400D01*
X6680200Y15049500D02*
X6934444D01*
X7010156D02*
X7340600D01*
X7822800Y14999100D02*
X7823200Y14998700D01*
X7822400Y15239999D02*
X7822800Y15239600D01*
Y14999100D02*
Y15239600D01*
X10617200Y15035600D02*
X10793800D01*
X10858500Y15100301D02*
X10986300D01*
X10793800Y15035600D02*
X10858500Y15100301D01*
X10210800Y14884399D02*
X10616002D01*
X10617200Y14885599D01*
X15684500Y16383000D02*
X15798801Y16268700D01*
X15556400Y17235001D02*
X15557500Y17233900D01*
X11620500Y7924800D02*
X13461700Y9766000D01*
X9118600Y9207500D02*
X9791700D01*
X20387900Y11645900D02*
X20520700Y11778700D01*
X20154900Y11645900D02*
X20387900D01*
X20520700Y11778700D02*
X20523199D01*
X20148550Y11639550D02*
X20154900Y11645900D01*
X19666150Y11639550D02*
X20148550D01*
X19659801Y11633200D02*
X19666150Y11639550D01*
X18084801Y11760200D02*
X19532800D01*
X16378702Y11065998D02*
X17390598D01*
X18084801Y11760200D01*
X19532800D02*
X19659801Y11633200D01*
X24738800Y7697000D02*
X24904597Y7531202D01*
Y6731000D02*
Y7531202D01*
X24637498Y7698499D02*
X24638000Y7699000D01*
X24384000Y6946900D02*
X24498300D01*
X21894800Y7188200D02*
X22275800D01*
X21099200Y6392601D02*
X21894800Y7188200D01*
X10845800Y8064500D02*
X11278500D01*
X10557302Y8352998D02*
Y8505200D01*
X11278500Y8064500D02*
X11388300Y8174300D01*
X10236200Y9194800D02*
X10341600Y9300200D01*
X10557302D01*
X9474200Y8991600D02*
X9906000Y8559800D01*
Y8427000D02*
Y8559800D01*
X8178800Y9938300D02*
Y10185400D01*
X11007298Y9300200D02*
X11010900Y9303802D01*
Y9982200D01*
X11404600Y8188600D02*
Y8190600D01*
X11390300Y8174300D02*
X11404600Y8188600D01*
X11388300Y8174300D02*
X11390300D01*
X8477800Y9848300D02*
X9118600Y9207500D01*
X8178800Y9848300D02*
X8477800D01*
X7473400D02*
X8178800D01*
X13806200Y9666000D02*
X14253699D01*
X11861800Y7721600D02*
X13806200Y9666000D01*
X10033000Y7721600D02*
X11861800D01*
X6852702Y9227602D02*
X7473400Y9848300D01*
X13461700Y9766000D02*
X14253699D01*
X7467600Y9588500D02*
X8407400D01*
X9658900Y8337000D02*
X9906000D01*
X8407400Y9588500D02*
X9658900Y8337000D01*
X10039900D02*
X10452100Y7924800D01*
X9906000Y8337000D02*
X10039900D01*
X10452100Y7924800D02*
X11620500D01*
X8331200Y9245600D02*
X8509000D01*
X10033000Y7721600D01*
X9296600Y9931400D02*
X9601200D01*
X8077200Y8991600D02*
X8331200Y9245600D01*
X8686800Y8026400D02*
X9359900D01*
X8267700Y8534400D02*
X8686800D01*
X8255000Y8280400D02*
X8686800D01*
X8204200Y8026400D02*
X8686800D01*
X13893800Y8496300D02*
X14058900D01*
X14691203Y9128603D01*
X10718798Y7404100D02*
X11976100D01*
X12039600Y7150100D02*
X13804900Y8915400D01*
X10718798Y7150100D02*
X12039600D01*
X10591798Y7277100D02*
X10718798Y7150100D01*
X13804900Y8915400D02*
X14401801D01*
X11912600Y7594600D02*
X13665199Y9347200D01*
X9359900Y8026400D02*
X9791700Y7594600D01*
X11912600D01*
X8222701Y6515100D02*
X9160316D01*
X10328716Y5346700D01*
X11214100D01*
X8222701Y6642100D02*
X9223816D01*
X10265216Y5600700D01*
X11214100D01*
X8222701Y6769100D02*
X9287316D01*
X10201716Y5854700D01*
X11214100D01*
X8222701Y6896100D02*
X9350816D01*
X10138216Y6108700D01*
X11214100D01*
X8222701Y6388100D02*
X9042400D01*
X10337800Y5092700D02*
X11214100D01*
X9042400Y6388100D02*
X10337800Y5092700D01*
X8222701Y7023100D02*
X10337798D01*
X10718798Y6642100D01*
X8222701Y7150100D02*
X10464798D01*
X10718798Y6896100D01*
X8222701Y7277100D02*
X10591798D01*
X8222701Y7404100D02*
X10718798D01*
X16375703Y10163000D02*
X16378702Y10165999D01*
X16144701Y10163000D02*
X16375703D01*
X16141701Y10160000D02*
X16144701Y10163000D01*
X16377303Y10717400D02*
X16378702Y10716001D01*
X16155800Y10717400D02*
X16377303D01*
X16154401Y10718800D02*
X16155800Y10717400D01*
X15139799Y11602103D02*
X15141199Y11603502D01*
X15139799Y11367900D02*
Y11602103D01*
X15138400Y11366500D02*
X15139799Y11367900D01*
X15641199Y11603502D02*
X15643799Y11600901D01*
Y11369101D02*
Y11600901D01*
Y11369101D02*
X15646400Y11366500D01*
X12076900Y16687801D02*
Y16763200D01*
X12306300Y16992599D01*
Y17112396D01*
X11976900Y16687801D02*
Y17016901D01*
X11976500Y16687399D02*
X11976900Y16687801D01*
X11976500Y16446899D02*
Y16687399D01*
X11976100Y16446500D02*
X11976500Y16446899D01*
X11976900Y17016901D02*
X12215500Y17255499D01*
X6814100Y4404400D02*
Y4406900D01*
Y4404400D02*
X6921500Y4297000D01*
Y4064000D02*
Y4297000D01*
X6807200Y4413800D02*
X6814100Y4406900D01*
X6807200Y4413800D02*
Y4674400D01*
X6724100Y4406900D02*
Y4409400D01*
X6604000Y4529500D02*
X6724100Y4409400D01*
X6604000Y4529500D02*
Y4648200D01*
X21472952Y11071652D02*
Y11252200D01*
X20993100Y10842300D02*
X21243600D01*
X21472952Y11071652D01*
X20849899Y10842300D02*
X20993100D01*
X20802600Y8014600D02*
X20803050Y8014150D01*
X21145050D01*
X21145500Y8013700D01*
X20510002Y7935600D02*
X20801601D01*
X20802600Y7936600D01*
X12255500Y17163196D02*
Y17255499D01*
Y17163196D02*
X12306300Y17112396D01*
X11658498Y17444897D02*
X11806098D01*
X11925300Y17564101D02*
X12065000D01*
X11806098Y17444897D02*
X11925300Y17564101D01*
X12065000D02*
X12215500Y17413600D01*
Y17335500D02*
Y17413600D01*
X15925800Y15011400D02*
Y15240800D01*
X15798801Y15519156D02*
Y15567101D01*
X12257400Y17333600D02*
X12814500D01*
X12816400Y17335500D02*
X13398500D01*
X12141200Y14209448D02*
X12166200D01*
X12116202D02*
X12141200D01*
X12255500Y17295500D02*
X12447900D01*
X12585700Y17157700D01*
X11812900Y17295500D02*
X12215500D01*
X11811000Y17297400D02*
X11812900Y17295500D01*
X12255500Y17335500D02*
X12257400Y17333600D01*
X16420300Y15405099D02*
X16598900Y15583701D01*
X16052800Y15405099D02*
X16420300D01*
X15659100Y15303745D02*
X15888744D01*
X15925800Y15340800D01*
X15988499D02*
X16052800Y15405099D01*
Y15567101D01*
X15925800Y15340800D02*
X15988499D01*
X15925800D02*
Y15567101D01*
X15659100Y15301601D02*
Y15303745D01*
X15532100Y15174600D02*
X15659100Y15301601D01*
X15532100Y15049500D02*
Y15174600D01*
X15671800Y14732001D02*
X15925398Y14478401D01*
X15570200Y14732001D02*
X15671800D01*
X15925398Y14290102D02*
Y14478401D01*
X16230600Y14732001D02*
X16611600D01*
X16814400Y14529201D01*
X14668098Y14315501D02*
Y14478401D01*
X14414500Y14732001D02*
X14668098Y14478401D01*
X13766399Y14290102D02*
Y14541901D01*
X13576300Y14732001D02*
X13766399Y14541901D01*
X13500101Y14427200D02*
X13620221D01*
X13714101Y14333321D01*
Y14292401D02*
X13716402Y14290102D01*
X13714101Y14292401D02*
Y14333321D01*
X11711899Y15278101D02*
X11899900D01*
X12103100Y15481300D01*
X11709400Y15275601D02*
X11711899Y15278101D01*
X13004800Y15405099D02*
X14173199D01*
X12788900Y15621001D02*
X13004800Y15405099D01*
X13169901Y15646400D02*
X14160500D01*
X12966701Y15849600D02*
Y16268700D01*
Y15849600D02*
X13169901Y15646400D01*
X13538200Y15938499D02*
Y16014700D01*
X13411200Y15811501D02*
X13538200Y15938499D01*
X13220700Y16014700D02*
X13538200D01*
X15798801Y16132100D02*
Y16268700D01*
X14184193Y17136099D02*
X14380901D01*
X14137193Y17183099D02*
X14184193Y17136099D01*
X14109700Y17183099D02*
X14137193D01*
X14190192Y17236099D02*
X14380901D01*
X14137193Y17183099D02*
X14190192Y17236099D01*
X14137701Y17536099D02*
X14380901D01*
X14033501Y17640300D02*
X14137701Y17536099D01*
X14370100Y17640300D02*
X14380901Y17651100D01*
X14033501Y17640300D02*
X14370100D01*
X6604450Y5270950D02*
Y5511350D01*
X6604000Y5511800D02*
X6604450Y5511350D01*
Y5270950D02*
X6604900Y5270500D01*
Y5129900D02*
Y5270500D01*
X6604000Y4648200D02*
Y4762200D01*
X6903000Y4971500D02*
Y5156200D01*
Y4971500D02*
X6997700Y4876800D01*
X6686700Y4927600D02*
Y5048100D01*
X6604900Y5129900D02*
X6686700Y5048100D01*
X6546700Y4927600D02*
Y5048400D01*
Y4819500D02*
X6604000Y4762200D01*
X6546700Y4819500D02*
Y4927600D01*
X6810100Y5153300D02*
X6813000Y5156200D01*
X6810100Y4777300D02*
Y5153300D01*
X6807200Y4774400D02*
X6810100Y4777300D01*
X6813000Y5156200D02*
Y5315500D01*
X6724100Y5404400D02*
X6813000Y5315500D01*
X6724100Y5404400D02*
Y5980998D01*
X6526900Y5270500D02*
Y5334900D01*
Y5068200D02*
Y5270500D01*
Y5068200D02*
X6546700Y5048400D01*
X6471702Y5390099D02*
Y5982599D01*
Y5390099D02*
X6526900Y5334900D01*
X6979702Y5478999D02*
X7429500Y5029200D01*
X6979702Y5478999D02*
Y5982599D01*
X7429500Y4064000D02*
Y5029200D01*
X7106702Y5504399D02*
Y5982599D01*
X7233702Y5542499D02*
Y5982599D01*
X7360702Y5593298D02*
Y5982599D01*
X7487702Y5644098D02*
Y5982599D01*
X7614702Y5732998D02*
Y5982599D01*
X7741702Y5745699D02*
Y5982599D01*
X7868702Y5758399D02*
Y5982599D01*
X7996322Y5770478D02*
Y5981979D01*
X8123322Y5783178D02*
Y5981979D01*
X9232900Y13525500D02*
Y13686510D01*
X9436100Y13322301D02*
X9740900D01*
X9232900Y13525500D02*
X9436100Y13322301D01*
X9232900Y13821689D02*
Y14109700D01*
Y14350101D01*
X9525000Y14732001D02*
X9690100D01*
X9359900D02*
X9525000D01*
X9817100Y14434100D02*
Y14605000D01*
X9690100Y14732001D02*
X9817100Y14605000D01*
X9232900Y14430099D02*
Y14605000D01*
X9359900Y14732001D01*
X10020300Y13855701D02*
X10160000D01*
X9817100Y14058900D02*
X10020300Y13855701D01*
X9817100Y14058900D02*
Y14344099D01*
X10160000Y13855701D02*
X10350500D01*
X10399801Y13905000D02*
Y14024596D01*
X10350500Y13855701D02*
X10399801Y13905000D01*
X11277600Y14446800D02*
Y14681200D01*
X11708299Y14356799D02*
X11709400Y14355699D01*
X11277600Y14356799D02*
X11708299D01*
X11170200D02*
X11277600D01*
X11100700Y14426300D02*
X11170200Y14356799D01*
X10972800Y14426300D02*
X11100700D01*
X11480800Y13855701D02*
X11707500D01*
X7873600Y15493600D02*
X7874000Y15494000D01*
X7747000Y15621001D02*
X7874000Y15494000D01*
X7747000Y15621001D02*
Y15783002D01*
X16459200Y16560800D02*
X16573500Y16675101D01*
X15950002Y16560800D02*
X16459200D01*
X16573500Y16675101D02*
X16840199D01*
X12141200Y9170300D02*
Y9423400D01*
X12509950Y9792150D01*
X11410400Y9481100D02*
X11531600D01*
X11328400Y9563100D02*
X11410400Y9481100D01*
X11328400Y9563100D02*
Y9702800D01*
X11531600Y9481100D02*
X11727900D01*
X11874500Y9265200D02*
Y9334500D01*
X11727900Y9481100D02*
X11874500Y9334500D01*
Y9265200D02*
X11877000D01*
X11531600Y9283700D02*
Y9391102D01*
Y9283700D02*
X11633200Y9182100D01*
X11871051Y9178651D02*
X11874500Y9175202D01*
X11636649Y9178651D02*
X11871051D01*
X11633200Y9182100D02*
X11636649Y9178651D01*
X11971900Y9170300D02*
X12141200D01*
X11877000Y9265200D02*
X11971900Y9170300D01*
X11959901Y9092302D02*
X12141200D01*
X11877000Y9175202D02*
X11959901Y9092302D01*
X11874500Y9175202D02*
X11877000D01*
X12141200Y9092302D02*
X12141649Y9092751D01*
X12343951D01*
X12344400Y9093200D01*
X12534900D01*
X12865100Y9423400D02*
Y9714602D01*
X12534900Y9093200D02*
X12865100Y9423400D01*
X12864650Y9792150D02*
X12865100Y9792600D01*
X12509950Y9792150D02*
X12864650D01*
X8788400Y9931400D02*
X9042600D01*
X14300200Y11836400D02*
X14441200Y11695400D01*
X13728700Y11925300D02*
X13817599Y11836400D01*
X14300200D01*
X13589000Y11506200D02*
X13677901D01*
X13740501Y11443598D01*
Y11391900D02*
Y11443598D01*
X13818050Y11391450D02*
X13818500Y11391900D01*
X13818050Y11239950D02*
Y11391450D01*
X13817599Y11239500D02*
X13818050Y11239950D01*
X17786349Y6972300D02*
X17792700D01*
X17252950Y7505700D02*
X17786349Y6972300D01*
X17246600Y7505700D02*
X17252950D01*
X17037601Y8331200D02*
X17373599Y8667200D01*
Y9588500D01*
X17037601Y7473400D02*
Y8331200D01*
X16944701Y8334100D02*
X16947600Y8331200D01*
X16944701Y8334100D02*
Y8544200D01*
X16941800Y8547100D02*
X16944701Y8544200D01*
X16383000Y7353300D02*
Y7645644D01*
Y7721356D02*
Y8039100D01*
X21554648Y10172700D02*
X21742400D01*
X20592999Y10198100D02*
X20802600D01*
X20993100Y10490200D02*
Y10722300D01*
X21712099Y12496800D02*
X21920200D01*
X21844598Y11582400D02*
Y11684001D01*
X21564600Y11961500D02*
Y11964000D01*
Y11961500D02*
X21574400Y11951700D01*
X21576900D01*
X21844598Y11684001D01*
X21605447Y11252200D02*
Y11345749D01*
X21842099Y11582400D01*
X21564600Y12039001D02*
Y12344298D01*
X21605447Y10860049D02*
Y11252200D01*
X21422153Y10172700D02*
Y10373152D01*
X21602699Y10553700D02*
Y10707299D01*
X21422153Y10373152D02*
X21602699Y10553700D01*
X21422153Y10004852D02*
Y10172700D01*
X21602699Y10857301D02*
X21605447Y10860049D01*
X21141885Y9724586D02*
X21422153Y10004852D01*
X20828000Y9724586D02*
X21141885D01*
X20408897Y9042400D02*
Y9158399D01*
X20828000Y9577500D01*
Y9579414D01*
X20142001Y8390401D02*
X20408897Y8657298D01*
X20142001Y8027599D02*
Y8390401D01*
X20408897Y8657298D02*
Y9042400D01*
X20154898D02*
Y9182098D01*
Y8877298D02*
Y9042400D01*
X19481998Y8204398D02*
X20154898Y8877298D01*
X19481998Y8027599D02*
Y8204398D01*
X20332700Y9359900D02*
Y9665500D01*
X20154898Y9182098D02*
X20332700Y9359900D01*
Y9765500D02*
Y9880600D01*
X20555002Y10102902D01*
Y10198100D01*
Y10547402D01*
X20849899Y10842300D01*
X7614702Y8529102D02*
X8077200Y8991600D01*
X12865100Y9714602D02*
X13194402D01*
X12865100Y9792600D02*
X13158099D01*
X13281503Y9916003D02*
X14253699D01*
X13158099Y9792600D02*
X13281503Y9916003D01*
X13295798Y9815998D02*
X14253699D01*
X13194402Y9714602D02*
X13295798Y9815998D01*
X11976100Y7404100D02*
X13589000Y9017000D01*
X14427200D02*
X14591199Y9180998D01*
X13589000Y9017000D02*
X14427200D01*
X12103100Y10147300D02*
X12171802Y10216002D01*
X14253699D01*
X12953999Y9017000D02*
X13652998Y9715998D01*
X14253699D01*
Y9916003D02*
Y9966000D01*
X13665199Y9347200D02*
X14401801D01*
X14741200Y9000800D02*
Y9478498D01*
X14465300Y8724900D02*
X14741200Y9000800D01*
X14401801Y8915400D02*
X14641200Y9154800D01*
X10147300Y14465300D02*
X10261600D01*
X10399801Y14327100D01*
Y14220206D02*
Y14327100D01*
X10464800Y14220206D02*
Y14554201D01*
X10529799Y14220206D02*
Y14301698D01*
X10654400Y14426300D02*
X10972800D01*
X10529799Y14301698D02*
X10654400Y14426300D01*
X11049000Y14808200D02*
X11150600D01*
X11277600Y14681200D01*
X10972800Y14504298D02*
Y14732001D01*
X11049000Y14808200D01*
X11931101Y13611900D02*
Y13614400D01*
X11918801Y13599600D02*
X11931101Y13611900D01*
X11916301Y13599600D02*
X11918801D01*
X11753301Y13436600D02*
X11916301Y13599600D01*
X11569700Y13436600D02*
X11753301D01*
X11787500Y13850700D02*
X11931101Y13707098D01*
Y13614400D02*
Y13707098D01*
X12573000Y14058900D02*
Y14145900D01*
X12420600Y13906500D02*
X12573000Y14058900D01*
Y14439900D02*
Y14636201D01*
Y14225900D02*
Y14439900D01*
X11963400Y13030200D02*
Y13208000D01*
X12903200Y14147800D02*
Y14490700D01*
X11963400Y13208000D02*
X12903200Y14147800D01*
X12217400Y13030200D02*
Y13220700D01*
X13055600Y14058900D02*
Y14528799D01*
X12217400Y13220700D02*
X13055600Y14058900D01*
X12667701Y14726199D02*
X12903200Y14490700D01*
X12750800Y14833600D02*
X13055600Y14528799D01*
X11709400Y12522200D02*
Y13030200D01*
X11963400Y12357100D02*
Y13030200D01*
X12217400Y12204700D02*
Y13030200D01*
X12216202Y13879903D02*
Y14209448D01*
X12021099Y13614400D02*
Y13684799D01*
X12216202Y13879903D01*
X12021099Y13494299D02*
Y13614400D01*
X11709400Y13182600D02*
X12021099Y13494299D01*
X11709400Y13030200D02*
Y13182600D01*
X12216202Y14492552D02*
Y14565701D01*
X12376699Y14726199D02*
X12573000D01*
X12216202Y14565701D02*
X12376699Y14726199D01*
X12166776Y14643275D02*
X12357100Y14833600D01*
X12750800D01*
X12166776Y14493129D02*
Y14643275D01*
X11709400Y12522200D02*
X13315599Y10916001D01*
X14253699Y10665998D02*
X14254698Y10666999D01*
X14603999D01*
X14605000Y10668000D01*
X9296600Y11709400D02*
X9302950Y11703050D01*
X9620250D01*
X9626600Y11696700D01*
X8699500Y11455400D02*
X9042600D01*
X18022198Y10134600D02*
X18211800D01*
X17754601D02*
X17944200D01*
X16378702Y10216002D02*
X17673198D01*
X17754601Y10134600D01*
X19138901Y10871200D02*
X19405800D01*
X18466698Y10985500D02*
X19024600D01*
X18135600D02*
X18388699D01*
X17916098Y10765998D02*
X18135600Y10985500D01*
X16378702Y10765998D02*
X17916098D01*
X16378702Y10116002D02*
X17493797D01*
X18008600Y9601200D02*
X19405800D01*
X17493797Y10116002D02*
X18008600Y9601200D01*
X16378702Y11116000D02*
X17339000D01*
X18110201Y11887200D02*
X19405800D01*
X17339000Y11116000D02*
X18110201Y11887200D01*
X16378702Y11166003D02*
X17287402D01*
X18135600Y12014200D02*
X19532800D01*
X17287402Y11166003D02*
X18135600Y12014200D01*
X16378702Y11216000D02*
X17248500D01*
X18173700Y12141200D02*
X19405800D01*
X17248500Y11216000D02*
X18173700Y12141200D01*
X19532800Y12014200D02*
X19659801Y11887200D01*
X16378702Y9715998D02*
X16598402D01*
X16713200Y6768500D02*
Y9601200D01*
X16598402Y9715998D02*
X16713200Y9601200D01*
X17415997Y10016002D02*
X17564101Y9867900D01*
Y7454900D02*
X17792700Y7226300D01*
X17564101Y7454900D02*
Y9867900D01*
X16378702Y10016002D02*
X17415997D01*
X16378702Y10066000D02*
X17454901D01*
X17792700Y9728200D01*
Y7226300D02*
X18186400Y6832600D01*
X16378702Y9866000D02*
X16880200D01*
X17043401Y9702800D01*
X16378702Y9916003D02*
X17046097D01*
X17373599Y9588500D01*
X17037601Y7473400D02*
X17792700Y6718300D01*
X17898399Y6612600D01*
X18042403Y6722598D02*
X19117000D01*
X17792700Y6972300D02*
X18042403Y6722598D01*
X18186400Y6832600D02*
X19117000D01*
X18330399Y6942602D02*
X19117000D01*
X17898399Y6612600D02*
X19117000D01*
X16243300Y8039100D02*
X16383000D01*
X16192500Y8089900D02*
X16243300Y8039100D01*
X16383000D02*
X16471899Y8128000D01*
Y8229600D01*
X16383000Y8483356D02*
Y8712200D01*
X13817599Y11239500D02*
X13892448Y11164651D01*
X13728700Y11925300D02*
Y12052300D01*
X13627100Y12153900D02*
X13728700Y12052300D01*
X15512833Y13569733D02*
X15825398Y13882298D01*
X15512833Y13328433D02*
Y13569733D01*
X16548100Y13423900D02*
Y13716000D01*
X16713200Y13881100D01*
X14891202Y11603502D02*
Y13061497D01*
X13970000Y13347701D02*
X14605000D01*
X14891202Y13061497D01*
X14363699Y13093700D02*
X14841200Y12616200D01*
Y11603502D02*
Y12616200D01*
X14363699Y13093700D02*
Y13220700D01*
X14198599Y13093700D02*
X14791202Y12501098D01*
X14173199Y13093700D02*
X14198599D01*
X14791202Y11603502D02*
Y12501098D01*
X13665199Y13652499D02*
Y13975871D01*
Y13652499D02*
X13970000Y13347701D01*
X13843803Y13690601D02*
X13855701D01*
X13716402Y13818001D02*
X13843803Y13690601D01*
X13716402Y13818001D02*
Y13980099D01*
X14568098Y13702101D02*
Y14005499D01*
X14941199Y11603502D02*
Y13329001D01*
X14568098Y13702101D02*
X14941199Y13329001D01*
X14618102Y13893399D02*
Y14005499D01*
X14884399Y13627100D02*
X14998700D01*
X14618102Y13893399D02*
X14884399Y13627100D01*
X14833600Y13817599D02*
X14998700D01*
X14718102Y13933099D02*
Y14005499D01*
Y13933099D02*
X14833600Y13817599D01*
X14441200Y11603502D02*
Y11695400D01*
X15825398Y13882298D02*
Y13980099D01*
X15891200Y11852600D02*
X16141701Y12103100D01*
X16294099D02*
X16370300Y12179300D01*
X16141701Y12103100D02*
X16294099D01*
X16167101Y12052300D02*
X16535400D01*
X16637000Y12153900D01*
X16192500Y12001500D02*
X16780154D01*
X16856355Y12077700D02*
X16865601D01*
X16780154Y12001500D02*
X16856355Y12077700D01*
X16230600Y11950700D02*
X16979900D01*
X17106900Y12077700D01*
X16141701Y13423900D02*
X16268700D01*
X16002000Y13563600D02*
Y13690601D01*
Y13563600D02*
X16141701Y13423900D01*
X16268700D02*
Y13637900D01*
X15891200Y11603502D02*
Y11852600D01*
X16041202Y11761302D02*
X16230600Y11950700D01*
X16041202Y11603502D02*
Y11761302D01*
X15941203Y11826403D02*
X16167101Y12052300D01*
X16814799Y11378300D02*
X16915500D01*
X16573801Y11316000D02*
X16636099Y11378300D01*
X16378702Y11316000D02*
X16573801D01*
X16636099Y11378300D02*
X16814799D01*
X16587099Y11456298D02*
X16814799D01*
X16496802Y11366002D02*
X16587099Y11456298D01*
X16915500Y11378300D02*
X17017999Y11480800D01*
X15991200Y11603502D02*
Y11800200D01*
X16192500Y12001500D01*
X15941203Y11603502D02*
Y11826403D01*
X16548100Y14084300D02*
Y14224001D01*
X16639601Y14315501D01*
X13627100Y12153900D02*
Y12280900D01*
X13728700Y12063000D02*
X13893800Y12228100D01*
X13627100Y12358898D02*
Y12611100D01*
X13893800Y12228100D02*
Y12230100D01*
X16193521Y8484377D02*
X16381979D01*
X16192500Y8485398D02*
X16193521Y8484377D01*
X16381979D02*
X16383000Y8483356D01*
X16191850Y8486049D02*
X16192500Y8485398D01*
X16383000Y8318500D02*
Y8407644D01*
Y8318500D02*
X16471899Y8229600D01*
X16192500Y8089900D02*
Y8407400D01*
X14252345Y11164651D02*
X14253699Y11166003D01*
X13892448Y11164651D02*
X14252345D01*
X12166200Y14492552D02*
X12166776Y14493129D01*
X13406100Y11016000D02*
X14253699D01*
X12217400Y12204700D02*
X13406100Y11016000D01*
X12573000Y14726199D02*
X12667701D01*
X11963400Y12357100D02*
X13354501Y10965998D01*
X14253699D01*
X11811000Y14084300D02*
X12014200D01*
X11709400Y14185899D02*
X11811000Y14084300D01*
X12066200Y14136301D02*
Y14209448D01*
X12014200Y14084300D02*
X12066200Y14136301D01*
X11709400Y14185899D02*
Y14355699D01*
X13315599Y10916001D02*
X14253699D01*
X16141202Y9478498D02*
Y9639798D01*
X16040100Y9740900D02*
X16141202Y9639798D01*
X16191200Y9478498D02*
X16191850Y9477847D01*
Y8486049D02*
Y9477847D01*
X15641199Y9478498D02*
Y9657202D01*
X15570200Y9728200D02*
X15641199Y9657202D01*
X15141199Y9478498D02*
Y9623801D01*
X15036800Y9728200D02*
X15141199Y9623801D01*
X14691203Y9128603D02*
Y9478498D01*
X14401801Y9347200D02*
X14441200Y9386600D01*
Y9478498D01*
X14641200Y9154800D02*
Y9478498D01*
X14591199Y9180998D02*
Y9478498D01*
X20507001Y7712598D02*
X20510698Y7708900D01*
X20789900D01*
X20507001Y7932598D02*
X20510002Y7935600D01*
X20507001Y7712598D02*
Y7822601D01*
Y7932598D01*
X13473502Y17335500D02*
X13893800D01*
Y17410501D02*
X13994202D01*
X14019798Y17436099D02*
X14380901D01*
X13994202Y17410501D02*
X14019798Y17436099D01*
X14380602Y17335800D02*
X14380901Y17336099D01*
X13894099Y17335800D02*
X14380602D01*
X13893800Y17335500D02*
X13894099Y17335800D01*
X13676701Y16992599D02*
X14008099D01*
X14051601Y17036099D02*
X14380901D01*
X14008099Y16992599D02*
X14051601Y17036099D01*
X12788900Y16344901D02*
X13220700Y16776700D01*
X12788900Y15621001D02*
Y16344901D01*
X12966701Y16268700D02*
X13220700Y16522701D01*
X14605000Y15582899D02*
Y15773399D01*
X14757401Y15925800D02*
Y16079399D01*
X14605000Y15773399D02*
X14757401Y15925800D01*
X20507001Y6282599D02*
X21243199D01*
X21894800Y6934200D01*
X20507001Y6392601D02*
X21099200D01*
X20955199Y6502598D02*
X21894800Y7442200D01*
X20507001Y6502598D02*
X20955199D01*
X20811200Y6612600D02*
X21894800Y7696200D01*
X20507001Y6612600D02*
X20811200D01*
X20667198Y6722598D02*
X21894800Y7950200D01*
X6471702Y5982599D02*
Y6128802D01*
X6604000Y6261100D01*
X7995702Y5982599D02*
X7996322Y5981979D01*
X8122702Y5982599D02*
X8123322Y5981979D01*
X6471702Y7682601D02*
X6477000Y7677302D01*
Y7467600D02*
Y7677302D01*
X19922002Y5350998D02*
Y5637601D01*
X19812000Y5181600D02*
Y5637601D01*
X19701997Y5075702D02*
Y5637601D01*
X19592000Y4919000D02*
Y5637601D01*
X19481998Y4775002D02*
Y5637601D01*
X19372002Y4640001D02*
Y5637601D01*
X18741299Y6282599D02*
X19117000D01*
X18845300Y6145301D02*
X19089700D01*
X18893903Y5952602D02*
X19117000D01*
X19089700Y6145301D02*
X19117000Y6172601D01*
X20507001Y6722598D02*
X20667198D01*
X24442400Y6559852D02*
X24536298Y6653750D01*
Y6946900D01*
X24485600Y7480300D02*
X24561800D01*
X24638000Y7556500D01*
X24650700Y6540500D02*
X24841200Y6731000D01*
X24866600D01*
X24904597Y6527698D02*
Y6731000D01*
X24574500Y6197600D02*
X24904597Y6527698D01*
X19262000Y5602601D02*
Y5637601D01*
X19234698Y5575301D02*
X19262000Y5602601D01*
X19140994Y5575301D02*
X19234698D01*
X19115593Y5549900D02*
X19140994Y5575301D01*
X19088100Y5549900D02*
X19115593D01*
X19115401Y5732602D02*
X19117000D01*
X19088100Y5705302D02*
X19115401Y5732602D01*
X19088100Y5549900D02*
Y5705302D01*
X20332401Y6172200D02*
X20336998Y6167603D01*
X20142200Y6172200D02*
X20332401D01*
X20336800Y6527800D02*
X20336998Y6527602D01*
X20154900Y6527800D02*
X20336800D01*
X20205701Y6832600D02*
X20507001D01*
X20336800Y7137400D02*
X20336998Y7137598D01*
X20142200Y7137400D02*
X20336800D01*
X19117000Y6502598D02*
X19262000D01*
X19287003Y6527602D01*
X20362001Y5637601D02*
Y5782594D01*
X20336998Y5807598D02*
X20362001Y5782594D01*
X20142001Y5637601D02*
Y5792597D01*
X20127000Y5807598D02*
X20142001Y5792597D01*
X19117000Y5732602D02*
Y5842599D01*
X19287003Y6527602D02*
X19287199Y6527800D01*
X19481799D01*
X19287003Y7137598D02*
X19287199Y7137400D01*
X19494501D01*
X20332394Y7493000D02*
X20336998Y7497602D01*
X20129500Y7493000D02*
X20332394D01*
X19707001Y7585299D02*
Y7677602D01*
Y7585299D02*
X19812000Y7480300D01*
X19291605Y7493000D02*
X19494501D01*
X19367500Y8032100D02*
X19372002Y8027599D01*
X19367500Y8032100D02*
Y8305800D01*
X19287003Y7497602D02*
X19291605Y7493000D01*
X19117000Y7492599D02*
X19281999D01*
X19287003Y7497602D01*
X19113499Y7936098D02*
X19117000Y7932598D01*
X19113499Y7936098D02*
Y8191500D01*
X18961099Y7823200D02*
X19116402D01*
X18783299Y8001000D02*
Y8102600D01*
Y8001000D02*
X18961099Y7823200D01*
X19116402D02*
X19117000Y7822601D01*
X18389600Y8242300D02*
X19024600Y7607300D01*
X19112302D01*
X19262000Y7882606D02*
X19287003Y7857602D01*
X19262000Y7882606D02*
Y8027599D01*
X19372002D01*
X19112302Y7607300D02*
X19117000Y7602601D01*
X18707298Y7162602D02*
X19117000D01*
X18389600Y7480300D02*
X18707298Y7162602D01*
X18563300Y7052600D02*
X19117000D01*
X18389600Y7226300D02*
X18563300Y7052600D01*
X18851302Y7272599D02*
X19117000D01*
X18389600Y7734300D02*
X18851302Y7272599D01*
X18389600Y7988300D02*
X18995299Y7382601D01*
X19117000D01*
X19089700Y6749898D02*
X19117000Y6722598D01*
X16141701Y16738600D02*
X16649699D01*
X16840199Y16929100D01*
X15683900Y17056100D02*
X16194402D01*
X16321400Y17183099D01*
X15734100Y16865601D02*
X16014700D01*
X16141701Y16738600D01*
X15516901Y16865601D02*
X15659100D01*
X15446400Y16936099D02*
X15516901Y16865601D01*
X15481300Y17056100D02*
X15608900D01*
X15260899Y17036099D02*
X15461301D01*
X15481300Y17056100D01*
X16378453Y11366251D02*
X16378702Y11366002D01*
X16141949Y11366251D02*
X16378453D01*
X16141701Y11366500D02*
X16141949Y11366251D01*
X16378702Y11366002D02*
X16496802D01*
X14414500Y9169400D02*
X14478000D01*
X14185899D02*
X14414500D01*
X14859000Y15582899D02*
X15011400Y15735300D01*
X15260899Y16436101D02*
X15364699D01*
X15417799Y16383000D01*
X15520299Y16636101D02*
X15595599Y16560800D01*
X15260899Y16636101D02*
X15520299D01*
X15595599Y16560800D02*
X15875000D01*
X15260899Y17136099D02*
X15459700D01*
X15557500Y17233900D01*
X15262000Y17235001D02*
X15556400D01*
X15260899Y17236099D02*
X15262000Y17235001D01*
X16321400Y17183099D02*
X16840199D01*
X15020900Y16396101D02*
X15028850Y16404053D01*
Y16768750D01*
X15036800Y16776700D01*
X14619299Y16397702D02*
X14620900Y16396101D01*
X14619299Y16397702D02*
Y16597301D01*
X14617700Y16598900D02*
X14619299Y16597301D01*
X16713200Y13881100D02*
Y14004300D01*
X15011400Y15735300D02*
Y16078200D01*
X14920900Y16246201D02*
Y16396101D01*
Y16246201D02*
X15011400Y16155701D01*
Y16153201D02*
Y16155701D01*
X14820900Y16220399D02*
Y16396101D01*
X14757401Y16156900D02*
X14820900Y16220399D01*
X14757401Y16154401D02*
Y16156900D01*
X14720401Y14312900D02*
X14897099D01*
X14414500Y14478000D02*
X14433940Y14458560D01*
X14312900Y14147800D02*
X14478000Y14312900D01*
X14565799D01*
X14433940Y14458560D02*
X14515961D01*
X14615800Y14358720D01*
Y14317801D02*
Y14358720D01*
Y14317801D02*
X14618102Y14315501D01*
X14718102Y14315199D02*
Y14315501D01*
Y14315199D02*
X14720401Y14312900D01*
X15697200Y14071600D02*
Y14211301D01*
X15776001Y14290102D02*
X15825398D01*
X15697200Y14211301D02*
X15776001Y14290102D01*
X13220700Y16776700D02*
X13741400D01*
X13816402D02*
X14163121D01*
X14203722Y16736101D01*
X13652499Y16294099D02*
X13754100Y16192500D01*
X13652499Y16294099D02*
Y16370300D01*
X13841801Y16522701D02*
X14185899D01*
X14299301Y16636101D01*
X13258800Y16992599D02*
X13601700D01*
X13220700Y17030701D02*
X13258800Y16992599D01*
X13220700Y16522701D02*
X13766800D01*
X13322301Y16370300D02*
X13652499D01*
X13220700Y16268700D02*
X13322301Y16370300D01*
X16814400Y14315501D02*
Y14529201D01*
X16964700Y13755197D02*
X16967200D01*
X16766701Y13953197D02*
X16964700Y13755197D01*
X16766701Y13953197D02*
Y14003198D01*
X16764401Y14005499D02*
X16766701Y14003198D01*
X17195799Y13630901D02*
Y13855701D01*
X17106900Y13944600D02*
X17195799Y13855701D01*
X17190800Y13550900D02*
X17195799D01*
X17068800Y13428900D02*
X17190800Y13550900D01*
X16972200Y13428900D02*
X17068800D01*
X16967200Y13423900D02*
X16972200Y13428900D01*
X16967200Y13423900D02*
Y13665199D01*
X16864401Y14005499D02*
X17024115D01*
X17085014Y13944600D01*
X17106900D01*
X16713200Y14004300D02*
X16714400Y14005499D01*
X15999500Y13780602D02*
X16002000D01*
X15875401Y13904701D02*
X15999500Y13780602D01*
X15875401Y13904701D02*
Y13980099D01*
X16268700Y13717900D02*
Y13817599D01*
X16154401Y13931900D02*
X16268700Y13817599D01*
X15975401Y13980099D02*
X16078708D01*
X16126907Y13931900D01*
X16154401D01*
X13816402Y13980099D02*
X13883701D01*
X14008099Y13855701D01*
X14380901Y16836099D02*
X14509908D01*
X14552107Y16878300D01*
X14579601D01*
X14380901Y16936099D02*
X14494307D01*
X14552107Y16878300D01*
X15061684Y16776700D02*
X15064293D01*
X15036800D02*
X15061684D01*
X15104892Y16736101D02*
X15260899D01*
X15064293Y16776700D02*
X15104892Y16736101D01*
X15121085Y16836099D02*
X15260899D01*
X15061684Y16776700D02*
X15121085Y16836099D01*
X15875000Y16560800D02*
X15875000Y16560800D01*
X15260899Y16936099D02*
X15446400D01*
X13727501Y16370300D02*
X14109700D01*
X14259560Y16520160D02*
X14340840D01*
X14109700Y16370300D02*
X14259560Y16520160D01*
X13613200Y16014700D02*
X13852560D01*
X14273962Y16436101D01*
X14380901D01*
X16864401Y14315199D02*
Y14315501D01*
Y14315199D02*
X16866701Y14312900D01*
X17043401D01*
X15975401Y14289799D02*
Y14290102D01*
Y14289799D02*
X15977701Y14287500D01*
X16141701D01*
X13816402Y14289799D02*
Y14290102D01*
Y14289799D02*
X13818701Y14287500D01*
X13995399D01*
X16762102Y14317801D02*
X16764401Y14315501D01*
X16762102Y14317801D02*
Y14358719D01*
X16687662Y14433160D02*
X16762102Y14358719D01*
X16618340Y14433160D02*
X16687662D01*
X16598900Y14452600D02*
X16618340Y14433160D01*
X15671800Y14439900D02*
X15678679Y14433022D01*
X15773399D01*
X15873100Y14292401D02*
Y14333321D01*
X15773399Y14433022D02*
X15873100Y14333321D01*
Y14292401D02*
X15875401Y14290102D01*
X16639601Y14315501D02*
X16714400D01*
X14565799Y14313200D02*
X14568098Y14315501D01*
X14565799Y14312900D02*
Y14313200D01*
X13411200Y14122400D02*
X13578902Y14290102D01*
X13666399D01*
X13777699Y12308098D02*
X13893800D01*
X13726900Y12358898D02*
X13777699Y12308098D01*
X13627100Y12358898D02*
X13726900D01*
X14491199Y11404102D02*
Y11603502D01*
Y11404102D02*
X14617700Y11277600D01*
X19496999Y5987598D02*
X19707001D01*
X19916998D01*
X20127000D01*
X20336998D01*
Y6167603D01*
Y5807598D02*
Y5987598D01*
X20127000Y5807598D02*
X20336998D01*
X19916998D02*
X20127000D01*
X19707001D02*
X19916998D01*
X19496999D02*
X19707001D01*
X19287003D02*
X19496999D01*
X19287003D02*
Y5987598D01*
Y6167603D01*
X19496999Y7677602D02*
X19707001D01*
X19916998D01*
X20127000D01*
X20336998D01*
X20503780Y7605821D02*
X20507001Y7602601D01*
X20408778Y7605821D02*
X20503780D01*
X20336998Y7677602D02*
X20408778Y7605821D01*
X20362001Y7882606D02*
Y8027599D01*
X20336998Y7857602D02*
X20362001Y7882606D01*
X20251999Y8027599D02*
X20264821Y8014777D01*
Y7929778D02*
Y8014777D01*
Y7929778D02*
X20336998Y7857602D01*
X20032001Y8027599D02*
X20049823Y8009776D01*
Y7934780D02*
Y8009776D01*
Y7934780D02*
X20127000Y7857602D01*
X19922002Y7862606D02*
Y8027599D01*
X19916998Y7857602D02*
X19922002Y7862606D01*
X19812000Y8027599D02*
X19838777Y8000822D01*
Y7935823D02*
Y8000822D01*
Y7935823D02*
X19916998Y7857602D01*
X19701997Y7862606D02*
Y8027599D01*
Y7862606D02*
X19707001Y7857602D01*
X19574178Y8009776D02*
X19592000Y8027599D01*
X19574178Y7934780D02*
Y8009776D01*
X19496999Y7857602D02*
X19574178Y7934780D01*
X20336998Y7677602D02*
Y7857602D01*
X20127000D02*
X20336998D01*
X19916998D02*
X20127000D01*
X19707001D02*
X19916998D01*
X19496999D02*
X19707001D01*
X19287003D02*
X19496999D01*
X19287003Y7497602D02*
Y7677602D01*
Y7857602D01*
X14414500Y9247398D02*
Y9249398D01*
X14491199Y9326096D01*
Y9478498D01*
Y9627098D01*
X14592300Y9728200D01*
X14541200Y9232600D02*
Y9478498D01*
X14478000Y9169400D02*
X14541200Y9232600D01*
X7924800Y6261100D02*
X8222701D01*
X7645400Y6540500D02*
X7924800Y6261100D01*
X7404100Y6917202D02*
X7405202Y6916100D01*
X7404100Y6917202D02*
Y7112000D01*
X7213600Y6924197D02*
X7221698Y6916100D01*
X7213600Y6924197D02*
Y7112000D01*
X7035800Y6918498D02*
X7038198Y6916100D01*
X7035800Y6918498D02*
Y7112000D01*
X7405202Y6916100D02*
X7410602Y6921500D01*
X7645400D01*
X7405202Y6732600D02*
X7406803Y6731000D01*
X7645400D01*
X7405202Y6549100D02*
X7413803Y6540500D01*
X7645400D01*
X7036598Y6731000D02*
X7038198Y6732600D01*
X6807200Y6731000D02*
X7036598D01*
X7029597Y6540500D02*
X7038198Y6549100D01*
X6807200Y6540500D02*
X7029597D01*
X7213600Y6541003D02*
X7221698Y6549100D01*
X7213600Y6350000D02*
Y6541003D01*
X7404100Y6547998D02*
X7405202Y6549100D01*
X7404100Y6350000D02*
Y6547998D01*
X7221698Y6732600D02*
X7405202D01*
Y6916100D01*
X7221698D02*
X7405202D01*
X7038198D02*
X7221698D01*
X7038198Y6732600D02*
Y6916100D01*
X7221698Y6549100D02*
X7405202D01*
X7038198D02*
X7221698D01*
X7038198D02*
Y6732600D01*
X8122702Y7682601D02*
Y7944902D01*
X8204200Y8026400D01*
X7995702Y7682601D02*
Y8021102D01*
X8255000Y8280400D01*
X7868702Y8135402D02*
X8267700Y8534400D01*
X7868702Y7682601D02*
Y8135402D01*
X7741702Y7682601D02*
Y8402102D01*
X8331200Y8991600D01*
X7614702Y7682601D02*
Y8529102D01*
X7487702Y7682601D02*
Y8656102D01*
X7823200Y8991600D01*
X7360702Y7682601D02*
Y8783102D01*
X7569200Y8991600D01*
X7106702Y7682601D02*
Y8783102D01*
X7315200Y8991600D01*
X6979702Y7682601D02*
Y9100602D01*
X7467600Y9588500D01*
X6852702Y7682601D02*
Y9227602D01*
X6725702Y7682601D02*
Y9354602D01*
X7467600Y10096500D01*
X6598702Y7682601D02*
Y9481602D01*
X7467600Y10350500D01*
X14253699Y9815998D02*
Y9866000D01*
X14340840Y16520160D02*
Y16536101D01*
X20507001Y5842599D02*
X20675600D01*
X14340840Y16536101D02*
X14380901D01*
X14203722Y16736101D02*
X14380901D01*
X20832602Y2949702D02*
X20952602D01*
X20602600Y2679700D02*
X20802600D01*
X20832602Y2829082D02*
Y2949702D01*
X20802600Y2799080D02*
X20832602Y2829082D01*
X20802600Y2679700D02*
Y2799080D01*
X14299301Y16636101D02*
X14380901D01*
D12*
X8809596Y15951199D02*
G03*
X8401390Y15542993I0J-408206D01*
G01*
X7696200Y14706599D02*
G03*
X8401391Y15411790I1J705191D01*
G01*
X7264400Y14706599D02*
G03*
X7010400Y14452600I0J-254000D01*
G01*
Y14363699D02*
G03*
X7055301Y14255299I153302J0D01*
G01*
X12105279Y14010278D02*
G03*
X12141200Y14097000I-86721J86721D01*
G01*
Y14209448D02*
Y14350999D01*
Y14097000D02*
Y14209448D01*
X8809596Y15951199D02*
X8915399D01*
X7264400Y14706599D02*
X7264400D01*
X7696200Y14706599D01*
X7010400Y14363699D02*
Y14452600D01*
X7055301Y14255299D02*
X7124700Y14185899D01*
X8305800Y17297400D02*
X8864600Y16738600D01*
Y16567822D02*
Y16738600D01*
Y16567822D02*
X9227223Y16205200D01*
X9899800D01*
X7620000Y17056100D02*
X7861300Y17297400D01*
X8305800D01*
X7620000Y16348000D02*
Y17056100D01*
X10394800Y15951199D02*
Y16205200D01*
X8915400Y15951199D02*
X9899800D01*
X7493000Y15469400D02*
X7722400Y15239999D01*
X7493000Y15469400D02*
Y15783002D01*
X7620000D01*
X9410700Y16713200D02*
X9899800D01*
X9194800Y16929100D02*
X9410700Y16713200D01*
X8915399Y15951199D02*
X8915400Y15951199D01*
X8401391Y15411790D02*
Y15542993D01*
X9385300Y16459200D02*
X9899800D01*
X10394800Y16205200D02*
Y16459200D01*
Y16713200D01*
X12052300Y13957300D02*
X12105279Y14010278D01*
X6601351Y5514449D02*
X6604000Y5511800D01*
X6601351Y5514449D02*
Y5979950D01*
X6598702Y5982599D02*
X6601351Y5979950D01*
X7493000Y16348000D02*
X7620000D01*
X7366000D02*
X7493000D01*
D13*
X6604000Y13309599D02*
G03*
X6858000Y13055600I254000J0D01*
G01*
X8293100Y12687300D02*
X8445500Y12534900D01*
X8293100Y12687300D02*
Y12845900D01*
X6604000Y13309599D02*
Y13448399D01*
Y13526401D02*
Y13881100D01*
X6604000Y13881100D01*
X8391800Y13185500D02*
Y13509900D01*
X8388900Y13076720D02*
Y13182600D01*
X8298080Y12985899D02*
X8388900Y13076720D01*
X11087100Y15101100D02*
Y15925800D01*
X11086300Y15100301D02*
X11087100Y15101100D01*
X11226000Y14960600D02*
X11709400D01*
X11086300Y15100301D02*
X11226000Y14960600D01*
X10807700Y16205200D02*
X11087100Y15925800D01*
X10394800Y16205200D02*
X10807700D01*
X6896100Y16243300D02*
X7000799Y16348000D01*
X6896100Y16116299D02*
Y16243300D01*
Y15798801D02*
Y16038303D01*
X7000799Y16348000D02*
X7366000D01*
X11007298Y8505200D02*
Y9300200D01*
Y8385602D02*
Y8505200D01*
X11124302Y8268598D02*
X11404600D01*
X11007298Y8385602D02*
X11124302Y8268598D01*
X15798801Y16132100D02*
X15925800D01*
X16052800D01*
X11290198Y17149902D02*
X11658498D01*
X11302898Y17454703D02*
X11648694D01*
D14*
X11887844Y14833282D02*
G03*
X11760200Y14960600I-127645J-327D01*
G01*
X12066200Y14578400D02*
G03*
X11963400Y14681200I-102800J0D01*
G01*
X11887844Y14756757D02*
G03*
X11963400Y14681200I75556J0D01*
G01*
X11791539Y14659258D02*
G03*
X11887844Y14832500I-108487J173697D01*
G01*
X11791539Y14659258D02*
G03*
X11710566Y14490836I92740J-148263D01*
G01*
X7930200Y13437000D02*
Y13575349D01*
X8210550Y13855701D01*
X7930200Y13372000D02*
Y13437000D01*
X7200900Y13703300D02*
X7335200Y13569000D01*
Y13437000D02*
Y13569000D01*
X7010400Y13322301D02*
X7155700Y13177000D01*
X7335200D01*
X6858000Y13055600D02*
X6866600Y13047000D01*
X7335200D01*
X7687700Y13034500D02*
X7693700D01*
X7811200Y12917000D01*
X7693700Y13254500D02*
X7811200Y13372000D01*
X7930200D01*
X7990800Y13182600D02*
X8298900D01*
X7930200Y13177000D02*
X7985200D01*
X7990800Y13182600D01*
X8388900D02*
X8391800Y13185500D01*
X7932150Y12983949D02*
X8291150D01*
X7991299Y12845900D02*
X8293100D01*
X7985200Y12852000D02*
X7991299Y12845900D01*
X7930200Y12852000D02*
X7985200D01*
X8291150Y12983949D02*
X8293100Y12985899D01*
X7930200Y12982001D02*
X7932150Y12983949D01*
X7930200Y12852000D02*
Y12917000D01*
X7335200Y13047000D02*
Y13112000D01*
X7930200Y12982001D02*
Y13047000D01*
X7335200Y13307001D02*
Y13372000D01*
Y13437000D01*
Y13307001D02*
X7519200D01*
X7335200Y13177000D02*
X7545200D01*
X7519200Y13307001D02*
X7571700Y13254500D01*
X7545200Y13177000D02*
X7577700Y13144501D01*
X7335200Y12917000D02*
X7454200D01*
X7811200D02*
X7930200D01*
X7454200D02*
X7571700Y13034500D01*
X7335200Y12852000D02*
Y12917000D01*
X11760200Y14960600D02*
X11760200D01*
X11709400D02*
X11760200D01*
X12066200Y14492552D02*
Y14578400D01*
X11887844Y14832500D02*
Y14833282D01*
Y14756757D02*
Y14832500D01*
X22288499Y11582400D02*
X26018500Y11582400D01*
X21919600D02*
X21925549Y11582400D01*
X22288499D01*
D15*
X6604000Y13448399D02*
D03*
Y13526401D02*
D03*
X24638000Y7621000D02*
D03*
Y7699000D02*
D03*
X20802600Y8014600D02*
D03*
Y7936600D02*
D03*
X17195799Y13629900D02*
D03*
Y13551900D02*
D03*
X16268700Y13716901D02*
D03*
Y13638901D02*
D03*
X12573000Y14224899D02*
D03*
Y14146899D02*
D03*
X11404600Y8268598D02*
D03*
Y8190600D02*
D03*
X9232900Y14428099D02*
D03*
Y14350101D02*
D03*
X10972800Y14426300D02*
D03*
Y14504298D02*
D03*
X14414500Y9169400D02*
D03*
Y9247398D02*
D03*
X15163800Y9218402D02*
D03*
Y9296400D02*
D03*
X15659100Y9218402D02*
D03*
Y9296400D02*
D03*
X16192500Y8485398D02*
D03*
Y8407400D02*
D03*
X16814799Y11378300D02*
D03*
Y11456298D02*
D03*
X13893800Y12230100D02*
D03*
Y12308098D02*
D03*
X13627100Y12280900D02*
D03*
Y12358898D02*
D03*
X12141200Y9092302D02*
D03*
Y9170300D02*
D03*
X12865100Y9792600D02*
D03*
Y9714602D02*
D03*
X6896100Y16038303D02*
D03*
Y16116299D02*
D03*
D16*
X8388900Y13182600D02*
D03*
X8298900D02*
D03*
D17*
X7632700Y13144501D02*
D03*
D18*
X7930200Y12852000D02*
D03*
Y12917000D02*
D03*
Y12982001D02*
D03*
Y13047000D02*
D03*
Y13112000D02*
D03*
Y13177000D02*
D03*
Y13242000D02*
D03*
Y13307001D02*
D03*
Y13372000D02*
D03*
Y13437000D02*
D03*
X7335200Y12852000D02*
D03*
Y12917000D02*
D03*
Y12982001D02*
D03*
Y13047000D02*
D03*
Y13112000D02*
D03*
Y13177000D02*
D03*
Y13242000D02*
D03*
Y13307001D02*
D03*
Y13372000D02*
D03*
Y13437000D02*
D03*
D19*
X19164301Y16259991D02*
D03*
Y16455208D02*
D03*
D20*
X21043100Y14922501D02*
D03*
X20943100D02*
D03*
X18377699Y16903700D02*
D03*
X18477699D02*
D03*
D21*
X21488400Y13820000D02*
D03*
Y13970000D02*
D03*
D22*
X21082800Y14198599D02*
D03*
X21208199D02*
D03*
D23*
X23937000Y4496000D02*
D03*
X24830000D02*
D03*
D24*
X23916499Y5068000D02*
D03*
Y5643000D02*
D03*
X24849500D02*
D03*
Y5068000D02*
D03*
D25*
X24701500Y5715000D02*
D03*
X24320500D02*
D03*
X24066499D02*
D03*
X24574500D02*
D03*
X24447501D02*
D03*
X24193500D02*
D03*
D26*
X8115300Y16550500D02*
D03*
Y16850500D02*
D03*
X16916400Y15686900D02*
D03*
Y15986900D02*
D03*
D27*
X10557300Y8505200D02*
D03*
X11007300D02*
D03*
X10557300Y9300200D02*
D03*
X11007300D02*
D03*
D28*
X20572603Y2949702D02*
D03*
X20637602D02*
D03*
X20702600D02*
D03*
X20767604D02*
D03*
X20832602D02*
D03*
X20355099Y17378300D02*
D03*
X20420100D02*
D03*
X20485100D02*
D03*
X20550101D02*
D03*
X20615100D02*
D03*
D29*
X20602600Y2679700D02*
D03*
X20802600D02*
D03*
X20385100Y17648300D02*
D03*
X20585100D02*
D03*
D30*
X24904597Y6731000D02*
D03*
X24866600D02*
D03*
X23799902Y6553200D02*
D03*
X23837900D02*
D03*
X24180698Y6781800D02*
D03*
X24142700D02*
D03*
X24536298Y6946900D02*
D03*
X24498300D02*
D03*
X20555002Y10198100D02*
D03*
X20592999D02*
D03*
D31*
X21629601Y16002000D02*
D03*
Y16042000D02*
D03*
Y16082001D02*
D03*
X21564600Y16002000D02*
D03*
Y16042000D02*
D03*
Y16082001D02*
D03*
D32*
X16999200Y6470000D02*
D03*
X17189200D02*
D03*
Y6230000D02*
D03*
X17094200D02*
D03*
X16999200D02*
D03*
D33*
X23444200Y7070400D02*
D03*
Y6950400D02*
D03*
X24180800Y7705400D02*
D03*
Y7585400D02*
D03*
X23126700Y6689400D02*
D03*
Y6569400D02*
D03*
X23710899Y7438700D02*
D03*
Y7318700D02*
D03*
X20993100Y10842300D02*
D03*
Y10722300D02*
D03*
D34*
X16902800Y5918200D02*
D03*
X16980800D02*
D03*
X6526900Y5270500D02*
D03*
X6604900D02*
D03*
X11708500Y13855701D02*
D03*
X11786500D02*
D03*
X15888599Y12204700D02*
D03*
X15810600D02*
D03*
X13740501Y11391900D02*
D03*
X13818500D02*
D03*
X18022198Y10134600D02*
D03*
X17944200D02*
D03*
X18388699Y10985500D02*
D03*
X18466698D02*
D03*
X15201001Y12611100D02*
D03*
X15278999D02*
D03*
D35*
X8356600Y10668000D02*
D03*
X8431600D02*
D03*
X21844598Y11582400D02*
D03*
X21919600D02*
D03*
X13398500Y17335500D02*
D03*
X13473502D02*
D03*
D36*
X21234399Y8611200D02*
D03*
Y8686200D02*
D03*
X21564600Y12039001D02*
D03*
Y11964000D02*
D03*
X13893800Y17410501D02*
D03*
Y17335500D02*
D03*
D37*
X18021300Y15987601D02*
D03*
Y16092599D02*
D03*
D38*
X8293100Y12845900D02*
D03*
Y12985899D02*
D03*
D39*
X9899800Y16713200D02*
D03*
Y16459200D02*
D03*
Y16205200D02*
D03*
Y15951199D02*
D03*
X10394800D02*
D03*
Y16713200D02*
D03*
Y16459200D02*
D03*
Y16205200D02*
D03*
D40*
X18751300Y16254401D02*
D03*
X18561301D02*
D03*
X18656300Y16054401D02*
D03*
D41*
X18172501Y15621001D02*
D03*
X18022501D02*
D03*
D42*
X19933900Y16827499D02*
D03*
X20248900D02*
D03*
D43*
X20154900Y11545900D02*
D03*
Y11645900D02*
D03*
X20332700Y9765500D02*
D03*
Y9665500D02*
D03*
X15925800Y15340800D02*
D03*
Y15240800D02*
D03*
X16598900Y15683701D02*
D03*
Y15583701D02*
D03*
X6807200Y4674400D02*
D03*
Y4774400D02*
D03*
X8547100Y16547301D02*
D03*
Y16447301D02*
D03*
D44*
X20523199Y11778700D02*
D03*
Y11868700D02*
D03*
X9817100Y14434100D02*
D03*
Y14344099D02*
D03*
X11277600Y14446800D02*
D03*
Y14356799D02*
D03*
X9906000Y8427000D02*
D03*
Y8337000D02*
D03*
X8178800Y9938300D02*
D03*
Y9848300D02*
D03*
X11874500Y9265200D02*
D03*
Y9175202D02*
D03*
X11531600Y9391102D02*
D03*
Y9481100D02*
D03*
X12573000Y14726199D02*
D03*
Y14636201D02*
D03*
X16002000Y13690601D02*
D03*
Y13780602D02*
D03*
X16967200Y13755197D02*
D03*
Y13665199D02*
D03*
D45*
X11976900Y16687801D02*
D03*
X12076900D02*
D03*
X7722400Y15239999D02*
D03*
X7822400D02*
D03*
X10986300Y15100301D02*
D03*
X11086300D02*
D03*
D46*
X6724100Y4406900D02*
D03*
X6814100D02*
D03*
X16947600Y8331200D02*
D03*
X17037601D02*
D03*
X6903000Y5156200D02*
D03*
X6813000D02*
D03*
X12021099Y13614400D02*
D03*
X11931101D02*
D03*
D47*
X6546700Y4927600D02*
D03*
X6686700D02*
D03*
D48*
X6934444Y15049500D02*
D03*
X7010156D02*
D03*
D49*
X15659100Y15379456D02*
D03*
Y15303745D02*
D03*
X16383000Y7645644D02*
D03*
Y7721356D02*
D03*
Y8483356D02*
D03*
Y8407644D02*
D03*
D50*
X16179800Y16132100D02*
D03*
X16052800D02*
D03*
X15925800D02*
D03*
X15798801D02*
D03*
X16179800Y15567101D02*
D03*
X16052800D02*
D03*
X15925800D02*
D03*
X15798801D02*
D03*
X7366000Y15783002D02*
D03*
X7493000D02*
D03*
X7620000D02*
D03*
X7747000D02*
D03*
X7366000Y16348000D02*
D03*
X7493000D02*
D03*
X7620000D02*
D03*
X7747000D02*
D03*
D51*
X12215500Y17255499D02*
D03*
Y17295500D02*
D03*
Y17335500D02*
D03*
X12255500D02*
D03*
Y17295500D02*
D03*
Y17255499D02*
D03*
D52*
X21472952Y11252200D02*
D03*
X21605447D02*
D03*
X21554648Y10172700D02*
D03*
X21422153D02*
D03*
D53*
X21417102Y12496800D02*
D03*
X21712099D02*
D03*
D54*
X21564600Y12344298D02*
D03*
X21602699Y10857301D02*
D03*
Y10707299D02*
D03*
D55*
X26028900Y11572001D02*
D03*
Y11772001D02*
D03*
D56*
X26123901Y10922000D02*
D03*
Y14722003D02*
D03*
D57*
X20828000Y9724586D02*
D03*
Y9579414D02*
D03*
D58*
X9232900Y13686510D02*
D03*
Y13821689D02*
D03*
D59*
X10464800Y14122400D02*
D03*
D60*
X10399801Y14024596D02*
D03*
D61*
X10464800D02*
D03*
X10529799D02*
D03*
Y14220206D02*
D03*
X10464800D02*
D03*
X10399801D02*
D03*
D62*
X10617200Y15035600D02*
D03*
Y14885599D02*
D03*
D63*
X15891200Y11603502D02*
D03*
X14441200D02*
D03*
X14491199D02*
D03*
X14541200D02*
D03*
X14591199D02*
D03*
X14641200D02*
D03*
X14691203D02*
D03*
X14741200D02*
D03*
X14791202D02*
D03*
X14841200D02*
D03*
X14891202D02*
D03*
X14941199D02*
D03*
X14991202D02*
D03*
X15041199D02*
D03*
X15091202D02*
D03*
X15141199D02*
D03*
X15191202D02*
D03*
X15241199D02*
D03*
X15291200D02*
D03*
X15341199D02*
D03*
X15391200D02*
D03*
X15441199D02*
D03*
X15491200D02*
D03*
X15541199D02*
D03*
X15591200D02*
D03*
X15641199D02*
D03*
X15691200D02*
D03*
X15741199D02*
D03*
X15791200D02*
D03*
X15841199D02*
D03*
X15941203D02*
D03*
X15991200D02*
D03*
X16041202D02*
D03*
X16091200D02*
D03*
X16141202D02*
D03*
X16191200D02*
D03*
Y9478498D02*
D03*
X16141202D02*
D03*
X16091200D02*
D03*
X16041202D02*
D03*
X15991200D02*
D03*
X15941203D02*
D03*
X15891200D02*
D03*
X15841199D02*
D03*
X15791200D02*
D03*
X15741199D02*
D03*
X15691200D02*
D03*
X15641199D02*
D03*
X15591200D02*
D03*
X15541199D02*
D03*
X15491200D02*
D03*
X15441199D02*
D03*
X15391200D02*
D03*
X15341199D02*
D03*
X15291200D02*
D03*
X15241199D02*
D03*
X15191202D02*
D03*
X15141199D02*
D03*
X15091202D02*
D03*
X15041199D02*
D03*
X14991202D02*
D03*
X14941199D02*
D03*
X14891202D02*
D03*
X14841200D02*
D03*
X14791202D02*
D03*
X14741200D02*
D03*
X14691203D02*
D03*
X14641200D02*
D03*
X14591199D02*
D03*
X14541200D02*
D03*
X14491199D02*
D03*
X14441200D02*
D03*
D64*
X13601700Y16992599D02*
D03*
X13741400Y16776700D02*
D03*
X13816402D02*
D03*
X15683900Y17056100D02*
D03*
X15608900D02*
D03*
X13676701Y16992599D02*
D03*
X13538200Y16014700D02*
D03*
X13613200D02*
D03*
X15734100Y16865601D02*
D03*
X15659100D02*
D03*
X15950002Y16560800D02*
D03*
X15875000D02*
D03*
X13652499Y16370300D02*
D03*
X13727501D02*
D03*
X13766800Y16522701D02*
D03*
X13841801D02*
D03*
D65*
X13766399Y14290102D02*
D03*
X16814400Y14315501D02*
D03*
X15925398Y14290102D02*
D03*
X14668098Y14315501D02*
D03*
X14568098Y14005499D02*
D03*
X14618102D02*
D03*
X14668098D02*
D03*
X14718102D02*
D03*
Y14315501D02*
D03*
X14618102D02*
D03*
X14568098D02*
D03*
X15825398Y14290102D02*
D03*
X15875401D02*
D03*
X15975401D02*
D03*
Y13980099D02*
D03*
X15925398D02*
D03*
X15875401D02*
D03*
X15825398D02*
D03*
X16714400Y14005499D02*
D03*
X16764401D02*
D03*
X16814400D02*
D03*
X16864401D02*
D03*
Y14315501D02*
D03*
X16764401D02*
D03*
X16714400D02*
D03*
X13666399Y13980099D02*
D03*
X13716402D02*
D03*
X13766399D02*
D03*
X13816402D02*
D03*
Y14290102D02*
D03*
X13716402D02*
D03*
X13666399D02*
D03*
D66*
X6471702Y5982599D02*
D03*
X6598702D02*
D03*
X6725702D02*
D03*
X6852702D02*
D03*
X6979702D02*
D03*
X7106702D02*
D03*
X7233702D02*
D03*
X7360702D02*
D03*
X7487702D02*
D03*
X7614702D02*
D03*
X7741702D02*
D03*
X7868702D02*
D03*
X7995702D02*
D03*
X8122702D02*
D03*
Y7682601D02*
D03*
X7995702D02*
D03*
X7868702D02*
D03*
X7741702D02*
D03*
X7614702D02*
D03*
X7487702D02*
D03*
X7360702D02*
D03*
X7233702D02*
D03*
X7106702D02*
D03*
X6979702D02*
D03*
X6852702D02*
D03*
X6725702D02*
D03*
X6598702D02*
D03*
X6471702D02*
D03*
D67*
X8222701Y6261100D02*
D03*
Y6388100D02*
D03*
Y6515100D02*
D03*
Y6642100D02*
D03*
Y6769100D02*
D03*
Y6896100D02*
D03*
Y7023100D02*
D03*
Y7150100D02*
D03*
Y7277100D02*
D03*
Y7404100D02*
D03*
D68*
X7038198Y6549100D02*
D03*
Y6732600D02*
D03*
Y6916100D02*
D03*
X7221698Y6549100D02*
D03*
Y6732600D02*
D03*
Y6916100D02*
D03*
X7405202Y6549100D02*
D03*
Y6732600D02*
D03*
Y6916100D02*
D03*
D69*
X11709400Y14960600D02*
D03*
Y15275601D02*
D03*
D70*
X11658498Y17149902D02*
D03*
Y17444897D02*
D03*
D71*
X11811000Y17297400D02*
D03*
D72*
X15260899Y16436101D02*
D03*
Y16536101D02*
D03*
Y16636101D02*
D03*
Y16736101D02*
D03*
Y16836099D02*
D03*
Y16936099D02*
D03*
Y17036099D02*
D03*
Y17136099D02*
D03*
Y17236099D02*
D03*
Y17336099D02*
D03*
Y17436099D02*
D03*
Y17536099D02*
D03*
X14380901D02*
D03*
Y17436099D02*
D03*
Y17336099D02*
D03*
Y17236099D02*
D03*
Y17136099D02*
D03*
Y17036099D02*
D03*
Y16936099D02*
D03*
Y16836099D02*
D03*
Y16736101D02*
D03*
Y16636101D02*
D03*
Y16536101D02*
D03*
Y16436101D02*
D03*
D73*
X15260899Y17651100D02*
D03*
X14380901D02*
D03*
D74*
X14620900Y16396101D02*
D03*
X14720900D02*
D03*
X14820900D02*
D03*
X14920900D02*
D03*
X15020900D02*
D03*
D75*
X19287003Y7137598D02*
D03*
X20336998D02*
D03*
Y6527602D02*
D03*
X19287003D02*
D03*
X20336998Y6167603D02*
D03*
X19287003D02*
D03*
X20336998Y5807598D02*
D03*
X20127000D02*
D03*
X19916998D02*
D03*
X19707001D02*
D03*
X19496999D02*
D03*
X19287003D02*
D03*
X20336998Y5987598D02*
D03*
X20127000D02*
D03*
X19916998D02*
D03*
X19707001D02*
D03*
X19496999D02*
D03*
X19287003D02*
D03*
X20336998Y7497602D02*
D03*
X19287003D02*
D03*
X20336998Y7677602D02*
D03*
X20127000D02*
D03*
X19916998D02*
D03*
X19707001D02*
D03*
X19496999D02*
D03*
X19287003D02*
D03*
X20336998Y7857602D02*
D03*
X20127000D02*
D03*
X19916998D02*
D03*
X19707001D02*
D03*
X19496999D02*
D03*
X19287003D02*
D03*
D76*
X19262000Y8027599D02*
D03*
X19372002D02*
D03*
X19481998D02*
D03*
X19592000D02*
D03*
X19701997D02*
D03*
X19812000D02*
D03*
X19922002D02*
D03*
X20032001D02*
D03*
X20142001D02*
D03*
X20251999D02*
D03*
X20362001D02*
D03*
Y5637601D02*
D03*
X20251999D02*
D03*
X20142001D02*
D03*
X20032001D02*
D03*
X19922002D02*
D03*
X19812000D02*
D03*
X19701997D02*
D03*
X19592000D02*
D03*
X19481998D02*
D03*
X19372002D02*
D03*
X19262000D02*
D03*
D77*
X20507001Y7932598D02*
D03*
Y7822601D02*
D03*
Y7712598D02*
D03*
Y7602601D02*
D03*
Y7492599D02*
D03*
Y7382601D02*
D03*
Y7272599D02*
D03*
Y7162602D02*
D03*
Y7052600D02*
D03*
Y6942602D02*
D03*
Y6832600D02*
D03*
Y6722598D02*
D03*
Y6612600D02*
D03*
Y6502598D02*
D03*
Y6392601D02*
D03*
Y6282599D02*
D03*
Y6172601D02*
D03*
Y6062599D02*
D03*
Y5952602D02*
D03*
Y5842599D02*
D03*
Y5732602D02*
D03*
X19117000D02*
D03*
Y5842599D02*
D03*
Y5952602D02*
D03*
Y6062599D02*
D03*
Y6172601D02*
D03*
Y6282599D02*
D03*
Y6392601D02*
D03*
Y6502598D02*
D03*
Y6612600D02*
D03*
Y6722598D02*
D03*
Y6832600D02*
D03*
Y6942602D02*
D03*
Y7052600D02*
D03*
Y7162602D02*
D03*
Y7272599D02*
D03*
Y7382601D02*
D03*
Y7492599D02*
D03*
Y7602601D02*
D03*
Y7712598D02*
D03*
Y7822601D02*
D03*
Y7932598D02*
D03*
D78*
X15011400Y16078200D02*
D03*
Y16153201D02*
D03*
X14757401Y16079399D02*
D03*
Y16154401D02*
D03*
D79*
X11709400Y14490700D02*
D03*
Y14355699D02*
D03*
D80*
X16378702Y11416000D02*
D03*
Y11366002D02*
D03*
Y11316000D02*
D03*
Y11266002D02*
D03*
Y11216000D02*
D03*
Y11166003D02*
D03*
Y11116000D02*
D03*
Y11065998D02*
D03*
Y11016000D02*
D03*
Y10965998D02*
D03*
Y10916001D02*
D03*
Y10865998D02*
D03*
Y10816001D02*
D03*
Y10765998D02*
D03*
Y10716001D02*
D03*
Y10665998D02*
D03*
Y10616001D02*
D03*
Y10565999D02*
D03*
Y10516001D02*
D03*
Y10465999D02*
D03*
Y10416002D02*
D03*
Y10365999D02*
D03*
Y10316002D02*
D03*
Y10265999D02*
D03*
Y10216002D02*
D03*
Y10165999D02*
D03*
Y10116002D02*
D03*
Y10066000D02*
D03*
Y10016002D02*
D03*
Y9966000D02*
D03*
Y9916003D02*
D03*
Y9866000D02*
D03*
Y9815998D02*
D03*
Y9766000D02*
D03*
Y9715998D02*
D03*
Y9666000D02*
D03*
X14253699D02*
D03*
Y9715998D02*
D03*
Y9766000D02*
D03*
Y9815998D02*
D03*
Y9866000D02*
D03*
Y9916003D02*
D03*
Y9966000D02*
D03*
Y10016002D02*
D03*
Y10066000D02*
D03*
Y10116002D02*
D03*
Y10165999D02*
D03*
Y10216002D02*
D03*
Y10265999D02*
D03*
Y10316002D02*
D03*
Y10365999D02*
D03*
Y10416002D02*
D03*
Y10465999D02*
D03*
Y10516001D02*
D03*
Y10565999D02*
D03*
Y10616001D02*
D03*
Y10665998D02*
D03*
Y10716001D02*
D03*
Y10765998D02*
D03*
Y10816001D02*
D03*
Y10865998D02*
D03*
Y10916001D02*
D03*
Y10965998D02*
D03*
Y11016000D02*
D03*
Y11065998D02*
D03*
Y11116000D02*
D03*
Y11166003D02*
D03*
Y11216000D02*
D03*
Y11266002D02*
D03*
Y11316000D02*
D03*
Y11366002D02*
D03*
Y11416000D02*
D03*
D81*
X12141201Y14350998D02*
D03*
D82*
X12066200Y14209448D02*
D03*
D83*
X12116202D02*
D03*
X12166200D02*
D03*
X12216202D02*
D03*
Y14492552D02*
D03*
X12166200D02*
D03*
X12116202D02*
D03*
X12066200D02*
D03*
D84*
X17564101Y13055600D02*
X19431000Y14922501D01*
X16154401Y13055600D02*
X17564101D01*
X15391200Y12292401D02*
X16154401Y13055600D01*
X17500600Y13106400D02*
X19443700Y15049500D01*
X15341199Y12305899D02*
X16141701Y13106400D01*
X17500600D01*
X16128999Y13157201D02*
X17437100D01*
X15291200Y12319401D02*
X16128999Y13157201D01*
X17437100D02*
X19456400Y15176500D01*
X15841199Y11603502D02*
Y11866098D01*
X16394980Y12419880D02*
X17791980D01*
X15841199Y11866098D02*
X16394980Y12419880D01*
X15791200Y11854200D02*
X16471899Y12534900D01*
X15791200Y11603502D02*
Y11854200D01*
X15741199Y11603502D02*
Y11842298D01*
X16014700Y12115800D01*
Y12153900D01*
X15976601Y12128500D02*
Y12357100D01*
X15691200Y11603502D02*
Y11843101D01*
X15976601Y12128500D01*
X15888599Y12078599D02*
Y12204700D01*
X15641199Y11603502D02*
Y11831198D01*
X15888599Y12078599D01*
X15722600Y12065000D02*
X15810600Y12153001D01*
Y12204700D01*
X15591200Y11603502D02*
Y11933600D01*
X15722600Y12065000D01*
X16205200Y12725400D02*
X17500600D01*
X15541199Y11603502D02*
Y12061398D01*
X16205200Y12725400D01*
X15491200Y12062201D02*
X16205200Y12776200D01*
X17411700D01*
X15491200Y11603502D02*
Y12062201D01*
X15976601Y12357100D02*
X16294099Y12674600D01*
X17614900D01*
X15391200Y11603502D02*
Y12292401D01*
X15341199Y11603502D02*
Y12305899D01*
X15291200Y11603502D02*
Y12319401D01*
X15277589Y12572490D02*
Y12609691D01*
X15278999Y12611100D01*
X15141199Y11603502D02*
Y12436099D01*
X15277589Y12572490D01*
X15091202Y11603502D02*
Y12449602D01*
X15201001Y12559401D01*
Y12611100D01*
Y12686401D01*
X15316200Y12801601D01*
X15367000Y13042900D02*
X15532100D01*
X15041199Y12717099D02*
X15367000Y13042900D01*
X15041199Y11603502D02*
Y12717099D01*
X13144501Y6807000D02*
X14891202Y8553702D01*
Y9478498D01*
X13274507Y6683007D02*
Y6873707D01*
X14941199Y8540399D02*
Y9478498D01*
X13274507Y6873707D02*
X14941199Y8540399D01*
X13017500Y6680000D02*
Y6845300D01*
X14841200Y8669000D02*
Y9478498D01*
X13017500Y6845300D02*
X14841200Y8669000D01*
X12890500Y6807000D02*
X14791202Y8707702D01*
Y9478498D01*
X12890500Y6553000D02*
X13017500Y6680000D01*
X13398500Y6807000D02*
X14991202Y8399702D01*
Y9478498D01*
X13525500Y6883400D02*
X15041199Y8399099D01*
X13525500Y6680000D02*
Y6883400D01*
X15041199Y8399099D02*
Y9478498D01*
X13652499Y6807000D02*
Y6959600D01*
X15091202Y8398302D02*
Y9478498D01*
X13652499Y6959600D02*
X15091202Y8398302D01*
X13779500Y6680000D02*
Y7010400D01*
X15163800Y8394700D02*
Y9218402D01*
X13779500Y7010400D02*
X15163800Y8394700D01*
X13906500Y6807000D02*
Y7061200D01*
X15241199Y8395899D01*
Y9478498D01*
X14033501Y6680000D02*
Y7137400D01*
X15291200Y8395101D02*
Y9478498D01*
X14033501Y7137400D02*
X15291200Y8395101D01*
X14160500Y6807000D02*
Y7213600D01*
X15341199Y8394299D02*
Y9478498D01*
X14160500Y7213600D02*
X15341199Y8394299D01*
X14287500Y6680000D02*
Y7289800D01*
X15391200Y8393501D02*
Y9478498D01*
X14287500Y7289800D02*
X15391200Y8393501D01*
X14414500Y6807000D02*
Y7366000D01*
X15441199Y8392698D02*
Y9478498D01*
X14414500Y7366000D02*
X15441199Y8392698D01*
X14541499Y6680000D02*
Y7442200D01*
X15491200Y8391901D02*
Y9478498D01*
X14541499Y7442200D02*
X15491200Y8391901D01*
X15541199Y8391098D02*
Y9478498D01*
X14668500Y7518400D02*
X15541199Y8391098D01*
X14668500Y6807000D02*
Y7518400D01*
X14790308Y7589408D02*
X15591200Y8390301D01*
Y9478498D01*
X14790308Y6674808D02*
Y7589408D01*
X15049500Y6680000D02*
Y7785100D01*
X15659100Y8394700D01*
Y9218402D01*
Y9294400D02*
Y9296400D01*
Y9359900D01*
X15176500Y6807000D02*
Y7823200D01*
X15741199Y8387898D02*
Y9478498D01*
X15176500Y7823200D02*
X15741199Y8387898D01*
X15791200Y8387100D02*
Y9478498D01*
X15303500Y6680000D02*
Y7899400D01*
X15791200Y8387100D01*
X15841199Y8386298D02*
Y9478498D01*
X15430499Y6807000D02*
Y7975600D01*
X15841199Y8386298D01*
X15562865Y8057164D02*
X15891200Y8385500D01*
X15562865Y6685364D02*
Y8057164D01*
X15891200Y8385500D02*
Y9478498D01*
X15941203Y8384703D02*
Y9478498D01*
X15684500Y6807000D02*
Y8128000D01*
X15941203Y8384703D01*
X15938499Y6807000D02*
Y8280400D01*
X16041202Y8383102D02*
Y9478498D01*
X15938499Y8280400D02*
X16041202Y8383102D01*
X15991200Y8383900D02*
Y9478498D01*
X15816864Y8209564D02*
X15991200Y8383900D01*
X15816864Y6685364D02*
Y8209564D01*
X9042600Y11201400D02*
X9169400Y11328200D01*
Y11328400D01*
X14554201Y11849100D02*
X14691203Y11712098D01*
Y11603502D02*
Y11712098D01*
X14554201Y11849100D02*
Y12115800D01*
X14641200Y11603502D02*
Y11711300D01*
X14414500Y11938000D02*
Y12306300D01*
Y11938000D02*
X14641200Y11711300D01*
X14300200Y12001500D02*
X14591199Y11710503D01*
Y11603502D02*
Y11710503D01*
X14300200Y12001500D02*
Y12484100D01*
X14541200Y11603502D02*
Y11709700D01*
X14160500Y12090400D02*
Y12649200D01*
Y12090400D02*
X14541200Y11709700D01*
X11360729Y11963400D02*
X12630729Y10693400D01*
X13296899D02*
X13411200Y10807700D01*
X12630729Y10693400D02*
X13296899D01*
X13411200Y10807700D02*
X13893800D01*
X12700000Y10756900D02*
X13258800D01*
X13335001Y10833100D02*
X13900729D01*
X13258800Y10756900D02*
X13335001Y10833100D01*
X11366500Y12090400D02*
X12700000Y10756900D01*
X13343663Y10629900D02*
X13496063Y10782300D01*
X12573000Y10629900D02*
X13343663D01*
X13496063Y10782300D02*
X13854552D01*
X11353800Y11849100D02*
X12573000Y10629900D01*
X9182300Y11849100D02*
X11353800D01*
X9296600Y11963400D02*
X11360729D01*
X9169600Y12090400D02*
X11366500D01*
X9296600Y12217400D02*
X11353800D01*
X12705202Y10865998D01*
X9296600Y11455400D02*
X11446297D01*
X9169400Y11328400D02*
X11434201D01*
X12246600Y10516001D01*
X9296600Y11201400D02*
X11442700D01*
X12178101Y10465999D01*
X9169400Y11074400D02*
X11430000D01*
X12088398Y10416002D01*
X11442700Y10947400D02*
X12024101Y10365999D01*
X9296600Y10947400D02*
X11442700D01*
Y10820400D02*
X11947098Y10316002D01*
X9169400Y10820400D02*
X11442700D01*
X11455400Y10693400D02*
X11882801Y10265999D01*
X9296600Y10693400D02*
X11455400D01*
X9296600Y10439400D02*
X11493500D01*
X11988800Y9944100D01*
X12230100D01*
X9169400Y10566200D02*
X11468300D01*
X12039600Y9994900D01*
X11518900Y10312400D02*
X11938000Y9893300D01*
X9169400Y10312400D02*
X11518900D01*
X9296600Y10185400D02*
X11557000D01*
X11899900Y9842500D02*
X12319000D01*
X12492502Y10016002D02*
X14253699D01*
X12319000Y9842500D02*
X12492502Y10016002D01*
X11938000Y9893300D02*
X12268200D01*
X12440900Y10066000D02*
X14253699D01*
X12268200Y9893300D02*
X12440900Y10066000D01*
X12402002Y10116002D02*
X14253699D01*
X12230100Y9944100D02*
X12402002Y10116002D01*
X12179300Y9994900D02*
X12350399Y10165999D01*
X14253699D01*
X12039600Y9994900D02*
X12179300D01*
X16378702Y10816001D02*
X17648601D01*
X17957800Y11125200D02*
X19405800D01*
X17648601Y10816001D02*
X17957800Y11125200D01*
X17995900Y11252200D02*
X19532800D01*
X16378702Y10865998D02*
X17609698D01*
X17995900Y11252200D01*
X16378702Y10665998D02*
X19035298D01*
X19100800Y10731500D02*
X19545500D01*
X19035298Y10665998D02*
X19100800Y10731500D01*
X18664601Y10265999D02*
X19202400Y9728200D01*
X19532800D01*
X16378702Y10265999D02*
X18664601D01*
X16378702Y10316002D02*
X18741599D01*
X19202400Y9855200D01*
X19405800D01*
X16378702Y10365999D02*
X18831300D01*
X19215100Y9982200D02*
X19532800D01*
X18831300Y10365999D02*
X19215100Y9982200D01*
X16378702Y10416002D02*
X18908298D01*
X19215100Y10109200D02*
X19405800D01*
X18908298Y10416002D02*
X19215100Y10109200D01*
X18998001Y10465999D02*
X19227800Y10236200D01*
X19532800D01*
X16378702Y10465999D02*
X18998001D01*
X16378702Y10516001D02*
X19074998D01*
X19227800Y10363200D02*
X19405800D01*
X19074998Y10516001D02*
X19227800Y10363200D01*
X19316701Y10490200D02*
X19532800D01*
X16378702Y10565999D02*
X19240901D01*
X19316701Y10490200D01*
X16378702Y10916001D02*
X17583501D01*
X18046700Y11379200D02*
X19405800D01*
X17583501Y10916001D02*
X18046700Y11379200D01*
X16378702Y10965998D02*
X17519199D01*
X18059399Y11506200D02*
X19532800D01*
X17519199Y10965998D02*
X18059399Y11506200D01*
X16378702Y11016000D02*
X17454900D01*
X18072099Y11633200D02*
X19405800D01*
X17454900Y11016000D02*
X18072099Y11633200D01*
X19545500Y10731500D02*
X19659801Y10617200D01*
X19532800Y11506200D02*
X19659801Y11379200D01*
X19532800Y11252200D02*
X19659801Y11125200D01*
X16378702Y10616001D02*
X16379301Y10616601D01*
X19405200D01*
X19405800Y10617200D01*
X19532800Y10490200D02*
X19659801Y10363200D01*
X19532800Y10236200D02*
X19659801Y10109200D01*
X19532800Y9728200D02*
X19659801Y9601200D01*
X19532800Y9982200D02*
X19659801Y9855200D01*
X16378702Y9966000D02*
X17250101D01*
X17373599Y9842500D01*
X16650000Y9766000D02*
X16878300Y9537700D01*
X16378702Y9766000D02*
X16650000D01*
X16878300Y9296400D02*
Y9537700D01*
X16378702Y9815998D02*
X16688902D01*
X17043401Y9461500D01*
X16573500Y9410700D02*
Y9588500D01*
X16496001Y9666000D02*
X16573500Y9588500D01*
X16378702Y9666000D02*
X16496001D01*
X9042600Y11709400D02*
X9182300Y11849100D01*
X13487399Y11722100D02*
X13639799D01*
X14145900Y11216000D01*
X13309599Y11887200D02*
X13525500D01*
X14146698Y11266002D01*
X13131799Y12026900D02*
X13436600D01*
X14147501Y11316000D01*
X12953999Y12192000D02*
X13322301D01*
X14148299Y11366002D01*
X12763500Y12331700D02*
X13233400D01*
X14149100Y11416000D01*
X13309599Y11341100D02*
X13462000D01*
X13687100Y11116000D02*
X14253699D01*
X13462000Y11341100D02*
X13687100Y11116000D01*
X13572002Y11065998D02*
X14253699D01*
X13487399Y11150600D02*
X13572002Y11065998D01*
X14145900Y11216000D02*
X14253699D01*
X14146698Y11266002D02*
X14253699D01*
X14147501Y11316000D02*
X14253699D01*
X14148299Y11366002D02*
X14253699D01*
X14149100Y11416000D02*
X14253699D01*
X13854552Y10782300D02*
X13920850Y10716001D01*
X13893800Y10807700D02*
X13935503Y10765998D01*
X13900729Y10833100D02*
X13917828Y10816001D01*
X9042600Y11963400D02*
X9169600Y12090400D01*
X13917828Y10816001D02*
X14253699D01*
X12705202Y10865998D02*
X14253699D01*
X13935503Y10765998D02*
X14253699D01*
X13741400Y10680700D02*
X13806099Y10616001D01*
X14253699D01*
X13920850Y10716001D02*
X14253699D01*
X9042600Y10947400D02*
Y10947600D01*
X9169400Y11074400D01*
X9042600Y10693400D02*
Y10693600D01*
X9169400Y10820400D01*
X9042600Y10439400D02*
X9169400Y10566200D01*
X9042600Y10185600D02*
X9169400Y10312400D01*
X12178101Y10465999D02*
X14253699D01*
X12335698Y10565999D02*
X14253699D01*
X11446297Y11455400D02*
X12335698Y10565999D01*
X12246600Y10516001D02*
X14253699D01*
X12088398Y10416002D02*
X14253699D01*
X12024101Y10365999D02*
X14253699D01*
X11947098Y10316002D02*
X14253699D01*
X11882801Y10265999D02*
X14253699D01*
X11557000Y10185400D02*
X11899900Y9842500D01*
X16471899Y12534900D02*
X17780000D01*
X19532600Y14287500D01*
X16014700Y12153900D02*
X16471899Y12611100D01*
X17716499D02*
X19519901Y14414500D01*
X16471899Y12611100D02*
X17716499D01*
X17614900Y12674600D02*
X19481799Y14541499D01*
X17500600Y12725400D02*
X19443700Y14668500D01*
X19481799Y14541499D02*
X20231100D01*
X19519901Y14414500D02*
X20104100D01*
X19532600Y14287500D02*
X20231100D01*
X19532600Y14160500D02*
X20104100D01*
X17791980Y12419880D02*
X19532600Y14160500D01*
X19443700Y14668500D02*
X20104100D01*
X19431000Y14922501D02*
X20104100D01*
X19431000Y14795500D02*
X20231100D01*
X17411700Y12776200D02*
X19431000Y14795500D01*
X19443700Y15049500D02*
X20231100D01*
X19456400Y15176500D02*
X20104100D01*
X14991202Y11603502D02*
Y12857602D01*
X15138400Y13004800D01*
X14668500Y11779900D02*
Y11925300D01*
X14741200Y11603502D02*
Y11707200D01*
X14668500Y11779900D02*
X14741200Y11707200D01*
X20231100Y14287500D02*
X20358099Y14160500D01*
X20231100Y14541499D02*
X20358099Y14414500D01*
X20231100Y15049500D02*
X20358099Y14922501D01*
X20231100Y14795500D02*
X20358099Y14668500D01*
X15141199Y9385074D02*
Y9478498D01*
X16091200Y6705700D02*
Y9478498D01*
X15938499Y6553000D02*
X16091200Y6705700D01*
X15684500Y6553000D02*
X15816864Y6685364D01*
X15430499Y6553000D02*
X15562865Y6685364D01*
X15176500Y6553000D02*
X15303500Y6680000D01*
X14922501Y6553000D02*
X15049500Y6680000D01*
X15659100Y9218402D02*
Y9220402D01*
X15679750Y9241052D01*
X15683099D02*
X15702609Y9260562D01*
X15679750Y9241052D02*
X15683099D01*
X15641199Y9377802D02*
Y9478498D01*
Y9377802D02*
X15659100Y9359900D01*
X15702609Y9260562D02*
Y9333250D01*
X15691200Y9344659D02*
X15702609Y9333250D01*
X15691200Y9344659D02*
Y9478498D01*
X14160500Y6553000D02*
X14287500Y6680000D01*
X13652499Y6553000D02*
X13779500Y6680000D01*
X13144501Y6553000D02*
X13274507Y6683007D01*
X14668500Y6553000D02*
X14790308Y6674808D01*
X14414500Y6553000D02*
X14541499Y6680000D01*
X13906500Y6553000D02*
X14033501Y6680000D01*
X15184450Y9241052D02*
X15187801D01*
X15207310Y9260562D01*
Y9332238D01*
X15163800Y9218402D02*
Y9220402D01*
X15184450Y9241052D01*
X15191202Y9348347D02*
Y9478498D01*
Y9348347D02*
X15207310Y9332238D01*
X15163800Y9296400D02*
Y9362474D01*
X15141199Y9385074D02*
X15163800Y9362474D01*
X13398500Y6553000D02*
X13525500Y6680000D01*
D85*
X1168400Y9944034D02*
Y9791683D01*
X1244575D01*
X1269967Y9817075D01*
Y9842467D01*
X1244575Y9867859D01*
X1168400D01*
X1244575D01*
X1269967Y9893251D01*
Y9918642D01*
X1244575Y9944034D01*
X1168400D01*
X1320751D02*
Y9791683D01*
X1422318D01*
X1574669Y9944034D02*
X1473101D01*
Y9791683D01*
X1574669D01*
X1473101Y9867859D02*
X1523885D01*
X1777803Y9791683D02*
Y9893251D01*
X1828586Y9944034D01*
X1879370Y9893251D01*
Y9791683D01*
Y9867859D01*
X1777803D01*
X1930154Y9791683D02*
Y9893251D01*
X2006329D01*
X2031721Y9867859D01*
Y9791683D01*
X2107896Y9918642D02*
Y9893251D01*
X2082504D01*
X2133288D01*
X2107896D01*
Y9817075D01*
X2133288Y9791683D01*
X2285639D02*
X2234855D01*
X2209463Y9817075D01*
Y9867859D01*
X2234855Y9893251D01*
X2285639D01*
X2311030Y9867859D01*
Y9842467D01*
X2209463D01*
X2361814Y9791683D02*
Y9893251D01*
X2437989D01*
X2463381Y9867859D01*
Y9791683D01*
X2514165D02*
Y9893251D01*
X2590340D01*
X2615732Y9867859D01*
Y9791683D01*
X2691907Y9893251D02*
X2742691D01*
X2768083Y9867859D01*
Y9791683D01*
X2691907D01*
X2666515Y9817075D01*
X2691907Y9842467D01*
X2768083D01*
X2971217Y9944034D02*
Y9791683D01*
Y9842467D01*
X3072784Y9944034D01*
X2996609Y9867859D01*
X3072784Y9791683D01*
X3199743D02*
X3148959D01*
X3123568Y9817075D01*
Y9867859D01*
X3148959Y9893251D01*
X3199743D01*
X3225135Y9867859D01*
Y9842467D01*
X3123568D01*
X3352094Y9791683D02*
X3301310D01*
X3275918Y9817075D01*
Y9867859D01*
X3301310Y9893251D01*
X3352094D01*
X3377485Y9867859D01*
Y9842467D01*
X3275918D01*
X3428269Y9740900D02*
Y9893251D01*
X3504444D01*
X3529836Y9867859D01*
Y9817075D01*
X3504444Y9791683D01*
X3428269D01*
X3606012D02*
X3656795D01*
X3682187Y9817075D01*
Y9867859D01*
X3656795Y9893251D01*
X3606012D01*
X3580620Y9867859D01*
Y9817075D01*
X3606012Y9791683D01*
X3732970Y9893251D02*
Y9817075D01*
X3758362Y9791683D01*
X3834538D01*
Y9893251D01*
X3910713Y9918642D02*
Y9893251D01*
X3885321D01*
X3936105D01*
X3910713D01*
Y9817075D01*
X3936105Y9791683D01*
D86*
X18389600Y7226300D02*
D03*
Y7480300D02*
D03*
Y7734300D02*
D03*
Y7988300D02*
D03*
X13220700Y16014700D02*
D03*
Y16268700D02*
D03*
Y16522701D02*
D03*
Y16776700D02*
D03*
X8331200Y8991600D02*
D03*
X8077200D02*
D03*
X7823200D02*
D03*
X7569200D02*
D03*
X11214100Y6108700D02*
D03*
Y5854700D02*
D03*
Y5600700D02*
D03*
Y5346700D02*
D03*
D87*
X18389600Y8242300D02*
D03*
X13220700Y17030701D02*
D03*
X11214100Y5092700D02*
D03*
D88*
X7315200Y8991600D02*
D03*
D89*
X20952602Y2949702D02*
D03*
X20452603D02*
D03*
X20735100Y17378300D02*
D03*
X20235100D02*
D03*
D90*
X9715500Y4064000D02*
D03*
X9461500D02*
D03*
X9207500D02*
D03*
X8699500D02*
D03*
X8445500D02*
D03*
X7937500D02*
D03*
X7429500D02*
D03*
X7175500D02*
D03*
X7683500D02*
D03*
X8191500D02*
D03*
X8953500D02*
D03*
X21894800Y6680200D02*
D03*
Y7188200D02*
D03*
Y7696200D02*
D03*
Y7442200D02*
D03*
Y6934200D02*
D03*
Y6426200D02*
D03*
Y6172200D02*
D03*
X20637500Y4635500D02*
D03*
X20129500D02*
D03*
X19621500D02*
D03*
X19875500D02*
D03*
X20383501D02*
D03*
X20891499D02*
D03*
X21145500D02*
D03*
X17792700Y6210300D02*
D03*
Y6718300D02*
D03*
Y7226300D02*
D03*
Y6972300D02*
D03*
Y6464300D02*
D03*
Y5956300D02*
D03*
Y5702300D02*
D03*
D91*
X6921500Y4064000D02*
D03*
X19367500Y4635500D02*
D03*
D92*
X21894800Y7950200D02*
D03*
X17792700Y7480300D02*
D03*
D93*
X26009601Y17119600D02*
D03*
Y3200400D02*
D03*
X7010400D02*
D03*
Y17119600D02*
D03*
D94*
X7518400Y12052300D02*
D03*
D95*
Y11798300D02*
D03*
D96*
X20408897Y9042400D02*
D03*
X14859000Y15582899D02*
D03*
D97*
X20154898Y9042400D02*
D03*
X14605000Y15582899D02*
D03*
D98*
X9296600Y9931400D02*
D03*
X19659801Y9093200D02*
D03*
D99*
X20358099Y14160500D02*
D03*
D100*
Y14414500D02*
D03*
Y14668500D02*
D03*
Y14922501D02*
D03*
Y15176500D02*
D03*
Y15430499D02*
D03*
Y15684500D02*
D03*
Y15938499D02*
D03*
X20104100Y14160500D02*
D03*
Y14414500D02*
D03*
Y14668500D02*
D03*
Y14922501D02*
D03*
Y15176500D02*
D03*
Y15430499D02*
D03*
Y15684500D02*
D03*
Y15938499D02*
D03*
D101*
X12890500Y6553000D02*
D03*
D102*
X7467600Y9588500D02*
D03*
X10718798Y6642100D02*
D03*
D103*
X7467600Y9842500D02*
D03*
Y10096500D02*
D03*
Y10350500D02*
D03*
X10718798Y7404100D02*
D03*
Y7150100D02*
D03*
Y6896100D02*
D03*
D104*
X8686800Y8534400D02*
D03*
X16840199Y17183099D02*
D03*
D105*
X8686800Y8280400D02*
D03*
Y8026400D02*
D03*
X16840199Y16675101D02*
D03*
Y16929100D02*
D03*
X12217400Y13030200D02*
D03*
X11963400D02*
D03*
D106*
X11709400D02*
D03*
D107*
X8210550Y13855701D02*
D03*
X8445500Y12534900D02*
D03*
X6604000Y13881100D02*
D03*
X6858000Y13055600D02*
D03*
X7200900Y13703300D02*
D03*
X7010400Y13322301D02*
D03*
X8394700Y13512801D02*
D03*
X18910300Y16967200D02*
D03*
X21793201Y14173199D02*
D03*
X21094701Y13398500D02*
D03*
X20942300Y15252699D02*
D03*
X21120100Y14605000D02*
D03*
X21488400Y13576300D02*
D03*
X24828500Y6007100D02*
D03*
X8305800Y17297400D02*
D03*
X23456900Y6477000D02*
D03*
X23888699Y6781800D02*
D03*
X22771100Y6870700D02*
D03*
X17145000Y5549900D02*
D03*
X16903700Y5562600D02*
D03*
X18757899Y12331700D02*
D03*
X19215100Y13271500D02*
D03*
X17348199Y12115800D02*
D03*
X17589500Y12141200D02*
D03*
X17716499Y11963400D02*
D03*
X15963901Y12700000D02*
D03*
X15722600Y12065000D02*
D03*
X15316200Y12801601D02*
D03*
X15532100Y13042900D02*
D03*
X16789400Y11633200D02*
D03*
X8648700Y10668000D02*
D03*
X8140700D02*
D03*
X21310600Y2794000D02*
D03*
X20091400D02*
D03*
X21094701Y17525999D02*
D03*
X15544800Y17589500D02*
D03*
X21234399Y8394700D02*
D03*
Y8902700D02*
D03*
X7874000Y12052300D02*
D03*
X19608800Y16827499D02*
D03*
X18097501Y16789400D02*
D03*
X18275301Y16256000D02*
D03*
X17449800Y16586200D02*
D03*
X20828000Y16941800D02*
D03*
X21856700Y16128999D02*
D03*
X21120100Y15468600D02*
D03*
X20726401Y15811501D02*
D03*
X21285201Y16179800D02*
D03*
X20942300D02*
D03*
X20154900Y11277600D02*
D03*
X20751801Y12090400D02*
D03*
X21043900Y12268200D02*
D03*
X7823200Y14998700D02*
D03*
X7340600Y15049500D02*
D03*
X7213600Y15481300D02*
D03*
X7493000D02*
D03*
X9194800Y16929100D02*
D03*
X8915400Y15951199D02*
D03*
X7124700Y14185899D02*
D03*
X7874000Y11633200D02*
D03*
X9385300Y16459200D02*
D03*
X7848600Y14185899D02*
D03*
X8369300Y16167101D02*
D03*
X20485100Y16662399D02*
D03*
X20243800Y16522701D02*
D03*
X24244299Y7086600D02*
D03*
X22275800Y7188200D02*
D03*
X10629900Y8280400D02*
D03*
X10236200Y9194800D02*
D03*
X9474200Y8991600D02*
D03*
X9067800Y5867400D02*
D03*
X11010900Y9982200D02*
D03*
X9791700Y9207500D02*
D03*
X9601200Y9931400D02*
D03*
X13893800Y8496300D02*
D03*
X8178800Y10185400D02*
D03*
X15646400Y11366500D02*
D03*
X11976100Y16446500D02*
D03*
X22390100Y11404600D02*
D03*
X22593300D02*
D03*
X22796500D02*
D03*
X22999699D02*
D03*
X23202901D02*
D03*
X23406100D02*
D03*
X23609300D02*
D03*
X23812500D02*
D03*
X24015700D02*
D03*
X24218900D02*
D03*
X24422099D02*
D03*
X24625301D02*
D03*
X24828500D02*
D03*
X25031700D02*
D03*
X25234900D02*
D03*
X25095200Y11772900D02*
D03*
X24892000D02*
D03*
X24688800D02*
D03*
X24485600D02*
D03*
X24282401D02*
D03*
X24079201D02*
D03*
X23875999D02*
D03*
X23672800D02*
D03*
X23469600D02*
D03*
X23266400D02*
D03*
X23063200D02*
D03*
X22860001D02*
D03*
X22656799D02*
D03*
X22453600D02*
D03*
X21145500Y8013700D02*
D03*
X12306300Y16992599D02*
D03*
X12065000Y17564101D02*
D03*
X15925800Y15011400D02*
D03*
X16395700Y15709900D02*
D03*
X15430499Y15544800D02*
D03*
X12217400Y14871700D02*
D03*
X11290198Y17454703D02*
D03*
X12585700Y17157700D02*
D03*
X15570200Y14732001D02*
D03*
X16230600D02*
D03*
X14414500D02*
D03*
X13576300D02*
D03*
X13500101Y14427200D02*
D03*
X15532100Y15049500D02*
D03*
X12103100Y15481300D02*
D03*
X14173199Y15405099D02*
D03*
X13411200Y15811501D02*
D03*
X14160500Y15646400D02*
D03*
X14109700Y17183099D02*
D03*
X14033501Y17640300D02*
D03*
X6604000Y5511800D02*
D03*
Y4648200D02*
D03*
X6997700Y4876800D02*
D03*
X9740900Y13322301D02*
D03*
X9232900Y14109700D02*
D03*
X9525000Y14732001D02*
D03*
X10160000Y13855701D02*
D03*
X7874000Y15494000D02*
D03*
X16459200Y16560800D02*
D03*
X12344400Y9093200D02*
D03*
X11633200Y9182100D02*
D03*
X11328400Y9702800D02*
D03*
X12509500Y9791700D02*
D03*
X8788400Y9931400D02*
D03*
X16383000Y7353300D02*
D03*
X21920200Y12496800D02*
D03*
X20993100Y10490200D02*
D03*
X21742400Y10172700D02*
D03*
X20802600Y10198100D02*
D03*
X12103100Y10147300D02*
D03*
X12953999Y9017000D02*
D03*
X14465300Y8724900D02*
D03*
X13055600Y13398500D02*
D03*
X10147300Y14465300D02*
D03*
X10464800Y14554201D02*
D03*
X11049000Y14808200D02*
D03*
X11569700Y13436600D02*
D03*
X12420600Y13906500D02*
D03*
X10210800Y14884399D02*
D03*
X6896100Y15798801D02*
D03*
X6680200Y15049500D02*
D03*
X11480800Y13855701D02*
D03*
X12573000Y14439900D02*
D03*
X8699500Y11455400D02*
D03*
X9626600Y11696700D02*
D03*
X18211800Y10134600D02*
D03*
X18135600Y10985500D02*
D03*
X17754601Y10134600D02*
D03*
X16154401Y10718800D02*
D03*
X16141701Y10160000D02*
D03*
X16573500Y9410700D02*
D03*
X16878300Y9296400D02*
D03*
X17373599Y9842500D02*
D03*
X17043401Y9461500D02*
D03*
Y9702800D02*
D03*
X17246600Y7505700D02*
D03*
X16383000Y8712200D02*
D03*
Y8039100D02*
D03*
X13487399Y11722100D02*
D03*
X13309599Y11887200D02*
D03*
X13131799Y12026900D02*
D03*
X12953999Y12192000D02*
D03*
X12763500Y12331700D02*
D03*
X13817599Y11239500D02*
D03*
X13487399Y11150600D02*
D03*
X13309599Y11341100D02*
D03*
X13741400Y10680700D02*
D03*
X15512833Y13328433D02*
D03*
X16548100Y13423900D02*
D03*
X14363699Y13220700D02*
D03*
X14173199Y13093700D02*
D03*
X13855701Y13690601D02*
D03*
X14998700Y13817599D02*
D03*
Y13627100D02*
D03*
X14160500Y12649200D02*
D03*
X14300200Y12484100D02*
D03*
X14414500Y12306300D02*
D03*
X14554201Y12115800D02*
D03*
X14668500Y11925300D02*
D03*
X15138400Y13004800D02*
D03*
Y11366500D02*
D03*
X16370300Y12179300D02*
D03*
X16637000Y12153900D02*
D03*
X16865601Y12077700D02*
D03*
X17106900D02*
D03*
X16268700Y13423900D02*
D03*
X17017999Y11480800D02*
D03*
X16548100Y14084300D02*
D03*
X13728700Y12052300D02*
D03*
X13627100Y12611100D02*
D03*
X14605000Y10668000D02*
D03*
X13589000Y11506200D02*
D03*
X11811000Y14084300D02*
D03*
X12052300Y13957300D02*
D03*
X16040100Y9740900D02*
D03*
X15036800Y9728200D02*
D03*
X15570200D02*
D03*
X20789900Y7708900D02*
D03*
X16941800Y8547100D02*
D03*
X11290198Y17149902D02*
D03*
X6604000Y6261100D02*
D03*
X24485600Y7480300D02*
D03*
X24650700Y6540500D02*
D03*
X19088100Y5549900D02*
D03*
X20205701Y6832600D02*
D03*
X19481799Y6527800D02*
D03*
X19367500Y8305800D02*
D03*
X19113499Y8191500D02*
D03*
X18783299Y8102600D02*
D03*
X19875500Y17538699D02*
D03*
X15557500Y16383000D02*
D03*
Y17233900D02*
D03*
X16141701Y16738600D02*
D03*
Y11366500D02*
D03*
X14617700Y16598900D02*
D03*
X14897099Y14312900D02*
D03*
X14414500Y14478000D02*
D03*
X14312900Y14147800D02*
D03*
X15697200Y14071600D02*
D03*
X13754100Y16192500D02*
D03*
X16967200Y13423900D02*
D03*
X17106900Y13944600D02*
D03*
X16154401Y13931900D02*
D03*
X14008099Y13855701D02*
D03*
X15036800Y16776700D02*
D03*
X14579601Y16878300D02*
D03*
X17043401Y14312900D02*
D03*
X16141701Y14287500D02*
D03*
X13995399D02*
D03*
X16598900Y14452600D02*
D03*
X15671800Y14439900D02*
D03*
X13411200Y14122400D02*
D03*
X14617700Y11277600D02*
D03*
X19812000Y6184900D02*
D03*
X20142200Y6172200D02*
D03*
X19494501Y6184900D02*
D03*
X20154900Y6527800D02*
D03*
X20142200Y7137400D02*
D03*
X19494501D02*
D03*
X19812000Y7480300D02*
D03*
X20129500Y7493000D02*
D03*
X19494501D02*
D03*
X14185899Y9169400D02*
D03*
X14592300Y9728200D02*
D03*
X6477000Y7467600D02*
D03*
X7645400Y6540500D02*
D03*
X6807200D02*
D03*
X7213600Y7112000D02*
D03*
Y6350000D02*
D03*
X7645400Y6731000D02*
D03*
Y6921500D02*
D03*
X6807200Y6731000D02*
D03*
X7404100Y7112000D02*
D03*
X7035800D02*
D03*
X7404100Y6350000D02*
D03*
D108*
X7687700Y13034500D02*
D03*
X7577700D02*
D03*
X7687700Y13144501D02*
D03*
X7577700D02*
D03*
X7687700Y13254500D02*
D03*
X7577700D02*
D03*
D109*
X9042600Y12979401D02*
D03*
Y12725400D02*
D03*
Y12471400D02*
D03*
Y12217400D02*
D03*
Y11963400D02*
D03*
Y11709400D02*
D03*
Y11455400D02*
D03*
Y11201400D02*
D03*
Y10947400D02*
D03*
Y10693400D02*
D03*
Y10439400D02*
D03*
Y10185400D02*
D03*
Y9931400D02*
D03*
X9296600Y12979401D02*
D03*
Y12725400D02*
D03*
Y12471400D02*
D03*
Y12217400D02*
D03*
Y11963400D02*
D03*
Y11709400D02*
D03*
Y11455400D02*
D03*
Y11201400D02*
D03*
Y10947400D02*
D03*
Y10693400D02*
D03*
Y10439400D02*
D03*
Y10185400D02*
D03*
X19405800Y12141200D02*
D03*
Y11887200D02*
D03*
Y11633200D02*
D03*
Y11379200D02*
D03*
Y11125200D02*
D03*
Y10871200D02*
D03*
Y10617200D02*
D03*
Y10363200D02*
D03*
Y10109200D02*
D03*
Y9855200D02*
D03*
Y9601200D02*
D03*
Y9347200D02*
D03*
Y9093200D02*
D03*
X19659801Y12141200D02*
D03*
Y11887200D02*
D03*
Y11633200D02*
D03*
Y11379200D02*
D03*
Y11125200D02*
D03*
Y10871200D02*
D03*
Y10617200D02*
D03*
Y10363200D02*
D03*
Y10109200D02*
D03*
Y9855200D02*
D03*
Y9601200D02*
D03*
Y9347200D02*
D03*
X15938499Y6807000D02*
D03*
X15684500D02*
D03*
X15430499D02*
D03*
X15176500D02*
D03*
X14922501D02*
D03*
X14668500D02*
D03*
X14414500D02*
D03*
X14160500D02*
D03*
X13906500D02*
D03*
X13652499D02*
D03*
X13398500D02*
D03*
X13144501D02*
D03*
X12890500D02*
D03*
X15938499Y6553000D02*
D03*
X15684500D02*
D03*
X15430499D02*
D03*
X15176500D02*
D03*
X14922501D02*
D03*
X14668500D02*
D03*
X14414500D02*
D03*
X14160500D02*
D03*
X13906500D02*
D03*
X13652499D02*
D03*
X13398500D02*
D03*
X13144501D02*
D03*
%TF.MD5,2ef85344ae5f80173406ee760d08ab6b*%
M02*
