%TF.GenerationSoftware,Altium Limited,Altium Designer,23.9.2 (47)*%
G04 Layer_Color=128*
%FSLAX45Y45*%
%MOMM*%
%TF.SameCoordinates,7747E0AE-D8E6-467E-A507-EEFEC3D8B4F9*%
%TF.FilePolarity,Positive*%
%TF.FileFunction,Paste,Bot*%
%TF.Part,Single*%
G01*
G75*
%TA.AperFunction,SMDPad,CuDef*%
%ADD110R,2.29000X0.76000*%
%ADD111R,0.76000X2.29000*%
D110*
X9030100Y12979401D02*
D03*
Y12725400D02*
D03*
Y12471400D02*
D03*
Y12217400D02*
D03*
Y11963400D02*
D03*
Y11709400D02*
D03*
Y11455400D02*
D03*
Y11201400D02*
D03*
Y10947400D02*
D03*
Y10693400D02*
D03*
Y10439400D02*
D03*
Y10185400D02*
D03*
Y9931400D02*
D03*
X9309100Y12979401D02*
D03*
Y12725400D02*
D03*
Y12471400D02*
D03*
Y12217400D02*
D03*
Y11963400D02*
D03*
Y11709400D02*
D03*
Y11455400D02*
D03*
Y11201400D02*
D03*
Y10947400D02*
D03*
Y10693400D02*
D03*
Y10439400D02*
D03*
Y10185400D02*
D03*
Y9931400D02*
D03*
X19393300Y12141200D02*
D03*
Y11887200D02*
D03*
Y11633200D02*
D03*
Y11379200D02*
D03*
Y11125200D02*
D03*
Y10871200D02*
D03*
Y10617200D02*
D03*
Y10363200D02*
D03*
Y10109200D02*
D03*
Y9855200D02*
D03*
Y9601200D02*
D03*
Y9347200D02*
D03*
Y9093200D02*
D03*
X19672301Y12141200D02*
D03*
Y11887200D02*
D03*
Y11633200D02*
D03*
Y11379200D02*
D03*
Y11125200D02*
D03*
Y10871200D02*
D03*
Y10617200D02*
D03*
Y10363200D02*
D03*
Y10109200D02*
D03*
Y9855200D02*
D03*
Y9601200D02*
D03*
Y9347200D02*
D03*
Y9093200D02*
D03*
D111*
X15938499Y6540500D02*
D03*
Y6819500D02*
D03*
X15684500D02*
D03*
X15430499D02*
D03*
X15176500D02*
D03*
X14922501D02*
D03*
X14668500D02*
D03*
X14414500D02*
D03*
X14160500D02*
D03*
X13906500D02*
D03*
X13652499D02*
D03*
X13398500D02*
D03*
X13144501D02*
D03*
X12890500D02*
D03*
X15684500Y6540500D02*
D03*
X15430499D02*
D03*
X15176500D02*
D03*
X14922501D02*
D03*
X14668500D02*
D03*
X14414500D02*
D03*
X14160500D02*
D03*
X13906500D02*
D03*
X13652499D02*
D03*
X13398500D02*
D03*
X13144501D02*
D03*
X12890500D02*
D03*
%TF.MD5,3f4e360169b1d0483f47a2eb3342ffed*%
M02*
